<?xml version="1.0" encoding="UTF-8" standalone="no"?>
<!-- Created with Inkscape (http://www.inkscape.org/) -->

<svg
   xmlns:dc="http://purl.org/dc/elements/1.1/"
   xmlns:cc="http://creativecommons.org/ns#"
   xmlns:rdf="http://www.w3.org/1999/02/22-rdf-syntax-ns#"
   xmlns:svg="http://www.w3.org/2000/svg"
   xmlns="http://www.w3.org/2000/svg"
   xmlns:sodipodi="http://sodipodi.sourceforge.net/DTD/sodipodi-0.dtd"
   xmlns:inkscape="http://www.inkscape.org/namespaces/inkscape"
   width="200mm"
   height="100mm"
   viewBox="0 0 200 100"
   version="1.1"
   id="svg8"
   sodipodi:docname="edit-menu-barrier.svg"
   inkscape:version="0.92.4 (unknown)">
  <defs
     id="defs2">
    <inkscape:path-effect
       effect="bspline"
       id="path-effect829"
       is_visible="true"
       weight="33.333333"
       steps="2"
       helper_size="0"
       apply_no_weight="true"
       apply_with_weight="true"
       only_selected="false" />
    <inkscape:path-effect
       effect="bspline"
       id="path-effect829-3"
       is_visible="true"
       weight="33.333333"
       steps="2"
       helper_size="0"
       apply_no_weight="true"
       apply_with_weight="true"
       only_selected="false" />
  </defs>
  <sodipodi:namedview
     id="base"
     pagecolor="#ffffff"
     bordercolor="#666666"
     borderopacity="1.0"
     inkscape:pageopacity="0.0"
     inkscape:pageshadow="2"
     inkscape:zoom="0.98994949"
     inkscape:cx="355.9598"
     inkscape:cy="157.45759"
     inkscape:document-units="mm"
     inkscape:current-layer="layer1"
     showgrid="false"
     inkscape:window-width="1920"
     inkscape:window-height="1024"
     inkscape:window-x="0"
     inkscape:window-y="27"
     inkscape:window-maximized="1" />
  <metadata
     id="metadata5">
    <rdf:RDF>
      <cc:Work
         rdf:about="">
        <dc:format>image/svg+xml</dc:format>
        <dc:type
           rdf:resource="http://purl.org/dc/dcmitype/StillImage" />
        <dc:title></dc:title>
      </cc:Work>
    </rdf:RDF>
  </metadata>
  <g
     inkscape:label="Layer 1"
     inkscape:groupmode="layer"
     id="layer1"
     transform="translate(0,-197)">
    <path
       style="fill:#73706d;stroke:none;stroke-width:0.26458332px;stroke-linecap:butt;stroke-linejoin:miter;stroke-opacity:1;fill-opacity:1"
       d="m 56.035228,203.07292 c -15.84349,-0.31499 -30.836204,0.12597 -38.805512,10.45742 -7.9693079,10.33145 -8.9142087,30.55233 -5.669872,45.51429 3.244337,14.96197 10.677699,24.66314 24.663014,29.57686 13.985314,4.91373 34.521947,5.03972 46.396614,-0.44109 11.874667,-5.48082 15.087464,-16.56812 17.418258,-31.27738 2.33079,-14.70926 3.77975,-33.0417 -3.842657,-42.74293 -7.622404,-9.70124 -24.316355,-10.77218 -40.159845,-11.08717 z"
       id="path827"
       inkscape:connector-curvature="0"
       inkscape:path-effect="#path-effect829"
       inkscape:original-d="m 55.184522,202.31696 c -14.992792,0.44071 -29.985506,0.88167 -44.979165,1.32292 -0.9446974,20.22192 -1.8895978,40.4428 -2.8348211,60.66518 7.4339411,9.70131 14.8673021,19.40248 22.3005961,29.10417 20.537042,0.12572 41.073675,0.25171 61.610118,0.37797 3.213061,-11.08757 6.425859,-22.17487 9.63839,-33.2619 1.44913,-18.33152 2.89808,-36.66396 4.34672,-54.99553 -16.693673,-1.0712 -33.387624,-2.14214 -50.081838,-3.21281 z"
       sodipodi:nodetypes="cccccccc" />
    <path
       transform="translate(94.764034,0.39820537)"
       style="fill:#cf463a;fill-opacity:1;stroke:none;stroke-width:0.26458332px;stroke-linecap:butt;stroke-linejoin:miter;stroke-opacity:1"
       d="m 56.035228,203.07292 c -15.84349,-0.31499 -30.836204,0.12597 -38.805512,10.45742 -7.9693079,10.33145 -8.9142087,30.55233 -5.669872,45.51429 3.244337,14.96197 10.677699,24.66314 24.663014,29.57686 13.985314,4.91373 34.521947,5.03972 46.396614,-0.44109 11.874667,-5.48082 15.087464,-16.56812 17.418258,-31.27738 2.33079,-14.70926 3.77975,-33.0417 -3.842657,-42.74293 -7.622404,-9.70124 -24.316355,-10.77218 -40.159845,-11.08717 z"
       id="path827-6"
       inkscape:connector-curvature="0"
       inkscape:path-effect="#path-effect829-3"
       inkscape:original-d="m 55.184522,202.31696 c -14.992792,0.44071 -29.985506,0.88167 -44.979165,1.32292 -0.9446974,20.22192 -1.8895978,40.4428 -2.8348211,60.66518 7.4339411,9.70131 14.8673021,19.40248 22.3005961,29.10417 20.537042,0.12572 41.073675,0.25171 61.610118,0.37797 3.213061,-11.08757 6.425859,-22.17487 9.63839,-33.2619 1.44913,-18.33152 2.89808,-36.66396 4.34672,-54.99553 -16.693673,-1.0712 -33.387624,-2.14214 -50.081838,-3.21281 z"
       sodipodi:nodetypes="cccccccc" />
    <path
       style="opacity:1;fill:#d9dddd;fill-opacity:1;stroke:none;stroke-width:1;stroke-linecap:butt;stroke-linejoin:round;stroke-miterlimit:4;stroke-dasharray:none;stroke-dashoffset:0;stroke-opacity:1"
       id="path951"
       d="m 18.882063,235.89769 c -0.06444,-2.53383 0.829987,-4.97277 1.641584,-7.33386 0.661572,-1.55433 0.891869,-2.21751 1.729886,-3.69359 0.333567,-0.58754 0.704667,-1.15328 1.076776,-1.7172 0.691735,-1.04831 1.448836,-2.05225 2.14972,-3.09445 0.343282,-0.51046 0.671695,-1.03076 1.007543,-1.54614 0.977276,-1.55409 1.917843,-3.13144 2.921037,-4.66923 0.302017,-0.46296 0.599982,-0.92911 0.922965,-1.37769 0.723564,-1.00495 0.896212,-1.15081 1.674735,-2.00504 0.627428,-0.55859 0.410703,-0.42863 0.972685,-0.76038 0.124789,-0.0737 0.252627,-0.2879 0.377855,-0.21499 0.669088,0.38959 1.27513,0.90143 1.791647,1.4782 0.08969,0.10015 -0.08556,0.25497 -0.124209,0.38374 -0.03262,0.10868 -0.05969,0.21895 -0.08955,0.32843 -0.325025,1.11414 0.09544,2.11407 0.443595,3.16489 0.439928,1.3883 0.884192,2.78569 1.123484,4.22591 0.16024,0.96442 0.195069,1.6309 0.275394,2.60399 -0.0038,0.89406 0.01905,1.26212 -0.06728,2.11443 -0.0031,0.031 -0.111868,0.87878 -0.189193,1.04166 -0.01109,0.0234 -0.05343,-0.0142 -0.06948,-0.0345 -0.206232,-0.26037 -0.394954,-0.53415 -0.592431,-0.80122 -1.142143,0.0861 -1.500518,0.29867 -1.010674,-0.0336 0.07664,-0.052 0.139591,-0.15474 0.232172,-0.15258 0.07951,0.002 -0.102936,0.15541 -0.182449,0.15374 -0.05279,-0.001 -0.0088,-0.10524 -0.01315,-0.15786 0.401791,-2.00509 1.057087,-3.96834 1.986553,-5.79236 0.232153,-0.45559 0.501351,-0.89133 0.752028,-1.33699 0.585237,-0.93157 1.284292,-1.76551 2.090687,-2.50951 0.247785,-0.22861 0.509381,-0.43365 0.742945,-0.67683 0.02281,-0.38811 0.02072,-0.78712 0.108071,-1.17202 0.03215,-0.14166 0.08198,-0.27871 0.122979,-0.41806 0.240927,-0.62724 0.657886,-1.11557 1.231183,-1.45647 0.02932,0.055 -0.0024,0.008 0.121838,-0.0463 0.777843,-0.33856 0.663119,-0.29724 1.834901,0.45451 0.07118,0.0457 0.338749,0.72469 0.379246,0.82322 0.839356,2.13188 1.29082,4.38392 1.81374,6.60685 0.155241,0.75924 0.325442,1.51557 0.465727,2.27771 0.35632,1.93579 0.46636,2.83818 0.689171,4.78113 0.170862,1.48995 0.228272,2.3628 0.425738,3.81417 0.06908,0.50772 0.15757,1.01261 0.236358,1.51891 0.215566,1.20025 0.521795,2.38123 0.761206,3.57647 0.112366,0.56098 0.216453,1.06696 0.178745,1.63578 -0.152456,1.05971 0.02294,0.61512 -2.291112,0.82164 -0.10182,0.009 -0.110443,-0.17205 -0.165666,-0.25808 -0.06588,-0.15734 2.159277,-1.08911 2.225164,-0.93177 v 0 c 0.0098,0.89509 -2.215073,-0.066 -2.181453,0.94046 -0.350152,-0.43776 -0.568348,-0.96502 -0.773242,-1.48341 -0.474927,-1.20159 -0.83948,-2.44513 -1.183055,-3.6891 -0.24783,-0.91985 -0.676426,-2.47631 -0.877554,-3.37562 -0.673642,-3.01204 -1.029801,-6.08888 -1.245314,-9.16441 -0.135462,-2.16071 -0.220052,-4.33212 -0.543473,-6.47494 -0.01114,-0.0919 -0.0457,-0.18398 -0.03345,-0.27576 0.0031,-0.0231 0.04586,0.009 0.06802,0.0168 0.434237,0.14455 0.850302,0.35906 1.300943,0.43893 0.02529,0.004 0.545248,-0.33855 0.09171,-0.046 0.0296,-0.0507 0.07447,-0.0925 0.09834,-0.14615 0.05622,-0.12634 -0.287766,0.35345 -0.193881,0.25519 -0.207286,0.64064 -0.134258,1.33136 -0.367925,1.9675 -0.06201,0.14422 -0.116004,0.29215 -0.186034,0.43264 -0.364122,0.73053 -0.904142,1.41063 -1.307893,2.12844 -0.183277,0.32584 -0.351787,0.65977 -0.527682,0.98966 -1.143281,2.28421 -2.165324,4.63954 -3.514575,6.81335 -0.384024,0.51304 -0.298029,0.44819 -0.746178,0.86461 -0.01685,0.0157 0.05891,-0.0491 0.03764,-0.0578 -0.02437,-0.0101 -0.04286,0.0307 -0.06344,0.0472 -0.07292,0.0583 -0.12624,0.15522 -0.217003,0.1772 -0.456994,0.11071 -0.929624,0.14212 -1.394436,0.21317 -0.247222,-0.27938 -0.520208,-0.53793 -0.741662,-0.83815 -0.09704,-0.13156 -0.225668,-0.64378 -0.254074,-0.78461 -0.171947,-0.85254 -0.215532,-1.72582 -0.289674,-2.58988 -0.06311,-0.96718 -0.07441,-1.37648 -0.196331,-2.33051 -0.174241,-1.3634 -0.48583,-2.70411 -0.828574,-4.03357 -0.376497,-1.59102 -0.700262,-3.08305 -0.06847,-4.66132 0.08154,-0.16598 0.148307,-0.34007 0.244607,-0.49793 0.04897,-0.0803 0.101759,-0.24899 0.187648,-0.21069 0.686046,0.30597 1.252538,0.8407 1.933938,1.15688 0.08719,0.0405 0.183433,-0.21256 0.250184,-0.1434 0.227719,0.23595 -0.853331,0.80118 -0.403685,0.89711 -0.736198,1.25886 -0.340707,0.58849 -1.188696,2.00978 -1.219068,2.07959 -2.385256,4.19171 -3.712575,6.20609 -0.355965,0.53133 -0.707549,1.06562 -1.067901,1.59399 -1.010171,1.48115 -2.079818,2.92615 -2.966106,4.48829 -0.307921,0.54273 -0.591112,1.09937 -0.868698,1.65822 -0.281219,0.56617 -0.53822,1.14405 -0.807331,1.71608 -0.653889,1.44826 -1.331184,2.88942 -1.921085,4.36556 -0.487843,1.22076 -0.23438,0.65688 -0.638355,1.72994 -0.06162,0.16368 -0.131449,0.32414 -0.197173,0.4862 -0.02862,0.171 -2.446833,-0.23369 -2.418218,-0.40468 z"
       inkscape:connector-curvature="0" />
    <path
       style="opacity:1;fill:#d9dddd;fill-opacity:1;stroke:none;stroke-width:1;stroke-linecap:butt;stroke-linejoin:round;stroke-miterlimit:4;stroke-dasharray:none;stroke-dashoffset:0;stroke-opacity:1"
       id="path953"
       d="m 56.661137,224.62728 c -1.175735,0.63451 -2.428063,1.1202 -3.665527,1.62035 -0.01376,0.0625 -0.928757,0.30849 -0.965629,0.44426 -0.0063,0.0231 0.03427,0.0366 0.03985,0.0599 0.02122,0.0886 0.02982,0.17993 0.03926,0.27058 0.01876,0.17998 0.0302,0.36064 0.0453,0.54097 0.131654,1.27698 0.192778,2.55453 0.134334,3.83698 -0.03273,0.53412 -0.0371,0.83307 0.316723,1.23321 0.02561,0.007 0.05368,0.007 0.07684,0.0199 0.199729,0.11039 0.106947,0.112 0.317926,0.1916 0.158401,0.0598 0.329322,0.0803 0.490038,0.13352 0.144983,0.048 0.286705,0.10537 0.430056,0.15805 0.165677,0.0725 0.329144,0.15023 0.49703,0.21744 0.168183,0.0673 0.342427,0.11878 0.510675,0.18595 0.610069,0.24353 1.209958,0.53965 1.842789,0.72378 0.195831,0.057 0.39855,0.0868 0.597826,0.13028 0.412972,0.0421 0.775359,0.0957 1.191834,0.0733 0.04995,-0.003 -0.194471,-0.0243 -0.14577,-0.0357 0.162177,-0.0381 0.332883,-0.0217 0.497549,-0.0469 0.27304,-0.0418 0.277485,-0.0583 0.481595,-0.15808 0.01019,-0.0202 0.02823,-0.0382 0.03053,-0.0607 0.0047,-0.0462 -0.0081,-0.0925 -0.01013,-0.13892 -0.0046,-0.10293 -0.0056,-0.20598 -0.0097,-0.30892 -0.0199,-0.49131 -0.07189,-0.97401 -0.13014,-1.46215 -0.147543,-1.0507 -0.132742,-2.11801 -0.286938,-3.16694 -0.177427,-0.75247 -0.48218,-1.46461 -0.822764,-2.15554 -0.125619,-0.21501 -0.214564,-0.50808 -0.437799,-0.65264 -0.108489,-0.0703 -0.106275,-0.0181 -0.221276,-0.0152 -0.06407,0.002 -0.127929,-0.008 -0.191892,-0.0122 -0.0656,0.004 -0.131151,0.0132 -0.196797,0.0107 -0.611528,-0.0237 0.06977,-0.0361 -0.478694,-0.036 -0.06721,1e-5 -0.268672,0.01 -0.201486,0.008 0.507688,-0.014 0.573974,-0.003 0.291851,-0.0261 -0.152701,-0.009 -0.0781,-0.007 -0.223782,-0.006 -0.155757,0.0603 -1.008623,-2.14242 -0.852865,-2.20273 v 0 c 0.184081,-0.047 0.08407,-0.0216 0.300074,-0.076 0.588746,-0.11998 1.48013,-0.12327 2.102969,-0.005 0.153353,0.0291 0.303155,0.0745 0.454732,0.11175 0.145312,0.0581 0.29646,0.10323 0.435935,0.17418 0.740505,0.37666 1.24356,1.01666 1.624335,1.73826 0.44027,0.86707 0.767221,1.78282 0.994487,2.72894 0.251021,1.10778 0.350089,2.23395 0.41324,3.36665 0.07942,1.08404 0.251388,2.27212 -0.216686,3.2994 -0.11394,0.25006 -0.292455,0.46532 -0.438679,0.69797 -0.560965,0.49542 -0.601004,0.62216 -1.322705,0.88765 -0.92219,0.33923 -2.138834,0.29829 -3.103166,0.15009 -0.280686,-0.0431 -0.555643,-0.11764 -0.833467,-0.17646 -0.262125,-0.0858 -0.527309,-0.16267 -0.786378,-0.25725 -0.980229,-0.35787 -1.889628,-0.87983 -2.823541,-1.33871 -0.72386,-0.36749 -1.449401,-0.75082 -1.972955,-1.39077 -0.07667,-0.10838 -0.160285,-0.21216 -0.230003,-0.32514 -0.399917,-0.64806 -0.56592,-1.39822 -0.628682,-2.14856 -0.106269,-1.27157 -0.190304,-2.54466 -0.198149,-3.82133 0.0095,-0.35163 0.0159,-1.09057 0.08535,-1.41829 0.238384,-1.12474 0.873852,-1.78339 1.855385,-2.31486 0.590344,-0.28784 0.917821,-0.46365 1.54269,-0.69875 0.817486,-0.30758 1.679906,-0.52426 2.539019,-0.67213 0.149547,-0.0859 1.364964,2.02898 1.215416,2.11492 z"
       inkscape:connector-curvature="0" />
    <path
       style="opacity:1;fill:#d9dddd;fill-opacity:1;stroke:none;stroke-width:1;stroke-linecap:butt;stroke-linejoin:round;stroke-miterlimit:4;stroke-dasharray:none;stroke-dashoffset:0;stroke-opacity:1"
       id="path955"
       d="m 64.083024,226.28572 c 0.921806,1.93376 1.333326,4.05205 1.629852,6.15821 0.07571,0.75111 0.13775,1.5036 0.217332,2.25433 0.01699,0.1603 0.0241,0.32223 0.05477,0.48048 0.04021,0.20745 0.15008,0.44185 0.231053,0.63483 0.150696,0.31047 0.312955,0.61283 0.453882,0.92799 0.07326,0.16382 0.186891,0.35631 0.179695,0.54065 -0.753756,0.1105 -1.499574,0.31804 -2.26127,0.33151 -0.09715,0.002 -0.0096,-0.19443 -0.0045,-0.29146 0.03055,-0.57698 0.200086,-1.13531 0.362842,-1.68526 0.262049,-0.73526 0.553627,-1.4622 0.948439,-2.13833 0.587705,-1.00648 1.316061,-1.92691 2.031201,-2.84302 0.692988,-0.86814 1.341723,-1.77028 2.061442,-2.6171 0.366395,-0.4311 0.734878,-0.83621 1.18395,-1.17899 0.05062,-0.0274 0.09898,-0.10482 0.151876,-0.0821 0.716198,0.30709 1.394232,0.69648 2.09165,1.04412 0.116205,0.0579 0.09522,-0.30519 -0.0035,-0.38951 -1.277413,-1.09088 -1.029652,-1.10439 -1.795338,-0.71832 0.133096,-0.19914 0.314174,-0.36151 0.489477,-0.52275 0.103111,-0.13915 2.070986,1.31906 1.967875,1.45821 v 0 c -0.245374,0.28333 -0.523359,0.53526 -0.813924,0.77254 -0.175279,0.10229 -0.329533,0.35833 -0.525838,0.30686 -0.585269,-0.15348 -1.132936,-0.47478 -1.596663,-0.86343 -0.127362,-0.10675 -0.0315,-0.33165 -0.02748,-0.49779 0.02394,-0.98975 1.913924,-0.0522 2.238856,0.71827 -0.16143,0.54646 -0.425347,1.03126 -0.727824,1.51543 -0.604469,0.96754 -1.305361,1.87248 -2.010923,2.76695 -0.733451,0.88894 -0.73248,0.89679 -1.47484,1.76132 -0.603864,0.70324 -1.260563,1.38332 -1.662102,2.23091 -0.13425,0.33489 -0.269068,0.6695 -0.407281,1.00279 -0.02143,0.0517 -0.04349,0.10314 -0.06489,0.15485 -0.01447,0.035 -0.0065,0.0944 -0.04274,0.10523 -0.746215,0.22394 -1.508316,0.39104 -2.262473,0.58656 -0.416672,-0.42064 -0.658755,-1.0329 -0.941668,-1.54099 -0.06936,-0.16478 -0.146429,-0.32653 -0.208063,-0.49436 -0.387932,-1.05632 -0.584034,-2.17743 -0.941047,-3.24346 -0.470992,-2.00317 -0.890238,-4.03145 -0.933325,-6.09662 -0.03878,-0.17052 2.372717,-0.71903 2.411502,-0.54851 z"
       inkscape:connector-curvature="0" />
    <path
       style="opacity:1;fill:#d9dddd;fill-opacity:1;stroke:none;stroke-width:1;stroke-linecap:butt;stroke-linejoin:round;stroke-miterlimit:4;stroke-dasharray:none;stroke-dashoffset:0;stroke-opacity:1"
       id="path957"
       d="m 77.641483,231.00143 c 0.888064,-0.15554 1.930646,-0.12783 2.352747,-0.14501 0.309046,-0.0179 0.603887,-0.0765 0.894069,-0.18096 0.104074,-0.0375 0.206449,-0.0906 0.313116,-0.1212 -0.0027,0.006 -0.01053,0.0242 -0.0081,0.018 0.05609,-0.14445 0.08357,-0.29871 0.107617,-0.45164 0.0088,-0.0767 -0.0082,-0.51463 -0.02827,-0.17351 -0.0089,0.011 -0.01249,0.0325 -0.02657,0.0329 -0.02606,5.3e-4 -0.04707,-0.0229 -0.07195,-0.0306 -0.160518,-0.05 -0.05018,0.0139 -0.254104,-0.0731 -0.279804,-0.13948 -0.145621,-0.0781 -0.401243,-0.18701 -0.04032,-0.002 -0.08111,-0.014 -0.120978,-0.007 -0.03882,0.006 -0.07178,0.0326 -0.109056,0.0451 -0.05269,0.0178 -0.215379,0.0373 -0.160422,0.0457 0.159581,0.0246 0.325369,-0.0238 0.484381,0.004 0.06396,0.0113 -0.12704,0.028 -0.188844,0.0479 -0.07829,0.0253 -0.153839,0.0583 -0.230759,0.0875 -0.69796,0.31922 -1.418294,0.58544 -2.124173,0.88525 -0.07525,0.0486 -0.153599,0.0928 -0.225758,0.14592 -0.431864,0.31795 -0.819412,0.69518 -1.210406,1.0602 -0.911005,0.85048 -0.216238,0.20507 -1.170492,1.08921 -0.860423,0.83782 -1.773026,1.70711 -2.253494,2.83376 -0.04807,0.11273 -0.07415,0.2336 -0.111225,0.3504 0.0036,0.0585 -0.0082,0.12018 0.0109,0.17561 0.03568,0.10331 0.312248,0.20731 0.379282,0.25043 0.185598,0.11937 0.363781,0.24991 0.546727,0.37331 0.583536,0.43335 1.264352,0.60437 1.949527,0.79763 0.531085,0.1555 1.047785,0.37388 1.597515,0.46163 0.807257,0.12886 1.652778,0.0639 2.465181,0.0557 1.037635,-0.0541 2.075238,-0.0575 3.112561,0.003 1.463167,0.0856 0.936029,-0.0502 1.769652,0.22585 1.063564,0.55042 1.186923,2.05779 -0.0145,2.44873 -0.607981,0.19783 -1.01147,0.0991 -1.567162,0.0158 -0.167801,-0.0644 0.743342,-2.43749 0.911143,-2.37306 v 0 c 0.0691,0.008 0.271209,-0.005 0.207291,0.0228 -0.147823,0.0632 -0.340127,0.002 -0.473644,0.091 -0.864889,0.58015 0.517504,1.52482 0.125635,2.22117 -0.109186,0.0248 -0.238686,0.006 -0.327562,0.0745 -0.04216,0.0323 0.197329,0.0536 0.145465,0.065 -0.25998,0.0574 -0.529431,0.0579 -0.794885,0.0784 -1.324978,0.10249 -2.659168,0.1429 -3.986099,0.0565 -0.363775,-0.0393 -0.729864,-0.0613 -1.091329,-0.11806 -1.171739,-0.18405 -2.27076,-0.61371 -3.363638,-1.0559 -0.857668,-0.31332 -1.707882,-0.64964 -2.44425,-1.20466 -0.869984,-0.61864 -1.575032,-1.23227 -1.783976,-2.35022 -0.04804,-0.25704 -0.03308,-0.52193 -0.04963,-0.7829 0.04177,-0.26073 0.05946,-0.52648 0.12531,-0.78219 0.405013,-1.57276 1.517806,-2.81208 2.707483,-3.85546 1.075291,-0.88925 2.182035,-1.74922 3.359161,-2.50044 0.714227,-0.32424 1.455497,-0.58158 2.177537,-0.88776 0.238884,-0.10401 0.632526,-0.29387 0.89454,-0.33319 0.881039,-0.13221 1.49402,-0.1342 2.283026,0.23245 0.610709,0.31097 1.173837,0.70084 1.494213,1.32819 0.04256,0.1127 0.09428,0.22236 0.127675,0.3381 0.08905,0.30861 0.07733,0.64085 0.07971,0.95795 -0.03688,0.54323 -0.126439,1.08011 -0.411356,1.55588 -0.07711,0.10927 -0.145367,0.22536 -0.23132,0.32781 -0.53589,0.63877 -1.336844,0.96334 -2.12395,1.16389 -0.191538,0.0332 -0.380821,0.0844 -0.574612,0.0997 -1.090155,0.0862 -2.214597,0.0897 -3.296565,-0.0817 -0.167685,-0.0431 0.441192,-2.41449 0.60888,-2.37143 z"
       inkscape:connector-curvature="0" />
    <path
       style="opacity:1;fill:#d9dddd;fill-opacity:1;stroke:none;stroke-width:1;stroke-linecap:butt;stroke-linejoin:round;stroke-miterlimit:4;stroke-dasharray:none;stroke-dashoffset:0;stroke-opacity:1"
       id="path961"
       d="m 39.174189,248.28574 c -1.22325,1.42282 -2.334215,2.94435 -3.279499,4.56658 -0.351002,0.60236 -0.670653,1.22245 -1.005981,1.83368 -0.332687,0.69666 -0.697534,1.37886 -0.998066,2.08999 -1.073193,2.53944 -1.89829,5.33168 -2.299116,8.05894 -0.381852,2.59817 -0.301839,3.52538 -0.326096,6.13572 0.183653,1.92038 0.196144,3.07084 0.699871,4.88512 0.06666,0.24008 0.45357,1.61519 0.99918,1.84011 0.08539,0.0352 0.222975,-0.18942 0.14374,-0.23688 -0.221951,-0.13293 -0.509561,-0.0899 -0.764341,-0.13481 0.279987,-0.60127 0.129751,-0.25755 0.435813,-1.03752 0.06937,-0.20013 2.899614,0.7809 2.830246,0.98103 v 0 c -0.661612,1.51893 -0.236829,0.774 -1.31672,2.21009 -0.715225,0.25449 -1.389973,0.69116 -2.145673,0.76346 -0.546518,0.0523 -1.106684,-0.1572 -1.596345,-0.40549 -0.538644,-0.27313 -1.02108,-0.67156 -1.420718,-1.12436 -1.101457,-1.24797 -1.785239,-2.93658 -2.167252,-4.52339 -0.255998,-1.06336 -0.322643,-2.16357 -0.483968,-3.24535 0.01553,-3.15454 -0.124686,-3.87013 0.471845,-6.99748 0.583917,-3.06123 1.717066,-6.02802 3.125541,-8.79948 0.388099,-0.76366 0.840484,-1.49291 1.260727,-2.23937 0.439682,-0.64428 0.853694,-1.30685 1.319048,-1.93284 1.184362,-1.5932 2.590141,-3.11913 4.294407,-4.1689 0.152405,-0.0939 0.32063,-0.15923 0.480946,-0.23885 0.121624,-0.12321 1.864032,1.59679 1.742411,1.72 z"
       inkscape:connector-curvature="0" />
    <path
       style="opacity:1;fill:#d9dddd;fill-opacity:1;stroke:none;stroke-width:1;stroke-linecap:butt;stroke-linejoin:round;stroke-miterlimit:4;stroke-dasharray:none;stroke-dashoffset:0;stroke-opacity:1"
       id="path963"
       d="m 37.666287,273.73871 c 0.239466,-1.63945 0.938569,-3.14802 1.679813,-4.6121 0.61641,-1.21753 1.274696,-2.41339 1.912479,-3.61986 1.581381,-2.88699 2.864075,-5.92242 4.286192,-8.88801 1.242351,-2.59073 1.102056,-2.26801 2.410005,-4.73884 0.753793,-1.23625 1.202137,-2.0944 2.110309,-3.17792 0.879409,-1.0492 2.013418,-1.87989 3.518783,-0.90595 0.35137,0.22733 0.171046,0.81933 0.25657,1.22899 -0.03135,0.25786 -0.05863,0.51626 -0.09404,0.77359 -0.100762,0.73216 -0.179798,1.01648 -0.228066,1.77246 -0.04448,0.69669 -0.03089,1.48019 0.03695,2.17188 0.03749,0.38232 0.108519,0.76061 0.162779,1.14092 0.186069,1.05327 0.577885,2.0269 1.125808,2.94045 0.400735,0.66815 0.887489,1.28017 1.345306,1.90886 0.09845,0.15253 0.206816,0.2991 0.295338,0.4576 0.193413,0.34633 0.536996,1.32414 0.204801,1.62434 -1.200246,1.08462 -1.35336,0.82226 -2.08638,0.33483 -0.107551,-0.15697 -0.25032,-0.29491 -0.322651,-0.4709 -0.494068,-1.20215 0.563454,-2.52414 1.159988,-3.46749 1.571184,-2.34236 3.238593,-4.6164 5.068766,-6.76283 0.604388,-0.65473 1.199602,-1.35272 1.992532,-1.78609 0.179023,-0.0978 0.354767,-0.36322 0.542502,-0.28336 0.613714,0.26107 1.069155,0.79757 1.603735,1.19636 -0.04664,0.17298 -0.06641,0.35556 -0.139931,0.51893 -0.05735,0.12745 -0.145404,0.24259 -0.246292,0.33931 -0.583869,0.55971 -1.136711,0.43048 -1.979888,-0.17739 -0.298685,-0.21533 -0.174434,-0.80691 -0.127455,-1.12718 0.266409,-1.14924 0.812033,-1.17656 2.360385,-0.71047 0.170008,0.0512 0.365773,0.99242 0.403831,1.14863 0.216194,0.96928 0.411414,1.94945 0.696201,2.90172 0.425524,1.42288 1.046194,3.04381 1.542595,4.41017 0.386138,1.06286 0.771331,2.12607 1.156999,3.1891 1.310528,3.65881 2.652826,7.31205 3.703314,11.05703 0.623393,2.22239 1.131031,4.2015 1.357442,6.4904 0.07403,0.74842 0.03248,1.5038 0.04872,2.2557 -0.09917,0.47015 -0.101343,0.97181 -0.297492,1.41044 -0.725525,1.62241 -1.741884,1.36194 -3.45681,0.24726 -0.47143,-0.30642 -0.560441,-0.97753 -0.784852,-1.49307 -0.64606,-1.48417 -0.726996,-2.1342 -1.104308,-3.71056 -0.295936,-2.24562 -0.203488,-1.17054 -0.303236,-3.22294 -0.02585,-0.23509 3.298886,-0.60074 3.324741,-0.36564 v 0 c 0.411303,1.84216 0.19572,0.87223 0.64612,2.90993 0.183632,0.90919 0.528294,2.54952 0.665372,3.48189 0.05725,0.38935 0.404794,0.90587 0.117446,1.17477 -0.485516,0.45434 -1.323248,0.23808 -1.926392,0.51802 -0.740971,0.34391 0.01341,1.51926 -0.734076,-0.42165 -0.876665,-2.63758 -1.732862,-5.28206 -2.615255,-7.91772 -0.408998,-1.22166 -0.845468,-2.43418 -1.240481,-3.66043 -1.192331,-3.70142 -1.198125,-3.92004 -2.181272,-7.63779 -0.23118,-1.14084 -0.495488,-2.27545 -0.693539,-3.4225 -0.453668,-2.62749 -0.705226,-5.3098 -0.490606,-7.97352 0.01611,-0.0876 -0.03592,-0.23395 0.04834,-0.26274 0.07987,-0.0273 0.08486,0.18345 0.169117,0.18845 0.627747,0.0372 1.263382,0.026 1.88537,-0.0667 0.01627,-0.002 0.200694,-0.41341 0.09902,-0.13954 -0.01884,0.0507 -0.04117,0.10014 -0.06175,0.15021 -0.331171,-0.0746 1.440437,0.33576 -0.232669,-0.60971 -0.44694,-0.25256 -1.67689,-0.78362 -1.892149,0.0781 -0.02732,0.10935 -0.02582,0.22395 -0.03872,0.33593 2.696224,1.7703 0.82418,1.2397 2.030778,0.79628 0.03844,-0.0141 -0.01233,0.0822 -0.03017,0.1191 -0.294733,0.60949 -0.742797,1.13386 -1.088739,1.71158 -1.567942,2.39098 -3.157646,4.78977 -5.239782,6.77478 -0.490794,0.47147 -0.67809,0.67918 -1.157901,1.06425 -0.06617,0.0531 -0.124524,0.13349 -0.208423,0.14606 -0.04247,0.006 -0.05769,-0.0649 -0.07699,-0.10329 -0.246253,-0.48928 0.03643,-0.0913 -0.310044,-0.523 -0.59095,-0.37132 -0.682376,-0.51217 -1.708558,0.51662 -0.303627,0.3044 0.351454,1.23331 -0.271362,0.71958 -0.13267,-0.10943 -0.257045,-0.22855 -0.385569,-0.34282 -0.472874,-0.45251 -0.786662,-0.7292 -1.215578,-1.25686 -1.181285,-1.45325 -1.869146,-3.02283 -2.199163,-4.86605 -0.05118,-0.48027 -0.132374,-0.95828 -0.153554,-1.44081 -0.075,-1.70851 0.200734,-3.46593 0.951381,-5.00929 0.808519,0.91956 0.0176,0.22067 2.208644,0.4334 0.05171,0.005 0.04367,0.10265 0.03037,0.15287 -0.07191,0.2715 -0.181986,0.53152 -0.281229,0.79427 -0.45376,1.2013 -0.833379,2.09456 -1.33532,3.31639 -0.352155,0.77601 -0.690324,1.55852 -1.056468,2.32804 -0.863224,1.8142 -1.569418,3.13124 -2.503376,4.90774 -1.138497,2.16555 -2.271715,4.33553 -3.511958,6.44534 -1.508056,2.50295 -3.046118,4.99458 -4.832892,7.31158 -0.05085,0.16359 -2.364306,-0.55551 -2.313458,-0.7191 z"
       inkscape:connector-curvature="0" />
    <path
       style="opacity:1;fill:#d9dddd;fill-opacity:1;stroke:none;stroke-width:1;stroke-linecap:butt;stroke-linejoin:round;stroke-miterlimit:4;stroke-dasharray:none;stroke-dashoffset:0;stroke-opacity:1"
       id="path969"
       d="m 79.245001,252.39942 c 0.886849,0.8566 1.55819,1.90938 2.203559,2.9511 0.966131,1.55947 0.942276,1.57375 1.856046,3.24958 1.081596,2.15475 2.25211,4.34263 2.69666,6.74071 0.193913,1.04605 0.123619,1.26864 0.06109,2.27141 -0.168238,1.12342 -0.886878,2.00382 -1.367428,2.9963 -0.38645,0.79813 -0.33292,0.74379 -0.607592,1.61791 -0.469942,1.81664 -0.69265,3.68639 -1.129231,5.50921 -0.191106,0.55097 -0.232645,0.7794 -0.562472,1.27692 -0.606846,0.91537 -1.559978,1.54305 -2.423499,2.19011 -0.912021,0.72074 -0.466053,0.35465 -1.338482,1.09759 -0.138824,0.15958 -2.395773,-1.80369 -2.256949,-1.96328 v 0 c 1.010434,-0.90329 0.487014,-0.47764 1.569453,-1.27795 0.692439,-0.43666 0.730396,-0.47866 1.413153,-0.84579 0.107164,-0.0576 0.728247,-0.30027 0.796203,-0.47295 0.03974,-0.10099 0.04187,-0.21298 0.06281,-0.31947 0.01847,-0.81558 0.02196,-1.63468 0.106646,-2.447 0.130143,-1.2483 0.379193,-2.482 0.822425,-3.6593 0.42386,-1.00582 0.414615,-1.09861 0.960501,-1.9862 0.151704,-0.24667 0.316823,-0.48526 0.489524,-0.71771 0.112051,-0.15083 0.246147,-0.28407 0.363659,-0.43068 0.06021,-0.0751 0.131112,-0.14566 0.16917,-0.2341 0.03621,-0.0841 0.032,-0.18036 0.04801,-0.27055 -0.03536,-0.1866 -0.05213,-0.37771 -0.106088,-0.55981 -0.162702,-0.5491 -0.635743,-1.64797 -0.840605,-2.09793 -0.769207,-1.6895 -1.68154,-3.30843 -2.431282,-5.00732 -0.258003,-0.59255 -0.522034,-1.18252 -0.77401,-1.77766 -0.517006,-1.2211 -0.954833,-2.47677 -1.488138,-3.69057 -0.08962,-0.20397 -0.198792,-0.3989 -0.290208,-0.60207 -0.06464,-0.14366 -0.118489,-0.29193 -0.177731,-0.43789 -0.07796,-0.15379 2.096852,-1.2564 2.174816,-1.10261 z"
       inkscape:connector-curvature="0" />
    <path
       style="opacity:1;fill:#d9dddd;fill-opacity:1;stroke:none;stroke-width:1;stroke-linecap:butt;stroke-linejoin:round;stroke-miterlimit:4;stroke-dasharray:none;stroke-dashoffset:0;stroke-opacity:1"
       id="path991"
       d="m 125.8249,214.3839 c 0.91658,1.85814 1.46167,3.8999 1.75492,5.94666 0.0845,0.58973 0.1241,1.18502 0.18615,1.77754 0.004,1.51289 0.0925,3.37275 -0.70091,4.74346 -0.11032,0.1906 -0.19607,0.44046 -0.39864,0.52687 -0.55508,0.23678 -1.17762,0.26447 -1.76643,0.3967 -0.5509,-0.66704 -0.63846,-0.57481 -0.79776,-1.20818 -0.0253,-0.10053 -0.0349,-0.20452 -0.0456,-0.30763 -0.002,-0.0227 -0.006,-0.0873 0.007,-0.0683 0.59938,0.91066 -0.75244,0.34164 2.14266,0.28018 -0.072,0.14839 -2.17057,-0.8701 -2.09855,-1.01849 v 0 c 0.68774,-0.0594 1.37601,-0.24333 2.06322,-0.17812 0.14303,0.0136 0.77579,1.75709 -0.14754,0.40796 -0.50308,0.15755 -1.01216,0.29708 -1.50924,0.47266 -0.0411,0.0145 -0.0783,0.13429 -0.092,0.0929 -0.0422,-0.12704 -0.006,-0.2677 -0.0106,-0.40152 -0.009,-0.2662 -0.0145,-0.53256 -0.029,-0.79852 -0.0442,-0.8168 -0.12979,-1.84519 -0.19197,-2.64508 -0.12056,-1.32056 -0.16446,-1.92188 -0.32772,-3.2342 -0.18376,-1.47709 -0.48945,-2.94786 -0.50028,-4.44111 -0.0243,-0.17414 2.43838,-0.51799 2.46269,-0.34385 z"
       inkscape:connector-curvature="0" />
    <path
       style="opacity:1;fill:#d9dddd;fill-opacity:1;stroke:none;stroke-width:1;stroke-linecap:butt;stroke-linejoin:round;stroke-miterlimit:4;stroke-dasharray:none;stroke-dashoffset:0;stroke-opacity:1"
       id="path995"
       d="m 121.20885,226.80317 c 1.48142,-0.67482 3.11868,-0.85204 4.72392,-0.96777 0.73023,-0.0387 1.46044,-0.002 2.19014,0.0242 0.12721,0.004 0.25444,0.009 0.38167,0.0127 0.18187,0.006 0.21744,-0.0273 0.14219,0.0252 0.29624,-0.63269 0.63195,-1.24936 0.92518,-1.88343 0.30453,-0.6585 0.49835,-1.1931 0.76363,-1.87651 0.11803,-0.38811 0.25891,-0.77 0.35409,-1.16434 0.36202,-1.50005 0.47332,-3.38296 -0.0439,-4.86169 -0.0971,-0.2776 -0.26543,-0.52489 -0.39814,-0.78733 -0.17287,-0.15283 -0.31566,-0.34871 -0.51862,-0.45847 -0.69107,-0.37375 -1.91646,-0.22606 -2.62995,-0.0868 -0.1635,0.0319 -0.30717,0.1337 -0.46943,0.17138 -0.46524,0.10804 -0.9388,0.17643 -1.40819,0.26464 -1.86795,0.3382 -3.70713,0.83283 -5.59637,1.05039 -1.17467,0.13528 -1.28828,0.10493 -2.43143,0.10745 -2.10956,-0.0944 -1.20026,-0.0275 -2.73042,-0.16318 -0.20061,-0.0631 0.69178,-2.90013 0.89238,-2.83703 v 0 c 0.93163,0.035 0.59423,0.0318 1.01168,0.0341 0.8478,-0.0434 1.16615,-0.0416 2.03308,-0.16615 1.85122,-0.26586 3.63592,-0.84426 5.46845,-1.20242 0.53873,-0.0952 1.07224,-0.2273 1.61619,-0.28572 1.7802,-0.1912 3.74963,-0.33791 5.43767,0.43296 1.24528,0.56868 1.38388,0.9184 2.27477,1.89896 0.2346,0.45408 0.52483,0.88349 0.70379,1.36223 0.76649,2.05044 0.591,4.40944 -0.0623,6.46071 -0.14389,0.45177 -0.35555,0.87908 -0.53332,1.31862 -0.18245,0.36773 -0.35373,0.7412 -0.54734,1.10318 -0.44233,0.82702 -0.53873,0.93643 -1.03475,1.65328 -0.0945,0.13662 -0.68256,0.98425 -0.79794,1.13464 -0.13681,0.17831 -0.28619,0.34661 -0.42929,0.51992 -0.19081,0.15095 -0.36668,0.32302 -0.57244,0.45286 -0.80082,0.50534 -2.16885,0.48271 -3.07277,0.62802 -0.94144,0.0599 -1.88227,0.13506 -2.82411,0.18807 -0.46006,0.0259 -0.92042,0.0666 -1.38113,0.0584 -0.10662,-0.002 -0.21177,-0.0252 -0.31765,-0.0378 -0.15015,0.0791 -1.26941,-2.04425 -1.11927,-2.1234 z"
       inkscape:connector-curvature="0" />
    <path
       style="opacity:1;fill:#d9dddd;fill-opacity:1;stroke:none;stroke-width:1;stroke-linecap:butt;stroke-linejoin:round;stroke-miterlimit:4;stroke-dasharray:none;stroke-dashoffset:0;stroke-opacity:1"
       id="path997"
       d="m 136.85276,222.181 c 0.53659,0.93624 0.69577,2.01208 0.87068,3.06004 0.17268,0.80846 0.22261,1.63446 0.32912,2.45226 0.0311,0.3676 0.11485,0.72733 0.16364,1.09245 0.037,0.27661 0.0501,0.55468 0.10319,0.82874 0.007,0.0317 0.0469,0.11618 0.0223,0.095 -0.0435,-0.0375 -0.0572,-0.0998 -0.0857,-0.14965 -0.63436,-0.0442 -1.26737,-0.14815 -1.90308,-0.13254 -0.0871,0.002 -0.11854,0.23916 -0.18589,0.18385 -0.0895,-0.0735 -0.0112,-0.2315 -0.0132,-0.34735 -0.003,-0.1709 -0.001,-0.34186 -0.002,-0.51278 0.006,-1.32686 0.005,-2.65081 -0.0842,-3.9751 -0.0488,-0.94334 -0.17227,-1.9055 0.0437,-2.83883 0.0405,-0.17515 0.10517,-0.34384 0.15775,-0.51576 0.46089,-1.07852 1.21012,-1.57802 2.24929,-2.01695 0.10988,-0.0439 0.21917,-0.0893 0.32964,-0.13163 0.29284,-0.11234 0.18756,-0.0584 0.4542,-0.1758 0.18589,-0.0818 0.56148,-0.27256 0.73011,-0.28833 0.38175,-0.0357 0.76675,0.0106 1.15013,0.0159 1.09823,0.41952 2.0021,1.19475 2.93173,1.89238 0.43737,0.33836 0.86177,0.69127 1.27361,1.06001 0.13229,0.11573 -1.5043,1.9867 -1.6366,1.87097 v 0 c -0.57726,-0.28369 -1.11828,-0.62793 -1.62015,-1.03208 -0.61184,-0.49268 -1.18214,-1.03641 -1.82589,-1.48858 0.21797,-0.017 0.4402,-0.005 0.65392,-0.0511 0.0301,-0.006 0.0394,-0.0872 0.009,-0.092 -0.0559,-0.009 -0.10559,0.0418 -0.15521,0.0691 -0.28256,0.15538 -0.54152,0.35605 -0.84833,0.46653 -0.23309,0.10722 -0.40135,0.19318 -0.64471,0.27245 -0.19463,0.0634 -0.42454,0.0881 -0.56455,0.25304 -0.23742,0.81793 0.005,1.69253 0.0601,2.52091 0.16741,1.47546 0.29628,2.94294 0.0325,4.41926 -0.0445,0.23031 -0.33287,1.71068 -0.56286,1.77926 -1.62689,0.4851 -1.9384,0.41499 -2.37814,-0.57923 -0.0396,-0.12416 -0.0857,-0.24645 -0.11894,-0.37248 -0.15832,-0.60067 -0.16589,-1.2336 -0.26059,-1.84487 -0.10026,-0.77577 -0.23635,-1.54234 -0.46302,-2.2931 -0.12079,-0.54246 -0.21994,-1.08454 -0.32133,-1.63058 -0.0549,-0.29581 -0.14462,-0.66549 -0.19019,-0.96511 -0.0172,-0.11336 -0.0234,-0.22811 -0.0351,-0.34217 -0.0393,-0.16511 2.29572,-0.72114 2.33504,-0.55603 z"
       inkscape:connector-curvature="0" />
    <path
       style="opacity:1;fill:#d9dddd;fill-opacity:1;stroke:none;stroke-width:1;stroke-linecap:butt;stroke-linejoin:round;stroke-miterlimit:4;stroke-dasharray:none;stroke-dashoffset:0;stroke-opacity:1"
       id="path999"
       d="m 149.53518,224.4749 c -0.55941,0.28003 -1.18014,0.38438 -1.76342,0.59877 -0.22284,0.0686 -0.3205,0.28138 -0.41654,0.47663 -0.16996,0.34552 -0.17866,0.37652 -0.3385,0.74043 -0.46076,0.98207 -0.83745,1.98437 -1.14336,3.02393 -0.0399,0.29892 -0.21144,0.61255 -0.1576,0.92322 0.0293,0.16883 0.189,0.34333 0.282,0.47623 0.0618,0.0896 0.12439,0.17864 0.18549,0.2687 0.12227,0.18022 0.23984,0.3636 0.36242,0.54361 0.0439,0.0645 0.0881,0.12895 0.13443,0.19177 0.10276,0.13932 0.0761,0.17692 0.11048,0.1148 -0.38353,-0.42689 -0.0941,-0.19265 -1.15333,-0.23366 -0.0283,-0.001 -0.0948,0.0339 -0.0848,0.007 0.0399,-0.10532 0.12117,-0.19011 0.1883,-0.28055 0.32847,-0.44253 0.43443,-0.54174 0.81553,-0.97193 0.76261,-0.82323 1.66129,-1.50315 2.74771,-1.8149 0.0526,-0.009 0.10669,-0.0429 0.15792,-0.0276 0.0241,0.007 -0.0293,0.0409 -0.0434,0.0617 -0.13551,0.19867 -0.30858,0.3766 -0.40561,0.59664 -0.0601,0.13623 0.0119,0.30954 -0.0531,0.44349 -0.0274,0.0564 -0.0527,-0.11387 -0.0793,-0.17064 -0.0326,-0.0695 -0.0657,-0.13881 -0.0986,-0.20822 -0.26954,-0.82177 -0.40931,-1.67748 -0.64618,-2.50958 -0.0627,-0.24365 -0.14967,-0.47687 -0.27104,-0.69662 -0.0196,-0.0354 -0.0773,-0.1405 -0.0664,-0.10155 0.005,0.0186 0.0162,0.0351 0.0244,0.0526 1.77169,0.27888 0.91244,0.53195 1.94557,-0.78779 0.0347,-0.0444 0.10091,-0.10563 0.14996,-0.0779 0.1466,0.0828 0.24137,0.23531 0.35254,0.36176 0.19282,0.21934 0.95297,1.17157 1.09905,1.35343 1.10482,1.3484 2.05719,2.81219 3.16911,4.1541 0.0304,0.0361 0.13851,0.10784 0.0913,0.10829 -0.0694,5.3e-4 -0.11882,-0.0716 -0.17823,-0.10747 -0.42516,0.0726 -0.90877,-0.009 -1.27548,0.21767 -0.24704,0.15296 -0.23733,0.53045 -0.35894,0.79434 -0.0119,0.0257 -0.0166,0.0879 -0.0413,0.0741 -0.0486,-0.0271 -0.0561,-0.0961 -0.0841,-0.14414 -0.14662,-0.33151 -0.078,-0.14259 -0.18621,-0.57356 -0.0371,-0.16844 2.3452,-0.69262 2.38226,-0.52416 v 0 c 0.0465,0.14165 0.0135,0.0462 0.10877,0.28285 0.17762,0.51491 0.40495,1.28919 -0.15872,1.726 -0.86315,0.66887 -1.58548,0.29644 -2.32251,-0.0955 -0.17862,-0.12708 -0.36699,-0.24147 -0.53588,-0.38124 -1.34336,-1.11172 -2.29243,-2.62068 -3.24822,-4.05432 -0.52421,-0.86976 -2.26503,-3.38484 -0.65599,-4.21458 0.41175,-0.21232 0.91955,0.11361 1.37932,0.17041 0.60417,0.51068 0.99231,1.10416 1.23505,1.86449 0.22926,0.82391 0.4034,1.6583 0.49579,2.5092 0.14596,0.81053 0.20566,1.43367 -0.60692,1.96985 -0.65274,0.40666 -1.25852,0.86773 -1.79611,1.42225 -0.45372,0.42986 -0.89822,0.89218 -1.39193,1.27714 -0.17683,0.13789 -0.33263,0.33396 -0.55064,0.38641 -1.16583,0.28047 -1.09007,0.21176 -1.79607,-0.20245 -0.54719,-0.4741 -0.98819,-1.04006 -1.34179,-1.67313 -0.0768,-0.14201 -0.16345,-0.27907 -0.23025,-0.42602 -0.38383,-0.84438 -0.41333,-1.75598 -0.22492,-2.65386 0.28467,-1.19234 0.67487,-2.35854 1.30452,-3.41803 0.44488,-0.86827 0.95404,-1.72647 1.77243,-2.29334 0.65278,-0.34472 1.3445,-0.63433 2.09187,-0.67281 0.15015,-0.0791 1.26941,2.04425 1.11927,2.1234 z"
       inkscape:connector-curvature="0" />
    <path
       style="opacity:1;fill:#d9dddd;fill-opacity:1;stroke:none;stroke-width:1;stroke-linecap:butt;stroke-linejoin:round;stroke-miterlimit:4;stroke-dasharray:none;stroke-dashoffset:0;stroke-opacity:1"
       id="path1009"
       d="m 160.5466,223.64304 c 0.64968,0.54258 1.12102,1.27142 1.57542,1.97801 0.48548,0.78855 0.71922,1.68551 0.93976,2.57504 0.1306,0.7512 0.42563,1.45267 0.65946,2.17284 0.21507,0.62657 0.34286,1.27925 0.34055,1.94188 -0.0502,0.22014 -0.0217,0.3788 0.009,0.59294 -0.0766,-0.75329 -0.62793,-0.63552 -1.44295,-0.82848 -0.0516,-0.0122 -0.10037,0.0749 -0.1493,0.0546 -0.0332,-0.0138 0.0189,-0.0703 0.0374,-0.10105 0.0623,-0.10375 0.13573,-0.20034 0.2036,-0.3005 0.44072,-0.6698 0.96313,-1.27659 1.61235,-1.74905 0.4024,-0.24256 0.78213,-0.52005 1.16461,-0.79235 0.62635,-0.42036 1.24773,-0.8425 1.9185,-1.1896 0.41076,-0.15892 0.83636,-0.42966 1.27355,-0.51147 0.2056,-0.10889 0.4306,-0.14921 0.63744,-0.24525 0.52532,-0.242 1.0354,-0.33908 1.63819,-0.21785 0.39484,0.0794 0.64973,0.43576 0.89788,0.7028 0.57337,0.87323 0.81268,1.90385 1.06581,2.9038 0.10449,0.45122 0.17076,0.90815 0.24494,1.36457 0.1094,0.69846 0.0215,0.14762 0.0247,0.14564 0.0234,-0.0143 0.002,0.0684 0.0274,0.0775 0.021,0.007 0.007,-0.0449 0.003,-0.0668 -0.0299,-0.16697 -0.0822,-0.10823 -0.0109,-0.16757 0.0468,0.0444 0.0906,0.0923 0.14039,0.1333 0.19258,0.15842 -0.12538,-0.20914 -0.22615,-0.20185 -0.95411,0.069 -0.88337,0.0381 -1.28447,0.31999 0.2128,-0.82854 0.53027,-1.62819 0.87553,-2.4093 0.53361,-1.09424 1.06401,-2.20353 1.76373,-3.20455 0.16421,-0.23493 0.34647,-0.45672 0.51971,-0.68507 0.78972,-0.99086 1.7043,-1.85857 2.80677,-2.48742 0.085,-0.0409 0.16989,-0.0818 0.25483,-0.12274 0.1296,-0.11552 1.76338,1.7172 1.63378,1.83273 v 0 c -0.0493,0.0446 -0.0985,0.0893 -0.14779,0.13394 -0.75644,0.65692 -1.51554,1.31716 -2.09235,2.14692 -0.82547,1.06322 -1.5957,2.17361 -2.22677,3.36485 -0.41076,0.80333 -0.77071,1.62969 -1.16396,2.44102 -0.10398,0.15178 -0.1489,0.37006 -0.31192,0.45534 -1.17689,0.61569 -1.55379,0.60087 -2.34229,-0.16164 -0.18404,-0.21382 -0.23294,-0.24589 -0.36599,-0.52207 -0.0875,-0.18168 -0.0666,-0.29792 -0.13456,-0.47714 -0.0145,-0.0383 0.0123,0.081 0.0184,0.12155 -0.30838,-0.38486 -0.38952,-1.00383 -0.59138,-1.44293 -0.20506,-0.70364 -0.38945,-1.42413 -0.51425,-2.14429 0.0843,0.0621 0.24095,0.18488 0.32837,0.19398 1.27083,0.13234 0.75504,-0.0807 0.48023,-0.0411 -0.14589,0.0542 -0.28515,0.11832 -0.43223,0.16409 -0.0535,0.0166 -0.10144,0.0535 -0.15712,0.0596 -0.21545,0.0233 0.24863,-0.11024 -5.3e-4,-0.0342 -0.35827,0.21751 -0.7331,0.40706 -1.09353,0.62166 -0.29747,0.1476 -0.60323,0.28965 -0.88914,0.45911 -0.31374,0.18596 -0.29201,0.20179 -0.59496,0.39201 -0.0937,0.0588 -0.19123,0.11149 -0.28685,0.16723 -0.37363,0.22045 -0.7576,0.4154 -1.12871,0.63799 -0.47333,0.3717 -0.70253,0.96701 -1.12209,1.39098 -0.23153,0.27496 -0.9047,1.14087 -1.27638,1.14313 -1.23272,0.007 -1.68581,-0.0922 -1.92086,-1.06632 -0.0266,-0.2581 -0.0934,-0.51194 -0.0913,-0.77336 -0.0679,-0.44214 -0.22204,-0.86885 -0.35995,-1.29266 -0.31599,-0.78886 -0.62831,-1.58197 -0.79519,-2.41873 -0.12595,-0.6402 -0.21892,-1.29237 -0.63324,-1.82232 -0.4458,-0.62338 -0.93633,-1.21723 -1.31931,-1.8836 -0.0939,-0.14219 1.91699,-1.46996 2.01088,-1.32777 z"
       inkscape:connector-curvature="0" />
    <path
       style="opacity:1;fill:#d9dddd;fill-opacity:1;stroke:none;stroke-width:1;stroke-linecap:butt;stroke-linejoin:round;stroke-miterlimit:4;stroke-dasharray:none;stroke-dashoffset:0;stroke-opacity:1"
       id="path1013"
       d="m 116.40851,236.40299 c 0.36004,1.90878 0.63252,3.83535 0.8759,5.76242 0.0743,1.37082 0.29023,2.80932 -0.0604,4.16366 -0.0937,0.36191 -0.3413,0.74578 -0.50548,1.05145 -1.46872,-0.34291 -2.22056,0.0345 -2.19601,-1.17533 -0.0224,-0.16574 2.32142,-0.48264 2.34383,-0.3169 v 0 c 0.35584,0.94378 -0.81213,0.31544 -1.94025,0.04 -0.10279,0.2115 -0.15071,0.46003 -0.30837,0.63451 -0.0465,0.0515 -0.0772,-0.11714 -0.0998,-0.18278 -0.0589,-0.17127 -0.10505,-0.34709 -0.14336,-0.52411 -0.24349,-1.12523 -0.33938,-2.27666 -0.45608,-3.41949 -0.13152,-2.00334 -0.32038,-4.04529 0.0593,-6.03341 0,-0.17188 2.43069,-0.17188 2.43069,0 z"
       inkscape:connector-curvature="0" />
    <path
       style="opacity:1;fill:#d9dddd;fill-opacity:1;stroke:none;stroke-width:1;stroke-linecap:butt;stroke-linejoin:round;stroke-miterlimit:4;stroke-dasharray:none;stroke-dashoffset:0;stroke-opacity:1"
       id="path1015"
       d="m 114.32143,247.72402 c 1.31165,-0.42732 2.66015,-0.73598 4.00249,-1.05047 0.40583,-0.0876 1.19288,-0.26088 1.61463,-0.33939 0.19141,-0.0356 0.38375,-0.0665 0.57653,-0.0937 0.12627,-0.0179 0.42782,-0.0871 0.38127,0.0316 -0.0785,0.20025 -0.19854,0.38162 -0.29781,0.57242 0.017,0.22154 0.0341,0.44307 0.0511,0.6646 0.006,0.0437 0.0592,0.14956 0.0192,0.13101 -0.10374,-0.048 -0.1721,-0.15142 -0.24795,-0.23696 -0.35942,-0.40534 -0.45603,-0.77111 -0.59566,-1.2811 -0.15796,-0.49672 -0.0777,-1.38002 -0.40384,-1.79399 -0.0293,-0.0371 -0.075,-0.0576 -0.11248,-0.0864 -0.0339,-0.0153 -0.16941,-0.0847 -0.21679,-0.0763 -0.0326,0.006 -0.0285,0.0715 -0.0609,0.0784 -0.10768,0.0227 -0.28355,-0.0213 -0.37081,-0.0352 -0.73321,-0.17845 -1.42987,-0.45766 -2.10611,-0.78816 -0.1343,-0.12863 -0.41239,-0.20423 -0.55378,-0.33382 -0.007,-0.007 -0.007,-0.0212 -0.002,-0.0302 1.09366,-2.12628 0.37491,-1.76357 1.26239,-2.15805 -0.10807,-0.0222 -0.38752,0.0236 -0.3242,-0.0668 0.0833,-0.11885 0.28564,-0.0518 0.42781,-0.0811 0.57905,-0.11913 1.1725,-0.22429 1.73594,-0.40634 0.16852,-0.0544 0.33153,-0.12466 0.4973,-0.18699 0.202,-0.10616 0.50949,-0.22074 0.58267,-0.47602 0.0413,-0.14398 -0.10826,-0.36765 -0.16426,-0.47778 -0.0543,-0.0924 -0.10001,-0.19043 -0.163,-0.27713 -0.46261,-0.63671 -1.40034,-1.1333 -2.08264,-1.48035 -0.51367,-0.2087 -1.04019,-0.40965 -1.58777,-0.51181 -0.12386,-0.0231 -0.40186,0.082 -0.37571,-0.0413 0.0277,-0.13038 0.6218,0.0846 0.27587,-0.0332 -0.0976,-0.0111 -0.0573,-0.0177 -0.1836,0.0748 -0.50491,0.36999 0.0649,-0.007 -0.5624,0.43743 -0.40385,0.28624 -0.45698,0.29532 -0.92087,0.54689 -0.94237,0.40902 -1.92265,0.71573 -2.91121,0.9897 -0.16548,0.0959 -1.52116,-2.24441 -1.35567,-2.34027 v 0 c 0.91034,-0.36226 1.84743,-0.67143 2.81477,-0.84045 0.11111,-0.0253 0.22526,-0.0398 0.33331,-0.076 0.64315,-0.21548 1.07337,-0.7971 1.68952,-1.06379 0.17536,-0.0631 0.34094,-0.16792 0.52607,-0.1892 1.42639,-0.16394 2.82701,0.20479 4.08299,0.85716 0.24639,0.15768 0.50299,0.30046 0.73918,0.47305 0.9767,0.71368 1.77635,1.66507 2.21161,2.7977 0.1447,0.55192 0.24869,0.77319 0.21207,1.35881 -0.0497,0.79476 -0.38597,1.51333 -0.95272,2.07252 -0.19137,0.18881 -0.42508,0.32923 -0.63763,0.49384 -0.63386,0.3082 -0.79728,0.42574 -1.48807,0.60625 -1.00774,0.26335 -2.0754,0.24357 -3.10463,0.20133 -1.02682,-0.31486 -0.46544,-0.0299 0.60707,-2.19805 0.0172,-0.0348 0.0784,0.002 0.116,0.0115 0.0258,0.007 0.42809,0.15105 0.44961,0.1589 0.0843,0.0307 0.16834,0.0624 0.25251,0.0936 0.32607,0.13272 0.64525,0.27741 0.96672,0.42078 0.096,0.0428 0.31136,0.14555 0.43186,0.17881 0.0317,0.009 0.0654,0.008 0.0981,0.0119 0.81594,0.0443 1.44881,0.35166 1.99785,0.96898 0.11545,0.1711 0.24788,0.33188 0.34634,0.51329 0.37646,0.69362 0.44322,1.4914 0.46556,2.26378 -0.004,0.0482 -0.0367,0.10101 -0.0151,0.14426 0.009,0.0185 0.12201,0.15114 0.13461,0.16613 0.49361,0.58707 0.26195,0.20249 0.50565,1.24377 -0.1154,0.27105 -0.19507,0.56028 -0.3462,0.81316 -0.13494,0.22579 -0.55267,0.49311 -0.77094,0.60459 -0.69571,0.35535 -1.46965,0.50644 -2.21391,0.72023 -1.46443,0.33209 -2.95258,0.61446 -4.45868,0.63821 -0.16186,0.058 -0.98259,-2.23094 -0.82074,-2.28897 z"
       inkscape:connector-curvature="0" />
    <path
       style="opacity:1;fill:#d9dddd;fill-opacity:1;stroke:none;stroke-width:1;stroke-linecap:butt;stroke-linejoin:round;stroke-miterlimit:4;stroke-dasharray:none;stroke-dashoffset:0;stroke-opacity:1"
       id="path1017"
       d="m 127.89638,244.21096 c -0.58017,0.47508 -1.27026,0.77975 -1.90785,1.16511 -0.20456,0.12179 -0.2353,0.0995 -0.27558,0.35636 -0.0955,0.55521 -0.11462,1.12103 -0.17024,1.68211 -0.0999,0.11328 0.0425,1.03653 -0.005,0.42593 0.31234,-0.0552 0.78868,0.37113 1.02014,0.5533 0.0661,0.0213 0.11592,0.0732 0.1783,0.10108 0.0123,0.005 0.0337,0.011 0.0404,-8e-4 0.008,-0.0139 0.002,-0.0427 -0.0141,-0.0457 -0.6481,-0.12393 -0.51469,-0.14352 -0.7818,-0.10146 0.49107,-0.2797 0.99815,-0.51597 1.53823,-0.68382 0.004,0.0131 0.0165,0.0267 0.0114,0.0393 -0.0169,0.0417 -0.0524,0.0736 -0.0733,0.11348 -0.1574,0.2996 -0.14973,0.40932 -0.1445,0.0563 0.001,-0.0756 0.002,-0.15129 0.003,-0.22693 0.0221,-0.8963 0.29945,-1.74927 0.6943,-2.54552 0.0627,-0.10181 0.12207,-0.20581 0.18823,-0.30544 0.14138,-0.2129 0.30711,-0.41877 0.48785,-0.60041 0.0133,-0.0134 0.0529,-0.0485 0.0476,-0.0304 -0.0211,0.0727 -0.0655,0.13645 -0.0983,0.20467 -0.0231,0.11075 -0.0504,0.22072 -0.0695,0.33223 -0.007,0.0382 0.0142,0.0838 -0.007,0.11603 -0.0128,0.0192 -0.0241,-0.0404 -0.028,-0.0631 -0.0182,-0.10767 -0.0316,-0.2164 -0.0377,-0.32543 -0.009,-0.16826 0.01,-0.30613 0.0257,-0.47102 0.0402,-0.29757 0.0579,-0.59856 0.0681,-0.89867 0.0213,-1.43939 0.72856,-1.01086 2.39526,-0.6518 0.10145,0.0219 0.0877,0.18811 0.13184,0.28201 0.032,0.0681 0.0644,0.13605 0.0967,0.20407 0.27945,0.50312 0.40204,1.07313 0.5911,1.61316 0.34493,0.7554 0.74282,1.48379 1.09168,2.23714 0.18289,0.45946 0.40648,0.90175 0.59406,1.35877 0.0102,0.0243 0.0169,0.0505 0.0306,0.073 0.0328,0.0541 -0.044,-0.10572 0.005,-0.0566 0.13655,0.13559 0.24996,0.32371 0.34853,0.48557 0.0743,0.15145 -2.06749,1.20222 -2.14179,1.05077 v 0 c -0.10372,-0.18043 -0.23628,-0.34441 -0.35175,-0.51632 -0.1281,-0.0447 -0.30599,-0.34166 -0.36237,-0.42543 -0.21435,-0.31848 -0.38704,-0.66164 -0.568,-0.9994 -0.42189,-0.83941 -0.82861,-1.69457 -1.09508,-2.59776 -0.12544,-0.49565 -0.22204,-0.99462 -0.4652,-1.44925 -0.32596,-0.96655 0.13705,0.004 1.94347,-0.34286 0.13038,-0.025 0.0933,-0.24879 0.1322,-0.37572 0.007,-0.0235 0.001,-0.0977 0.006,-0.0735 0.01,0.0559 0.007,0.11316 0.0109,0.16974 0.0135,0.3942 -0.002,0.78746 -0.0856,1.17449 -0.0178,0.0862 -0.0239,0.13115 -0.0348,0.11803 -0.0168,-0.0202 -0.0259,-0.10071 -0.0261,-0.0744 -5.3e-4,0.0493 0.0194,0.0968 0.0255,0.14576 0.0489,0.3929 0.0312,0.25558 -0.0411,0.73931 -0.13807,0.29783 -0.29905,0.58334 -0.41704,0.89069 -0.25585,0.57048 -0.49302,1.15441 -0.64079,1.76325 -0.10349,0.7554 -0.12194,1.31934 -0.79043,1.84227 -0.57459,0.35365 -1.21685,0.5808 -1.83239,0.85198 -0.14433,0.0422 -0.28268,0.12246 -0.43299,0.12653 -0.90575,0.0245 -1.18621,-0.0782 -1.82742,-0.51573 -0.29514,-0.19021 -0.66901,-0.21802 -0.94745,-0.44918 -0.11543,-0.0984 -0.24383,-0.18339 -0.34631,-0.29523 -0.54505,-0.59482 -0.66363,-1.38552 -0.59337,-2.16055 0.066,-0.65948 0.16959,-1.32173 0.37116,-1.95453 0.15412,-0.55949 0.34287,-1.11248 0.73595,-1.5551 0.10508,-0.10613 0.20329,-0.21953 0.31522,-0.31841 0.58458,-0.51648 1.3121,-0.83352 2.03261,-1.10969 0.13772,-0.10271 1.59027,1.845 1.45255,1.94771 z"
       inkscape:connector-curvature="0" />
    <path
       style="opacity:1;fill:#d9dddd;fill-opacity:1;stroke:none;stroke-width:1;stroke-linecap:butt;stroke-linejoin:round;stroke-miterlimit:4;stroke-dasharray:none;stroke-dashoffset:0;stroke-opacity:1"
       id="path1019"
       d="m 137.13222,243.63764 c 0.51192,0.8262 0.80643,1.77041 0.91839,2.7336 0.0244,0.20974 0.0288,0.42132 0.0432,0.63198 0.0245,0.7159 -0.0933,1.41871 -0.37821,2.07637 -0.026,0.06 -0.2607,0.51515 -0.30131,0.59428 -0.17607,0.24291 -0.20227,0.51992 -0.18196,0.0922 -0.27767,-0.70544 -0.12257,-0.47065 -1.78857,-0.57788 -0.12526,-0.008 -0.15621,0.2256 -0.27863,0.2533 -0.0639,0.0145 0.0138,-0.13038 0.0225,-0.19534 0.0654,-0.48778 0.0537,-0.37855 0.16326,-0.92961 0.24656,-1.00832 0.43287,-2.03855 0.79217,-3.01609 0.0642,-0.17475 0.1429,-0.34384 0.21435,-0.51576 0.39965,-0.78276 1.07138,-1.53135 2.01183,-1.60005 0.31889,-0.0233 0.63945,0.006 0.95918,0.009 0.47195,0.008 0.004,-0.004 -0.359,0.0298 -0.0346,0.003 0.0665,0.0304 0.1009,0.0257 0.0718,-0.01 0.19251,-0.0627 0.24888,-0.0845 1.08795,-0.41837 1.67868,0.10806 2.30141,0.84179 0.1272,0.1512 0.23907,0.31294 0.38301,0.44874 0.10305,0.13761 -1.84307,1.59509 -1.94613,1.45747 v 0 c -0.16998,-0.18379 -0.33534,-0.36938 -0.48089,-0.57366 -0.0519,-0.0666 -0.12186,-0.1218 -0.15715,-0.19844 -0.006,-0.014 0.0235,0.0201 0.0367,0.0279 0.0611,0.0362 0.11516,0.0985 0.186,0.10411 0.78887,0.0621 0.70472,0.21802 0.83217,-0.0611 -0.19434,0.0166 -0.41841,0.23795 -0.6317,0.27118 -0.31157,0.0485 -0.62787,0.06 -0.94249,0.0811 -0.0873,0.006 -0.17492,-2.6e-4 -0.26238,-2.7e-4 0.14933,-0.004 0.30265,0.024 0.44797,-0.0106 0.0303,-0.007 -0.0225,-0.0584 -0.0292,-0.0888 -0.0136,-0.0611 -0.009,-0.1607 -0.0177,-0.16221 -0.0306,-0.005 -0.052,0.0364 -0.0696,0.062 -0.0398,0.0578 -0.0669,0.12343 -0.10029,0.18515 -0.32857,1.11423 -0.47842,2.27826 -0.87081,3.37637 -0.17053,0.49018 -0.32672,1.04117 -0.6224,1.47676 -0.13594,0.20028 -0.20715,0.54463 -0.44768,0.57174 -1.68042,0.18941 -1.60082,0.14245 -1.97374,-0.622 -0.14316,-0.58358 -0.0901,-1.09908 0.17706,-1.63972 0.25774,-0.50102 0.35248,-0.92333 0.28174,-1.49854 -0.0592,-0.45924 -0.0525,-0.47735 -0.15276,-0.94737 -0.11056,-0.51834 -0.26989,-1.02494 -0.3802,-1.54307 -0.0258,-0.12113 -0.0409,-0.2443 -0.0613,-0.36646 -0.0508,-0.16358 2.26261,-0.88268 2.31345,-0.7191 z"
       inkscape:connector-curvature="0" />
    <path
       style="opacity:1;fill:#d9dddd;fill-opacity:1;stroke:none;stroke-width:1;stroke-linecap:butt;stroke-linejoin:round;stroke-miterlimit:4;stroke-dasharray:none;stroke-dashoffset:0;stroke-opacity:1"
       id="path1021"
       d="m 145.55121,245.50853 c 0.60444,0.99692 0.94704,2.11881 1.20679,3.24705 0.13654,0.81074 0.22057,1.6698 -0.0325,2.46904 -0.0418,0.13184 -0.0999,0.25791 -0.14989,0.38687 -0.17079,0.28193 -0.15172,0.28589 -0.3528,0.50488 -0.0195,0.0213 -0.0712,0.0841 -0.0664,0.0556 0.009,-0.0558 0.12127,-0.18951 0.0821,-0.14863 -0.83687,0.87385 0.33035,0.5546 -2.25275,-0.1673 -0.32854,-0.82168 -0.40858,-1.71335 -0.52713,-2.58302 -0.0806,-0.76754 -0.21863,-1.53547 -0.21642,-2.30995 0.001,-0.39392 0.0354,-0.53673 0.092,-0.90958 0.11297,-0.6557 0.45208,-1.0652 0.88984,-1.52201 0.29008,-0.35173 0.61752,-0.65378 0.99372,-0.91023 0.38611,-0.24538 0.81729,-0.27596 1.2578,-0.30044 0.93121,-0.11463 1.73806,0.23023 2.5816,0.56182 0.58542,0.25398 1.18248,0.53509 1.65505,0.97239 0.23787,0.2844 0.0478,0.0451 0.42386,0.8129 0.021,0.16091 -2.25458,0.45785 -2.27558,0.29694 v 0 c 0.35914,0.69194 0.60496,0.64083 0.31127,0.68589 -0.12751,0.0541 -0.038,0.0297 -0.29022,-0.0708 -0.42997,-0.1712 -0.84864,-0.369 -1.26856,-0.56306 -0.26623,-0.1277 -0.53496,-0.26904 -0.81384,-0.36884 -0.10599,-0.0379 -0.17805,-0.0231 -0.16304,-0.0235 0.15252,-0.004 0.30506,-0.007 0.45759,-0.0112 -0.11036,-0.005 -0.22009,-0.01 -0.33057,-0.004 -0.0432,0.002 -0.0953,0.0369 -0.12929,0.0102 -0.0403,-0.0317 0.12349,-0.0854 0.0798,-0.13139 -0.11297,-0.0614 -0.4703,0.38536 -0.55156,0.46342 -0.0127,0.0138 -0.25396,0.27636 -0.26397,0.28523 -0.0191,0.0169 -0.0491,0.0518 -0.0683,0.0348 -0.0209,-0.0185 0.009,-0.0551 0.0145,-0.0825 0.003,-0.0139 -0.002,-0.0495 0.009,-0.0414 0.012,0.008 -0.004,0.0291 -0.006,0.0436 0.0854,0.95569 0.28558,1.90216 0.26921,2.86657 0.0178,0.31174 0.0272,0.62395 0.0475,0.93555 0.0204,0.31441 0.10548,0.65029 0.0744,0.9661 -0.002,0.023 -0.0205,0.0415 -0.0307,0.0622 -3.69917,-0.61155 -1.10409,-0.74965 -2.07773,0.0294 -0.0823,0.0658 0.30666,-0.54998 0.15026,-0.22006 0.002,0.0441 0.009,0.26031 0.01,-0.13965 0.001,-0.46521 -0.0746,-0.92483 -0.20158,-1.37182 -0.0809,-0.28895 -0.2204,-0.79472 -0.30886,-1.07975 -0.20579,-0.66303 -0.45282,-1.31998 -0.54197,-2.01271 -0.0508,-0.16359 2.26261,-0.88269 2.31346,-0.71911 z"
       inkscape:connector-curvature="0" />
    <path
       style="opacity:1;fill:#d9dddd;fill-opacity:1;stroke:none;stroke-width:1;stroke-linecap:butt;stroke-linejoin:round;stroke-miterlimit:4;stroke-dasharray:none;stroke-dashoffset:0;stroke-opacity:1"
       id="path1023"
       d="m 155.72455,246.06962 c 0.0538,0.11858 0.11632,0.23356 0.16129,0.35574 0.11553,0.31392 0.23253,0.77641 0.31596,1.09839 0.127,0.49019 0.25068,0.97927 0.35222,1.47531 -0.0362,0.13722 0.0695,0.28638 0.0494,0.42886 -0.004,0.0272 -0.0522,-0.022 -0.0707,-0.0422 -0.0445,0.4275 -0.12653,0.85275 -0.13337,1.28251 -0.001,0.0683 0.0771,-0.11269 0.11564,-0.16904 0.0789,-0.18859 0.0595,0.0727 0.0629,0.11712 0.004,0.0518 0.0102,0.10334 0.0153,0.15501 0.004,0.0604 0.008,0.1208 0.0125,0.18119 -0.0682,1.00254 -0.47063,1.32085 -1.83249,1.37591 -0.27045,0.0109 -0.41524,-0.34733 -0.62286,-0.521 -0.0949,-0.14014 1.88697,-1.48277 1.98191,-1.34263 v 0 c -0.13867,-0.0933 -0.25198,-0.31174 -0.41602,-0.27978 -1.70205,0.33165 -1.33592,0.18543 -1.53405,0.92349 -0.004,0.0166 -2.7e-4,-0.0344 -5.3e-4,-0.0515 -0.0184,-0.5016 -0.0189,-1.01058 0.1876,-1.47909 0.064,-0.10495 0.17367,-0.4364 0.19208,-0.31485 0.33811,2.23174 -0.2478,0.94544 -0.54432,0.37496 -0.39415,-0.99725 -0.64812,-2.04847 -0.68613,-3.12373 -0.0314,-0.16925 2.36217,-0.61393 2.39361,-0.44468 z"
       inkscape:connector-curvature="0" />
    <path
       style="opacity:1;fill:#d9dddd;fill-opacity:1;stroke:none;stroke-width:1;stroke-linecap:butt;stroke-linejoin:round;stroke-miterlimit:4;stroke-dasharray:none;stroke-dashoffset:0;stroke-opacity:1"
       id="path1025"
       d="m 154.64185,240.81025 c 0.26615,0.61396 0.43673,1.25668 0.47712,1.92441 0.0232,0.17013 -2.38285,0.49748 -2.406,0.32735 v 0 c -0.21336,-0.56414 -0.40985,-1.15152 -0.4375,-1.75781 -0.0349,-0.16733 2.33146,-0.66128 2.36638,-0.49395 z"
       inkscape:connector-curvature="0" />
    <path
       style="opacity:1;fill:#d9dddd;fill-opacity:1;stroke:none;stroke-width:1;stroke-linecap:butt;stroke-linejoin:round;stroke-miterlimit:4;stroke-dasharray:none;stroke-dashoffset:0;stroke-opacity:1"
       id="path1029"
       d="m 162.46416,247.62431 c 0.64085,-0.066 1.28693,-0.0274 1.9281,0.0135 0.14244,0.009 0.30371,-0.0415 0.42713,0.0302 0.10131,0.0588 -0.23413,0.009 -0.35119,0.0139 0.20198,0.0174 0.21589,0.004 0.11077,0.1477 -0.0777,0.10596 -0.084,0.15674 -0.0314,-0.024 0.17638,-0.65233 0.56772,-1.08485 1.16045,-1.38758 0.0831,0.0433 0.14764,-0.11354 0.22849,-0.0964 0.0245,0.005 -0.0366,0.0488 -0.0612,0.0437 -0.0181,-0.004 0.011,-0.0353 0.0164,-0.053 0.0705,-0.23107 0.0395,-0.10897 0.0892,-0.38616 -0.0112,-0.18957 0.14096,-0.4276 0.0774,-0.61847 -0.007,-0.0213 -0.0135,0.0452 -0.008,0.0669 0.0617,0.23573 0.0905,0.25044 0.21321,0.4437 0.22248,0.28591 0.0459,0.12692 0.71245,0.11965 0.062,-7.9e-4 -0.1245,0.01 -0.18402,0.027 -0.0741,0.0216 -0.27603,0.094 -0.33969,0.11645 -0.59454,0.16889 -0.53375,0.20263 -1.35023,0.05 -0.38585,-0.0722 -0.44134,-0.3451 -0.88747,-0.29621 -0.27287,0.12905 -0.14718,0.0486 0.42789,0.0759 0.0233,0.001 -0.0479,-0.009 -0.07,-0.002 -0.0371,0.0124 -0.0694,0.0367 -0.10151,0.059 -0.19877,0.13798 -0.22323,0.17217 -0.41018,0.34194 -0.40133,0.42945 -0.8368,0.82796 -1.22648,1.26823 -0.26408,0.30577 -0.35921,0.70501 -0.44947,1.0889 -0.0985,0.50715 -0.16459,1.02656 -0.15488,1.54444 0.004,0.20018 0.0428,0.51254 0.0649,0.7124 0.01,-0.41556 0.0189,0.35145 0.0765,0.27551 0.0171,-0.0225 -0.0146,-0.0553 -0.014,-0.0835 0.002,-0.1127 0.16503,-0.006 0.26406,0.0384 0.4518,0.26981 0.85934,0.59791 1.35443,0.78769 0.34137,0.11766 0.69696,0.19889 1.06008,0.18148 0.0717,-0.003 0.28576,-0.0234 0.21403,-0.0225 -0.17541,0.002 -0.3504,0.0177 -0.5256,0.0266 -0.0103,0.0552 -0.0113,0.0807 -0.0394,0.13157 0.0935,-0.14214 2.10372,1.18023 2.01022,1.32238 v 0 c -0.29689,0.37865 -0.54211,0.64453 -1.0033,0.83554 -0.35777,0.0415 -0.71395,0.10045 -1.07332,0.12442 -0.14462,0.01 -0.29008,-0.008 -0.43414,-0.0239 -0.61989,-0.0681 -1.21413,-0.26809 -1.75005,-0.58643 -0.42849,-0.26981 -0.82705,-0.58426 -1.2709,-0.82764 -0.13853,-0.077 -0.34979,-0.19037 -0.46656,-0.27835 -0.52491,-0.39549 -0.83517,-0.95553 -0.98827,-1.58718 -0.0286,-0.16987 -0.0662,-0.33847 -0.0858,-0.50961 -0.10628,-0.92847 0.006,-1.87366 0.30489,-2.75716 0.2289,-0.54236 0.47873,-1.07576 0.76873,-1.5886 0.38841,-0.64218 0.85495,-1.22227 1.40769,-1.73272 1.01302,-0.90785 1.74903,-1.38734 3.21701,-1.03155 0.12261,0.05 0.24705,0.0957 0.36783,0.15 0.13136,0.059 0.24797,0.15203 0.38527,0.19548 0.0239,0.008 -0.0361,-0.0418 -0.0611,-0.0439 -0.64056,-0.0558 -0.48565,-0.14928 -0.74511,0.0923 0.25838,-0.0742 0.52522,-0.27917 0.78329,-0.31595 0.98216,-0.13998 0.78123,-0.13822 1.49027,0.0728 0.15664,0.10831 0.33513,0.19039 0.46992,0.32493 0.66277,0.66151 0.65878,1.60566 0.46379,2.45296 -0.0608,0.17338 -0.10919,0.35164 -0.18246,0.52013 -0.25392,0.58387 -0.6762,1.13012 -1.28336,1.36365 -0.0285,0.004 -0.065,0.0316 -0.0854,0.0114 -0.009,-0.009 0.0831,-0.46011 -0.0225,-0.10109 -0.26215,0.99315 -0.66635,1.51258 -1.69181,1.79383 -1.1845,0.0557 -2.39622,0.13634 -3.55132,-0.19788 -0.16355,-0.057 0.64179,-2.36999 0.80535,-2.31304 z"
       inkscape:connector-curvature="0" />
    <path
       style="opacity:1;fill:#d9dddd;fill-opacity:1;stroke:none;stroke-width:1;stroke-linecap:butt;stroke-linejoin:round;stroke-miterlimit:4;stroke-dasharray:none;stroke-dashoffset:0;stroke-opacity:1"
       id="path1031"
       d="m 173.09707,246.20326 c 0.44512,0.96509 0.56171,2.04314 0.76988,3.07691 0.16078,0.72856 0.37157,1.45017 0.38016,2.20019 0.004,0.26471 -0.0448,0.52212 -0.11989,0.77448 -0.0141,0.0473 -0.0603,0.14615 -0.0648,0.20693 0.30414,1.23014 -1.67618,-0.10846 -2.20971,-0.27507 0.22179,-1.01717 0.45343,-2.03194 0.68558,-3.04689 0.14376,-0.6364 0.38817,-1.23948 0.61975,-1.84645 0.16482,-0.43198 0.32263,-0.84813 0.53014,-1.26172 0.24737,-0.41289 0.73208,-1.08315 1.25606,-1.1447 0.37307,-0.0438 0.80907,0.0172 1.20257,0.0685 0.59003,-0.0588 1.06793,0.0444 1.63508,0.2163 0.71447,0.2388 1.31788,0.6694 1.85081,1.19104 0.15632,0.16461 0.0897,0.10684 0.1872,0.18696 0.11829,0.11912 -1.56628,1.79197 -1.68457,1.67285 v 0 c -0.20892,-0.15136 -0.11103,-0.0849 -0.29181,-0.20216 -0.38844,-0.25375 -0.78945,-0.48736 -1.23958,-0.61554 -0.475,-0.12136 -0.96852,-0.12606 -1.43916,-0.26989 -0.47522,-0.13501 0.12711,0.0514 0.65037,-0.0477 0.22241,-0.0421 0.41396,-0.5685 0.27434,-0.22622 -0.28555,0.93522 -0.56189,1.87298 -0.77867,2.82713 -0.28984,1.18633 -0.59513,2.3978 -1.244,3.447 -2.25385,-0.35114 -2.4723,0.26106 -2.32792,-1.02944 0.0272,-0.14172 0.0797,-0.29111 0.0897,-0.43239 -0.20531,-0.62778 -0.40696,-1.2568 -0.59538,-1.88994 -0.26008,-1.02788 -0.46335,-2.07581 -0.52982,-3.13549 -0.0314,-0.16925 2.36218,-0.61393 2.39362,-0.44467 z"
       inkscape:connector-curvature="0" />
    <path
       style="opacity:1;fill:#d9dddd;fill-opacity:1;stroke:none;stroke-width:1;stroke-linecap:butt;stroke-linejoin:round;stroke-miterlimit:4;stroke-dasharray:none;stroke-dashoffset:0;stroke-opacity:1"
       id="path1059"
       d="m 141.00405,259.98921 c -0.0631,0.0686 -0.1235,0.13978 -0.18927,0.20582 -0.11371,0.11417 -0.23594,0.21968 -0.34892,0.33457 -0.35926,0.36531 -0.77356,0.82661 -1.07661,1.22242 -0.71011,0.92749 -1.03171,1.49024 -1.68108,2.51199 -0.30769,0.58101 -0.64782,1.14597 -0.92308,1.74304 -0.65882,1.42909 -1.19358,3.02821 -1.63119,4.53262 -0.48822,1.6784 -0.88515,3.38408 -1.21168,5.10089 -0.14482,0.76146 -0.25392,1.52929 -0.38088,2.29393 -0.13891,1.20458 -0.28486,2.1523 -0.30478,3.34218 -0.005,0.28422 0.007,0.56982 0.0448,0.85161 0.0127,0.0953 0.0206,0.22139 0.10415,0.26897 0.0572,0.0326 0.0539,-0.13746 0.0239,-0.19606 -0.0391,-0.0763 -0.13614,-0.10402 -0.20422,-0.15604 0.59186,-0.36996 0.26804,-0.18007 0.97672,-0.56058 0.0906,-0.0682 1.0544,1.21232 0.96385,1.28047 v 0 c -0.72522,0.34337 -0.34999,0.15307 -1.12245,0.57722 -0.38968,0.073 -0.77325,0.24209 -1.16902,0.21893 -0.59953,-0.0351 -1.16089,-0.54132 -1.45007,-1.01778 -0.21194,-0.3492 -0.3689,-0.73449 -0.47975,-1.12765 -0.4057,-1.43897 -0.31959,-2.25288 -0.36297,-3.78764 0.0693,-0.83689 0.0945,-1.67862 0.20805,-2.51068 0.48946,-3.58817 1.68699,-7.19973 3.53701,-10.32008 0.37555,-0.63343 0.82615,-1.21927 1.23923,-1.8289 0.41241,-0.46915 0.80423,-0.95722 1.23721,-1.40744 0.66998,-0.69666 1.20099,-1.12712 1.9556,-1.67967 0.21086,-0.1544 0.42479,-0.30527 0.64703,-0.44279 0.27558,-0.1705 0.5085,-0.26518 0.79534,-0.39264 0.0667,-0.0568 0.86978,0.88651 0.80308,0.94329 z"
       inkscape:connector-curvature="0" />
    <path
       style="opacity:1;fill:#d9dddd;fill-opacity:1;stroke:none;stroke-width:1;stroke-linecap:butt;stroke-linejoin:round;stroke-miterlimit:4;stroke-dasharray:none;stroke-dashoffset:0;stroke-opacity:1"
       id="path1063"
       d="m 148.78253,264.34191 c -1.9e-4,0.081 0.004,0.16209 -5.3e-4,0.24294 -0.0242,0.42133 -0.11183,0.83977 -0.17011,1.25699 -0.062,0.44359 -0.1198,0.88774 -0.18009,1.33155 -0.0351,0.31301 -0.07,0.62604 -0.10521,0.93904 -0.12798,1.13863 -0.16686,1.41174 -0.26729,2.6107 -0.10213,1.21922 -0.16822,2.35316 -0.25905,3.57645 -0.0484,0.65184 -0.10216,1.30327 -0.15324,1.95491 -0.18029,1.69353 -0.37759,3.39037 -0.74611,5.05537 -0.0646,0.2919 -0.27296,1.15695 -0.45561,1.51399 -0.0284,0.0554 -0.0925,0.0833 -0.13875,0.12501 -0.38677,-0.10327 -0.79622,-0.14341 -1.16032,-0.30981 -0.0682,-0.0312 -0.0156,-0.14999 -0.009,-0.22467 0.0303,-0.35183 0.13278,-0.72226 0.2817,-1.04213 0.0396,-0.0851 0.0924,-0.16345 0.13857,-0.24517 0.0887,-0.10176 0.157,-0.22564 0.26597,-0.30526 0.33004,-0.24117 0.48094,-0.21168 0.83774,-0.31711 0.17119,-0.0506 0.3407,-0.10712 0.5084,-0.16833 0.6864,-0.2505 1.05259,-0.41969 1.75541,-0.71936 1.61926,-0.75868 3.2874,-1.40569 4.97584,-1.99224 0.54255,-0.18847 1.08925,-0.36483 1.63284,-0.55027 0.11308,-0.0478 0.22447,-0.0998 0.33923,-0.14345 0.0502,-0.0191 -0.0111,0.13723 -0.0637,0.148 -0.0625,0.0128 -0.11692,-0.0532 -0.16908,-0.09 -0.13326,-0.0941 -0.54733,-0.45146 -0.65215,-0.54054 -0.92392,-0.74196 -1.94054,-1.37844 -3.01841,-1.87306 -0.30386,-0.13944 -0.61626,-0.25949 -0.92439,-0.38923 -1.45264,-0.59677 -2.9421,-1.09943 -4.44034,-1.56815 0.12613,-0.0303 0.30744,0.0176 0.37839,-0.091 0.16725,-0.25603 0.14758,-0.5951 0.25652,-0.88086 0.0298,-0.0782 0.0988,-0.13555 0.15472,-0.19788 0.32209,-0.35919 0.33587,-0.19978 1.02263,-0.44099 0.37258,-0.13087 0.73981,-0.27649 1.10971,-0.41474 1.26931,-0.50135 2.52419,-1.04178 3.74397,-1.65484 0.54448,-0.27367 1.24416,-0.64814 1.76728,-0.98786 0.17154,-0.11139 0.33041,-0.24117 0.49562,-0.36176 -0.21237,-0.0975 0.32284,-0.19407 0.28488,-0.33589 -0.007,-0.025 -0.0251,0.0516 -0.0496,0.0598 -0.0352,0.0118 -0.0752,0.003 -0.11111,-0.006 -0.2506,-0.0652 -0.38499,-0.17299 -0.62462,-0.31054 -1.18091,-0.7538 -2.2128,-1.70528 -3.29105,-2.59226 -0.26531,-0.21825 -0.53665,-0.42905 -0.80497,-0.64357 -0.61819,-0.38866 -0.8831,-0.62333 -1.593,-0.81084 -0.27973,-0.0739 -0.57038,-0.10534 -0.85914,-0.12352 -0.77057,-0.0485 -0.73044,-0.003 -1.31635,0.0759 -0.26036,0.0352 -0.52134,0.0657 -0.782,0.0985 -0.5416,0.10584 -0.5256,0.0783 -0.97346,0.23729 -0.0468,0.0166 -0.0874,0.0507 -0.13608,0.0609 -0.0156,0.003 0.0172,-0.027 0.0284,-0.0384 0.0169,-0.0173 0.031,-0.0486 0.0552,-0.0472 0.0308,0.002 0.0499,0.0362 0.0748,0.0544 0.14105,0.14817 0.22646,0.32913 0.30778,0.51347 0.0374,0.0801 -1.09592,0.60944 -1.13334,0.5293 v 0 c -0.12322,-0.14068 -0.24428,-0.28329 -0.34883,-0.43889 -0.1681,-0.32344 -0.28251,-0.45086 -0.25859,-0.85535 0.0356,-0.60234 0.45548,-1.0453 0.94928,-1.33417 0.22045,-0.12896 0.46312,-0.21547 0.69468,-0.3232 0.30438,-0.0846 0.60066,-0.2074 0.91315,-0.25394 0.84156,-0.12533 1.8534,-0.16716 2.71081,-0.0258 1.14623,0.18897 2.17446,0.67965 3.10852,1.35761 0.28309,0.23731 0.57458,0.46494 0.84925,0.71193 0.97723,0.8788 1.802,1.91392 2.80428,2.76639 0.10997,0.0859 0.22036,0.17128 0.32992,0.25772 0.28171,0.22227 0.51153,0.36008 0.67669,0.70035 0.18094,0.37277 0.212,0.73523 0.10014,1.1335 -0.0595,0.21173 -0.18009,0.40128 -0.27013,0.60192 -0.16552,0.21634 -0.31105,0.44955 -0.49655,0.64902 -1.14428,1.23043 -2.87074,2.14378 -4.41971,2.73495 -0.47023,0.17947 -0.95644,0.31392 -1.43466,0.47088 -0.44732,0.0978 -0.88985,0.22086 -1.34194,0.29352 -0.66951,0.10761 -1.61828,0.16177 -2.28605,0.0135 -0.65334,-0.1451 -0.93095,-0.59507 -0.49751,-1.33529 0.1122,-0.19161 0.4293,-0.11361 0.64395,-0.17042 0.15672,-0.0115 0.31304,-0.0368 0.47016,-0.0344 0.50259,0.008 1.06227,0.0992 1.54479,0.21224 1.09371,0.25625 2.13749,0.66998 3.13759,1.17827 0.31946,0.17474 0.64498,0.33883 0.95838,0.52422 1.099,0.6501 2.10507,1.44027 3.00589,2.34393 0.30849,0.31229 0.81583,0.79718 0.95142,1.22409 0.15125,0.47622 0.13395,0.80115 -0.11587,1.23024 -0.104,0.17861 -0.26723,0.31537 -0.40084,0.47305 -0.21354,0.15889 -0.415,0.33546 -0.64062,0.47668 -0.59156,0.37028 -1.4204,0.73924 -2.04685,1.00814 -1.29902,0.55761 -2.62172,1.07089 -3.9774,1.47391 -0.94763,0.23038 -1.21663,0.33043 -2.13402,0.43741 -0.22582,0.0263 -0.45346,0.0395 -0.68081,0.0411 -0.11902,8e-4 -0.2518,0.0246 -0.35547,-0.0339 -0.0191,-0.0108 0.024,-0.21493 0.0314,-0.25321 -0.0871,0.39366 -0.1637,0.79984 -0.32038,1.17331 -0.0506,0.12055 -0.0489,0.3273 -0.17767,0.34964 -0.41539,0.0721 -0.84056,-0.0667 -1.26084,-0.10007 -0.0509,-0.0849 -0.12217,-0.16048 -0.15262,-0.25463 -0.14906,-0.46094 -0.18269,-1.18191 -0.19043,-1.61766 -0.0301,-1.69362 0.16683,-3.38006 0.31423,-5.06386 0.0686,-0.66379 0.12275,-1.32924 0.20587,-1.99137 0.3058,-2.43614 0.83135,-4.82519 1.54987,-7.17168 0.22759,-0.84217 0.43152,-1.70012 0.72772,-2.52205 0.0278,-0.0771 0.0623,-0.15159 0.0935,-0.22738 0.0143,-0.0855 1.22342,0.11684 1.20911,0.20234 z"
       inkscape:connector-curvature="0" />
    <path
       style="opacity:1;fill:#d9dddd;fill-opacity:1;stroke:none;stroke-width:1;stroke-linecap:butt;stroke-linejoin:round;stroke-miterlimit:4;stroke-dasharray:none;stroke-dashoffset:0;stroke-opacity:1"
       id="path1075"
       d="m 166.28,261.39276 c 0.061,0.0511 0.12659,0.0971 0.18291,0.15323 0.6021,0.60042 1.06148,1.34464 1.42859,2.10573 0.15095,0.31294 0.27766,0.63699 0.41649,0.95548 0.51485,1.38796 0.78575,2.84797 0.87586,4.32266 0.0432,0.70759 0.0267,0.95148 0.0144,1.63243 -0.0332,0.75501 -0.10156,1.50768 -0.31661,2.23521 -0.0554,0.18737 -0.12544,0.3701 -0.1864,0.55574 -0.0736,0.22433 -0.14495,0.44943 -0.21743,0.67414 -0.0751,0.27 -0.15668,0.53825 -0.22515,0.80999 -0.0889,0.3526 -0.16192,0.70901 -0.24673,1.06261 -0.35416,1.47667 -0.72678,2.95266 -1.26329,4.3761 -0.19128,0.50749 -0.42068,0.99978 -0.63103,1.49967 -0.22258,0.44873 -0.43369,0.90332 -0.66774,1.34617 -0.69769,1.32015 -1.52428,2.67085 -2.61096,3.71191 -0.20762,0.19891 -0.44059,0.36952 -0.66089,0.55428 -0.83613,0.62999 -1.81877,0.96902 -2.82125,1.22221 -0.25259,0.0599 -0.13707,0.0349 -0.34609,0.0773 -0.0746,0.0468 -0.73644,-1.0087 -0.6618,-1.0555 v 0 c 0.18376,-0.10747 0.0838,-0.0514 0.30084,-0.16623 0.21275,-0.10975 0.33066,-0.17363 0.55831,-0.27589 0.58216,-0.26152 1.17976,-0.49547 1.66739,-0.92388 0.46233,-0.43856 0.58029,-0.50972 0.96476,-1.0605 0.17437,-0.2498 0.32971,-0.51274 0.47949,-0.778 0.61572,-1.0904 1.08761,-2.2522 1.56818,-3.40582 0.36409,-0.9182 0.80068,-2.01232 1.15402,-2.93196 0.59537,-1.54951 1.14538,-3.12115 1.87442,-4.6152 0.1796,-0.32813 0.37655,-0.6501 0.50645,-1.00313 0.21675,-0.58905 0.17896,-1.22038 0.0939,-1.83067 -0.24606,-1.83875 -0.49647,-3.68403 -1.01649,-5.46992 -0.15669,-0.50447 -0.34737,-1.1485 -0.53627,-1.65143 -0.17631,-0.46938 -0.2373,-0.56286 -0.44793,-0.98059 -0.18618,-0.36925 -0.0795,-0.16454 -0.23788,-0.46359 -0.0483,-0.0713 0.95966,-0.75381 1.00792,-0.68254 z"
       inkscape:connector-curvature="0" />
  </g>
</svg>
