<?xml version="1.0" encoding="UTF-8" standalone="no"?>
<!-- Created with Inkscape (http://www.inkscape.org/) -->

<svg
   xmlns:dc="http://purl.org/dc/elements/1.1/"
   xmlns:cc="http://creativecommons.org/ns#"
   xmlns:rdf="http://www.w3.org/1999/02/22-rdf-syntax-ns#"
   xmlns:svg="http://www.w3.org/2000/svg"
   xmlns="http://www.w3.org/2000/svg"
   xmlns:sodipodi="http://sodipodi.sourceforge.net/DTD/sodipodi-0.dtd"
   xmlns:inkscape="http://www.inkscape.org/namespaces/inkscape"
   width="100mm"
   height="100mm"
   viewBox="0 0 100 100"
   version="1.1"
   id="svg8"
   inkscape:version="0.92.4 (unknown)"
   sodipodi:docname="edit-menu-export.svg">
  <defs
     id="defs2">
    <inkscape:path-effect
       effect="bspline"
       id="path-effect22"
       is_visible="true"
       weight="33.333333"
       steps="2"
       helper_size="0"
       apply_no_weight="true"
       apply_with_weight="true"
       only_selected="false" />
  </defs>
  <sodipodi:namedview
     id="base"
     pagecolor="#ffffff"
     bordercolor="#666666"
     borderopacity="1.0"
     inkscape:pageopacity="0.0"
     inkscape:pageshadow="2"
     inkscape:zoom="1.979899"
     inkscape:cx="236.19363"
     inkscape:cy="165.00062"
     inkscape:document-units="mm"
     inkscape:current-layer="layer1"
     showgrid="false"
     inkscape:window-width="1920"
     inkscape:window-height="1015"
     inkscape:window-x="0"
     inkscape:window-y="1080"
     inkscape:window-maximized="1" />
  <metadata
     id="metadata5">
    <rdf:RDF>
      <cc:Work
         rdf:about="">
        <dc:format>image/svg+xml</dc:format>
        <dc:type
           rdf:resource="http://purl.org/dc/dcmitype/StillImage" />
        <dc:title></dc:title>
      </cc:Work>
    </rdf:RDF>
  </metadata>
  <g
     inkscape:label="Layer 1"
     inkscape:groupmode="layer"
     id="layer1"
     transform="translate(0,-197)">
    <path
       style="fill:#3c8c2e;stroke:none;stroke-width:0.26458332px;stroke-linecap:butt;stroke-linejoin:miter;stroke-opacity:1;fill-opacity:1"
       d="m 43.247058,218.75888 c -6.961026,0.88187 -13.008647,3.08673 -17.229558,8.31553 -4.22091,5.22879 -6.614631,13.48083 -7.559619,20.19004 -0.944989,6.70922 -0.44104,11.8747 3.590884,18.77307 4.031923,6.89837 11.591101,15.52844 19.938235,19.43418 8.347135,3.90575 17.481538,3.0868 25.261462,0.91342 7.779925,-2.17338 14.205721,-5.70127 17.607346,-12.28417 3.401624,-6.5829 3.779618,-16.22176 3.118156,-24.63159 -0.661463,-8.40983 -2.362403,-15.59158 -6.204998,-20.50511 -3.842594,-4.91353 -9.827376,-7.55943 -16.756957,-9.10286 -6.929581,-1.54343 -14.803925,-1.98439 -21.764951,-1.10251 z"
       id="path20"
       inkscape:connector-curvature="0"
       inkscape:path-effect="#path-effect22"
       inkscape:original-d="m 42.333333,217.43601 c -6.047354,2.2046 -12.094975,4.40946 -18.142857,6.61458 -2.393711,8.25266 -4.787434,16.5047 -7.181548,24.75745 0.504252,5.1656 1.008201,10.33108 1.511905,15.49702 7.560135,8.63059 15.119313,17.26065 22.678572,25.89137 9.134708,-0.81922 18.269112,-1.63816 27.403272,-2.45685 6.42566,-3.52793 12.851455,-7.05582 19.276787,-10.58333 0.378222,-9.63819 0.756216,-19.27705 1.133927,-28.91518 -1.70058,-7.18161 -3.40152,-14.36336 -5.102677,-21.54464 -5.9842,-2.64603 -11.968983,-5.29193 -17.953871,-7.9375 -7.874399,-0.44125 -15.748743,-0.88221 -23.62351,-1.32292 z" />
    <path
       style="fill:#ebe9eb;fill-opacity:1;stroke:none;stroke-width:0.26458332"
       id="path4542"
       d="m 38.976964,228.52072 c -0.306306,0.10232 -0.627375,0.14922 -0.947928,0.17857 -0.117232,0.0107 -0.335511,0.0685 -0.451776,-0.0294 -0.0013,-0.0104 0.0034,-0.0579 -0.03166,-0.0375 -0.148333,0.0863 -0.206777,0.21487 -0.399619,0.26076 -0.605168,0.144 -0.641257,0.12216 -1.057828,0.0697 -0.06048,-0.007 -0.242017,-0.0268 -0.181433,-0.0208 0.692402,0.0679 0.544616,0.039 0.309656,0.0509 -0.20315,0.0103 -0.404448,0.043 -0.60656,0.0649 -0.576596,0.0657 -1.157492,0.0493 -1.735791,0.0156 0.500885,-0.0527 -0.996268,0.008 -0.494276,-0.009 0.870079,-0.028 0.558218,-0.0208 0.203959,0.1003 -0.675161,0.2523 -1.373074,0.33615 -2.090023,0.20674 -0.167402,-0.0773 -1.398611,-0.0671 -0.413388,-0.0552 -0.266033,-0.0158 -0.532318,-0.001 -0.798195,0.01 -0.342942,0.0109 -0.138784,0.006 -0.78977,0.004 -0.04482,-1.2e-4 -0.179102,0.002 -0.134448,-0.002 0.719939,-0.0621 0.410347,0.0847 0.74496,-0.18931 0.08324,0.0211 0.04544,-0.25648 0.125355,-0.22506 0.01064,0.004 -0.04748,0.40078 -0.05078,0.43175 -0.05747,0.33301 -0.190567,0.64187 -0.326295,0.94832 -0.08622,0.20297 -0.105371,0.41848 -0.156641,0.63102 -0.0543,0.24333 -0.07387,0.47288 -0.158428,0.71261 -0.04575,0.12971 -0.113683,0.25049 -0.169574,0.37616 -0.133987,0.31051 -0.220879,0.63751 -0.351792,0.94881 -0.0575,0.26334 -0.200094,0.51934 -0.215609,0.78991 -0.01238,0.31771 -0.06512,0.63248 -0.09298,0.94953 -0.04457,0.26229 -0.156876,0.50098 -0.163332,0.76828 0.04719,0.39949 -0.115554,0.76342 -0.278683,1.11532 -0.04295,0.17687 -0.06725,0.36091 -0.106627,0.54108 -0.01945,0.23485 -0.09391,0.46094 -0.129292,0.69394 -0.0916,0.28625 -0.179083,0.57873 -0.302728,0.8534 -0.04528,0.10236 -0.321257,0.67353 -0.148341,0.28836 -0.0046,0.11331 -0.0916,0.20758 -0.108321,0.31819 -0.0037,0.0246 -0.0086,0.0987 -0.01019,0.0739 -0.0047,-0.0737 -0.0016,-0.14765 -0.0024,-0.22148 -0.08077,-0.1861 -0.193461,-0.60913 -0.45184,-0.7007 -0.178879,-0.0634 -0.379701,-0.0203 -0.567152,-0.0499 -0.04025,-0.006 0.08038,-0.0135 0.120477,-0.0207 0.372968,-0.0675 0.0075,-0.005 0.413507,-0.0729 0.576686,-0.0862 1.162111,-0.1091 1.742885,-0.0473 0.157313,0.0219 1.424315,0.004 0.4666,0.007 0.343204,-0.005 0.676344,-0.11537 1.017394,-0.15984 0.07039,-0.005 0.140611,-0.0142 0.211175,-0.0151 0.246092,-0.003 0.492278,-0.003 0.738336,0.002 0.06501,0.001 0.129553,0.0113 0.194281,0.0176 0.05807,0.006 0.232116,0.0114 0.174122,0.0177 -0.694666,0.0759 -0.577435,-0.16853 -0.678603,0.055 0.304249,-0.13984 0.606808,-0.34372 0.951462,-0.36812 0.258453,-0.0183 0.518081,-0.0111 0.777124,-0.0166 0.07404,0.009 0.148161,0.0171 0.222123,0.0267 0.431107,0.0556 0.08279,0.0158 -0.301151,0.008 -0.01834,-2.7e-4 0.03572,0.01 0.05406,0.0102 0.06915,10e-4 0.165213,-0.0199 0.229576,-0.0311 0.312814,-0.13495 2.333889,-0.13738 0.819047,-0.0703 -0.0024,0.008 -0.0048,0.0156 -0.0072,0.0234 0.129781,-0.0684 1.097034,1.76698 0.967254,1.83537 v 0 c -0.06593,0.0259 -0.131863,0.0519 -0.197795,0.0778 -0.257654,0.0188 -0.517975,0.015 -0.772956,0.0565 -0.140859,0.0229 0.285512,0.004 0.428146,-2.6e-4 0.02818,-0.001 -0.05581,-0.008 -0.08386,-0.0112 -0.100801,-0.0104 -0.20066,-0.006 -0.300059,0.0153 -0.184052,0.0407 -0.393258,0.1207 -0.580816,0.12682 -0.36001,0.0117 -0.700759,-0.0114 -1.053745,-0.0312 0.153982,-0.009 0.309112,-0.005 0.461946,-0.026 0.02498,-0.003 -0.02357,-0.0524 -0.04808,-0.0584 -0.114186,-0.0275 -0.249002,0.11777 -0.338161,0.14661 -0.530927,0.27887 -0.221224,0.158 -1.202508,0.2478 -0.09637,0.009 -0.386919,-0.005 -0.2902,-0.009 0.135199,-0.005 0.270658,-5.3e-4 0.405789,-0.007 0.03444,-0.002 -0.06878,-0.005 -0.103172,-0.007 -0.398473,0.002 -0.76418,0.1363 -1.154049,0.20563 -0.54687,0.002 -1.093242,0.008 -1.637546,-0.0538 -0.0434,-2e-4 -0.173617,-0.001 -0.130215,-5.3e-4 0.1343,0.002 0.268672,0.008 0.402905,0.004 0.03892,-0.001 -0.07718,-0.0116 -0.116091,-0.0129 -0.154419,-0.005 -0.30815,0.0302 -0.460626,0.0463 -0.646523,0.0961 -1.515033,0.33041 -2.025091,-0.20907 -0.148426,-0.15698 -0.216951,-0.37367 -0.325426,-0.56051 -0.01366,-0.12962 -0.03593,-0.25862 -0.04099,-0.38885 -0.0069,-0.17704 0.07213,-0.51452 0.171383,-0.66521 0.0043,-0.007 0.0043,0.0151 0.0065,0.0226 0.08335,-0.24891 0.05987,-0.22274 0.179295,-0.43171 0.02791,-0.0488 -0.01538,0.1144 -0.04378,0.16295 -0.04858,0.083 0.127378,-0.39763 0.08504,-0.27584 0.03815,-0.0821 0.0856,-0.3065 0.159961,-0.46291 0.01351,-0.0636 0.07355,-0.41631 0.128704,-0.4625 0.01729,-0.0145 -0.0052,0.0899 -0.0015,0.0676 0.0166,-0.0997 0.01362,-0.20214 0.03844,-0.30079 0.05545,-0.31189 0.03894,-0.63623 0.172201,-0.9321 0.01947,-0.0445 0.09625,-0.23652 0.14175,-0.29176 0.03997,-0.0485 0.339868,0.50366 0.02146,0.18738 -0.126447,0.005 0.117644,-0.39597 -0.0076,-0.3795 0.01853,-0.27657 0.05111,-0.55132 0.149164,-0.81286 0.02484,-0.33335 0.09862,-0.66022 0.09794,-0.99519 0.05558,-0.46011 0.152509,-0.91615 0.328782,-1.34652 0.02289,-0.0462 0.04179,-0.0946 0.06869,-0.13858 0.01035,-0.0169 0.03513,-0.0236 0.04186,-0.0422 0.02506,-0.0692 0.0315,-0.14391 0.05117,-0.21486 0.05307,-0.19145 0.139573,-0.36974 0.1977,-0.55955 0.02941,-0.0631 0.05598,-0.12751 0.08824,-0.18916 0.01016,-0.0194 0.01857,-0.0443 0.03857,-0.0532 0.01019,-0.005 0.01632,0.038 0.01939,0.0273 0.05223,-0.18222 0.04789,-0.38226 0.121957,-0.56005 0.04082,-0.11912 -0.01635,0.0542 0.04815,-0.256 0.04315,-0.20751 0.13326,-0.39093 0.180245,-0.59551 0.07306,-0.18755 0.154495,-0.29972 0.180517,-0.49867 0.06219,-0.50483 0.162462,-1.04269 0.538461,-1.41458 0.122672,-0.0994 0.325086,-0.30847 0.513967,-0.34021 0.263191,-0.0442 0.530844,-0.0562 0.796793,-0.0785 0.04081,-0.003 0.163816,0.001 0.122861,0.001 -0.134797,0.001 -0.269621,-5.3e-4 -0.404407,0.001 -0.03679,5.3e-4 0.07356,0.002 0.110344,0.003 0.274662,0.002 0.547066,-0.0271 0.820568,-0.0495 0.555565,0.003 1.101246,0.0163 1.650371,0.10317 0.04043,-0.002 0.161747,-0.005 0.121287,-0.005 -0.138483,5.3e-4 -0.277519,-0.007 -0.415406,0.006 -0.0374,0.003 0.07302,0.0191 0.110437,0.0224 0.157967,0.0142 0.312587,-0.0279 0.456816,-0.0878 0.07294,-0.0265 0.484124,-0.17839 0.537935,-0.18714 0.518094,-0.0843 0.964332,-0.11706 1.468393,-0.0761 0.173675,0.005 0.761812,0.007 -0.07113,0.006 -0.04983,-1.1e-4 0.09964,0.002 0.149471,0.003 0.202576,0.003 0.118803,0.005 0.327872,-0.0154 0.634608,-0.0703 1.259181,-0.19412 1.900179,-0.0449 0.286946,0.002 -0.24457,-0.004 -0.600488,0.0988 -0.06672,0.0193 -0.10696,0.0887 -0.158503,0.1353 -0.0037,0.003 -0.0098,0.0171 -0.0063,0.0136 0.266441,-0.263 -0.06932,0.0368 0.324755,-0.30068 0.257995,-0.1576 0.353216,-0.23951 0.659593,-0.32007 0.09203,-0.0242 0.189238,-0.0203 0.283993,-0.0291 0.305721,-0.0282 0.613093,-0.0545 0.920372,-0.0373 0.1397,-0.0543 0.907161,1.92138 0.767464,1.97564 z"
       inkscape:connector-curvature="0" />
    <path
       style="fill:#ebe9eb;fill-opacity:1;stroke:none;stroke-width:0.26458332"
       id="path4544"
       d="m 28.353916,231.96307 c 0.590876,-0.0127 1.173761,0.0853 1.755215,0.1751 0.284882,0.0286 0.01021,-0.003 -0.36893,0.0224 -0.01029,7.9e-4 0.01535,0.0149 0.02521,0.0179 0.0386,0.0119 0.102494,-0.007 0.132977,-0.0133 0.04145,-0.008 0.08279,-0.0167 0.124187,-0.0251 0.471985,-0.0797 0.955656,-0.0486 1.432589,-0.0377 0.195144,0.01 1.0423,0.006 0.150318,0.008 0.143536,-0.0373 0.670459,1.99263 0.526925,2.02989 v 0 c -0.413146,10e-4 -0.826399,0.005 -1.239509,-0.003 -0.09822,-0.002 -0.196437,-0.004 -0.294658,-0.006 -0.04487,-7.9e-4 -0.179436,-5.3e-4 -0.134599,-0.002 0.748765,-0.0311 0.409329,0.0106 0.229274,-0.0308 -0.135884,-0.0186 -0.237728,0.0496 -0.370141,0.0587 -0.22602,0.0156 -0.597662,0.0193 -0.870167,0.0228 -0.545208,-0.005 -1.092195,-0.0455 -1.625489,-0.1646 -0.145082,-0.0373 0.381722,-2.08902 0.526804,-2.05177 z"
       inkscape:connector-curvature="0" />
    <path
       style="fill:#ebe9eb;fill-opacity:1;stroke:none;stroke-width:0.26458332"
       id="path4546"
       d="m 42.943785,234.79596 c -0.437976,0.37126 -0.932511,0.67584 -1.440381,0.94144 -0.227629,0.0301 -0.426522,0.20179 -0.652868,0.23194 -0.03044,0.004 0.05144,-0.0336 0.07716,-0.0503 -0.01699,0.006 -0.06317,0.0318 -0.05099,0.0185 0.02955,-0.0324 0.06751,-0.10002 0.105625,-0.0784 0.03634,0.0207 -0.05864,0.0597 -0.09017,0.0871 -0.189805,0.16519 -0.365612,0.28228 -0.577993,0.41161 -0.329496,0.1724 -0.683096,0.30446 -1.042414,0.40071 -0.05341,0.0178 -0.10677,0.0358 -0.160242,0.0534 -0.0634,0.0207 -0.126796,0.0414 -0.190196,0.0621 0.02381,-0.0219 0.103159,-0.0596 0.0714,-0.0655 -0.02344,-0.004 -0.249243,0.16895 -0.305065,0.18945 -0.0393,0.0276 -0.0779,0.0563 -0.117893,0.0829 -0.09061,0.0603 -0.179631,0.12332 -0.273878,0.17775 -0.06761,0.039 -0.457724,0.20883 -0.484013,0.1677 -0.02529,0.008 -0.08585,0.0477 -0.07589,0.0232 0.01754,-0.0431 0.07193,-0.0595 0.104275,-0.093 0.009,-0.009 -0.02328,0.0116 -0.03345,0.0196 -0.440341,0.34504 0.09369,-0.0976 -0.255461,0.20221 -0.524409,0.43928 -1.199399,0.39383 -1.841825,0.31145 -0.140846,-0.0499 0.564171,-2.04172 0.705016,-1.99186 v 0 c 0.309774,0.0235 0.412991,-0.0659 -0.246623,0.0342 -0.01543,0.002 0.004,0.0322 -0.0016,0.0468 -0.01733,0.0466 -0.06123,0.0803 -0.07272,0.13015 0.10813,-0.0301 -0.03839,0.0161 0.180459,-0.14654 0.0075,-0.006 -0.0081,0.0329 -2.65e-4,0.0279 0.158227,-0.10176 0.265163,-0.29268 0.458597,-0.34206 0.06306,-0.0302 0.122749,-0.0689 0.189191,-0.0907 0.03164,-0.0104 0.05855,0.0928 0.09976,0.006 0.04303,-0.0156 0.08011,-0.068 0.124677,-0.0576 0.02789,0.007 -0.05974,0.0653 -0.03443,0.0788 0.02803,0.0149 0.05121,-0.0375 0.07681,-0.0563 0.193368,-0.16697 0.514739,-0.3967 0.724202,-0.51736 0.08594,-0.0495 0.208095,-0.0103 0.283472,-0.0904 0.250364,-0.0959 0.520253,-0.16097 0.779012,-0.21413 0.09283,-0.0441 0.171564,-0.11568 0.266521,-0.15498 0.01773,-0.007 0.03832,0.0238 0.05552,0.0153 0.196014,-0.097 0.312423,-0.34095 0.536861,-0.39564 0.07609,-0.0361 0.148503,-0.0813 0.228261,-0.10833 0.01252,-0.004 -0.0164,0.0231 -0.01595,0.0363 2.22e-4,0.007 0.01132,0.0112 0.01749,0.009 0.270745,-0.0971 -0.07366,0.0304 0.190759,-0.10135 0.18115,-0.0507 0.31283,-0.22083 0.456523,-0.32782 0.240794,-0.17928 0.507357,-0.34967 0.793773,-0.44234 0.11026,-0.10174 1.549133,1.45757 1.438873,1.55931 z"
       inkscape:connector-curvature="0" />
    <path
       style="fill:#ebe9eb;fill-opacity:1;stroke:none;stroke-width:0.26458332"
       id="path4548"
       d="m 37.568171,233.25613 c 0.510715,0.47323 0.873792,1.06207 1.172242,1.68407 0.121076,0.15023 0.08375,0.38364 0.152844,0.55298 0.01209,0.0297 -0.03857,-0.0916 -0.0068,-0.0958 0.105095,-0.0138 0.03719,0.15721 0.07138,0.0573 0.0158,0.0179 0.177834,0.18098 0.195384,0.18594 0.02944,0.008 -0.0599,-0.0998 -0.03271,-0.0858 0.08698,0.0448 0.312389,0.28286 0.382419,0.35365 0.181493,0.19504 0.269692,0.43144 0.401989,0.65542 0.0071,0.0121 0.02788,0.009 0.03723,0.0198 0.09308,0.10459 0.04246,0.1404 0.09278,0.0959 0.233199,0.21781 0.365427,0.54545 0.630862,0.72863 0.03799,0.0415 0.07598,0.083 0.11397,0.12452 0.0036,-0.014 -0.0035,-0.0441 0.01069,-0.0419 0.169315,0.0264 0.04583,0.0845 0.11743,0.0458 0.12175,0.0843 -1.070613,1.80613 -1.192364,1.72182 v 0 c -0.271134,-0.15136 -0.529042,-0.3096 -0.740814,-0.54311 -0.218041,-0.24422 -0.383011,-0.52611 -0.609331,-0.75897 -0.203578,-0.23977 -0.361931,-0.49875 -0.538763,-0.75572 -0.199628,-0.19828 -0.457112,-0.34917 -0.616796,-0.59279 -0.170085,-0.25412 -0.196551,-0.34274 -0.320363,-0.62281 -0.02442,-0.0553 -0.07311,-0.0962 -0.109151,-0.14472 -0.303633,-0.42182 -0.663464,-0.81014 -0.886825,-1.28532 -0.09186,-0.11842 1.582854,-1.41746 1.674709,-1.29904 z"
       inkscape:connector-curvature="0" />
    <path
       style="fill:#ebe9eb;fill-opacity:1;stroke:none;stroke-width:0.26458332"
       id="path4550"
       d="m 44.818807,236.60291 c -0.115252,0.60996 -0.37375,1.16344 -0.717049,1.67584 -0.101278,-0.19486 -0.132604,0.37398 -0.240684,0.30339 -0.03755,-0.0245 0.03495,-0.0828 0.05711,-0.12181 0.01765,-0.031 -0.01262,0.0709 -0.01106,0.10652 -0.06392,0.32414 -0.126984,0.64468 -0.213072,0.96359 -0.05062,0.36116 -0.249208,0.66876 -0.391408,0.99629 -0.09624,0.24629 -0.19667,0.48646 -0.261017,0.74255 -0.06375,0.3765 -0.260382,0.70201 -0.445005,1.02878 -0.06505,0.13708 -0.182158,0.27096 -0.17911,0.42876 -0.05438,0.30548 -0.137012,0.60443 -0.293404,0.87455 -0.518655,0.69919 0.570645,0.62582 -2.043602,-0.40403 -0.01873,-0.007 -0.0047,-0.53602 -0.0031,-0.58529 7.94e-4,-0.43936 0.09728,-0.8652 0.244099,-1.27636 0.139915,-0.25988 0.228267,-0.54105 0.337675,-0.81424 0.17163,-0.3655 0.406985,-0.69487 0.608774,-1.04414 0.153435,-0.22576 0.252923,-0.48024 0.369203,-0.72561 0.132177,-0.16914 0.156588,-0.38923 0.259252,-0.5723 0.06995,-0.12472 0.146454,-0.24565 0.21968,-0.36847 0.135266,-0.14546 0.244266,-0.29773 0.320792,-0.48053 0.15947,-0.31602 0.327451,-0.66574 0.623194,-0.87885 0.231476,-0.28385 0.487111,-0.54701 0.743355,-0.80833 0.159911,-0.14183 0.322924,-0.29106 0.501592,-0.41045 0.01056,-0.007 0.02689,-2e-5 0.03742,-0.007 0.04765,-0.0321 0.0788,-0.0925 0.134015,-0.10847 0.03625,-0.0104 -0.04601,0.0598 -0.06902,0.0897 0.03752,-0.039 0.0611,-0.10026 0.112546,-0.11713 0.04331,-0.0142 -0.113059,0.14302 -0.08412,0.10781 0.131265,-0.15973 0.235177,-0.32681 0.370864,-0.48665 0.298248,-0.36829 0.694552,-0.58116 1.117494,-0.76626 0.174524,-0.0682 0.278707,-0.11822 0.467455,-0.15169 0.0075,-0.001 0.0062,0.0139 0.0094,0.0208 0.01574,-5.3e-4 0.03178,0.002 0.04724,-0.001 0.08493,-0.0165 0.167349,-0.0439 0.251185,-0.0652 -0.02492,0.0161 -0.05491,0.0262 -0.07474,0.0482 -0.0089,0.01 0.02666,-0.003 0.03898,-0.008 0.04385,-0.0178 0.08533,-0.0411 0.128831,-0.0598 0.06397,-0.0275 0.349109,-0.16903 0.408336,-0.12043 0.589209,-0.17002 0.68547,-0.23077 1.44525,-0.11934 0.09184,0.0135 0.167693,0.0796 0.251539,0.11945 0.473848,0.4185 0.18996,0.10834 0.538932,0.67218 0.0075,0.0122 0.02289,0.0172 0.03431,0.0258 0.02638,0.0459 0.05583,0.0901 0.07916,0.13763 0.137191,0.27936 0.03804,0.13364 0.118335,0.24702 0.03016,0.0681 0.06471,0.13446 0.09047,0.20436 0.04657,0.12637 0.09951,0.29064 0.13984,0.42535 0.04755,0.15884 0.05448,0.23796 0.04246,0.13229 0.154014,0.17188 0.291179,0.42854 0.390824,0.66845 0.18624,0.33564 0.222763,0.7147 0.212545,1.09092 -0.05898,0.5144 -0.169778,0.72228 -0.584862,1.11124 -0.08007,0.075 -0.34717,0.16191 -0.4422,0.19701 -0.206389,0.0718 -0.428803,0.0384 -0.623277,0.1109 -0.174384,0.0602 -0.344188,0.11957 -0.461878,0.19443 -0.24747,0.16726 -0.549526,0.30555 -0.881721,0.41916 -0.560662,0.18504 -1.14677,0.19881 -1.729981,0.10992 -0.202514,-0.0468 -1.069329,-0.0239 -0.155532,-0.0188 -0.507487,0.0423 -0.971709,-0.037 -1.481484,-0.10846 -0.34911,-0.2333 -0.221615,-0.11119 -0.535305,-0.5461 -0.02408,-0.0334 -0.02363,-0.0886 -0.05994,-0.10802 -0.02857,-0.0153 0.06283,0.0942 0.0305,0.0923 -0.04056,-0.002 -0.05094,-0.0633 -0.0764,-0.095 -0.07903,-0.1232 1.663264,-1.24089 1.742298,-1.11769 v 0 c 0.09206,0.11335 0.041,0.0468 0.181811,0.27031 0.0067,0.0107 0.02663,0.0427 0.01828,0.0332 -0.07533,-0.0857 -0.140708,-0.18019 -0.219786,-0.26245 -0.03384,-0.0352 -0.07807,-0.0587 -0.11711,-0.088 -1.389505,-0.14844 -0.384091,-0.0479 -0.02315,-0.0967 0.463349,-5.3e-4 0.920096,-0.002 1.379244,0.0613 0.03399,2e-4 0.13595,0.001 0.10197,5.3e-4 -0.145259,-0.003 -0.29055,-0.0113 -0.435814,-0.008 -0.02766,5.3e-4 0.05414,0.0115 0.08149,0.0157 0.100679,0.0155 0.201112,0.0149 0.301476,-0.004 0.104842,-0.024 0.204378,-0.0735 0.311338,-0.0847 0.02553,-0.003 0.01823,0.0759 0.04144,0.065 0.06115,-0.0289 0.105216,-0.0866 0.1652,-0.11779 0.01087,-0.006 -0.0053,0.0239 -0.0079,0.0359 0.223705,-0.13833 0.438128,-0.31804 0.692734,-0.39822 0.237427,-0.10168 0.561451,-0.25368 0.819875,-0.28929 0.02265,-0.003 0.04309,0.0153 0.06463,0.023 0.194535,0.12505 -0.01106,0.1187 -0.165849,0.43964 -0.02513,0.0521 -0.02138,0.11383 -0.03449,0.17022 -0.0084,0.0359 0.02151,-0.11578 0.01445,-0.10971 0.003,-0.0127 0.0034,-0.0262 0.009,-0.038 0.0048,-0.0102 0.01937,0.0259 0.01357,0.0157 -0.05207,-0.0914 -0.09229,-0.18992 -0.140369,-0.28306 -0.08399,-0.20991 -0.244848,-0.38464 -0.328546,-0.59549 -0.08836,-0.21623 -0.177578,-0.43331 -0.248857,-0.65532 -0.05652,-0.10899 -0.113202,-0.21702 -0.169749,-0.32577 -0.03303,-0.0635 -0.168209,-0.19143 -0.09661,-0.19184 0.145415,-8e-4 0.09368,0.36534 0.287962,0.3277 0.225335,0.17243 0.05704,0.0609 0.709674,0.0484 0.03374,-5.3e-4 -0.06408,-0.0288 -0.09775,-0.0264 -0.07247,0.005 -0.158105,0.0469 -0.220078,0.0709 -0.06884,0.0264 -0.134686,0.0626 -0.206537,0.0792 -0.02929,0.007 -0.05266,-0.036 -0.08273,-0.0359 -0.168379,2.7e-4 -0.28928,0.19079 -0.457616,0.19038 -0.139009,-0.04 -0.236683,0.0731 -0.372118,0.0772 -0.02678,8e-4 0.07049,-0.0513 0.03305,-0.0733 -0.128831,0.0501 -0.05196,0.0157 -0.224449,0.11583 -0.02217,0.009 -0.04881,-7.9e-4 -0.07184,0.006 -0.155204,0.0461 -0.183295,0.0574 -0.299273,0.20218 -0.232478,0.15142 -0.348096,0.31249 -0.477422,0.4654 -0.01304,0.0154 0.02098,-0.0345 0.03148,-0.0518 -0.151657,0.17685 -0.287975,0.32962 -0.511704,0.52654 -0.304986,0.3148 -0.614919,0.62645 -0.961822,0.89578 -0.02281,0.0201 -0.06788,0.0908 -0.06839,0.0604 -7.94e-4,-0.0447 0.04879,-0.0753 0.06746,-0.11599 0.0092,-0.02 -0.01789,0.0466 -0.03878,0.0536 -0.01405,0.005 0.0158,-0.0566 0.0088,-0.0435 -0.03668,0.0684 -0.05434,0.14598 -0.09722,0.21147 -0.149024,0.36114 -0.34103,0.70955 -0.615855,0.99025 0.02064,-0.0636 0.04386,-0.12649 0.06194,-0.1909 0.01225,-0.0436 -0.02882,0.0859 -0.0444,0.12844 -0.06997,0.19102 -0.11734,0.40223 -0.243602,0.56608 -0.01535,0.0328 -0.130887,0.29634 -0.163631,0.31184 -0.02691,0.0127 0.02164,-0.11646 0.01119,-0.0886 -0.06704,0.17848 -0.09158,0.37442 -0.202157,0.53642 -0.103566,0.23221 -0.352748,0.79394 -0.569098,0.91165 -0.108558,0.27701 -0.233979,0.54654 -0.356708,0.8173 -0.0978,0.0517 -0.09272,0.6364 -0.100561,0.71758 -0.0041,0.0486 -0.04151,0.49174 -0.06308,0.48892 -0.652391,-0.0853 -1.287206,-0.27876 -1.938647,-0.37103 -0.03381,-0.005 -0.04418,0.12298 -0.0501,0.0894 -0.0074,-0.0418 0.0299,-0.0795 0.04484,-0.11917 0.02244,-0.0454 0.04245,-0.0922 0.06729,-0.13633 0.0031,-0.006 0.01601,-0.0175 0.01564,-0.0111 -0.0021,0.0375 -0.03827,0.14396 -0.0213,0.1105 0.03291,-0.0649 0.02381,-0.15661 0.04684,-0.22642 0.05081,-0.41282 0.176218,-0.80662 0.370795,-1.17521 0.111847,-0.17179 0.05383,-0.0771 0.171201,-0.2857 0.01791,-0.0282 0.04028,-0.10392 0.06217,-0.0787 0.0291,0.0336 -0.03251,0.1735 -0.01561,0.13241 0.04434,-0.1078 0.025,-0.23485 0.07847,-0.34077 0.114927,-0.35723 0.171548,-0.73523 0.338807,-1.07504 0.06322,-0.1153 0.11992,-0.23427 0.187375,-0.34715 0.01667,-0.0279 0.03227,-0.0984 0.05795,-0.0785 0.03067,0.0238 -0.02127,0.15304 -0.0095,0.11606 0.03951,-0.1241 0.02815,-0.261 0.08292,-0.38181 0.07071,-0.21951 0.09515,-0.45416 0.176948,-0.6657 0.04971,-0.33789 0.137261,-0.66674 0.316296,-0.96271 0.08011,-0.17687 0.191638,-0.34537 0.266102,-0.5232 0.107987,-0.2579 0.167815,-0.54158 0.347517,-0.76503 0.03477,-0.14603 2.099895,0.34573 2.065123,0.49176 z"
       inkscape:connector-curvature="0" />
    <path
       style="fill:#ebe9eb;fill-opacity:1;stroke:none;stroke-width:0.26458332"
       id="path4552"
       d="m 55.371817,236.53321 c -0.373269,0.33181 -0.807368,0.58203 -1.238009,0.83036 -0.0539,0.035 -0.103442,0.0779 -0.161711,0.1051 -0.0089,0.004 0.008,-0.0349 -2.65e-4,-0.0296 -0.04036,0.026 -0.282379,0.22801 -0.374589,0.25663 -0.02918,0.009 0.04429,-0.0421 0.06644,-0.0632 -0.128704,0.0112 -0.06914,0.12024 -0.256931,0.24074 -0.09278,0.10712 -0.181311,0.21337 -0.280107,0.3153 -0.03389,0.035 0.09782,-0.16586 0.08477,-0.11895 -0.01378,0.0496 -0.03926,0.0952 -0.0589,0.14277 -0.133366,0.27037 -0.190132,0.40863 -0.295264,0.65185 -0.09445,0.20961 -0.158721,0.37501 -0.219697,0.56676 -0.06454,0.0661 -0.04798,0.40245 -0.0385,0.15566 0.03551,-0.0759 -0.0073,0.0273 -0.04184,-0.17995 -0.0013,-0.008 0.01667,0.002 0.02498,0.003 -0.014,-0.0278 -0.02521,-0.0572 -0.04198,-0.0834 -0.07775,-0.12162 -0.130858,-0.11681 0.0457,-0.0525 0.01916,-0.005 0.03804,-0.012 0.05746,-0.0164 0.08106,-0.0185 0.503285,-0.0335 0.292992,-0.0421 -0.01775,-8e-4 -0.67708,0.004 -0.269558,0.001 0.458139,-0.031 0.915271,-0.0333 1.374516,-0.0333 0.04553,0.001 0.181962,2.4e-4 0.136591,0.004 -0.620038,0.0553 -0.569709,-0.0758 -0.86492,0.3557 0.130024,-0.38161 0.322807,-0.72012 0.62543,-0.99279 0.139763,-0.0926 0.300241,-0.21826 0.463753,-0.27811 0.01201,-0.004 -0.03178,0.0368 -0.01955,0.033 0.03113,-0.01 0.0643,-0.0793 0.0825,-0.0523 0.01894,0.0281 -0.04346,0.052 -0.06519,0.078 -0.292454,0.62785 -0.0051,-0.3114 0.01704,-0.37817 0.103688,-0.27655 0.205944,-0.44851 0.274151,-0.62458 0.06309,-0.1619 0.105368,-0.33229 0.157234,-0.50121 0.0081,-0.0386 -0.01072,-0.48314 -0.01688,-0.27424 -0.1462,0.0318 0.141349,0.23657 0.09106,0.26837 -0.03833,0.0242 -0.08372,-0.0779 -0.123722,-0.0565 -0.02312,-0.0115 0.05792,0.0946 0.02643,0.0912 -0.165608,-0.0175 -0.289351,-0.1278 -0.461375,-0.10941 -0.186023,0.0529 -0.465145,0.0159 0.280001,0.0366 0.0391,10e-4 -0.07823,-1.9e-4 -0.117335,8e-4 -0.08484,0.002 -0.190503,0.008 -0.274698,0.013 -0.418471,0.0309 -0.837825,0.0215 -1.257023,0.019 -0.143354,-0.0381 0.395722,-2.06542 0.539073,-2.02731 v 0 c -0.887047,-0.003 -0.09536,0.007 0.100359,-0.004 0.507032,-0.0286 1.025263,-0.0889 1.524273,0.0332 0.294013,0.0792 0.573997,0.11133 0.8452,0.25994 0.41338,0.24989 0.72525,0.50999 0.866905,1.00337 0.09014,0.41918 0.109157,0.84075 -0.0049,1.25997 -0.02254,0.0738 -0.0618,0.14209 -0.08157,0.2167 -0.04383,0.16544 -0.06631,0.33793 -0.150082,0.49076 -0.02795,0.0726 -0.05522,0.14542 -0.08384,0.21774 -0.0205,0.0518 -0.04655,0.10128 -0.07274,0.15044 -0.0066,0.0124 -0.02246,0.0475 -0.0254,0.0337 -0.0056,-0.0265 0.02582,-0.1049 0.01564,-0.0798 -0.01696,0.0418 -0.0241,0.087 -0.03617,0.13043 -0.118465,0.37123 -0.133279,0.75731 -0.388753,1.08374 -0.147484,0.15939 -0.262625,0.27473 -0.444346,0.39293 -0.01431,0.009 -0.03483,0.003 -0.0501,0.0109 -0.04389,0.0221 -0.07749,0.0666 -0.12541,0.0775 -0.01696,0.004 0.0067,-0.0342 0.01,-0.0512 -0.107032,0.0164 -0.01839,0.0141 0.03124,-0.17666 0.0092,-0.0355 -0.02954,0.0673 -0.04755,0.0992 -0.0044,0.008 -0.01281,0.0128 -0.01921,0.0192 -0.02281,0.0638 -0.04564,0.12764 -0.06846,0.19146 -0.01752,0.0437 -0.03978,0.0853 -0.05967,0.1279 -0.0662,0.12108 -0.123703,0.24733 -0.198599,0.36324 -0.03542,0.0548 -0.08218,0.10207 -0.130466,0.14598 -0.477642,0.43443 -0.711113,0.43856 -1.430888,0.42346 0.928452,-0.004 -0.01278,-0.0157 -0.218157,0.0266 -0.578419,0.0564 -1.172202,0.075 -1.719593,-0.14256 -0.519147,-0.132 -0.87457,-0.61061 -1.021858,-1.09878 -0.01717,-0.11142 -0.04258,-0.22189 -0.05155,-0.33427 -0.0223,-0.27927 0.06197,-0.57135 0.15527,-0.83032 0.0013,0.005 0.0024,0.0206 0.0038,0.0155 0.06542,-0.23146 0.139237,-0.44578 0.222076,-0.66409 0.09805,-0.23969 0.215768,-0.46435 0.296637,-0.66541 0.05821,-0.12948 0.102307,-0.26588 0.171662,-0.38974 0.0431,-0.077 0.214728,-0.28866 0.288319,-0.36711 0.0038,-0.004 0.0099,0.005 0.01484,0.007 0.156411,-0.20967 0.338532,-0.42149 0.546645,-0.58176 0.06504,-0.0532 0.130083,-0.10636 0.195123,-0.15954 0.0034,0.005 0.0048,0.0186 0.01035,0.0157 0.04242,-0.022 0.08328,-0.11527 0.117575,-0.082 0.02013,0.0195 -0.317,0.3253 0.03641,-0.0275 0.01177,-0.0118 0.02697,-0.0194 0.04045,-0.0292 0.389457,-0.37806 0.816663,-0.74561 1.335628,-0.9272 0.110259,-0.10174 1.54913,1.45757 1.43887,1.55931 z"
       inkscape:connector-curvature="0" />
    <path
       style="fill:#ebe9eb;fill-opacity:1;stroke:none;stroke-width:0.26458332"
       id="path4554"
       d="m 59.323914,236.35703 c 0.09443,0.55854 0.07043,1.12927 0.01278,1.69035 -0.05471,0.25344 -0.05932,0.34751 -0.179408,0.58772 -0.04094,0.0819 -0.09721,0.15523 -0.148879,0.23081 -0.0067,0.01 -0.0306,0.0353 -0.02569,0.0245 0.178803,-0.39241 0.0024,0.0707 0.130445,-0.28085 -0.06313,0.18892 -0.09697,0.36774 -0.09515,0.56456 0.03802,0.37099 -0.04777,0.72497 -0.2046,1.05784 -0.656431,-0.0835 -1.329838,-0.0803 -1.969297,-0.25047 -0.095,-0.0253 -0.05097,-0.19108 -0.05808,-0.28913 -0.02434,-0.33558 0.0668,-0.65869 0.157085,-0.97695 -0.03017,-0.0362 0.269354,-0.69566 0.202362,-0.52487 0.0067,-0.28024 0.08357,-0.56651 0.168478,-0.83771 0.07966,-0.18742 0.155483,-0.37628 0.228031,-0.56652 0.0011,-0.19059 0.270386,-0.35533 0.254381,-0.54442 0.141182,-0.46721 0.34906,-0.76762 0.701125,-1.1009 0.227772,-0.14273 0.405844,-0.29664 0.662485,-0.41974 0.491471,-0.26603 0.991492,-0.25075 1.541521,-0.25758 0.155001,-0.002 -0.30996,0.006 -0.464942,0.01 0.294555,-0.0224 0.583322,-0.0883 0.878115,-0.11555 0.453991,-0.0335 0.902483,0.0332 1.355209,0.0324 0.04056,-7.9e-4 0.162245,-0.001 0.121685,-0.002 -0.924502,-0.0165 -0.01066,0.01 0.392266,0.0618 0.07046,0.009 0.13563,0.0423 0.203448,0.0634 0.133488,0.0655 -0.792419,1.95329 -0.925906,1.88781 v 0 c -0.02193,-0.001 -0.08771,-0.004 -0.06577,-0.003 0.173646,0.007 0.693296,-5.3e-4 0.520904,0.0215 -0.146613,0.0187 -0.573154,0.001 -0.817449,-0.008 -0.205647,-0.011 -1.223671,-0.0555 -0.22439,-0.0339 -0.255098,-0.031 -0.497493,0.0257 -0.744707,0.0903 -0.254831,0.0131 -0.510011,0.0206 -0.764487,0.0393 -0.143272,0.0105 0.287655,-0.002 0.430718,-0.0148 0.02729,-0.002 -0.05363,-0.0113 -0.08039,-0.0172 -0.0677,-0.0149 -0.13217,-0.0346 -0.202248,-0.0204 -0.214315,0.0808 -0.08181,0.0559 -0.0701,-0.0214 0.0019,-0.0114 -0.02373,0.004 -0.03293,0.0105 -0.380027,0.28686 0.03599,-0.0211 -0.24012,0.17713 0.03967,-0.14269 0.005,0.0184 -0.04057,-0.002 -0.02241,-0.01 0.02654,-0.0542 0.01053,-0.0728 -0.01228,-0.0143 -0.02682,0.0274 -0.03515,0.0443 -0.01971,0.04 -0.03212,0.0831 -0.04818,0.12472 -0.0093,0.0178 -0.01868,0.0355 -0.02801,0.0533 -0.03132,0.0916 -0.243239,0.61272 -0.298378,0.6557 -0.01196,0.009 0.0028,-0.0302 0.0042,-0.0453 -0.0098,0.0277 -0.06458,0.19791 -0.09577,0.24765 -0.0024,0.004 -0.0049,-0.017 -0.0065,-0.0126 -0.04484,0.12764 -0.06526,0.26789 -0.141148,0.38343 5.29e-4,-0.0182 0.0068,-0.072 0.0013,-0.0546 -0.06866,0.21469 -0.07111,0.27234 -0.08324,0.46174 -0.04206,0.26958 -0.135732,0.51475 -0.195051,0.77638 -0.01558,0.0612 -0.04591,0.31369 -0.107903,0.36064 -0.0168,0.0127 -0.03108,-0.0348 -0.05212,-0.0358 -0.640535,-0.0295 -1.281216,-0.0557 -1.921825,-0.0835 -0.01254,0.0309 -0.02291,0.0627 -0.03763,0.0926 -0.008,0.0163 0.0099,-0.035 0.01741,-0.0515 0.0074,-0.0163 0.0073,0.0513 0.0061,0.0159 -0.0094,-0.27557 -0.0071,-0.0836 -0.0066,-0.37138 0.0109,-0.18693 0.0425,-0.70011 0.161136,-0.84682 0.0082,-0.0101 0.0024,0.0259 0.0037,0.0388 0.08702,-0.32719 0.0444,-0.24911 0.208295,-0.54284 0.01138,-0.0204 0.04971,-0.078 0.0422,-0.0559 -0.03932,0.11567 -0.12043,0.22058 -0.134318,0.3469 -0.05765,-0.56109 -0.08165,-1.13182 0.01278,-1.69035 0,-0.14979 2.118315,-0.14979 2.118315,0 z"
       inkscape:connector-curvature="0" />
    <path
       style="fill:#ebe9eb;fill-opacity:1;stroke:none;stroke-width:0.26458332"
       id="path4556"
       d="m 68.338525,228.58483 c -0.0461,0.56614 -0.186431,1.11771 -0.377275,1.65104 -0.0122,0.0311 -0.02442,0.0623 -0.03662,0.0934 -0.0037,0.002 -0.01021,0.009 -0.01119,0.005 -0.0047,-0.0192 1.1e-5,-0.0791 -0.0021,-0.0594 -0.01741,0.15595 -0.02958,0.31285 -0.04667,0.46903 0.0097,0.29084 -0.05925,0.56901 -0.145568,0.84467 -0.02787,0.1979 -0.139698,0.3804 -0.147188,0.57874 0.0105,0.24804 -0.118917,0.47417 -0.144981,0.71623 -0.0808,0.23732 -0.130614,0.4674 -0.173892,0.71103 -0.05941,0.33591 -0.171612,0.65782 -0.285996,0.97809 -0.06661,0.21019 -0.186082,0.41121 -0.224835,0.62927 -0.0879,0.23884 -0.140362,0.48468 -0.206634,0.72955 -0.02236,0.22973 -0.137145,0.43645 -0.190884,0.65697 -0.09949,0.23435 -0.156504,0.45649 -0.249457,0.68862 -0.0136,0.16262 -0.131056,0.31052 -0.146987,0.47124 -0.0602,0.17545 -0.111162,0.34225 -0.114157,0.52558 0.0026,0.24992 0.02005,0.49939 0.0302,0.74907 0.0073,0.23759 0.0084,0.47553 0.0019,0.71316 -5.3e-4,0.0242 2.64e-4,-0.0485 5.29e-4,-0.0728 0.05406,-0.14813 -0.0062,0.34247 -0.0061,-0.0884 5e-6,-0.017 0.02689,0.0217 0.03651,0.0357 0.109505,0.15985 0.07623,0.22673 0.108754,0.14846 0.02851,0.0414 0.05101,0.0877 0.08554,0.1243 0.0093,0.01 1.99e-4,-0.0281 -0.0061,-0.0401 -0.02273,-0.0434 -0.05035,-0.0844 -0.07967,-0.12367 -0.02799,-0.0375 -0.113493,-0.0648 -0.09182,-0.10631 0.02043,-0.0391 0.08323,0.03 0.12605,0.0408 0.02612,0.007 0.05333,0.007 0.08,0.0112 0.0195,-0.003 0.0392,-0.004 0.05853,-0.008 0.529326,-0.10103 -0.650959,-0.0231 -0.170902,-0.0383 0.04429,-0.001 0.08852,-0.004 0.132787,-0.006 0.467492,-0.0333 0.936304,-0.0421 1.404829,-0.0272 0.168534,0.0353 0.359113,-0.0291 0.525806,0.009 0.195397,0.0441 0.30204,0.10352 0.475903,0.18469 0.399661,0.18559 0.469109,-0.28538 -0.535879,0.0632 -0.17127,0.0594 -0.265118,0.24732 -0.397676,0.37098 -0.03789,0.092 -0.07578,0.18407 -0.113671,0.27611 0.01386,-0.14643 2.084777,0.0497 2.070905,0.19618 v 0 c -0.04589,0.16289 -0.09178,0.32577 -0.137668,0.48865 -0.15997,0.16564 -0.266788,0.4097 -0.479907,0.49691 -0.599826,0.24546 -0.979154,0.0641 -1.484463,-0.11552 0.0077,0.0288 0.08743,0.0524 0.06071,0.0655 -0.0785,0.0386 -0.420153,-0.0374 -0.526114,-0.009 -0.04101,5.3e-4 -0.164057,0.002 -0.123042,10e-4 0.133771,-5.3e-4 0.267547,-5.3e-4 0.401307,-0.002 0.04036,-5.2e-4 -0.08073,-0.001 -0.121097,-0.001 -0.08975,-4e-5 -0.165645,0.002 -0.255553,0.005 -0.04675,0.002 -0.09345,0.005 -0.140168,0.008 -0.517271,0.0361 -1.04793,0.079 -1.548736,-0.082 -0.07196,-0.0215 -0.149447,-0.0265 -0.21784,-0.0576 -0.300201,-0.13622 -0.538916,-0.31773 -0.726823,-0.59031 -0.193834,-0.27884 -0.400058,-0.55566 -0.460042,-0.90308 -0.0408,-0.29127 -0.03826,-0.57788 -0.04754,-0.87146 -0.02376,-0.34061 -0.05757,-0.68252 -0.02508,-1.02387 0.0054,-0.0416 0.107053,-0.70355 0.159292,-0.66456 0.02888,0.0216 -0.01889,0.14253 -0.01881,0.10649 1.5e-4,-0.0564 0.01265,-0.11212 0.01897,-0.16819 0.06932,-0.29348 0.159094,-0.48819 0.235651,-0.76851 0.01093,-0.0247 0.01656,-0.0526 0.03283,-0.0742 0.0053,-0.007 2.65e-4,0.035 0.0031,0.0265 0.09935,-0.31611 0.0039,-0.0932 0.107146,-0.35293 0.03311,-0.0832 0.02717,-0.065 0.02466,-0.0167 0.06166,-0.26094 0.155813,-0.50638 0.205592,-0.77006 0.01654,-0.0478 0.04624,-0.0907 0.05985,-0.13935 0.03577,-0.12799 0.04447,-0.26686 0.101364,-0.38906 0.06095,-0.33198 0.172535,-0.64442 0.289002,-0.96023 0.109694,-0.23138 0.164229,-0.48761 0.239371,-0.73095 0.008,-0.0161 0.128413,-0.58475 0.154739,-0.56828 0.01101,0.007 -5.29e-4,0.026 -7.94e-4,0.0389 0.03557,-0.27171 0.112678,-0.53265 0.140931,-0.80486 0.07058,-0.33323 0.153744,-0.47611 0.199051,-0.77865 0.0073,-0.0254 0.05435,-0.14031 0.05952,-0.17802 0.02336,-0.17051 0.0269,-0.34461 0.07645,-0.51112 0.0092,-0.0317 0.01246,-0.0658 0.02759,-0.0951 0.0072,-0.0141 0.05992,0.3838 0.0016,0.15291 -0.05084,-0.20146 -0.0078,-0.42346 -0.0021,-0.62662 0.07725,-0.58736 0.187521,-1.18265 0.419714,-1.72966 0.03477,-0.14603 2.099897,0.34573 2.065123,0.49176 z"
       inkscape:connector-curvature="0" />
    <path
       style="fill:#ebe9eb;fill-opacity:1;stroke:none;stroke-width:0.26458332"
       id="path4558"
       d="m 63.23259,232.49761 c 0.672632,-0.14041 1.351053,-0.0298 2.001896,0.15795 0.08907,0.0291 0.135758,0.0572 0.223004,0.0531 0.01474,-8e-4 0.0575,-0.0109 0.04277,-0.0113 -0.15984,-0.004 -0.628716,-0.0585 -0.479695,-5.3e-4 1.811166,0.70453 0.520713,-0.10037 1.156113,0.31211 0.03174,0.014 0.06063,0.0396 0.09523,0.0419 0.01881,0.001 0.02861,-0.0258 0.04619,-0.0326 0.02619,-0.0101 0.05444,-0.0184 0.08247,-0.017 0.197437,0.01 0.390395,0.0593 0.589581,0.0675 0.120801,0.0383 0.245669,-0.0238 0.366234,-0.005 0.350665,0.0559 0.692438,0.21037 1.026006,0.32762 0.03627,0.002 0.07331,-0.001 0.108797,0.007 0.06735,0.0148 0.130702,0.0446 0.197789,0.0606 0.174557,0.0414 0.357569,0.0428 0.533927,0.0199 0.284575,0.0148 0.48432,0.25509 0.747207,0.32235 0.08625,0.0221 0.213879,-0.006 0.300731,-0.0157 0.03243,-0.006 0.06454,-0.0203 0.09728,-0.017 0.144093,0.0148 0.229235,0.0656 0.365832,0.0967 0.101097,0.023 0.207894,0.0168 0.31038,0.0127 0.27908,-0.0539 0.531744,0.0834 0.785688,0.18057 0.127913,0.0725 -0.897004,1.88145 -1.024919,1.80898 v 0 c -0.02945,-0.007 -0.08961,-0.0314 -0.09063,-0.001 -2.65e-4,0.0117 0.02559,0.0306 0.01397,0.0323 -0.0444,0.006 -0.30399,-0.0237 -0.346012,-0.0281 -0.147706,-0.0227 -0.30244,-0.0691 -0.451003,-0.0809 -0.0672,-0.005 -0.06477,0.0303 -0.13611,0.0288 -0.08461,-0.002 -0.168381,-0.0172 -0.252574,-0.0258 -0.230849,-0.0466 -0.304956,-0.0518 -0.52711,-0.13671 -0.133268,-0.051 -0.253405,-0.13448 -0.389329,-0.17786 -0.01659,-0.005 -0.05494,0.0597 0.0058,0.0519 -0.434183,-0.0519 -0.860255,-0.13938 -1.278339,-0.26775 -0.160348,-0.0434 -0.33623,-0.11031 -0.503426,-0.12156 -0.02595,-0.002 -0.05101,0.0132 -0.07701,0.0126 -0.170445,-0.004 -0.390475,-0.0338 -0.559504,-0.0536 -0.500174,-0.0999 -1.005517,-0.20596 -1.417161,-0.52895 0.269446,0.0396 0.612547,-0.0706 0.808334,0.11868 0.163578,0.15816 -0.455052,0.0107 -0.682567,0.008 -0.166857,-0.002 -0.330004,-0.0614 -0.498118,-0.0437 -0.57305,-0.0115 -1.152073,-0.0131 -1.718519,-0.10391 -0.145082,-0.0373 0.381722,-2.08902 0.526804,-2.05176 z"
       inkscape:connector-curvature="0" />
    <path
       style="fill:#ebe9eb;fill-opacity:1;stroke:none;stroke-width:0.26458332"
       id="path4560"
       d="m 27.652474,245.17693 c 0.09443,0.55853 0.07043,1.12926 0.01278,1.69035 -0.03869,0.34916 -0.06374,0.6616 -0.219186,0.98901 0.07563,-0.15358 0.03871,0.35475 0.0394,0.38268 0.03751,0.38751 0.02656,0.72716 -0.08507,1.10531 -0.09089,0.17857 -0.106633,0.37164 -0.165558,0.56285 -0.04408,0.21592 -0.05613,0.43329 -0.110016,0.65034 -0.06463,0.19965 -0.05304,0.40577 -0.08139,0.61247 -0.05073,0.18925 -0.107519,0.36688 -0.100928,0.56278 0.04149,0.28603 -0.09462,0.55047 -0.135109,0.82561 0.01733,0.34269 -0.152144,0.64886 -0.279247,0.95473 -0.04532,0.12685 -0.0073,0.26162 0.01164,0.3905 0.05207,0.31049 0.05685,0.62492 0.04899,0.93872 -0.0092,0.17763 -0.01172,0.35554 -0.01868,0.53323 -0.0013,0.0352 7.94e-4,-0.0705 0.0036,-0.10567 -0.09693,-0.30428 -0.038,-0.13965 -0.171829,-0.38997 -0.01188,-0.0222 -0.02726,-0.0484 -0.02064,-0.0727 0.0058,-0.0212 0.07337,-0.038 0.0516,-0.0411 -0.141845,-0.0198 -0.286324,-0.008 -0.429487,-0.0116 0.307644,-0.006 0.612701,-0.0514 0.919234,-0.0753 0.225547,-0.002 0.451091,-0.007 0.676637,-0.006 0.09384,5.3e-4 0.374399,0.0137 0.280789,0.0203 -0.196831,0.0138 -0.39488,0.006 -0.591499,0.023 -0.01246,0.001 -0.03602,0.0252 -0.02405,0.0288 0.02066,0.006 0.04168,-0.0114 0.06252,-0.0171 0.148265,-0.0332 0.274506,-0.0942 0.483185,-0.23582 0.221914,-0.0924 0.504624,-0.27003 0.748287,-0.29457 -0.05934,0.0565 -0.07507,0.0524 -0.01966,0.0446 0.290875,-0.17692 0.549855,-0.46038 0.904158,-0.50028 0.0959,-0.004 0.182002,-0.0795 0.278411,-0.0784 0.201496,0.002 -0.217919,0.0782 -0.02029,0.0396 0.119277,-0.0846 1.315884,1.60221 1.196607,1.68683 v 0 c -0.156069,0.0849 -0.305207,0.18576 -0.483121,0.19546 -0.04704,0.0177 -0.09087,0.0545 -0.141129,0.0532 -0.155564,-0.004 0.131533,-0.0725 0.01855,-0.091 -0.108204,-0.0176 -0.200174,0.18442 -0.297305,0.21408 -0.192571,0.15194 -0.277455,0.23317 -0.517543,0.34603 -0.07146,0.0336 -0.157581,0.0182 -0.233514,0.0398 -0.180855,0.0516 -0.119332,0.094 -0.191357,0.0245 -0.01029,-0.006 -0.02035,-0.0244 -0.03088,-0.0187 -0.06607,0.0362 -0.116927,0.0959 -0.181308,0.13502 -0.0098,0.006 -0.02384,-0.009 -0.03437,-0.004 -0.136422,0.0603 -0.238337,0.21274 -0.396137,0.21383 -0.487969,0.20397 -0.385699,0.15347 -1.130829,0.1978 -0.06851,0.004 -0.2745,0.001 -0.205878,5.3e-4 0.144034,-0.001 0.288049,-0.004 0.432073,-0.006 -0.303226,-0.0117 -0.597519,0.0699 -0.897099,0.10494 -0.260215,0.001 -0.520743,0.0166 -0.780642,0.004 -0.386456,-0.0191 -0.832694,-0.25897 -1.046868,-0.58275 -0.07559,-0.11427 -0.133748,-0.23915 -0.200622,-0.35873 -0.104722,-0.35474 -0.127266,-0.70237 -0.08819,-1.06921 0.0079,-0.20882 0.0079,-0.41723 -0.03517,-0.62304 -0.06775,-0.44452 -0.09061,-0.89242 0.06463,-1.32401 0.04995,-0.12502 0.08769,-0.23878 0.158262,-0.35282 0.01056,-0.0171 0.03692,-0.0629 0.04179,-0.0434 0.01428,0.0571 -0.01622,0.23479 -0.0085,0.17642 0.01665,-0.12624 -2.65e-4,-0.25579 0.03347,-0.38053 0.04192,-0.21554 0.117494,-0.37123 0.09943,-0.54309 0.01106,-0.27244 0.03038,-0.55544 0.130731,-0.81201 0.01627,0.0806 -0.0011,0.002 0.0095,-0.1669 0.011,-0.17639 0.03863,-0.34875 0.08122,-0.52013 0.008,-0.0321 0.01776,-0.0637 0.02664,-0.0956 0.07237,-0.19421 0.01797,-0.51303 0.130629,-0.73535 0.07157,-0.20482 0.08211,-0.44757 0.200975,-0.64492 -0.0061,0.0589 0.02119,0.22849 -0.009,0.17753 -0.04522,-0.0762 -0.02258,-0.5196 -0.05408,-0.61858 -0.01137,-0.47265 0.02388,-0.94631 0.26161,-1.3674 -0.07048,0.27173 0.06298,-0.2567 -0.05869,0.35927 -0.0048,0.0243 -0.0011,-0.0495 -0.0028,-0.0742 -0.0079,-0.11154 -0.02991,-0.22156 -0.04062,-0.33279 -0.05764,-0.56109 -0.08165,-1.13183 0.01279,-1.69036 0,-0.14978 2.118314,-0.14978 2.118314,0 z"
       inkscape:connector-curvature="0" />
    <path
       style="fill:#ebe9eb;fill-opacity:1;stroke:none;stroke-width:0.26458332"
       id="path4562"
       d="m 23.275795,248.53378 c 0.560156,-0.0896 1.131219,-0.0698 1.693533,-0.0124 0.188813,0.0339 0.376542,0.0452 0.567575,0.0362 0.318391,-0.0214 0.636246,-0.0346 0.955426,-0.032 0.203684,0.0301 0.420143,-0.0157 0.622864,0.0108 0.158446,0.0207 0.345821,0.0791 0.501174,0.12319 0.242477,0.11689 1.026292,0.0688 0.08692,0.0628 0.413321,-0.01 0.662995,0.009 1.166217,0.11756 0.106937,0.0232 0.337876,0.19674 0.485256,0.24436 0.591027,-0.12418 -0.800885,-0.021 -0.145412,-0.0678 -0.11381,0.10401 -0.01958,0.0278 -0.175853,0.19407 0.08694,-0.11823 1.758892,1.11125 1.671955,1.22947 v 0 c -0.24648,0.26213 -0.38505,0.3999 -0.724249,0.53144 -0.626771,0.12438 -1.280017,0.13881 -1.856264,-0.1686 -0.412966,-0.22715 -0.596265,-0.22001 0.454824,-0.10108 0.100256,0.0113 -0.429426,0.0202 -0.300728,0.0344 -0.233682,0.002 -0.467399,0.01 -0.701047,0.005 -0.293624,-0.006 -0.57525,-0.11629 -0.861971,-0.16481 -0.245528,-0.0224 -0.503999,0.0291 -0.754671,0.017 -0.313731,0.003 -0.626103,-0.0101 -0.939005,-0.032 -0.197099,-0.009 -0.391059,0.004 -0.586173,0.0362 -0.560088,0.0543 -1.12974,0.081 -1.687172,-0.0124 -0.145081,-0.0373 0.381722,-2.08901 0.526803,-2.05176 z"
       inkscape:connector-curvature="0" />
    <path
       style="fill:#ebe9eb;fill-opacity:1;stroke:none;stroke-width:0.26458332"
       id="path4564"
       d="m 35.712056,252.24925 c -0.350981,0.26081 -0.751108,0.44164 -1.140656,0.63391 0.107415,-0.11876 -0.606899,0.45425 -0.515274,0.30177 0.529069,-0.8804 0.131856,-0.011 0.306018,-0.29401 -0.103897,0.29737 -0.250722,0.57494 -0.45048,0.81944 0.01408,-0.0573 -0.129879,0.17367 -0.127794,0.16582 0.0065,-0.0246 0.0436,-0.0919 0.0328,-0.0689 -0.07641,0.1629 -0.05113,0.11211 -0.09917,0.20653 0.0094,-0.013 0.03109,-0.0546 0.02808,-0.0389 -0.01167,0.0609 -0.0739,0.23592 -0.09671,0.31013 -0.03663,0.11914 -0.0619,0.24102 -0.09719,0.3612 -0.08999,0.19791 -0.107352,0.41071 -0.1695,0.61784 -0.04881,0.13743 -0.02405,0.28393 -0.01487,0.42619 0.01913,0.24185 0.02787,0.4842 0.0313,0.72672 2.51e-4,0.0179 -5.29e-4,-0.0358 -7.94e-4,-0.0537 0.0787,-0.0897 -0.23165,-0.45239 -0.226626,-0.45988 0.0241,-0.0359 0.08511,0.0154 0.127672,0.0231 -0.228687,0.0258 0.641771,0.008 0.441283,-0.002 -0.137517,-0.007 -0.275302,-0.005 -0.412972,-0.007 -0.03912,-2.6e-4 0.0782,0.003 0.1173,0.004 0.125981,0.0287 0.594199,-0.0642 0.675764,-0.0309 0.0217,0.009 -0.03707,0.0287 -0.05561,0.043 -0.01969,0.0846 0.403426,-0.14915 0.477388,-0.19149 0.230613,-0.0853 0.44261,-0.17552 0.665347,-0.27247 0.0969,0.002 0.20742,-0.1235 0.30398,-0.13341 0.0181,-0.002 -0.04688,0.0479 -0.02877,0.0463 0.0471,-0.004 0.118898,-0.14138 0.01712,0.0254 0.142021,-0.23395 0.396894,-0.42193 0.58791,-0.56035 0.04252,-0.0214 0.129148,-0.19902 0.180445,-0.3139 0.01225,-0.18137 0.115502,-0.34184 0.148696,-0.51838 -0.0085,-0.18458 -0.03131,-0.36852 -0.04617,-0.55278 -0.01347,-0.15694 -0.01339,-0.31441 -0.01595,-0.47173 -0.0021,-0.12376 0.0062,0.0789 -0.0051,0.0584 -0.01164,-0.0211 -0.01738,-0.0449 -0.02606,-0.0674 -0.01476,-0.0479 -0.0236,-0.0981 -0.04429,-0.14372 -0.0099,-0.0218 0.0258,0.0901 0.01135,0.071 -0.09049,-0.11982 -0.205735,-0.48881 -0.26338,-0.65104 -0.06684,-0.10091 -0.351951,-0.53182 -0.08762,-0.0863 -0.205156,0.001 -0.006,0.0843 -0.306211,-0.0158 -0.133831,-0.0626 0.750771,-1.95521 0.884603,-1.89265 v 0 c 0.239421,-0.0365 0.495329,0.15981 0.704128,0.25003 0.113503,0.10241 0.234545,0.19703 0.340513,0.30722 0.228526,0.23763 0.360042,0.56938 0.502015,0.85897 0.07544,0.23308 0.137068,0.46891 0.242441,0.69114 0.112257,0.30922 0.165092,0.62385 0.162134,0.95249 0.02659,0.34403 0.06489,0.69068 0.0087,1.03418 -0.0632,0.31524 -0.164655,0.62109 -0.268356,0.92458 -0.07106,0.12354 0.05286,-0.096 -0.108135,0.26886 -0.09999,0.22658 -0.258149,0.43719 -0.417012,0.6235 -0.08079,0.0824 -0.217409,0.21473 -0.315405,0.28243 -0.0069,0.005 -0.0048,-0.0265 -0.01199,-0.0222 -0.03473,0.0209 -0.05067,0.0962 -0.08895,0.0829 -0.03388,-0.0118 0.02564,-0.067 0.03846,-0.10051 -0.220932,0.33178 -0.501438,0.64734 -0.889894,0.78101 -0.0587,0.0274 -0.117399,0.0548 -0.176096,0.0821 -0.02691,0.005 -0.05585,0.004 -0.08073,0.015 -0.06774,0.0311 -0.125881,0.0809 -0.194038,0.111 -0.02056,0.009 -0.04553,-10e-4 -0.06731,0.004 -0.08491,0.0219 -0.217549,0.0946 -0.284589,0.12776 -1.85e-4,-0.0167 0.01606,-0.0519 -5.29e-4,-0.0501 -0.03971,0.004 -0.06883,0.0406 -0.10291,0.0614 -0.07161,0.0438 -0.139197,0.0947 -0.214164,0.13241 -0.01519,0.008 -0.03469,-0.004 -0.05099,10e-4 -0.0379,0.0113 -0.07311,0.0302 -0.109123,0.0465 -0.06478,0.0293 -0.12882,0.0602 -0.19323,0.0904 -0.08859,0.03 -0.174699,0.0686 -0.265758,0.0899 -0.03605,0.008 -0.07404,-0.002 -0.111072,-0.002 -0.176403,3e-5 -0.352052,0.0163 -0.527309,0.035 -0.553136,0.0505 -1.113769,0.0338 -1.646955,-0.12875 -0.5299,-0.15802 -0.9056,-0.55021 -1.046035,-1.08613 -0.05564,-0.31979 -0.06774,-0.6411 -0.08283,-0.96546 -0.0092,-0.35023 7.94e-4,-0.70382 0.116401,-1.03869 0.0057,-0.0141 0.0048,-0.0334 0.01717,-0.0424 0.0077,-0.006 5.29e-4,0.0378 0.0021,0.0284 0.03214,-0.19893 0.05136,-0.40094 0.129585,-0.58943 0.04451,-0.0827 -0.0073,0.0177 0.0497,-0.22795 0.05212,-0.22453 0.154963,-0.42553 0.218455,-0.64659 0.103953,-0.21801 0.218276,-0.44177 0.354391,-0.64877 0.01887,-0.0248 0.03143,-0.0559 0.05656,-0.0743 0.0084,-0.006 -0.0039,0.0398 0.0021,0.0313 0.102074,-0.14227 0.140896,-0.31778 0.241089,-0.46212 0.180464,-0.33506 0.277137,-0.40937 0.587629,-0.69132 0.02008,-0.0182 -0.06131,0.0285 -0.05938,0.0556 0.0046,0.0641 0.140142,-0.17082 0.02519,0.0143 0.413877,-0.46471 0.938138,-0.77657 1.521433,-0.98924 0.124934,-0.0839 1.311588,1.6829 1.186657,1.76681 z"
       inkscape:connector-curvature="0" />
    <path
       style="fill:#ebe9eb;fill-opacity:1;stroke:none;stroke-width:0.26458332"
       id="path4566"
       d="m 49.090984,248.69398 c -0.365966,0.39914 -0.839692,0.66973 -1.305523,0.93362 0.0011,-0.0549 0.01529,-0.0468 -0.03108,-0.0381 0.05281,-0.12373 0.101897,-0.2491 0.158422,-0.37117 0.01151,-0.0248 -0.0063,0.0572 -0.02307,0.0788 -0.0154,0.0198 0.01236,-0.0487 0.01855,-0.073 -0.04871,0.13518 -0.09741,0.27037 -0.146111,0.40555 -0.149524,0.25084 -0.307919,0.39167 -0.41942,0.53896 -0.158329,0.23103 -0.346406,0.43559 -0.5353,0.64096 -0.07301,0.044 -0.184248,0.2415 -0.286388,0.38518 -0.191259,0.27369 -0.386474,0.5112 -0.63786,0.73372 -0.07353,0.0643 -0.17704,0.26713 -0.237572,0.38539 -0.155199,0.3249 -0.331356,0.63032 -0.55399,0.91346 -0.156207,0.16215 -0.317081,0.33026 -0.373536,0.45431 -0.103126,0.27363 -0.250335,0.52833 -0.388503,0.78537 -0.0691,0.12858 -0.142693,0.25582 -0.233151,0.37076 -0.0094,0.0119 0.02751,-0.0532 0.02498,-0.0382 -0.0123,0.073 -0.04488,0.14109 -0.06447,0.21246 -0.09055,0.29252 -0.193723,0.58092 -0.288833,0.87188 -0.03587,0.20243 -0.113935,0.39594 -0.125362,0.60212 0.0026,0.1864 -0.0061,0.0286 0.01511,0.0193 0.014,-0.006 0.02061,0.0535 0.02461,0.0387 0.0079,-0.0293 -0.02011,-0.0616 -0.01066,-0.0904 0.0042,-0.0127 0.02172,0.0157 0.03257,0.0235 -0.01185,-0.0294 -0.02368,-0.0587 -0.03553,-0.0881 0.0222,0.0161 0.03936,0.0451 0.06657,0.0482 0.04612,0.005 -0.119372,-0.10789 -0.07405,-0.11798 0.09505,-0.0212 0.141058,0.10306 0.240986,0.0615 0.124568,0.0328 0.221191,0.12784 0.339997,0.17329 0.01476,0.006 0.03358,-0.005 0.04731,0.002 0.07228,0.041 0.136401,0.0949 0.2056,0.14093 0.02941,0.0196 0.05491,0.058 0.09014,0.0556 0.02061,-10e-4 -0.0074,-0.0407 -0.01101,-0.061 0.01056,-0.0124 0.0154,-0.0377 0.03168,-0.0372 0.06312,0.002 0.12269,0.03 0.184425,0.0433 0.168278,0.0362 0.329949,0.0555 0.501586,0.0454 0.142373,-0.025 0.402122,0.22223 0.537052,0.17979 0.02437,-0.008 0.04104,-0.0307 0.0632,-0.0434 -1.044017,0.002 0.01802,-0.0409 0.233519,-0.0521 0.458877,-0.0227 0.918204,-0.004 1.377161,0.005 -0.406421,0.005 0.785619,0.003 0.380519,-2.7e-4 -0.808541,-0.007 -0.302964,-10e-4 -0.128522,-0.002 0.09047,0.0283 0.32916,-0.0415 0.405644,-0.002 0.04295,0.022 -0.355936,0.19097 0.07666,0.008 0.207828,-0.0593 0.409051,-0.15507 0.620043,-0.2038 0.01286,-0.003 0.0258,0.005 0.0387,0.008 0.02755,-0.008 0.05511,-0.0166 0.08266,-0.0249 0.04649,-0.0205 0.0889,-0.0565 0.139462,-0.0614 0.02313,-0.002 -0.05594,0.0314 -0.04594,0.0524 0.0092,0.0193 0.06503,-0.0503 0.05618,-0.0309 -0.01984,0.0437 -0.06293,0.0725 -0.09232,0.11036 -0.01992,0.0257 0.03687,-0.0557 0.06392,-0.0737 0.01691,-0.0113 -0.02109,0.0348 -0.03162,0.0522 0.03399,-0.0505 0.06798,-0.10099 0.101976,-0.15148 0.07877,-0.12305 1.819018,0.99098 1.740244,1.11403 v 0 c -0.0024,-0.005 -0.005,-0.0103 -0.0075,-0.0155 -0.176278,0.28032 -0.401267,0.58501 -0.718566,0.71235 -0.08151,0.0454 -0.292052,0.16452 -0.357737,0.1912 -0.0374,0.0152 -0.07973,0.0134 -0.118827,0.0235 -0.146929,0.0379 -0.286216,0.12668 -0.440222,0.11872 -0.212773,0.0391 0.02891,-0.0136 -0.303054,0.11358 -0.248928,0.0954 -0.421748,0.10069 -0.678781,0.0905 -0.444986,0.003 -0.890058,0.005 -1.334939,-0.007 -0.09533,-0.002 -0.163221,-0.003 -0.258373,-0.003 -0.04181,-7e-5 -0.167212,5.2e-4 -0.125408,7.9e-4 0.813441,0.004 0.321342,-0.002 0.145508,-7.9e-4 -0.480224,0.009 -0.95781,0.0691 -1.438886,0.0171 -0.196456,-0.0387 -0.165529,-0.0271 -0.355026,-0.0859 -0.02302,-0.007 -0.164462,-0.061 -0.212225,-0.063 -0.02469,-10e-4 -0.0357,0.024 -0.04656,0.0394 -0.404323,-0.0482 -0.808786,-0.12783 -1.185304,-0.28668 -0.08151,-0.0496 -0.162983,-0.0992 -0.244538,-0.14873 -0.02633,-0.016 -0.04877,-0.0424 -0.07911,-0.0477 -0.01834,-0.003 0.05631,0.0457 0.03839,0.0406 -0.152996,-0.0433 -0.183603,-0.13283 -0.195432,-0.0884 -0.0055,0.0205 0.03223,0.0277 0.04835,0.0416 -0.335891,-0.11402 -0.61305,-0.19147 -0.891862,-0.44661 -0.424821,-0.45095 -0.633836,-0.8349 -0.600565,-1.47614 0.02775,-0.31922 0.104312,-0.6235 0.169304,-0.93553 0.07783,-0.30782 0.173911,-0.61275 0.28247,-0.91073 0.104311,-0.33713 0.246951,-0.65565 0.435676,-0.94803 0.142843,-0.20165 0.244379,-0.42824 0.329678,-0.65975 0.161923,-0.31627 0.340985,-0.61738 0.584486,-0.87876 0.150709,-0.10176 -0.09987,0.0758 0.151125,-0.16839 0.0095,-0.009 0.03202,0.009 0.03955,-0.002 0.06388,-0.092 0.128038,-0.25464 0.175239,-0.35633 0.199695,-0.37145 0.354261,-0.76978 0.687502,-1.05145 0.108378,0.042 -0.16522,-0.0549 0.112381,-0.0662 0.0245,-0.001 -0.0232,0.0913 -0.0065,0.0733 0.101383,-0.10872 0.152905,-0.2831 0.265435,-0.38766 0.07372,0.0231 0.0019,0.006 0.109313,-0.1478 0.113268,-0.16222 0.230965,-0.3258 0.373938,-0.4665 -0.0081,0.0188 -0.03956,0.0703 -0.02439,0.0565 0.131281,-0.11963 0.209346,-0.30002 0.335676,-0.46439 0.04515,-0.052 0.357206,-0.43131 0.402765,-0.43867 0.03603,-0.006 -0.05386,0.0696 -0.03824,0.1026 0.01262,0.0266 0.03562,-0.047 0.05343,-0.0705 -0.0311,0.11014 -0.05627,0.22212 -0.09331,0.3304 -0.01598,0.0467 0.02085,-0.0966 0.02992,-0.14513 0.0019,-0.01 -0.01169,0.0373 -0.0081,0.0282 0.135025,-0.33642 0.155451,-0.4665 0.368128,-0.71515 0.25363,-0.25113 0.524997,-0.4809 0.827582,-0.67278 0.08093,-0.0513 0.171612,-0.0857 0.254127,-0.13438 0.09734,-0.0575 0.189958,-0.12259 0.284935,-0.18388 0.11026,-0.10174 1.549133,1.45757 1.438873,1.55931 z"
       inkscape:connector-curvature="0" />
    <path
       style="fill:#ebe9eb;fill-opacity:1;stroke:none;stroke-width:0.26458332"
       id="path4568"
       d="m 54.245792,248.9187 c 0.04311,0.64649 -0.04016,1.2951 -0.236389,1.91132 -0.07725,0.17434 -0.249179,0.69079 -0.391911,0.7518 -0.06227,0.0266 0.07646,-0.11198 0.110024,-0.1708 0.0186,-0.0326 0.0307,-0.0685 0.04606,-0.10273 -0.0836,0.25517 -0.122341,0.51949 -0.188987,0.77895 -0.02838,0.2455 -0.177495,0.46465 -0.204713,0.70887 -0.03753,0.23717 -0.106471,0.46694 -0.109389,0.70805 0.01072,0.28784 -0.09284,0.56046 -0.120613,0.84502 0.01061,0.29056 -0.07537,0.56605 -0.151027,0.84255 0.0066,0.23439 -0.04815,0.46214 -0.110559,0.68735 -0.02652,0.23239 -0.07727,0.45825 -0.145698,0.68297 -0.02474,0.0777 -0.03068,0.0977 -0.01849,0.16216 0.05144,0.29222 0.05784,0.58925 0.05761,0.88513 -0.02574,0.26129 0.0208,0.53622 -0.03607,0.79352 -1.872874,0.0345 -2.180947,0.55296 -2.004255,-0.5313 0.03046,-0.14611 2.096706,0.28464 2.06625,0.43075 v 0 c -0.122582,0.32139 0.01032,0.0472 -0.0677,0.047 -2.120186,-0.004 -1.528048,0.52052 -2.057974,0.0417 -0.04997,-0.2594 0.0019,-0.53147 -0.01278,-0.79403 0.0032,-0.22654 0.01029,-0.45329 0.0036,-0.67979 -0.02082,-0.28908 -0.03606,-0.57922 0.05097,-0.86069 0.01503,-0.0506 0.01651,-0.10877 0.0486,-0.15065 0.003,-0.004 0.0039,0.0191 0.0046,0.0142 0.02379,-0.17557 0.03176,-0.35409 0.0874,-0.52423 0.01638,-0.0549 0.03232,-0.11697 0.03898,-0.11424 0.0088,0.004 0.0029,0.0378 0.0036,0.0283 0.01278,-0.18217 0.01111,-0.3661 0.05789,-0.54455 0.05292,-0.22108 0.09638,-0.42799 0.08895,-0.66014 0.02812,-0.17759 0.02858,-0.21061 0.07319,-0.3802 0.100684,-0.38272 0.01826,0.19232 0.04568,-0.26858 0.0098,-0.29174 0.03765,-0.58302 0.117837,-0.86495 0.03978,-0.33763 0.135115,-0.65218 0.236953,-0.97339 0.02006,-0.0686 0.04946,-0.13436 0.06663,-0.20371 0.03795,-0.15325 0.04485,-0.367 0.144468,-0.49568 0.121592,-0.3959 0.0387,-0.2041 0.261847,-0.58559 0.02053,-0.0351 -0.04471,0.0684 -0.0612,0.10554 -0.02625,0.0591 -0.02783,0.13051 -0.06653,0.18237 -0.04695,0.0629 0.08181,-0.29542 0.03441,-0.23297 0.06809,-0.49027 0.06243,-0.99585 0.220367,-1.46939 0,-0.14979 2.118312,-0.14979 2.118312,0 z"
       inkscape:connector-curvature="0" />
    <path
       style="fill:#ebe9eb;fill-opacity:1;stroke:none;stroke-width:0.26458332"
       id="path4570"
       d="m 56.399985,254.80625 c 0.02532,0.0926 0.04513,0.187 0.07599,0.27796 0.04757,0.14021 0.116731,0.27235 0.166624,0.41175 0.08315,0.23231 0.147569,0.46249 0.199453,0.70341 0.03453,0.26774 0.02387,0.53406 0.05201,0.80227 0.01532,0.18437 0.0087,0.0901 0.01968,0.28278 0.0031,0.14818 -2.092521,0.19259 -2.095659,0.0444 v 0 c 0.0024,-0.14381 0.0016,-0.0743 0.0024,-0.20861 -0.0029,-0.14379 -0.01013,-0.28963 -0.02604,-0.43258 -0.0026,-0.023 0.01005,0.0476 0.0024,0.0694 -0.0033,0.009 -0.01251,-0.0152 -0.01876,-0.0228 -0.256434,-0.5215 -0.51304,-1.08283 -0.482621,-1.67599 -0.01783,-0.14881 2.08661,-0.40084 2.10443,-0.25203 z"
       inkscape:connector-curvature="0" />
    <path
       style="fill:#ebe9eb;fill-opacity:1;stroke:none;stroke-width:0.26458332"
       id="path4572"
       d="m 57.052122,251.72503 c 0.05488,0.38011 0.03372,0.18041 0.05904,0.59954 0,0.15813 -2.236391,0.15813 -2.236391,0 v 0 c 0.02532,-0.41913 0.0042,-0.21943 0.05904,-0.59954 0,-0.14979 2.118312,-0.14979 2.118312,0 z"
       inkscape:connector-curvature="0" />
    <path
       style="fill:#ebe9eb;fill-opacity:1;stroke:none;stroke-width:0.26458332"
       id="path4574"
       d="m 60.401739,255.68816 c -0.07355,0.52388 -0.342659,0.9806 -0.531299,1.46533 -0.07502,0.28784 -0.184071,0.58711 -0.276641,0.86143 -0.116048,0.19157 -0.203898,0.3983 -0.299267,0.60066 -0.09836,0.21873 -0.164026,0.45583 -0.247682,0.68317 -0.107918,0.2211 -0.210891,0.44198 -0.338582,0.65191 -0.145727,0.23967 -0.135562,0.26871 -0.225393,0.51508 -0.09496,0.32035 -0.292875,0.58605 -0.46994,0.86255 -0.06524,0.0791 -0.123177,0.16394 -0.187568,0.24369 -0.01,0.0124 -0.03929,0.0478 -0.03507,0.0325 0.0081,-0.0296 0.06394,-0.10466 0.04774,-0.0786 -0.09526,0.15314 -0.05142,0.0924 -0.09495,0.15186 -0.141859,0.19976 -0.266533,0.41233 -0.413853,0.60834 -0.144616,0.1854 -0.06944,0.16246 -0.185891,0.35651 -0.06267,0.10443 -0.140258,0.19913 -0.210389,0.2987 -0.608264,-0.15716 -1.243922,-0.23216 -1.824794,-0.47148 -0.09761,-0.0402 -0.05213,-0.20486 -0.06954,-0.30898 -0.06514,-0.38963 -0.01341,-0.74065 0.09762,-1.11564 0.08603,-0.2198 0.18973,-0.43381 0.250791,-0.66266 0.05017,-0.27201 0.108407,-0.54435 0.18262,-0.81093 0.06779,-0.26019 0.125114,-0.52241 0.192442,-0.78297 0.05648,-0.29007 0.216845,-0.54592 0.300093,-0.8258 0.06061,-0.23035 0.130675,-0.45994 0.198393,-0.68892 0.05103,-0.2473 0.102365,-0.49411 0.162179,-0.74007 0.06227,-0.34129 0.220808,-0.65404 0.363955,-0.96632 0.121309,-0.20732 0.258078,-0.40465 0.387739,-0.60678 0.177613,-0.2957 0.403135,-0.55318 0.667414,-0.77381 0.113692,-0.0672 0.249627,-0.1721 0.377593,-0.22404 0.0095,-0.004 -0.0231,0.032 -0.01381,0.0276 0.03276,-0.0157 0.05326,-0.0551 0.08863,-0.0635 0.02011,-0.005 -0.0236,0.0339 -0.0354,0.0509 0.126688,-0.10271 0.26248,-0.33552 0.480132,-0.49903 0.08177,-0.0614 0.173344,-0.10859 0.260016,-0.16288 0.295492,-0.0958 0.610018,-0.31309 0.934122,-0.26638 0.307515,-0.0458 0.612146,-0.0998 0.923002,-0.12003 0.450464,-0.0247 0.895937,0.0375 1.345311,0.0353 0.04017,-8e-4 0.160671,-0.002 0.120502,-0.002 -0.132887,-0.002 -0.265803,-0.001 -0.398701,-0.002 -0.04232,-2.5e-4 0.08478,-0.003 0.126942,1.2e-4 0.729909,0.0623 0.648793,0.0145 1.127151,0.22536 0.19185,0.0951 0.315878,0.28208 0.483116,0.4073 0.01217,0.009 0.0325,0.001 0.04431,0.0108 0.286478,0.23224 0.04422,0.082 0.19648,0.17276 0.25954,0.22958 0.426604,0.52291 0.559221,0.84078 0.09578,0.27195 0.18896,0.55318 0.228938,0.87607 0.09368,0.21988 0.115578,0.48291 0.132461,0.72466 0.03632,0.49228 -0.09749,0.93938 -0.368623,1.3474 -0.585943,0.73104 -1.253614,0.69469 -2.112544,0.48159 -0.09545,0.18322 -0.03817,0.0442 0.465124,0.0483 0.0241,2e-4 -0.04803,-0.006 -0.07211,-0.005 -0.133424,0.005 -0.268904,0.0417 -0.399164,0.0671 -0.488741,0.10584 -0.990031,0.0573 -1.484095,0.0278 -0.378172,-0.0129 0.08755,0.006 0.457303,-0.0252 0.01275,-10e-4 0.03482,-0.0243 0.02355,-0.0303 -0.01802,-0.01 -0.177557,0.0635 -0.186203,0.0669 -0.05976,0.0233 -0.120217,0.0448 -0.180325,0.0671 -0.516141,0.17419 -1.067704,0.0961 -1.599572,0.055 -0.155591,-0.0426 -0.333331,0.0282 -0.487516,-0.004 -0.01138,-0.002 -0.390253,-0.12397 -0.444627,-0.14139 -0.09137,-0.0678 -0.222224,-0.0145 -0.31867,-0.0419 -0.158059,-0.0449 -0.298516,-0.13486 -0.455565,-0.18278 -0.07629,-0.0522 -0.152574,-0.1044 -0.228859,-0.1566 -0.112284,-0.0942 1.219147,-1.68206 1.331431,-1.58791 v 0 c -0.02127,-0.0199 -0.04255,-0.0397 -0.06382,-0.0596 0.02477,0.009 0.140541,0.0581 0.188246,0.054 0.009,-8e-4 0.01119,-0.0193 0.02011,-0.0181 0.16759,0.0228 0.325837,0.0947 0.488823,0.13589 0.214614,0.0289 -0.08337,-7.9e-4 0.0088,-0.0336 0.109961,-0.0392 0.479677,0.0468 0.613124,0.0329 0.08273,0.006 0.188736,0.0148 0.272503,0.0172 0.03618,10e-4 0.144782,-0.001 0.108606,1.5e-4 -0.714558,0.0264 -0.511789,-0.0502 -0.345146,0.0568 0.152418,0.053 0.329432,-0.14018 0.470863,-0.16115 0.267234,-0.0396 0.538649,-0.0434 0.808468,-0.0569 0.04707,-0.002 0.09404,0.006 0.141063,0.009 0.08336,0.005 0.163682,0.0109 0.247137,0.0113 0.03344,1.5e-4 0.133728,-0.003 0.100295,-0.003 -0.817324,0.0195 -0.455729,0.004 -0.271544,0.0225 0.209388,-0.0217 0.414089,-0.11647 0.621818,-0.1289 0.730327,-0.0437 0.582922,-0.053 1.066419,0.0484 0.06416,0.0124 0.259602,0.0238 0.194294,0.0262 -0.476086,0.0178 -0.438867,-0.11147 -0.636754,0.11522 -0.118671,0.13594 -0.09588,0.10516 -0.150913,0.23706 0.104439,-0.094 -0.05613,0.0369 0.02822,0.0404 0.04866,0.002 0.05046,-0.17801 0.05674,-0.2457 0.0028,-0.22333 -0.101994,-0.42515 -0.12555,-0.64648 0.006,-0.0762 -0.133131,-0.46114 -0.09542,-0.35268 -0.178091,-0.32614 0.214024,0.21925 -0.135699,-0.10581 -0.0404,-0.0361 -0.606081,-0.53294 -0.297617,-0.25416 -0.07534,-0.0211 -0.07544,-0.0401 -0.05669,0.006 0.191161,0.0122 0.382322,0.0244 0.573484,0.0366 0.04659,0.004 -0.09353,0.003 -0.140317,0.003 -0.62916,0.002 -0.461917,0.006 -0.810096,-0.005 -0.199421,-0.009 -1.229981,-0.05 -0.246827,-0.0264 -0.247869,-0.0222 -0.490482,-0.008 -0.732319,0.0583 -0.07123,0.0135 -0.141279,0.0368 -0.213677,0.0404 -0.06775,0.003 -0.05987,-0.16146 -0.310714,0.0163 0.101997,-0.30911 -0.141398,0.0691 -0.207004,0.13199 -0.159721,0.18214 -0.311034,0.32864 -0.522653,0.44773 -0.171762,0.0967 -0.157668,0.16665 -0.161052,0.0598 -0.01228,8e-4 -0.0364,0.0144 -0.0368,0.002 -7.94e-4,-0.0257 0.05741,-0.081 0.0346,-0.0691 -0.117702,0.0617 -0.02601,0.0817 -0.161068,0.19586 -0.147679,0.27228 -0.32531,0.52861 -0.508436,0.77682 0.16732,-0.62808 -0.07427,0.21284 -0.07612,0.31681 -0.06992,0.31091 -0.149974,0.62127 -0.249831,0.92334 0.0064,-0.11699 0.0032,-0.0224 -0.03205,0.13927 -0.0199,0.0913 -0.05549,0.17814 -0.07625,0.26848 -0.01781,0.0775 -0.03282,0.15555 -0.04923,0.23332 -0.0826,0.25462 -0.175925,0.45631 -0.264063,0.70763 -0.06862,0.29309 -0.146859,0.58359 -0.229277,0.87277 -0.04829,0.25514 -0.121452,0.51434 -0.174643,0.77279 -0.06907,0.24544 -0.161058,0.48144 -0.237035,0.72486 -0.03962,0.0953 -0.03005,0.0883 -0.03887,0.226 -0.04143,0.64711 -1.38743,-0.11744 -1.791814,-0.16167 -0.0442,0.0753 -0.09142,0.14899 -0.132593,0.22602 -0.0026,0.005 0.0011,0.0215 0.003,0.0163 0.08147,-0.20698 0.1569,-0.40933 0.267639,-0.6036 0.09496,-0.14787 0.198154,-0.29097 0.307432,-0.42865 0.02763,-0.0348 0.04439,-0.079 0.07783,-0.10823 0.0118,-0.0103 -0.0048,0.031 -0.0072,0.0464 0.05804,-0.10271 0.241231,-0.45067 0.31338,-0.47542 0.02606,-0.009 -0.05156,0.0951 -0.03125,0.0765 0.03123,-0.0286 0.0441,-0.0723 0.06616,-0.10852 0.02789,0.0745 -7.93e-4,0.008 0.09322,-0.15893 0.206174,-0.36694 -0.143875,0.32915 0.122774,-0.19643 0.0093,-0.0183 0.02297,-0.0339 0.03443,-0.0509 0.10074,-0.29454 0.216664,-0.58068 0.362301,-0.85476 0.156308,-0.25702 0.181399,-0.2227 0.264957,-0.43169 -0.0024,0.0182 -0.01228,0.0722 -0.0074,0.0545 0.05688,-0.20493 0.103886,-0.41166 0.165926,-0.61552 0.01535,-0.0504 0.03537,-0.0993 0.05305,-0.14899 0.148296,-0.36257 0.296918,-0.73309 0.58274,-1.01316 -0.148461,0.61758 -0.128209,0.71002 -0.127797,0.43048 1.3e-4,-0.0868 -0.01839,-0.17411 -0.01783,-0.2599 5.3e-4,-0.0971 0.0091,-0.19389 0.01365,-0.29083 0.106302,-0.62032 0.333282,-1.21907 0.635092,-1.77056 0.05021,-0.14187 2.056612,0.56811 2.00641,0.70999 z"
       inkscape:connector-curvature="0" />
    <path
       style="fill:#ebe9eb;fill-opacity:1;stroke:none;stroke-width:0.26458332"
       id="path4576"
       d="m 67.475634,250.52232 c 0.09444,0.55853 0.07043,1.12926 0.01278,1.69035 -0.02982,0.35295 -0.138782,0.69588 -0.382294,0.96057 -0.0208,0.0226 0.0377,-0.0487 0.05304,-0.0754 0.03905,-0.0678 0.07324,-0.13823 0.109855,-0.20735 0.0072,-0.003 0.01844,-0.0165 0.02148,-0.009 0.04596,0.10912 0.04089,0.56504 0.0467,0.70201 -0.07448,0.42443 -0.03331,0.40806 -0.230526,0.76642 -0.03624,0.0659 -0.08535,0.12383 -0.13027,0.18411 -0.0168,0.0225 -0.0285,0.0743 -0.05471,0.0642 -0.02527,-0.01 0.03616,-0.094 0.04428,-0.0682 0.01093,0.0348 -0.02196,0.0695 -0.03296,0.10423 -0.03865,0.24003 -0.111871,0.475 -0.149995,0.71477 -0.04015,0.31885 -0.121732,0.63434 -0.217077,0.94089 -0.07659,0.19144 -0.160234,0.38123 -0.231889,0.57418 0.06281,0.0422 -0.03697,0.48122 -0.05527,0.59886 -0.02432,0.30675 -0.07784,0.60322 -0.178001,0.89492 -0.02956,0.0667 -0.01495,0.12571 -0.01185,0.19496 -0.175231,-0.59539 -0.03698,-0.20322 -1.49056,-0.77535 -0.03908,-0.0154 -0.131479,0.10385 -0.101994,0.0739 0.114988,-0.11661 0.274005,-0.21822 0.404445,-0.3168 0.25182,-0.15811 0.510548,-0.30992 0.775065,-0.44747 0.05426,-0.0295 0.10732,-0.0614 0.16279,-0.0885 0.09236,-0.0453 0.426855,-0.18331 0.529545,-0.20994 0.01352,-0.004 -0.01603,0.0229 -0.02408,0.0343 0.02307,-0.0108 0.07748,-0.0565 0.06923,-0.0324 -0.0141,0.0412 -0.06335,0.0601 -0.0904,0.0942 -0.01611,0.0203 0.04025,-0.072 0.05731,-0.0525 0.01765,0.0202 -0.06161,0.0876 -0.04496,0.0666 0.231494,-0.29187 -0.10555,0.0839 0.2971,-0.34312 0.189598,-0.15241 0.303485,-0.2024 0.421897,-0.31311 -0.066,0.14492 0.339733,-0.434 0.176178,-0.14812 -0.120637,0.34888 0.01865,-0.34164 0.02606,-0.40612 -0.0051,-0.0869 0.02201,-0.18563 0.0013,-0.27146 -0.0024,-0.0102 -0.0068,0.0336 -0.01524,0.0274 -0.05169,-0.0377 -0.04663,-0.1192 -0.06669,-0.17993 -0.0011,0.0119 0.0038,0.0453 -0.0034,0.0357 -0.177499,-0.23671 -0.03851,-0.13657 -0.05103,-0.03 -0.01159,0.0986 -0.111535,-0.17405 -0.03084,0.022 0.0199,0.025 0.08994,0.0646 0.05972,0.0752 -0.04474,0.0156 -0.08797,-0.0354 -0.133192,-0.0496 -0.08362,-0.0261 -0.119996,0.0228 -0.160271,0.0128 -0.07969,-0.0196 -0.153845,-0.0573 -0.23077,-0.0859 -0.154445,-0.0927 -0.242604,-0.0862 -0.396864,-0.0405 -0.141547,-0.0442 0.483068,-2.04593 0.624615,-2.00177 v 0 c 0.244613,0.0431 0.480264,0.11537 0.713674,0.19222 -0.07739,-0.0727 -0.06122,-0.046 0.140264,0.005 0.211063,0.0537 0.412286,0.10309 0.605853,0.2073 0.06293,0.042 0.283488,0.18132 0.35456,0.25263 0.250219,0.25106 0.41733,0.5374 0.545605,0.86502 0.11996,0.38824 0.183502,0.78188 0.11973,1.18753 -0.04485,0.32958 -0.08781,0.66416 -0.18864,0.98068 -0.04441,0.0842 -0.08349,0.17133 -0.133223,0.25245 -0.03101,0.0506 -0.07213,0.0942 -0.108186,0.14134 -0.0046,-0.002 -0.01024,-0.0114 -0.01368,-0.007 -0.109201,0.12366 -0.170791,0.22738 -0.29061,0.34506 -0.148371,0.0954 -0.252092,0.24151 -0.400407,0.3405 -0.007,0.005 5.29e-4,-0.0283 -0.007,-0.0243 -0.0357,0.0188 -0.06218,0.0515 -0.09327,0.0772 0.01889,-0.036 0.0435,-0.0696 0.05669,-0.10812 0.0032,-0.009 -0.01905,0.008 -0.025,0.0156 -0.05232,0.0687 -0.09545,0.1441 -0.148537,0.21218 -0.08205,0.10523 -0.185843,0.19204 -0.287054,0.27899 -0.02758,0.0237 -0.06252,0.0371 -0.09378,0.0557 -0.109365,0.0685 -0.401388,0.21878 -0.524666,0.26328 -0.03716,0.0134 -0.08126,-0.0725 -0.118422,0.005 -0.04382,0.0234 -0.08765,0.0468 -0.131477,0.0702 -0.01476,0.002 -0.03102,-10e-4 -0.0443,0.006 -0.118486,0.06 -0.213569,0.15066 -0.326316,0.21845 -0.02022,0.0122 -0.04536,0.0129 -0.06803,0.0193 -0.106503,0.0713 -0.200787,0.16028 -0.309341,0.22845 -0.02774,0.0174 -0.06609,0.012 -0.0937,0.0297 -0.09935,0.0634 -0.168471,0.23644 -0.283602,0.2112 -1.59208,-0.34906 -1.477007,-0.0983 -1.667758,-0.7883 -0.03898,-0.30816 -0.02643,-0.6224 0.06344,-0.92132 0.06641,-0.2187 0.04452,-0.44813 0.09695,-0.67283 0.01815,-0.0857 0.05794,-0.16726 0.065,-0.25454 0.01746,-0.21607 0.02162,-0.43324 0.09858,-0.63991 0.0021,-0.006 0.07578,-0.21366 0.08999,-0.21777 0.0168,-0.005 -0.01169,0.0687 -0.0064,0.052 0.0373,-0.11727 0.05489,-0.24182 0.109956,-0.35346 0.04933,-0.23335 0.125727,-0.47609 0.164343,-0.71762 0.07276,-0.33745 0.08002,-0.6864 0.204198,-1.01203 0.07637,-0.18179 0.121642,-0.29865 0.223464,-0.48455 0.12586,-0.22978 0.08515,-0.0873 0.07696,0.0122 -0.0048,0.0579 -7.94e-4,0.11619 -0.0013,0.17428 -0.03708,-0.42533 -0.06955,-0.85629 0.03371,-1.27583 0.05319,-0.12872 0.09638,-0.26205 0.159581,-0.38617 0.03091,-0.0607 0.07586,-0.11364 0.12093,-0.16472 0.02117,-0.024 -0.03588,0.0534 -0.04861,0.0828 -0.03583,0.0826 -0.07072,0.1661 -0.09669,0.25235 -0.04059,0.13477 -0.01048,0.26207 -0.04303,0.006 -0.05765,-0.56109 -0.08165,-1.13182 0.01278,-1.69035 0,-0.14979 2.118312,-0.14979 2.118312,0 z"
       inkscape:connector-curvature="0" />
    <path
       style="fill:#ebe9eb;fill-opacity:1;stroke:none;stroke-width:0.26458332"
       id="path4578"
       d="m 73.735307,255.93093 c -0.557432,0.0934 -1.127085,0.0667 -1.687173,0.0124 0.112154,-0.083 -0.317299,0.0328 -0.258654,-0.0313 0.05781,-0.0631 0.158128,-0.0685 0.228615,-0.11706 0.173456,-0.1196 0.113882,-0.0689 0.261343,-0.28403 -0.130236,0.20982 -0.262546,0.42707 -0.445236,0.59636 0.08419,-0.11633 -0.381685,0.42147 -0.314179,0.29473 0.01879,-0.0353 0.0533,-0.13984 0.06413,-0.10136 0.01109,0.0394 -0.04203,0.0701 -0.06305,0.10522 -0.01707,0.0235 0.01625,-0.042 0.01259,-0.0313 -0.05935,0.17313 -0.129614,0.34471 -0.198477,0.51408 -0.01963,0.0547 -0.264787,0.5176 -0.19803,0.38592 0.02122,-0.0244 0.01572,0.0505 0.01789,0.037 0.02817,-0.1752 -0.0094,-0.0858 -0.03475,-0.281 -0.0013,-0.0104 0.02008,0.006 0.03012,0.009 -0.158727,-0.23892 0.212965,0.13956 0.263154,0.19481 0.07561,0.0832 0.18978,0.25055 0.20742,0.24456 0.02138,-0.007 -0.01651,-0.042 -0.02477,-0.0631 -0.258855,-0.34217 -0.204131,-0.22448 -0.879784,-0.16489 -0.02175,0.002 -0.07255,0.0388 -0.05086,0.0413 0.05001,0.006 0.111619,-0.0905 0.04594,-5.3e-4 0.16232,-0.11132 0.484283,-0.47122 0.667827,-0.48896 -0.09892,-0.0475 -0.099,0.20806 -0.170614,0.21633 -0.04542,0.005 0.0378,-0.0833 0.05582,-0.12531 0.08659,-0.20191 -0.08816,0.1641 0.129826,-0.27443 0.133911,-0.22758 0.245634,-0.46777 0.427254,-0.66361 -0.189105,0.35355 0.01008,0.008 0.003,-0.1179 -0.01468,-0.2209 -0.03339,-0.44144 -0.04597,-0.66248 -0.0019,-0.0517 -0.0033,-0.10352 -0.0058,-0.15525 -7.94e-4,-0.0178 -0.01069,0.0362 -0.0051,0.0531 0.02334,0.0697 0.08543,0.13348 0.07716,0.20649 -0.02278,0.20112 -0.166719,-0.40522 -0.06177,-0.005 -0.03817,-0.0259 -0.07634,-0.0519 -0.114512,-0.0778 -0.02119,-0.005 -0.04506,-0.004 -0.06354,-0.016 -0.07969,-0.0503 -0.136663,-0.14853 -0.229407,-0.16507 -0.02119,-0.004 0.0078,0.0439 0.02064,0.0612 -0.129646,-0.0678 0.828516,-1.90124 0.958164,-1.83348 v 0 c 0.332296,0.13613 0.636731,0.33331 0.91893,0.55419 0.339225,0.36907 0.605232,0.73878 0.608327,1.26671 0.02394,0.34227 0.05918,0.68655 0.01595,1.02895 -0.06357,0.36728 -0.179036,0.72785 -0.380582,1.04401 -0.228791,0.26857 0.06765,-0.0627 -0.02915,-0.0148 -0.07665,0.0379 -0.116774,0.30344 -0.193982,0.3732 -0.07821,0.0291 -0.005,-0.003 -0.09072,0.18163 -0.138906,0.29936 -0.302009,0.54521 -0.55468,0.75938 -0.292405,0.18344 -0.02698,-0.0538 -0.106903,0.0121 -0.184954,0.1525 -0.07892,0.0719 -0.24343,0.20792 -0.07162,0.068 -0.138295,0.14158 -0.214849,0.20396 -0.555707,0.45276 -1.38724,0.47973 -1.94823,0.0365 -0.285983,-0.27247 -0.340159,-0.34698 -0.593604,-0.53167 -0.398528,-0.42762 -0.56421,-0.95422 -0.439843,-1.53046 0.04318,-0.15041 0.08473,-0.39582 0.202605,-0.51665 0.0086,-0.009 -0.0067,0.0479 -0.0011,0.0369 0.02729,-0.054 0.0451,-0.11236 0.06764,-0.16853 0.01331,-0.0251 0.02664,-0.0501 0.03996,-0.0751 -0.0011,0.10374 -0.0041,0.0321 0.05484,-0.13591 0.05909,-0.16838 0.13013,-0.3389 0.207999,-0.50523 0.106773,-0.15854 0.179951,-0.32784 0.320858,-0.46083 0.0043,-0.004 0.01212,0.0108 0.01648,0.007 0.131784,-0.12182 0.07035,-0.16728 0.129098,-0.11582 0.03436,-0.0402 0.06871,-0.0804 0.103066,-0.12064 0.003,0.007 0.0033,0.0279 0.0091,0.0223 0.03631,-0.0353 0.05454,-0.0869 0.09216,-0.12077 0.0092,-0.008 -0.0073,0.0463 7.93e-4,0.037 0.03756,-0.0429 0.05623,-0.0999 0.09267,-0.14381 0.0069,-0.008 -1.35e-4,0.0217 -2.04e-4,0.0325 0.263618,-0.40703 0.557271,-0.70852 1.077233,-0.74022 0.562313,-0.0574 1.133374,-0.0772 1.693532,0.0124 0.145081,-0.0373 0.671885,2.01451 0.526803,2.05176 z"
       inkscape:connector-curvature="0" />
    <path
       style="fill:#ebe9eb;fill-opacity:1;stroke:none;stroke-width:0.26458332"
       id="path4580"
       d="m 77.343444,256.73274 c -0.39497,0.0623 -0.795092,0.1599 -1.196362,0.1179 -0.155614,-0.0177 -0.296947,0.16121 0.0258,-0.13899 0.04788,-0.0445 -0.09233,0.0932 -0.144428,0.13276 -0.07531,0.0494 -0.150627,0.0988 -0.225941,0.14825 -0.0013,-0.003 -0.0026,-0.006 -0.0039,-0.009 -0.140512,0.0587 -0.200433,0.12441 -0.150138,0.0534 -0.11807,0.22192 -0.251042,0.43829 -0.359394,0.66509 0.04147,-0.0718 -0.346152,0.69674 -0.302842,0.56361 0.01992,-0.0651 0.02585,-0.0286 0.03622,0.0273 0.0037,0.0197 0.0136,0.0788 0.0083,0.0595 -0.169275,-0.61164 0.01752,0.0175 -0.06042,-0.24304 -0.04,-0.0604 -0.08842,-0.11591 -0.119997,-0.18107 -0.02877,-0.0594 0.240626,-0.11948 0.263631,-0.1242 -1.084059,0.0477 -0.202441,-0.0276 -0.149109,-0.008 0.01873,0.007 -0.03037,0.0269 -0.04094,0.0439 -0.0039,0.006 0,0.0146 0,0.0219 -0.01654,0.0162 -0.03305,0.0324 -0.04957,0.0486 0.10844,-0.007 0.141195,-0.17585 0.270677,-0.2557 0.04221,-0.054 0.08443,-0.10804 0.12664,-0.16207 0.0067,-0.005 0.02307,-0.024 0.02006,-0.016 -0.01053,0.0277 -0.0573,0.10379 -0.04344,0.0776 0.05598,-0.10576 0.107323,-0.19752 0.159951,-0.30483 0.06637,-0.16944 0.134509,-0.3436 0.164283,-0.52413 -0.01109,-0.24988 0.05772,-0.4906 0.109733,-0.73235 0.319987,-0.83674 0.189704,-0.3717 2.082729,0.21275 0.01585,0.005 0.01736,0.5021 0.01717,0.54653 -0.0031,0.22395 -0.01714,0.44751 -0.02653,0.67123 -0.0019,0.0425 0.01307,0.0888 -0.0047,0.12736 -0.01418,0.0307 -0.0049,-0.0675 -0.0074,-0.10117 0.170019,0.25177 0.178038,0.6374 0.190402,0.93129 -0.02252,0.2567 3.5e-5,0.52778 -0.04913,0.78222 -0.0052,0.0271 0.0011,-0.0552 0.0013,-0.0828 -0.0016,-0.30634 -0.231643,-0.42465 -0.438878,-0.61846 0.132258,0.0604 -0.722526,1.9308 -0.854781,1.87036 v 0 c -0.476303,-0.34544 -0.643813,-0.39794 -0.772163,-0.98067 -0.03397,-0.3112 -0.02326,-0.61198 0.0093,-0.92314 0.0033,-0.19908 -0.0612,-0.37678 -0.122529,-0.56582 -0.07167,-0.38546 -0.08689,-0.77278 -0.06631,-1.16508 0.0024,-0.0434 0.02965,-0.49931 0.04766,-0.49826 4.360005,0.25449 1.617887,0.86609 2.027303,0.14962 0.0033,-0.006 0.0038,0.0125 0.0057,0.0188 -0.04797,0.21554 -0.05961,0.41739 -0.05692,0.6424 -0.06372,0.39384 -0.186048,0.77188 -0.370748,1.12643 -0.139541,0.17863 -0.194514,0.41387 -0.354343,0.57987 -0.0069,0.007 0.0016,-0.0198 0.0024,-0.0297 -0.167121,0.25257 -0.356277,0.50531 -0.594003,0.69748 -0.648123,0.51195 -0.939247,0.45978 -1.773145,0.46707 -0.534714,-0.0526 -1.00231,-0.20926 -1.351076,-0.64215 -0.274386,-0.43176 -0.362931,-0.89025 -0.273529,-1.39444 0.08906,-0.32769 0.228942,-0.62602 0.399079,-0.91886 0.120576,-0.23496 0.252744,-0.46256 0.377701,-0.69955 0.143814,-0.26296 0.293052,-0.49127 0.534487,-0.67452 0.238006,-0.18064 0.117724,-0.12993 0.278591,-0.1855 0.05571,-0.0325 0.103079,-0.0899 0.167124,-0.0974 0.05499,-0.006 -0.131437,0.17503 -0.0878,0.14097 0.197038,-0.15382 0.26089,-0.2629 0.469611,-0.36075 0.181999,-0.0911 0.295514,-0.1579 0.499809,-0.21203 0.395952,-0.10489 0.82378,-0.0885 1.22778,-0.12683 0.145082,-0.0373 0.671883,2.01452 0.526802,2.05177 z"
       inkscape:connector-curvature="0" />
    <path
       style="fill:#ebe9eb;fill-opacity:1;stroke:none;stroke-width:0.26458332"
       id="path4582"
       d="m 80.190299,256.29 c 0.226084,0.55906 0.386109,1.14965 0.456928,1.74909 0.02096,0.23919 0.0048,0.47682 -0.04886,0.71076 -0.01622,0.0707 -0.06798,0.17892 -0.07365,0.25976 0.01394,0.18772 0.02363,0.37593 0.03354,0.56395 -0.08976,0.75159 -1.39546,0.12873 -2.076045,0.0749 -0.01916,-0.002 -0.03899,-0.4794 -0.04066,-0.52534 -0.0084,-0.33051 0.01143,-0.66064 0.02418,-0.99074 0.0083,-0.23827 0.0024,-0.47671 -0.0011,-0.71502 -0.01019,-0.32668 -0.0079,-0.65002 0.02982,-0.97455 0.113792,-0.58616 0.527555,-0.96086 0.975918,-1.3062 0.354137,-0.24433 0.748043,-0.48071 1.187529,-0.51157 0.48254,-0.095 0.963348,-0.0848 1.453642,-0.0803 0.262888,0.0202 0.526362,0.0227 0.789827,0.0191 -0.132046,-2.7e-4 -0.264092,-5.3e-4 -0.396137,-0.001 -0.04283,-1.5e-4 0.08583,-0.004 0.128497,1.6e-4 0.265835,0.0233 0.533538,0.0353 0.796465,0.0809 0.205893,0.0357 0.432512,0.22855 0.582451,0.34694 0.179528,0.15977 0.07768,0.0569 0.28421,0.32825 0.07671,0.12482 -1.688446,1.20971 -1.765162,1.0849 v 0 c 0.07096,0.0952 0.09058,0.1009 0.02164,0.0574 0.0326,0.0287 0.07942,0.0468 0.09781,0.0862 0.0097,0.0208 -0.04353,-0.0216 -0.06639,-0.0189 -0.0092,0.001 0.0021,0.0244 0.01135,0.0254 0.191942,0.0208 0.870722,0.0395 0.436324,0.0407 -0.221192,5.2e-4 -0.442383,-1.8e-4 -0.663575,-2.7e-4 -0.271809,-0.006 -0.54325,-0.0228 -0.815107,-0.0261 0.9163,10e-4 0.05868,-0.0314 -0.14455,0.0177 -0.05467,0.01 -0.108561,0.0326 -0.164015,0.0294 -0.02392,-10e-4 -0.0057,-0.0605 -0.02904,-0.0658 -0.08778,-0.02 -0.152034,0.0798 -0.237452,0.0824 -0.07042,0.0503 -0.145593,0.0944 -0.212366,0.14946 -0.05407,0.0446 -0.092,0.11218 -0.155794,0.14121 -0.0053,0.002 -0.0226,-0.19097 -0.03363,-0.18869 -0.04957,-0.0377 -0.01262,-0.0149 -0.01217,0.12891 5.29e-4,0.18578 2.12e-4,0.37157 -0.0028,0.55734 -0.0042,0.23736 -0.01273,0.47483 -0.0063,0.71222 0.01326,0.3257 0.04053,0.65095 0.03821,0.97717 -0.0011,0.0482 -0.01579,0.58314 -0.03805,0.58681 -1.727089,0.28524 -1.928796,0.80837 -2.106731,-0.0311 -0.01812,-0.35671 -0.03284,-0.71737 0.04634,-1.06863 0.0108,-0.0404 0.04668,-0.1906 0.07302,-0.24703 1.22e-4,-2.7e-4 -0.0037,0.12917 -0.01053,0.12271 -0.0155,-0.0146 -0.01646,-0.0393 -0.02469,-0.0589 -0.191852,-0.52798 -0.372705,-1.06652 -0.407955,-1.63162 -0.03477,-0.14602 2.030351,-0.63778 2.065125,-0.49176 z"
       inkscape:connector-curvature="0" />
    <path
       style="fill:#ebe9eb;fill-opacity:1;stroke:none;stroke-width:0.26458332"
       id="path4584"
       d="m 86.029704,258.06909 c -0.557432,0.0934 -1.127083,0.0667 -1.687172,0.0124 -0.08646,-0.008 -0.172341,-0.0217 -0.258654,-0.0313 -0.02804,-0.003 -0.106738,0.009 -0.08424,-0.008 0.08138,-0.0615 0.187706,-0.0818 0.274341,-0.13573 0.138864,-0.0864 0.20932,-0.23226 0.298291,-0.36259 -0.156014,0.37404 -0.457075,0.63055 -0.781272,0.85441 -0.08534,0.008 -0.25581,0.15937 -0.312925,0.17022 -0.02199,0.004 0.02585,-0.0366 0.03739,-0.0558 0.03152,-0.0523 0.06118,-0.10579 0.09176,-0.15868 -0.05861,0.11937 -0.05295,0.28945 -0.09493,0.46151 -0.05398,0.16257 -0.04092,0.33008 -0.03215,0.498 0.01442,0.18536 0.01863,0.37125 0.0275,0.55686 0.0011,0.0206 0.0033,-0.0411 0.005,-0.0616 -0.177398,-0.57885 -0.652063,-0.48028 -1.283967,-0.52057 -0.304996,-0.0195 -0.08541,0.17358 -0.29227,0.22377 -0.03995,0.01 0.0483,-0.0666 0.07245,-0.0998 0.190244,-0.30147 0.478079,-0.50761 0.746258,-0.73075 0.164248,-0.12771 0.253243,-0.16271 0.421854,-0.24429 0.01363,-0.007 0.04982,-0.0288 0.04269,-0.0155 -0.0066,0.0124 -0.01871,0.0211 -0.02808,0.0316 0.157311,-0.11788 0.240972,-0.31341 0.388255,-0.43814 0.109365,-0.0102 0.0037,0.003 0.188248,-0.22669 0.0433,-0.0539 -0.04252,0.14866 -0.104555,0.17928 -0.05729,0.0283 0.05861,-0.11355 0.08792,-0.17032 -0.0057,0.009 -0.02088,0.0364 -0.01704,0.0266 0.02506,-0.0644 0.05621,-0.12624 0.08096,-0.19071 0.02233,-0.0581 0.01587,-0.12392 0.02906,-0.18348 0.01582,-0.0715 0.03703,-0.14166 0.05555,-0.21249 0.08481,-0.29819 0.191834,-0.58774 0.315886,-0.87144 0.06327,-0.0199 0.04134,-0.10055 0.07663,-0.1406 0.003,-0.003 -0.01564,0.0358 -0.01902,0.0331 -0.0272,-0.0211 -0.01389,-0.0675 -0.01879,-0.10154 -0.08247,-0.37123 -0.02,-0.72896 0.06963,-1.0918 0.05854,-0.23457 0.05115,-0.47556 0.08263,-0.71406 0.04078,-0.1861 0.111477,-0.35549 0.101907,-0.54619 -0.03351,-0.31722 -0.03985,-0.6261 -0.0011,-0.94251 0.03186,-0.18584 0.126569,-0.35008 0.154464,-0.53299 -7.94e-4,-0.009 -0.0013,-0.018 -0.0021,-0.027 -0.0033,-0.1467 2.071377,-0.19261 2.074624,-0.0459 v 0 c 0.0011,0.0575 0.0021,0.11504 0.0031,0.17256 -0.004,0.0997 -0.06806,0.70723 -0.158282,0.74677 -0.01053,0.005 -0.0011,-0.0229 -0.0016,-0.0344 -5.29e-4,-0.0201 -0.003,-0.0802 -0.0016,-0.0602 0.01614,0.25493 0.02707,0.5107 0.02522,0.76613 -0.01275,0.24816 -0.03469,0.49851 -0.116276,0.73492 5.29e-4,0.33557 -0.02021,0.67178 -0.128982,0.99251 -0.01318,0.0354 -0.01953,0.0742 -0.03949,0.10633 -0.01667,0.0268 -0.0089,-0.12594 -0.0053,-0.0946 0.01741,0.1516 0.02701,0.30421 0.04017,0.45618 0.01341,0.3849 -0.01214,0.77838 -0.20969,1.12029 -0.01873,-0.0784 -2.65e-4,-0.017 -0.05934,0.14823 -0.04959,0.13903 -0.05697,0.11311 -0.09516,0.27109 -0.0086,0.0355 -0.01834,0.0708 -0.0275,0.10617 -0.04897,0.18454 -0.07273,0.36705 -0.139369,0.54768 -0.02466,0.0668 -0.05712,0.13053 -0.08568,0.1958 -0.0047,-10e-4 -0.01209,-0.008 -0.01415,-0.003 -0.03329,0.0704 -0.05793,0.14456 -0.08689,0.21685 -0.02567,0.0456 -0.05135,0.0911 -0.07703,0.13668 0.0013,-0.0132 0.01106,-0.0507 0.0039,-0.0396 -0.0582,0.0907 -0.101251,0.19049 -0.159118,0.2814 -0.02106,0.0331 -0.08536,0.12745 -0.07678,0.0892 0.01283,-0.0572 0.05279,-0.10591 0.09058,-0.15072 0.02777,-0.0329 -0.04,0.0763 -0.06,0.11446 -0.150895,0.22506 -0.311632,0.45947 -0.50264,0.66398 -0.173051,0.17591 -0.331356,0.33771 -0.563197,0.43391 -0.0063,0.003 -0.01196,-0.0122 -0.0182,-0.009 -0.03862,0.0171 -0.07143,0.0859 -0.108439,0.0656 -0.03246,-0.0179 0.04553,-0.0584 0.0683,-0.0877 -0.04519,0.0105 -0.376316,0.32997 -0.447714,0.38597 -0.135274,0.15879 -0.447464,0.59871 -0.671103,0.60504 -0.933127,0.0264 -1.255064,0.002 -1.585319,-0.71168 -0.112718,-0.34329 -0.146035,-0.68987 -0.150125,-1.0499 -0.0074,-0.33962 0.0043,-0.68144 0.104487,-1.00903 0.06821,-0.20281 0.05496,-0.51201 0.185819,-0.73523 0.0566,-0.1102 0.103055,-0.22624 0.169791,-0.33062 0.159838,-0.24999 0.429141,-0.40256 0.667957,-0.56232 0.06691,0.0188 0.02817,0.0173 0.114461,-0.0206 0.01347,0.002 -0.0145,0.0467 -0.0024,0.0406 0.111299,-0.0564 0.08435,-0.18368 0.02405,0.0551 -0.003,0.0121 0.01656,-0.0187 0.02484,-0.028 0.07613,-0.12331 0.137983,-0.25667 0.22838,-0.36995 0.222007,-0.27818 0.576466,-0.38422 0.915178,-0.40763 0.562314,-0.0574 1.133377,-0.0772 1.693534,0.0124 0.145082,-0.0373 0.671883,2.01451 0.526802,2.05176 z"
       inkscape:connector-curvature="0" />
    <path
       style="fill:#ebe9eb;fill-opacity:1;stroke:none;stroke-width:0.26458332"
       id="path4586"
       d="m 46.946155,264.63303 c -0.1852,0.44736 -0.467407,0.85876 -0.764185,1.24089 0.16147,-0.23564 -0.474964,0.79495 -0.377447,0.54392 0.0073,-0.0188 0.03647,-0.0719 0.02801,-0.0536 -0.02056,0.0445 -0.0429,0.0882 -0.06435,0.13227 -0.025,0.31038 -0.23078,0.63971 -0.385982,0.90734 -0.182907,0.38594 -0.349385,0.7724 -0.620234,1.10657 -0.08544,0.0786 -0.15726,0.17144 -0.244268,0.24833 -0.01976,0.0175 0.03233,-0.0418 0.0461,-0.0643 0.02162,-0.0353 0.02,-0.12021 0.05985,-0.10891 0.05403,0.0153 -0.0444,0.10322 -0.06389,0.15588 -0.07029,0.0728 -0.134191,0.52917 -0.160684,0.63992 -0.07975,0.29483 -0.18992,0.57949 -0.294492,0.86602 -0.02969,0.15592 -0.221424,0.43477 -0.208976,0.55729 -0.09474,0.33442 -0.161173,0.67525 -0.286784,0.99994 -0.110853,0.29221 -0.267354,0.56387 -0.39393,0.84891 -0.02138,0.19425 -0.07568,0.38672 -0.0802,0.58379 0.0069,0.33464 -0.09673,0.65606 -0.153665,0.98233 0.174368,0.1109 -0.350687,0.58765 -0.311687,0.71245 0.06182,0.2856 0.01283,0.57203 -0.03081,0.85632 -0.04338,0.22099 -0.05203,0.44513 -0.04854,0.66956 0.01138,0.2685 0.02294,0.53687 0.02609,0.80562 5.3e-4,0.27162 -0.0049,0.54321 -0.0072,0.81482 -0.0019,0.26444 -1.43e-4,0.52889 7.94e-4,0.79333 0.0011,0.13435 5e-6,0.2687 7.93e-4,0.40305 5.29e-4,0.0895 -0.0037,-0.10033 0.0042,-0.0897 0.01421,0.0191 0.01889,0.0437 0.02835,0.0656 -0.01244,-0.0411 -0.02484,-0.0822 -0.03728,-0.12327 0.0122,0.0118 0.03933,0.0524 0.03657,0.0356 -0.0057,-0.0347 -0.0798,-0.0841 -0.0463,-0.0948 0.03873,-0.0123 0.05634,0.0605 0.09184,0.0803 0.008,0.005 0.0019,-0.0183 0.0026,-0.0275 0.04813,0.0426 0.09625,0.0853 0.144381,0.1279 0.20353,0.1425 0.377682,0.3498 0.545959,0.53566 0.260096,0.16818 -0.293846,-0.19909 0.200057,0.19849 0.0099,0.008 0.0181,-0.0297 0.02966,-0.0243 0.04567,0.0215 0.0762,0.0668 0.118658,0.094 0.04951,0.0318 0.108304,0.0465 0.16003,0.0745 0.01757,7.9e-4 0.03708,-0.005 0.0527,0.003 0.05734,0.0297 0.106119,0.0736 0.160925,0.10773 0.02529,0.0132 0.05059,0.0264 0.07588,0.0396 0.0013,-0.008 -0.0035,-0.0287 0.0041,-0.025 0.08224,0.0399 0.15294,0.101 0.234868,0.14153 0.114893,0.0775 0.230619,0.14104 0.355471,0.20141 0.02844,0.0138 0.06292,0.0135 0.08995,0.0298 0.273193,0.16527 0.08938,0.11867 0.26049,0.15186 0.01794,-0.004 0.03641,-0.0176 0.05381,-0.0117 0.05909,0.0199 0.109894,0.059 0.166208,0.0858 0.02742,0.12285 0.09459,0.0145 0.137674,0.034 0.0983,0.0444 0.186727,0.10799 0.281027,0.16032 0.0048,-0.005 0.0085,-0.0181 0.01437,-0.0146 0.126084,-0.0411 0.167158,0.1679 0.27682,0.18507 0.01093,0.002 -0.01273,-0.0382 -0.003,-0.033 0.197204,0.14 0.112043,0.0943 0.243303,0.15782 0.01402,-0.11736 0.17441,0.1078 0.252745,0.11961 0.01304,0.002 0.02596,-0.0865 0.03139,-0.098 -0.332291,-0.0538 -0.427318,-0.10553 -0.59281,0.0761 0.106804,-0.10298 1.563301,1.40746 1.456497,1.51045 v 0 c -0.553897,0.41365 -0.789652,0.4774 -1.540804,0.394 -0.343429,-0.0875 -0.652761,-0.24121 -0.939294,-0.41403 -0.351203,-0.23054 0.287033,0.18945 -0.250593,-0.14521 -0.02328,-0.0145 -0.05671,-0.0669 -0.07013,-0.043 -0.01857,0.0331 0.333915,0.19149 -0.08863,-0.0187 -0.02217,-0.008 -0.04433,-0.0163 -0.0665,-0.0243 0.0021,0.009 0.01529,0.0291 0.0064,0.0269 -0.229711,-0.0586 -0.451369,-0.18638 -0.665861,-0.2799 -0.212614,-0.13971 -0.43842,-0.26023 -0.650338,-0.40047 -0.02896,-0.0149 -0.05791,-0.0299 -0.08687,-0.0448 0.0031,0.008 0.01767,0.0286 0.0093,0.0253 -0.196641,-0.0778 -0.375753,-0.19838 -0.566663,-0.28604 -0.33696,-0.21149 -0.640511,-0.46156 -0.884529,-0.77856 -0.131556,-0.19715 -0.173799,-0.16154 -0.321995,-0.29224 -0.26003,-0.18973 -0.522412,-0.43183 -0.652812,-0.76081 -0.128539,-0.3322 -0.185348,-0.67152 -0.161626,-1.02736 -0.0013,-0.27273 -0.0039,-0.54547 -0.0019,-0.8182 0.0028,-0.25945 0.0097,-0.51884 0.0113,-0.77829 -0.0027,-0.26281 -0.02164,-0.52465 -0.03669,-0.78697 -0.009,-0.35555 0.0029,-0.71301 0.09456,-1.05895 0.0021,-0.007 0.0287,-0.12853 0.02564,-0.0577 -0.0028,0.0639 -0.02103,-0.12634 -0.02675,-0.19007 -0.02167,-0.24165 -0.01363,-0.23701 -0.0049,-0.48952 0.04913,-0.30892 0.127534,-0.73244 0.362669,-0.96484 0.06233,-0.0616 -0.246657,0.55493 -0.04367,0.25926 0.03307,-0.31625 0.109095,-0.62446 0.132789,-0.941 0.05083,-0.35326 0.113768,-0.70609 0.198347,-1.05218 0.120288,-0.31718 0.235299,-0.63453 0.389864,-0.93711 0.02175,-0.0387 0.03198,-0.0867 0.06526,-0.1161 0.01098,-0.01 0.02254,0.0474 0.02796,0.0338 0.05961,-0.14934 0.0355,-0.33606 0.109437,-0.48435 0.06646,-0.32103 0.185888,-0.6164 0.296828,-0.9226 0.104764,-0.20315 0.165534,-0.42718 0.23337,-0.64353 0.05437,-0.14798 -0.0281,0.0844 0.06291,-0.27784 0.05575,-0.22192 0.117787,-0.27967 0.151598,-0.48677 0.119341,-0.35158 0.284351,-0.67333 0.469522,-0.85118 0.01132,-0.008 0.02125,-0.0309 0.03393,-0.0249 0.01328,0.006 -7.93e-4,0.0568 0.0058,0.0437 0.134676,-0.27296 0.197882,-0.58557 0.381439,-0.83595 0.01146,-0.0201 0.213813,-0.36999 0.242697,-0.38739 0.02122,-0.0128 -0.0038,0.0974 0.0047,0.0742 0.02898,-0.0788 0.03876,-0.16339 0.05814,-0.24509 0.02824,-0.0759 0.05647,-0.15174 0.08471,-0.22761 0.05501,-0.10697 0.09545,-0.2212 0.153101,-0.32677 0.03493,-0.064 0.08157,-0.1208 0.122349,-0.1812 -0.004,0.0151 -0.02133,0.0579 -0.01191,0.0454 0.03948,-0.0523 0.05566,-0.12017 0.103552,-0.16706 0.215628,-0.52979 0.490869,-1.0234 0.87049,-1.45562 0.07113,-0.1321 1.939282,0.87378 1.868154,1.00588 z"
       inkscape:connector-curvature="0" />
    <path
       style="fill:#ebe9eb;fill-opacity:1;stroke:none;stroke-width:0.26458332"
       id="path4588"
       d="m 61.752479,268.96306 c -0.249616,0.55722 -0.636048,1.0453 -1.032415,1.50603 -0.02341,0.0195 -0.04937,0.0362 -0.07026,0.0584 -0.22312,0.23666 -0.229859,0.2517 -0.488169,0.4467 -0.03143,0.0237 0.121083,-0.0999 0.09464,-0.0707 -0.02998,0.0331 -0.07029,0.0551 -0.105431,0.0826 -0.01519,0.008 0.05476,-0.0607 0.0472,-0.0412 -0.07228,0.18616 -0.204576,0.36588 -0.311264,0.53282 -0.05061,0.0805 -0.387892,0.54943 -0.450159,0.54457 -0.02222,-0.002 0.0469,-0.0718 0.04486,-0.0496 -0.003,0.0325 -0.0321,0.0569 -0.04815,0.0853 -0.2353,0.38897 -0.518488,0.75224 -0.861714,1.05129 -0.148558,0.1066 -0.30753,0.24399 -0.476184,0.32344 -0.0149,0.007 0.04174,-0.048 0.02652,-0.0417 -0.03784,0.0157 -0.121193,0.10671 -0.0996,0.0719 0.05528,-0.0891 0.135781,-0.15973 0.203673,-0.23959 -0.135657,0.29867 -0.31293,0.56844 -0.557424,0.79161 -0.08435,-0.0204 -0.320553,0.30355 -0.434999,0.291 -0.05174,-0.006 0.136853,-0.15556 0.109567,-0.11124 -0.0395,0.0642 -0.08129,0.1269 -0.121941,0.19035 -0.27898,0.40092 -0.636926,0.73518 -0.997093,1.06131 -0.285242,0.21545 -0.490829,0.50052 -0.707216,0.77988 -0.248419,0.28964 -0.478491,0.6134 -0.791572,0.83669 -0.274759,0.17079 -0.262498,0.17851 -0.09961,0.0345 0.01611,-0.0142 -0.02784,0.041 -0.04933,0.0415 -0.01633,5.2e-4 0.01799,-0.0273 0.02697,-0.041 -0.05931,0.072 -0.116279,0.14606 -0.177929,0.2161 -0.02529,0.0287 -0.05503,0.0532 -0.08254,0.0798 -0.05562,0.0508 -0.109511,0.10349 -0.166863,0.15229 -0.0533,0.0453 -0.185308,0.13132 -0.208002,0.14884 -0.04117,0.0318 -0.07374,0.0741 -0.116027,0.10438 -0.01095,0.008 0.01312,-0.0236 0.01968,-0.0353 -0.123963,0.12331 -0.191326,0.19406 -0.343488,0.3627 -0.144798,0.17925 -0.315605,0.32848 -0.509087,0.4519 -0.154684,0.0987 -0.0954,0.12891 -0.158814,0.0911 -0.156826,0.0927 -0.255968,0.26652 -0.414112,0.40122 -0.615175,0.69496 -0.584441,0.3847 -2.096209,-0.38329 -0.02559,-0.013 -0.01196,-0.43871 -0.01124,-0.47641 0.01193,-0.24465 0.03975,-0.4881 0.06333,-0.73179 0.0074,-0.15021 2.131671,-0.0454 2.12426,0.10478 v 0 c -0.0074,0.25997 -0.02061,0.52003 -0.06274,0.77714 -0.0086,0.0457 -0.01124,0.0929 -0.02572,0.13713 -0.0036,0.011 -0.01532,0.0254 -0.02658,0.0225 -0.601808,-0.15471 -1.193038,-0.35031 -1.798129,-0.49161 -0.02535,-0.006 -0.06428,0.0818 -0.04999,0.06 0.08741,-0.13314 0.05308,-0.10996 0.123788,-0.14842 0.189918,-0.26008 0.411994,-0.50285 0.661136,-0.70717 0.09745,-0.0868 0.256183,-0.22583 0.378449,-0.28594 0.0099,-0.005 0.0082,0.0276 0.01923,0.027 0.08724,-0.005 0.04177,-0.0579 0.07163,-0.0158 0.03746,-0.0459 0.07492,-0.0919 0.112384,-0.13778 0.0021,0.007 0.0011,0.0263 0.0061,0.021 0.03844,-0.0401 0.216453,-0.28105 0.261445,-0.28837 0.108511,-0.1287 0.213879,-0.22819 0.339495,-0.33513 0.162288,-0.13815 0.06252,-0.1121 0.164822,-0.13124 0.03547,-0.0345 0.0627,-0.0803 0.106403,-0.10359 0.01291,-0.007 -0.003,0.0539 0.007,0.0433 0.06299,-0.0664 0.103483,-0.15137 0.162144,-0.22165 0.108979,-0.13056 0.245991,-0.2365 0.383831,-0.33611 0.01669,-0.0121 -0.01976,0.0362 -0.02965,0.0543 0.09008,-0.0432 0.05346,-0.0368 -0.02365,0.10899 0.0684,-0.0294 0.284247,-0.5224 0.382034,-0.53753 0.274794,-0.3536 0.53312,-0.72318 0.87321,-1.01921 0.281858,-0.27029 0.565843,-0.53833 0.84819,-0.8081 0.235752,-0.21919 0.261348,-0.41547 0.567598,-0.60617 0.148246,-0.0923 0.09633,-0.14091 0.150998,-0.0725 0.183213,-0.11212 -0.05292,0.012 0.02178,0.0994 0.02951,0.0345 0.04129,-0.0814 0.06784,-0.11825 0.0036,-0.005 0.01529,0.004 0.01836,-0.002 0.24457,-0.42685 -0.01701,-0.0284 0.148177,-0.27443 0.225729,-0.29413 0.21535,-0.32658 0.440208,-0.49657 0.0066,-0.005 -0.01487,0.0282 -0.008,0.0235 0.134422,-0.092 0.04604,-0.0806 0.126212,-0.0853 0.03519,-0.0337 0.06721,-0.0711 0.105587,-0.10122 0.01886,-0.0148 0.04827,-0.0142 0.06437,-0.032 0.05614,-0.0619 0.0952,-0.13757 0.148105,-0.20225 0.107151,-0.13101 0.241782,-0.23988 0.343292,-0.37624 0.05845,-0.0739 0.228793,-0.28996 0.271539,-0.34117 0.01416,-0.017 0.05008,-0.069 0.04663,-0.0471 -0.0058,0.0369 -0.04446,0.062 -0.05468,0.0979 -0.01296,0.0456 0.05617,-0.11632 0.07635,-0.12011 0.212415,-0.43987 0.461565,-0.87263 0.842835,-1.189 0.14134,-0.0447 0.04064,-0.006 0.273423,-0.17231 0.04937,-0.0174 -0.06988,0.0779 -0.106243,0.11556 -0.01648,0.017 -0.03712,0.03 -0.05216,0.0483 -0.03358,0.0409 -0.04044,0.13396 -0.09309,0.12862 -0.04764,-0.005 0.03718,-0.0883 0.05577,-0.1324 0.269661,-0.55235 0.615747,-1.05926 1.026652,-1.51712 0.07548,-0.13152 1.935316,0.93585 1.859841,1.06736 z"
       inkscape:connector-curvature="0" />
    <path
       style="fill:#ebe9eb;fill-opacity:1;stroke:none;stroke-width:0.26458332"
       id="path4590"
       d="m 52.524577,268.8379 c 0.11815,0.44239 0.257331,0.88579 0.294101,1.3448 -0.01238,0.008 0.01281,0.0597 0.006,0.0459 -0.01431,-0.0292 -0.06551,-0.10394 -0.0357,-0.0909 0.04312,0.0189 0.165754,0.31388 0.177901,0.33612 0.0043,0.008 0.0026,-0.0178 0.0038,-0.0267 0.164462,0.30202 0.287625,0.5983 0.36314,0.94521 0.03945,0.11687 0.05528,0.24008 0.08651,0.35887 0.0036,0.0137 -0.01482,-0.0339 -0.0034,-0.0424 0.0068,-0.005 0.03693,0.073 0.07303,0.15831 -0.308049,-0.52197 0.212141,0.0386 0.27091,0.12493 0.05759,0.0846 0.102761,0.17699 0.154141,0.26549 0.163036,0.28951 0.234921,0.6255 0.30744,0.94824 -5.29e-4,-0.0127 -0.0079,-0.0493 -0.0016,-0.0383 0.05294,0.0913 0.08063,0.22822 0.116311,0.32163 0.06094,0.15953 0.05947,0.10525 0.142586,0.34249 0.08494,0.2134 0.213434,0.40241 0.318061,0.60682 0.19204,0.18299 0.229198,0.49097 0.361405,0.71641 0.01723,0.0281 0.07794,0.19932 0.12709,0.22167 0.02315,0.0105 -0.04982,-0.0686 -0.02466,-0.0722 0.03019,-0.004 0.03987,0.0464 0.06262,0.0667 0.0338,0.0302 0.07105,0.0563 0.106569,0.0845 0.179139,0.20629 0.378521,0.43917 0.538265,0.63314 0.130472,0.14698 0.202915,0.32102 0.305909,0.48344 0.0029,0.005 0.0043,-0.0186 0.0076,-0.0143 0.02835,0.0357 0.07254,0.16121 0.07291,0.11564 5.29e-4,-0.0586 -0.04836,-0.10674 -0.07255,-0.16011 0.02596,0.0157 0.05191,0.0313 0.07787,0.047 0.0083,-0.006 0.01577,-0.0225 0.02479,-0.0178 0.267449,0.14003 0.477343,0.4096 0.649627,0.64578 0.237786,0.21199 0.240241,0.59511 0.454086,0.8167 0.135138,0.22377 0.163258,0.20511 0.335962,0.37974 0.0326,0.0311 0.0652,0.0621 0.09779,0.0932 0.04838,0.0658 0.08761,0.13943 0.145138,0.19742 0.0084,0.009 0.01497,-0.0315 0.02537,-0.0255 0.03876,0.0223 0.258622,0.21449 0.286457,0.24093 0.251671,0.17429 0.416081,0.50907 0.558932,0.7768 -0.004,-0.0168 -0.02543,-0.0612 -0.01199,-0.0504 0.05718,0.0459 0.43243,0.59396 0.190839,0.23946 0.101772,0.1046 -1.377469,1.54388 -1.479241,1.43928 v 0 c -0.22262,-0.2304 -0.406204,-0.4839 -0.580784,-0.75228 -0.07191,-0.0993 0.03932,0.0561 -0.113747,-0.17839 -0.0039,-0.006 0.01278,0.0246 0.0077,0.0197 -0.02035,-0.0195 -0.07203,-0.0868 -0.05459,-0.0647 0.09794,0.12446 0.126974,0.12982 -0.07594,-0.0278 -0.259046,-0.16907 -0.448575,-0.40913 -0.644663,-0.64356 -0.211629,-0.21519 -0.431064,-0.42485 -0.57037,-0.69928 -0.12419,-0.23063 -0.222226,-0.48058 -0.384503,-0.68096 -0.133752,-0.12014 -0.318939,-0.17911 -0.444442,-0.31568 -0.175646,-0.21034 -0.323866,-0.40997 -0.474503,-0.63475 -0.01662,-0.0248 0.03362,0.0493 0.05043,0.074 -0.199596,-0.21303 -0.411839,-0.41532 -0.58666,-0.65071 -0.209241,-0.26241 -0.450051,-0.50384 -0.56243,-0.83051 -0.13698,-0.32386 -0.145891,-0.35693 -0.344247,-0.64107 -0.157438,-0.29023 -0.303966,-0.5871 -0.411943,-0.89977 -7.94e-4,-0.0724 0.0034,-0.001 -0.05824,-0.14686 -0.08506,-0.20075 -0.142214,-0.40928 -0.221631,-0.61242 -0.03441,-0.1332 -0.08123,-0.2642 -0.109215,-0.39893 -0.0029,-0.0139 0.09516,-0.001 0.03275,0.0274 -0.01958,-0.0351 -0.04154,-0.0688 -0.06232,-0.10317 0.01595,0.0265 0.03576,0.051 0.04785,0.0795 0.0021,0.005 -0.01204,-10e-4 -0.01627,-0.005 -0.04298,-0.0386 -0.08147,-0.0819 -0.124143,-0.12085 -0.197445,-0.18005 -0.223533,-0.1967 -0.387398,-0.49646 -0.150124,-0.27793 -0.23632,-0.58005 -0.305056,-0.88703 7.94e-4,-0.0137 -0.0034,-0.0287 0.0026,-0.041 0.0024,-0.005 0.0163,0.0112 0.01447,0.006 -0.04194,-0.11396 -0.10904,-0.22466 -0.152005,-0.32675 -0.04613,-0.0957 -0.155202,-0.27808 -0.324337,-0.57633 -0.21259,-0.5303 -0.382302,-1.10316 -0.364956,-1.67836 -0.01783,-0.1488 2.086607,-0.40083 2.10443,-0.25203 z"
       inkscape:connector-curvature="0" />
    <path
       style="fill:#ebe9eb;fill-opacity:1;stroke:none;stroke-width:0.26458332"
       id="path4592"
       d="m 63.89422,265.0612 c 0.456677,0.33716 0.845569,0.77628 1.151163,1.25458 0.08886,0.13625 0.160396,0.2839 0.20579,0.44049 0.01762,0.0608 0.08618,0.23652 0.05385,0.1821 -0.03919,-0.066 -0.0597,-0.14241 -0.07494,-0.2176 -0.005,-0.0246 0.02888,0.0411 0.04332,0.0616 0.0327,0.0693 0.0654,0.13853 0.0981,0.2078 -0.0019,-0.0189 -0.02003,-0.0692 -0.0059,-0.0566 0.03277,0.0292 0.03715,0.0817 0.06855,0.11243 0.01183,0.0116 -0.01469,-0.0622 -0.0041,-0.0495 0.08997,0.10853 0.154331,0.23596 0.23251,0.35326 0.11837,0.26803 0.269526,0.45325 0.402402,0.70256 -1.69e-4,-0.006 -0.0038,-0.0226 -5.29e-4,-0.0177 0.113935,0.17172 0.128122,0.37022 0.254514,0.47266 0.188867,0.34314 0.322109,0.70282 0.392308,1.08855 0.0094,0.0396 0.01958,0.0791 0.02835,0.11885 0.03778,0.17124 0.06747,0.34395 0.08183,0.51888 0.006,0.0732 0.01304,0.26993 0.0094,0.17085 0.08581,0.24626 0.114403,0.50636 0.178694,0.75894 0.04433,0.17943 0.06952,0.36236 0.08524,0.54629 0.01177,0.13797 -0.02305,-0.20938 -0.02061,-0.20868 0.02755,0.008 0.03569,0.0449 0.05353,0.0673 0.102037,0.17795 0.221912,0.31369 0.294876,0.51876 0.19391,0.54498 0.02294,0.16388 0.08671,0.30458 0.05691,0.14472 0.06739,0.30064 0.09936,0.45093 0.0021,0.009 -0.0037,-0.0349 0.0036,-0.0286 0.01397,0.0121 0.01619,0.0333 0.02207,0.0508 0.02188,0.0652 0.04073,0.13129 0.0611,0.19694 0.04097,0.28629 0.109289,0.56548 0.164571,0.84913 0.03664,0.18243 0.03275,0.36777 0.03609,0.55248 2.25e-4,0.0124 -0.0013,-0.0254 0.0021,-0.0373 0.0083,-0.0278 0.02318,0.0534 0.03188,0.0811 0.102177,0.33999 0.106251,0.69459 0.09383,1.04599 -0.01669,0.26378 -0.03094,0.52748 -0.03244,0.79182 0.0024,0.26104 0.0087,0.52201 0.01098,0.78306 0.03516,0.33895 -0.07157,0.65294 -0.183031,0.96618 -0.146283,0.27016 -0.162221,0.35207 -0.261085,0.59684 -0.08992,0.33185 -0.217416,0.64301 -0.413486,0.92677 -0.166314,0.21448 -0.269999,0.29042 -0.336219,0.38142 0.01029,-0.0241 0.03976,-0.0968 0.03092,-0.0722 -0.02061,0.0574 -0.04675,0.1127 -0.06622,0.17046 -0.01328,0.0394 0.0028,0.1046 -0.0041,0.14434 -0.0132,0.0756 -0.03292,0.14987 -0.04939,0.22481 -0.08791,0.33233 -0.24801,0.57834 -0.399171,0.83994 -0.143693,0.2741 -0.296159,0.54992 -0.516639,0.7708 -0.173175,0.1748 -0.303914,0.2834 -0.450199,0.39524 -0.01093,0.008 0.01553,-0.0228 0.02331,-0.0341 -0.113943,0.0531 -0.235726,0.30758 -0.36272,0.36973 -0.195221,0.24311 -0.436153,0.40376 -0.715762,0.53028 -0.157226,0.0711 -0.127375,0.12449 -0.157038,0.055 -0.02653,0.0154 -0.0631,0.0723 -0.0796,0.0464 -0.01765,-0.0277 0.06085,-0.0465 0.05866,-0.0793 -0.0019,-0.0285 -0.0397,0.0411 -0.05986,0.0613 -0.229812,0.23059 -0.174892,0.16766 -0.449498,0.38376 -0.311153,0.18774 -0.665845,0.21193 -1.012722,0.28658 -0.394941,0.35463 -0.08927,-0.039 -0.184483,-0.009 -0.192993,0.0604 -0.36844,0.12887 -0.568296,0.1716 -0.06669,-0.0202 -0.02706,-0.0143 -0.120158,-0.003 -0.130815,0.0694 -1.112157,-1.7806 -0.981342,-1.84999 v 0 c 0.238551,-0.0877 0.109061,-0.0423 0.389189,-0.13391 0.05716,0.007 0.173609,0.0426 0.231285,0.0256 0.149987,-0.0442 0.293637,-0.18674 0.458812,-0.14656 0.121094,-0.003 0.22498,-0.0315 0.342188,-0.0638 0.101346,-0.028 0.268639,-0.12149 0.224234,0.0419 -0.141761,0.24404 -0.02236,0.0151 0.04424,0.007 0.03517,-0.004 -0.05406,0.0558 -0.05447,0.0913 -2.64e-4,0.028 0.03607,-0.0428 0.05416,-0.0642 0.210828,-0.24931 0.110646,-0.15871 0.281551,-0.29601 0.144944,-0.11495 0.30952,-0.23902 0.484121,-0.30976 0.02027,-0.008 0.04372,0.006 0.06551,0.004 0.02527,-0.002 0.06557,-0.0397 0.07444,-0.0159 0.01304,0.035 -0.02775,0.0693 -0.04162,0.1039 0.130257,-0.16272 0.277022,-0.32273 0.434737,-0.45975 0.09065,-0.0988 0.20492,-0.21497 0.31092,-0.29891 0.0085,-0.007 -0.01511,0.0383 -0.0063,0.0319 0.03858,-0.0279 0.05947,-0.078 0.101351,-0.10066 0.01953,-0.0106 -0.01828,0.0404 -0.02741,0.0607 0.02312,-0.0279 0.04626,-0.0558 0.0694,-0.0837 -0.0024,0.014 -0.01646,0.0525 -0.0072,0.0418 0.09916,-0.11395 0.140795,-0.26249 0.238381,-0.37917 0.107053,-0.20286 0.239173,-0.40862 0.238977,-0.40558 -0.0021,0.0333 -0.03598,0.0692 -0.01945,0.0982 0.01529,0.0268 0.01635,-0.0595 0.02453,-0.0893 0.04527,-0.14592 -0.02424,0.086 0.05097,-0.27325 0.0506,-0.24174 0.146502,-0.42322 0.221901,-0.64567 0.124465,-0.23706 0.265673,-0.45128 0.434543,-0.63999 0.01291,-0.009 0.03376,-0.0408 0.03874,-0.0261 0.01172,0.0347 -0.02878,0.14127 -0.01064,0.10943 0.03311,-0.0581 0.03626,-0.1288 0.05776,-0.19212 0.04323,-0.12733 0.11488,-0.22217 0.138539,-0.35771 0.03986,-0.0994 0.201062,-0.56423 0.240493,-0.57167 0.01961,-0.004 -0.0055,0.0395 -0.0082,0.0593 0.02432,-0.0716 0.03341,-0.15216 0.07872,-0.21267 0.0089,-0.0119 0.0033,0.18688 0.0048,0.09 5.29e-4,-0.0377 5.29e-4,-0.22193 5.29e-4,-0.26021 -0.0011,-0.26492 -0.0063,-0.52977 -0.01074,-0.79465 -0.0013,-0.29122 0.0046,-0.5824 0.02638,-0.87292 0.0095,-0.15771 0.03208,-0.32063 -0.0084,-0.47559 -0.06578,-0.2378 -0.114554,-0.47781 -0.106404,-0.72482 -0.06126,-0.24979 -0.156742,-0.49459 -0.155843,-0.75548 -0.0131,-0.12349 0.0056,0.0151 -0.05513,-0.20075 -0.03932,-0.13982 -0.05377,-0.27227 -0.09422,-0.40897 -0.01537,-0.0541 -0.03557,-0.10716 -0.0461,-0.16245 -0.0049,-0.0259 0.01873,0.0493 0.02916,0.0735 0.0077,0.0178 0.03319,0.0348 0.02508,0.0524 -0.0069,0.0148 -0.02262,-0.0237 -0.03218,-0.037 -0.136414,-0.18893 -0.0631,-0.1148 -0.128792,-0.17941 -0.252857,-0.34001 -0.345286,-0.6794 -0.414057,-1.08514 -0.05829,-0.26699 -0.06795,-0.53943 -0.152251,-0.79943 -0.05732,-0.29112 -0.09181,-0.586 -0.163857,-0.87476 -0.02164,-0.17892 -0.11113,-0.33491 -0.180335,-0.49885 -0.06066,-0.12924 -0.121795,-0.25673 -0.175918,-0.38896 -0.01151,-0.0281 0.02749,0.0543 0.0379,0.0829 0.0013,0.004 -0.0067,-0.004 -0.01,-0.006 -0.03253,-0.0498 -0.06506,-0.0997 -0.09759,-0.14949 0.01709,0.0595 0.02233,0.0624 -0.0672,-0.0586 -0.120269,-0.16247 -0.22543,-0.3337 -0.320431,-0.51192 -0.015,-0.0282 -0.02715,-0.0578 -0.04073,-0.0867 -0.105066,-0.20205 -0.233987,-0.38547 -0.329147,-0.59532 -0.01095,-0.0242 0.02567,0.0465 0.03849,0.0697 -0.08725,-0.14578 0.07297,0.12523 -0.150696,-0.33145 -0.01254,-0.0256 0.04794,0.0654 0.02469,0.0818 -0.141092,0.0998 0.07149,-0.41752 0.0072,0.0471 -0.0033,0.0241 -0.03894,-0.0292 -0.05841,-0.0438 -0.426752,-0.30298 -0.763574,-0.72978 -1.075007,-1.1442 -0.09186,-0.11842 1.582854,-1.41746 1.674709,-1.29904 z"
       inkscape:connector-curvature="0" />
  </g>
</svg>
