<?xml version="1.0" encoding="UTF-8" standalone="no"?>
<!-- Created with Inkscape (http://www.inkscape.org/) -->

<svg
   xmlns:dc="http://purl.org/dc/elements/1.1/"
   xmlns:cc="http://creativecommons.org/ns#"
   xmlns:rdf="http://www.w3.org/1999/02/22-rdf-syntax-ns#"
   xmlns:svg="http://www.w3.org/2000/svg"
   xmlns="http://www.w3.org/2000/svg"
   xmlns:sodipodi="http://sodipodi.sourceforge.net/DTD/sodipodi-0.dtd"
   xmlns:inkscape="http://www.inkscape.org/namespaces/inkscape"
   width="100mm"
   height="100mm"
   viewBox="0 0 100 100"
   version="1.1"
   id="svg8"
   sodipodi:docname="f1.svg"
   inkscape:version="0.92.4 (unknown)">
  <defs
     id="defs2" />
  <sodipodi:namedview
     id="base"
     pagecolor="#ffffff"
     bordercolor="#666666"
     borderopacity="1.0"
     inkscape:pageopacity="0.0"
     inkscape:pageshadow="2"
     inkscape:zoom="0.98994949"
     inkscape:cx="496.2214"
     inkscape:cy="173.41925"
     inkscape:document-units="mm"
     inkscape:current-layer="layer1"
     showgrid="false"
     inkscape:window-width="1920"
     inkscape:window-height="1015"
     inkscape:window-x="0"
     inkscape:window-y="1080"
     inkscape:window-maximized="1" />
  <metadata
     id="metadata5">
    <rdf:RDF>
      <cc:Work
         rdf:about="">
        <dc:format>image/svg+xml</dc:format>
        <dc:type
           rdf:resource="http://purl.org/dc/dcmitype/StillImage" />
        <dc:title></dc:title>
      </cc:Work>
    </rdf:RDF>
  </metadata>
  <g
     inkscape:label="Layer 1"
     inkscape:groupmode="layer"
     id="layer1"
     transform="translate(0,-197)">
    <path
       id="path3733"
       d="m 57.382213,204.73422 c -1.256397,0.61406 -2.664377,0.75779 -4.038681,0.88663 -0.442405,0.22296 -0.725046,-0.003 -1.144376,0.0824 -0.117623,0.0241 -0.440087,0.16044 -0.351258,0.0797 0.165306,-0.15031 0.398375,-0.20242 0.597564,-0.30364 0.04388,-0.0363 0.182194,-0.13501 0.13163,-0.10884 -0.734772,0.38025 -0.336227,0.28479 -1.107144,0.56118 -1.281962,0.45963 -0.02663,-0.0465 -0.84102,0.17264 -0.409017,0.0521 -0.960911,0.34516 -1.369682,0.30857 -0.123807,0.10563 0.218477,-0.17984 0.139779,-0.1975 -0.05766,-0.0129 -0.11522,0.0263 -0.172831,0.0395 -0.800576,0.28231 -0.889518,0.28138 -1.774544,0.54416 -0.164772,0.038 -0.325223,0.1163 -0.494319,0.11414 -0.05848,-7.4e-4 0.09765,-0.0695 0.129114,-0.11882 0.0093,-0.0145 -0.0069,-0.0472 -0.02408,-0.0458 -0.242837,0.0204 -0.882359,0.29256 -1.127074,0.36815 -1.020512,0.22377 -0.417082,0.1438 -0.25685,-0.03 0.03431,-0.0372 -0.09921,0.0205 -0.147923,0.0343 -0.110464,0.0312 -0.219014,0.0688 -0.329369,0.10037 -0.140785,0.0403 -0.27763,0.10977 -0.423961,0.11497 -0.07528,0.003 0.132707,-0.0713 0.199059,-0.10697 -0.373239,0.16739 -1.779838,0.7947 -2.085773,0.74934 0.281045,-0.24879 0.37261,-0.22706 0.164838,-0.2292 -0.904764,0.52025 -1.864384,0.8643 -2.870597,1.1249 -0.403008,-0.12913 -0.799804,0.11934 -1.201068,0.15297 -0.0195,0.002 -0.02019,-0.0336 -0.03029,-0.0503 -0.06291,0.006 -0.125812,0.0119 -0.18872,0.0179 -0.104981,0.0255 -0.365484,0.17192 -0.314946,0.0764 0.07949,-0.15017 0.286165,-0.18358 0.424143,-0.28274 0.125798,-0.0904 -0.265997,0.15897 -0.396645,0.24221 -0.818759,0.52169 0.07181,-0.0187 -0.951923,0.58988 -0.274535,-0.0424 -0.430903,0.31749 -0.683827,0.33148 -0.153315,0.008 0.235525,-0.19812 0.341014,-0.30969 0.0097,-0.0102 -0.0306,-0.0157 -0.04163,-0.007 -0.798681,0.63253 -0.341278,0.39044 -0.76242,0.5992 -0.448681,0.30021 -0.889167,0.6087 -1.381795,0.83548 -0.02138,0.01 0.0632,-0.0667 0.04176,-0.057 -0.22016,0.0999 -0.40567,0.26314 -0.609296,0.39348 -0.665605,0.1369 -0.430763,0.50797 -0.143402,-0.19352 0.04928,-0.1203 -0.170537,0.19626 -0.256053,0.29418 -0.08986,0.10288 -0.173993,0.21112 -0.270071,0.30823 -0.252947,0.25565 -0.517519,0.49953 -0.776279,0.74929 -0.50541,0.37772 -1.041199,0.73789 -1.538071,1.13244 -0.44192,0.37777 -0.890923,0.76475 -1.391309,1.06565 -0.06203,0.0373 -0.142197,0.036 -0.204597,0.0727 -0.210171,0.12353 -0.385246,0.30801 -0.608756,0.40535 -0.09419,0.041 0.13697,-0.15314 0.205457,-0.22971 -0.03396,0.0146 -0.117065,0.0777 -0.101885,0.044 0.05876,-0.13056 0.344953,-0.4543 0.241858,-0.35495 -0.09233,0.089 -0.405617,0.49706 -0.57231,0.70193 -0.296513,0.36441 -0.150659,0.18907 -0.614084,0.6706 -0.653413,0.52079 -1.180045,1.01299 -1.861511,1.54782 -0.507337,0.53365 -1.17482,0.86848 -1.742564,1.32647 -0.108473,0.067 -0.688024,0.54384 -0.844613,0.60449 -0.04711,0.0182 0.09793,-0.17122 0.0583,-0.13989 -0.583008,0.5567 -0.359112,0.39035 -0.609368,0.57349 -0.24782,0.2255 -1.056688,1.03114 -1.420597,1.14487 -0.148465,0.0464 0.190937,-0.24644 0.271787,-0.37932 -0.06611,0.0758 -0.132225,0.15168 -0.198337,0.22753 0.0051,-0.0285 0.03108,-0.1096 0.0153,-0.0854 -0.2443,0.37479 -0.415921,0.77744 -0.697396,1.13427 -0.07152,0.10714 -0.143036,0.21427 -0.214554,0.3214 -0.0126,0.007 -0.04073,0.0337 -0.0378,0.0198 0.01632,-0.0776 0.122737,-0.29108 0.08071,-0.22382 -0.04098,0.0656 -0.310921,0.76059 -0.15548,0.21249 0.160427,-0.90792 -0.09461,0.76978 -0.10213,0.93918 -3.96e-4,0.0412 -0.0013,0.0824 -0.0012,0.12354 4.5e-4,0.11082 0.0041,0.22171 0.0084,0.33243 0.0029,0.0743 0.02376,0.29578 0.0097,0.22279 -0.09493,-0.49285 -0.194372,-0.5241 -0.01788,-0.44554 0.03549,0.0986 0.01483,0.24504 0.10648,0.29594 0.08239,0.0457 -0.06407,-0.1803 -0.06782,-0.27446 -0.0014,-0.0357 0.04546,0.0561 0.06042,0.0886 0.158884,0.34459 0.323335,0.69209 0.470826,1.04026 0.11342,0.59944 0.265263,0.50681 0.65346,1.19077 -0.199675,-0.13124 -0.05547,-0.32874 -0.105833,-0.48707 -0.02635,-0.0829 -0.166328,-0.1638 -0.115112,-0.23405 0.04568,-0.0627 0.127783,0.0952 0.203199,0.11321 0.02378,0.006 -0.01469,-0.0466 -0.02203,-0.0699 0.169223,0.0913 0.338445,0.1825 0.507667,0.27374 0.42541,0.1418 0.757408,0.46925 1.098215,0.74986 0.120216,0.099 0.212604,0.24069 0.355035,0.30364 0.06122,0.0271 -0.134344,-0.14094 -0.08237,-0.18313 0.05974,-0.0485 0.146201,0.048 0.219301,0.072 0.17479,0.1062 0.0395,-0.14462 0.0869,-0.12587 0.251901,0.0997 0.474727,0.26194 0.719879,0.37724 0.106328,0.05 0.219187,0.0858 0.332303,0.1176 0.0682,0.0192 0.145784,0.004 0.209664,0.0347 0.184238,0.0883 0.349654,0.21148 0.524482,0.31721 0.05781,0.0131 0.114395,0.0446 0.173445,0.0393 0.136253,-0.0121 -0.115464,-0.20623 -0.03783,-0.16989 0.402502,0.18843 0.984575,0.65233 1.469752,0.77091 -0.02596,-0.0586 -0.13739,-0.19973 -0.07785,-0.17592 1.613035,0.6448 0.144479,0.23509 1.229363,0.75489 0.0291,0.0139 0.05507,-0.042 0.08734,-0.0418 0.160468,0.001 0.318196,0.0465 0.478563,0.0523 0.03672,-0.0249 0.214884,-0.15447 0.26525,-0.1521 0.159986,0.008 0.312544,0.0713 0.470778,0.0961 0.330944,0.0519 0.656471,0.0237 0.988899,0.016 0.606335,-0.0177 0.241313,-0.0356 1.285767,0.30676 0.957916,0.31398 1.611386,0.64933 2.477309,1.17959 0.653746,0.25232 0.21431,-0.19912 0.29414,-0.2155 0.1114,-0.0229 0.221126,0.0547 0.333626,0.0713 0.08438,0.0125 0.170268,0.0105 0.2554,0.0157 -0.148952,-0.015 0.691166,-0.0405 0.517938,-0.0436 -0.556165,-0.01 -1.11256,0.001 -1.668756,-0.007 -0.108532,-0.002 0.217469,-0.0249 0.325374,-0.0131 3.225961,0.35251 2.203383,-0.0448 3.81608,0.72573 0.08005,0.049 0.517652,0.36293 0.689477,0.15494 0.02668,-0.0323 -5.29e-4,-0.1296 0.0399,-0.11915 0.442947,0.11423 0.978609,0.42626 1.389467,0.64704 0.07904,0.0231 0.155083,0.0762 0.237122,0.0692 0.05142,-0.004 0.117071,-0.2491 0.198583,-0.24999 0.320911,-0.003 0.637808,0.0752 0.958184,0.0941 0.215566,0.10401 0.849675,-0.0118 1.059682,0.0417 0.725408,0.18478 1.430568,0.51605 2.117744,0.81084 0.639937,-0.0706 1.127897,0.44183 1.664007,0.73415 0.06696,0.0365 0.138107,0.12433 0.208335,0.0946 0.05168,-0.0219 -0.04517,-0.10276 -0.06775,-0.15414 -0.404783,-0.81326 0.182404,-0.25586 -2.049023,-0.2686 -0.05858,-2.6e-4 0.117129,0.005 0.175691,0.004 2.83653,-0.0645 1.733699,-0.21612 3.177525,0.0335 0.598654,0.1267 1.234543,0.18231 1.84264,0.0866 -3.377073,-0.002 -1.024186,-0.0615 1.380138,0.33605 0.518403,0.0857 0.979382,0.57111 1.519425,0.5653 0.01008,-1.07103 -2.991575,0.008 -1.538676,-0.23757 0.14691,-0.0249 0.29238,-0.0576 0.438571,-0.0864 1.512673,-0.23794 3.048457,-0.0984 4.572052,-0.10734 0.79919,0.0212 3.659413,0.0278 0.197128,0.0136 0.782109,-0.004 1.564836,-0.0177 2.34686,-0.0403 1.459375,-5.3e-4 2.914094,0.0352 4.372157,-8e-5 -0.309941,0.0104 1.042048,-0.002 0.782355,0.0226 -0.770197,0.0741 -1.545569,0.0887 -2.315009,0.17036 -0.02807,0.003 -0.0593,0.0842 -0.03163,0.0786 0.287925,-0.0584 0.543525,-0.2232 0.815872,-0.33337 0.682225,-0.26542 0.74736,-0.31462 1.481492,-0.49708 0.181014,-0.045 0.371623,-0.0422 0.552876,-0.0862 1.864449,-0.45265 -0.826633,0.15474 1.122846,-0.27798 0.566,-0.11878 0.739606,-0.17439 1.310688,-0.22052 0.08815,-0.007 0.176816,0.005 0.265226,0.007 0.104018,-0.003 0.208434,0.001 0.31206,-0.008 0.287999,-0.0263 0.573516,-0.0753 0.861018,-0.10666 0.166198,-0.0213 0.340238,-0.11849 0.498594,-0.0637 0.09179,0.0317 -0.193209,0.0709 -0.249984,0.14968 -0.03202,0.0445 0.109186,-0.0131 0.162013,-0.0276 0.116496,-0.032 0.224017,-0.11015 0.344815,-0.11159 0.03732,-5.3e-4 -0.02005,0.0719 -0.03007,0.10786 0.109853,-0.0549 0.219705,-0.10981 0.329557,-0.16471 0.377257,-0.20323 0.970685,-0.55898 1.400048,-0.64266 0.09168,-0.0179 -0.215153,0.088 -0.213595,0.18136 0.0013,0.0772 0.144658,-0.0541 0.215196,-0.0855 0.167497,-0.0744 0.5563,-0.26287 0.735325,-0.34902 1.157557,-0.50507 0.246345,-0.16651 0.226996,0.016 -0.01027,0.0968 0.166463,-0.10086 0.249013,-0.15239 0.730033,-0.4557 0.240297,-0.0692 1.020673,-0.60754 -0.109805,0.23396 -0.0058,-0.005 0.474995,-0.33233 0.04751,-0.0324 0.107874,-0.0412 0.157687,-0.0699 0.124748,-0.0719 0.230772,-0.17872 0.364831,-0.23124 0.03091,-0.0121 -0.05046,0.11468 -0.02233,0.097 0.179877,-0.11273 0.332634,-0.26384 0.498952,-0.39576 -0.822572,0.90806 -0.134578,0.12307 -0.132443,0.17959 0.0032,0.0842 -0.181591,0.28232 -0.126193,0.21889 0.182904,-0.20943 0.339029,-0.44083 0.51091,-0.65939 0.02334,-0.0297 -0.08955,0.12138 -0.06516,0.0926 0.09455,-0.11165 0.183901,-0.22759 0.275852,-0.34139 0.170532,-0.14696 0.698699,-1.07676 0.862179,-1.07283 0.08305,0.002 -0.196704,0.16937 -0.126936,0.21446 0.06978,0.0451 0.0962,-0.13549 0.144306,-0.20323 -0.02424,0.0569 -0.09569,0.22804 -0.07268,0.17065 0.382913,-0.95457 0.860142,-1.67273 1.442792,-2.51476 0.212558,-0.1353 0.475517,-0.61849 0.770048,-0.97195 0.02999,-0.036 -0.0494,0.0796 -0.0741,0.11942 0.213916,-0.45839 0.122129,-0.40739 0.324517,-1.06402 0.09941,-0.32255 0.190333,-0.5168 0.316894,-0.80925 0.0957,-0.0443 0.225608,-0.55686 0.241805,-0.69387 -0.06724,-0.36964 -0.06959,-0.75825 -0.08631,-1.13447 -0.0085,-0.30334 -0.01156,-0.34847 -0.01281,-0.65265 -5.3e-4,-0.10661 -0.03717,-0.41934 0.0011,-0.31982 0.04892,0.12733 0.03169,0.2715 0.03278,0.40791 8.5e-5,0.0105 -0.02506,0.021 -0.02943,0.0114 -0.03721,-0.0813 -0.05481,-0.17013 -0.08222,-0.2552 -0.0789,0.22401 0.06468,-0.12922 -0.137382,-0.17018 -0.07922,-0.0161 0.119782,0.29187 0.06325,0.2341 -0.104492,-0.10677 -0.133033,-0.26866 -0.217596,-0.39182 -0.01537,-0.0224 0.0029,0.0542 0.0044,0.0813 -0.05321,-0.0854 -0.10641,-0.17082 -0.159615,-0.25622 1.051594,1.56318 -0.918655,-0.5841 -1.139984,-0.85315 -0.326472,-0.2474 0.160099,0.13281 -0.572249,-0.78653 -0.03096,-0.0389 0.07572,0.17197 0.03388,0.14516 -0.09545,-0.0612 -0.236511,-0.37382 -0.216574,-0.26222 0.0637,0.35658 0.57736,0.61793 -0.08742,0.19088 -0.402304,-0.0918 0.134708,0.055 -0.578416,-0.39116 -0.02159,-0.0135 -0.0097,0.0716 -0.03488,0.0679 -0.08755,-0.0127 -0.165571,-0.0643 -0.24234,-0.10824 -0.675698,-0.42362 -0.370623,-0.24561 -0.908203,-0.54589 -0.504021,-0.22794 -1.046827,-0.40644 -1.510115,-0.71752 -0.898943,-0.60359 -0.245999,-0.2866 -0.700341,-0.49651 -0.194271,-0.15701 -0.388544,-0.31403 -0.582814,-0.47104 -0.05577,-0.0179 -0.119372,-0.0201 -0.167304,-0.0538 -0.153628,-0.10793 -0.28339,-0.24646 -0.428908,-0.36509 -0.05082,-0.0414 -0.185862,-0.17492 -0.159716,-0.1148 0.138139,0.31764 0.679842,0.53576 -0.265599,0.0127 -0.424667,0.006 0.09744,0.0237 -0.617754,-0.18923 -0.07314,-0.0218 -0.155181,0.0134 -0.22886,-0.006 -0.514659,-0.13895 -0.438396,-0.21669 -0.951706,-0.21052 -0.17267,0.0432 -1.3067,-0.85997 -1.508342,-0.83196 -0.04977,0.007 0.109323,0.14613 0.05966,0.13844 -0.208246,-0.0322 -0.379632,-0.1848 -0.577731,-0.25665 0.522163,0.86046 -1.363091,-0.0911 -1.625039,-0.18042 -0.133334,-0.0455 -0.271976,-0.0736 -0.407964,-0.11036 -0.09997,-0.0202 -0.197995,-0.0565 -0.299902,-0.0606 -0.117711,-0.005 -0.225341,0.0918 -0.342969,0.0853 -0.411255,-0.0228 -0.838364,-0.13828 -1.246897,-0.20047 -0.200506,0.0121 -0.267491,0.0144 -0.46342,0.0327 -0.06598,0.006 -0.263969,0.0203 -0.197699,0.0211 3.200601,0.0353 1.805961,-0.0103 1.099579,-0.002 -1.357077,0.10462 -2.736345,0.1399 -4.092512,0.0347 -0.796657,0.004 -3.243169,0.0166 0.183812,0.0112 -0.359519,10e-6 -0.720535,-0.037 -1.080143,-0.0234 -0.09987,0.004 -0.199554,0.0342 -0.298916,0.0235 -1.042104,-0.11315 -2.079881,-0.26311 -3.119824,-0.39466 0.03716,-0.0751 -1.653635,-0.8285 -1.429432,-0.33609 0.644125,0.008 1.288198,0.025 1.932374,0.0246 0.04621,-3e-5 -0.09008,-0.0233 -0.136232,-0.0257 -0.288758,-0.0148 -0.207409,0.0309 -0.529034,0.0402 -2.925614,0.0841 -1.902725,0.31574 -3.462544,-0.15759 -0.194564,0.008 -0.602782,-0.31955 -0.833612,-0.20482 -0.03337,0.0166 -0.03288,0.0702 -0.06269,0.0926 -0.07716,0.0579 -0.252711,0.089 -0.335587,0.10914 3.347702,0.16054 1.684946,-0.0894 0.943383,-0.0248 -0.24837,0.0216 -0.495112,0.0598 -0.743448,0.0818 -0.124838,0.006 -0.249523,0.018 -0.374515,0.0188 -0.766257,0.005 -1.535702,0.0683 -2.298816,-0.001 -0.640173,-0.0583 -1.185786,-0.55484 -1.828792,-0.60076 0.123343,0.14474 -0.420235,0.22712 -0.28842,0.23168 3.231954,0.11184 2.016347,-0.01 1.312466,-0.0286 -0.680463,0.023 -3.581411,0.32003 -3.461787,0.10269 0.376872,-0.68469 1.55807,-0.12566 2.337107,-0.18849 0.06681,-0.0471 0.13362,-0.0941 0.200429,-0.14122 -0.467947,0.27635 -4.376073,-6.34144 -3.908126,-6.61779 v 0 c 0.189736,-0.09 0.379471,-0.17996 0.569204,-0.26994 2.708151,-0.26764 4.053813,-0.31829 0.989737,-0.25493 -0.05316,0.001 0.105572,0.0133 0.158626,0.0168 0.224094,0.0149 0.44708,-0.0101 0.668295,-0.0451 1.651389,-0.25562 3.388508,-0.33853 4.965531,0.27796 0.199861,0.0703 0.392448,0.18398 0.603811,0.19834 0.01733,0.001 -5.3e-4,-0.0402 -0.01506,-0.0499 -0.105153,-0.0706 -0.206555,-0.17214 -0.332698,-0.18356 -0.556495,-0.0504 -1.117573,-0.004 -1.676318,0.002 -0.0881,9e-4 0.176017,0.008 0.264023,0.0126 0.166983,0.0105 0.333377,0.0391 0.500663,0.0359 1.142523,-0.0219 2.245598,-0.64611 3.423473,-0.15939 0.43644,0.0448 0.629483,0.0498 1.06327,0.15719 0.411919,0.10198 0.816875,0.29595 1.235332,0.37308 0.02132,0.004 0.0421,-0.0104 0.06316,-0.0156 -0.893122,-0.48205 -0.04042,-0.068 -2.498624,-0.0367 -0.102746,0.001 0.202785,-0.0335 0.303718,-0.0528 0.135604,-0.0259 0.270351,-0.0561 0.405828,-0.0826 1.324179,-0.25945 0.551884,-0.0988 3.106952,-0.10652 0.664459,0.12081 1.292974,0.26709 1.923706,0.51454 0.314624,0.12344 0.60415,0.30656 0.921287,0.42339 0.024,0.009 -0.0273,-0.0433 -0.04095,-0.0649 -4.823338,-0.41314 -2.204762,-0.11573 -1.077706,-0.2236 1.259869,-0.002 2.522813,-0.0199 3.77997,0.0456 0.817676,-0.0501 0.255889,-0.0101 -1.434613,-0.0259 -0.09247,-8.7e-4 0.184938,-0.002 0.27741,-0.002 0.209283,-0.002 0.413766,-0.003 0.623157,-0.001 0.109903,0.001 0.219784,0.004 0.329674,0.006 1.523799,-0.13307 3.071907,-0.19003 4.585054,0.0619 1.009142,0.10755 2.010013,0.22234 2.96123,0.61033 0.132982,0.0464 0.261998,0.10638 0.398949,0.13933 0.02833,0.007 0.104916,-0.002 0.08434,-0.023 -0.05955,-0.0597 -0.308522,-0.11698 -0.224194,-0.11722 0.598971,-0.002 1.296995,0.33012 1.845677,0.52999 0.100614,0.0328 0.19871,0.0746 0.301842,0.0983 0.04779,0.011 0.101566,-0.0136 0.147027,0.005 0.42342,0.17118 0.634529,0.33579 1.027075,0.4813 0.05951,0.0221 0.154575,0.10119 0.184899,0.0454 0.0321,-0.059 -0.08171,-0.1067 -0.12256,-0.16006 1.087979,0.33438 2.151821,0.75748 3.12566,1.35278 0.34544,0.0971 1.354913,0.87523 1.777116,1.13832 0.0159,0.01 -0.0027,-0.0374 -0.004,-0.0561 0.156945,0.091 0.313891,0.18205 0.470836,0.27308 0.05119,0.003 0.106072,-0.0104 0.153575,0.009 0.670309,0.27249 1.283285,0.70896 1.893811,1.08601 0.693795,0.46287 1.403847,0.89461 2.066557,1.39337 0.382606,0.32626 0.763789,0.67598 1.077635,1.06697 0.145436,0.18119 0.265927,0.3821 0.417885,0.55786 0.07277,0.0842 -0.283025,-0.32148 -0.179115,-0.28169 0.15321,0.0587 0.232812,0.23122 0.349218,0.34683 0.216027,0.14222 0.361215,0.35451 0.542777,0.53516 0.01992,0.0198 -0.07763,-0.0807 -0.05543,-0.0635 0.122864,0.0953 0.25382,0.18352 0.358441,0.29856 0.261406,0.28742 0.490305,0.60282 0.735457,0.90423 0.578718,0.73173 0.96868,1.61465 1.224407,2.50593 0.177398,0.73734 0.311193,1.48404 0.307025,2.24449 0.04403,0.7367 0.09752,1.47657 0.01495,2.21302 -0.149844,1.06419 -0.241974,1.18138 -0.403677,2.17303 -0.03653,0.12486 -0.13168,0.4802 -0.200578,0.62472 -0.01273,0.0267 -0.05141,0.0375 -0.05943,0.066 -0.187161,0.66483 -0.276477,1.35898 -0.634275,1.96683 -0.251236,0.48271 -0.619496,1.24021 -1.031105,1.64253 -0.04521,0.0442 0.08714,-0.23343 0.04862,-0.1833 -0.147505,0.192 -0.254857,0.41175 -0.382289,0.61763 -0.100877,0.12098 -0.201755,0.24196 -0.302633,0.36294 0.289269,-0.72329 0.116369,-0.24544 -0.09198,0.0611 -0.02188,0.0322 0.04528,-0.14693 0.02397,-0.11434 -0.253121,0.38681 -0.355584,0.68873 -0.545105,1.16159 -0.252886,0.49271 -0.315899,0.63799 -0.697058,1.19952 -0.322336,0.47487 -0.270055,0.15005 -0.591796,0.55414 -0.109059,0.13697 -0.19993,0.28748 -0.299895,0.43122 -0.283728,0.22724 -0.07837,0.0498 -0.530264,0.61778 -0.08803,0.071 0.218305,-0.39244 0.144168,-0.30706 -0.163486,0.18828 -0.268271,0.4209 -0.416877,0.62113 -0.256969,0.34623 -0.662808,0.57096 -0.897702,0.9313 0.01302,-0.0361 0.06908,-0.1324 0.03907,-0.10842 -0.400372,0.32 -0.650904,0.64511 -1.109858,0.90515 -0.04184,0.0237 -0.102923,-0.0242 -0.144266,2.7e-4 -0.198988,0.11821 -0.370761,0.27717 -0.556144,0.41575 -0.01114,-0.27622 0.01847,-0.0357 -0.448405,0.29843 -0.04805,0.0344 -0.1142,0.0342 -0.165521,0.0635 -0.127849,0.073 -0.247679,0.15921 -0.369496,0.24184 -0.942956,0.63967 -0.514654,0.54311 -1.083109,0.6278 -0.325697,0.10546 -0.582157,0.1784 -0.889632,0.33836 -0.265766,0.13826 -0.513572,0.3143 -0.792102,0.42461 -0.0778,0.0308 0.162401,-0.24811 0.05258,-0.24546 -0.514578,0.27822 -0.190723,0.0922 -0.948603,0.59636 -0.429334,0.24034 -1.696837,0.67579 -2.093555,0.775 -0.09021,0.0226 -0.185219,-0.0168 -0.277829,-0.0252 -0.115599,0.006 -0.549153,0.0263 -0.64744,0.0395 -0.336344,0.0453 -0.6368,0.14372 -0.978694,0.16738 -0.131104,0.009 -0.253328,-0.10596 -0.389057,-0.0638 -0.21201,0.0348 -0.554286,0.087 -0.750702,0.13838 -0.336233,0.0879 -1.04897,0.34906 -1.363715,0.38017 -0.08521,0.008 -0.05758,-0.22208 -0.178237,-0.18497 -0.307827,0.0913 -0.352825,0.0957 -0.688742,0.24707 -0.255625,0.11517 -0.48296,0.31186 -0.758547,0.36342 -1.284412,0.24035 -2.579524,0.36533 -3.880596,0.37628 -0.79057,-0.0214 -3.856268,-0.039 -0.412975,-0.009 -0.78145,-0.0206 -1.563947,-0.0225 -2.345397,-0.0107 -1.443675,-0.002 -2.885924,0.0224 -4.327509,-0.0544 -0.700682,-0.0507 -2.157851,-0.0141 1.100797,-0.0213 0.09062,-2e-4 -0.181245,-0.001 -0.271868,-0.001 -1.085574,5.3e-4 0.510445,0.003 -0.644123,5.3e-4 -0.35217,-0.008 -0.358597,-0.0232 -0.725394,0.039 -0.169892,0.0288 -0.333852,0.0989 -0.506037,0.10569 -1.526371,0.06 -2.609202,0.16241 -3.95464,-0.35384 -0.173564,-0.0625 -0.347128,-0.12504 -0.520695,-0.18756 -0.13875,-0.0528 -0.276666,-0.10786 -0.41625,-0.15841 -0.09088,-0.0329 -0.180501,-0.0716 -0.274989,-0.0919 -0.01397,-0.003 -0.0488,0.0241 -0.03456,0.0254 2.764203,0.23531 3.611293,0.17017 0.0047,0.18547 -0.45144,-0.0441 -0.904619,-0.0742 -1.354098,-0.13637 -0.265306,-0.0367 -0.525754,-0.10565 -0.791787,-0.13662 -0.06089,-0.007 -0.122547,0.004 -0.183819,0.006 -0.606422,0.42226 0.02267,-0.0322 1.915215,-0.0289 0.175612,2.7e-4 -0.346056,0.069 -0.521594,0.0741 -1.572813,0.0457 -2.633144,0.17601 -4.001103,-0.38615 -0.231077,-0.1174 -0.461661,-0.23578 -0.69323,-0.3522 -0.116903,-0.0588 -0.231899,-0.12186 -0.352168,-0.17339 -0.0492,-0.0211 -0.178152,-0.0917 -0.154501,-0.0437 0.04611,0.0936 0.339225,0.20425 0.234908,0.20694 -0.165201,0.004 -1.032841,-0.36068 -1.192419,-0.42472 -0.104891,-0.032 -0.207883,-0.0711 -0.314674,-0.0961 -0.04396,-0.0103 -0.161354,-0.0458 -0.135115,-0.009 0.05492,0.0769 0.326483,0.11962 0.238284,0.15351 -0.189778,0.0729 -1.178491,-0.16432 -1.437177,-0.1399 -0.1387,-0.0212 -0.2774,-0.0425 -0.4161,-0.0637 -0.08658,-0.004 -0.173969,0.001 -0.259749,-0.0113 -0.834538,-0.12021 -1.613281,-0.39877 -2.369471,-0.76632 -0.01638,0.0171 -0.05641,0.0288 -0.04911,0.0514 0.01675,0.0517 0.159584,0.13274 0.105932,0.12399 -0.776031,-0.12654 -1.457595,-0.55739 -2.178376,-0.83144 0.47193,0.7173 3.69628,0.28462 2.114791,0.2796 -0.774332,-0.002 -1.54872,0.004 -2.323005,-0.005 -0.245771,-0.003 -0.54143,-0.044 -0.784743,-0.0726 -0.110678,-0.006 -0.221218,-0.0195 -0.332034,-0.0175 -0.09853,0.002 -0.196508,0.0413 -0.294243,0.0287 -1.061582,-0.13715 -2.052137,-0.59855 -2.970469,-1.12546 -0.308639,-0.14223 -0.316534,-0.13033 -0.659733,-0.21308 -0.05085,-0.0122 -0.188503,-0.061 -0.155607,-0.0204 0.06091,0.0753 0.340641,0.0989 0.25372,0.14167 -0.149453,0.0735 -0.332801,-0.014 -0.499203,-0.021 -1.145794,-0.10928 -2.311265,-0.2341 -3.382716,-0.67311 -0.579509,-0.25645 -1.075285,-0.56152 -1.625259,-0.87021 -0.03858,-0.0216 -0.147789,-0.0772 -0.127135,-0.0381 0.03837,0.0727 0.266206,0.18792 0.189987,0.15717 -0.244538,-0.0987 -0.46827,-0.24261 -0.702405,-0.36392 -0.120574,-0.0675 -0.238703,-0.13956 -0.361722,-0.20248 -0.03207,-0.0164 -0.131283,-0.0563 -0.102291,-0.0349 0.149492,0.11025 0.634916,0.2243 0.467085,0.30389 -0.168035,0.0797 -1.411288,-0.56683 -1.657023,-0.67237 -0.257883,0.0913 -0.07136,0.0475 -0.591765,-0.20108 -0.121819,-0.0582 -0.232405,-0.1427 -0.361167,-0.18326 -0.04408,-0.0139 0.140258,0.11385 0.09623,0.0998 -0.413882,-0.13207 -0.78927,-0.35418 -1.168761,-0.55815 -0.122555,-0.0753 -0.250655,-0.1423 -0.367666,-0.22598 -0.04825,-0.0345 -0.671091,-0.57779 -0.904149,-0.61229 -0.02905,-0.004 0.05438,0.0931 0.02644,0.084 -0.124572,-0.0403 -0.230207,-0.12479 -0.34531,-0.18719 -0.279262,-0.0865 -0.06827,-0.0157 -0.636445,-0.3172 -0.998559,-0.52984 -1.736402,-1.34773 -2.279118,-2.33299 -0.285981,-0.56312 -0.513649,-1.15062 -0.770171,-1.72695 -0.0077,-0.0173 0.0074,0.0371 0.01107,0.0557 -0.333088,-0.6457 -0.318104,-0.66414 -0.739202,-1.68407 -0.277256,-0.97632 -0.421726,-1.95799 -0.332226,-2.97311 0.03837,-0.39996 0.05369,-1.11349 0.250781,-1.47263 0.0095,-0.0173 0.0184,0.0739 0.02243,0.0547 0.04675,-0.22356 0.07176,-0.45113 0.107639,-0.67669 0.212063,-0.76293 0.442151,-1.56018 0.899951,-2.21557 0.361016,-0.64266 0.805296,-1.23457 1.190248,-1.86647 0.499358,-0.66215 0.521832,-0.75236 1.162429,-1.33541 0.03747,-0.0341 0.09784,-0.0308 0.14037,-0.0583 0.122503,-0.0793 0.214578,-0.2111 0.351918,-0.26046 0.03977,-0.0143 -0.0073,0.14267 0.03021,0.12313 0.151867,-0.0792 0.256918,-0.22659 0.385376,-0.33989 0.130387,-0.10587 0.225602,-0.28934 0.39116,-0.3176 0.113331,-0.0193 -0.278639,0.36355 -0.195452,0.28419 0.387604,-0.36977 0.660844,-0.88956 1.168585,-1.12608 0.271555,-0.21204 0.564323,-0.41811 0.827804,-0.64193 0.138876,-0.11796 0.260107,-0.25731 0.407791,-0.36405 0.06229,-0.045 0.142764,-0.057 0.214146,-0.0854 0.191683,-0.16919 0.383368,-0.33838 0.575051,-0.50758 0.08748,-0.0507 0.16903,-0.11342 0.262448,-0.15212 0.0334,-0.0138 0.07749,0.0171 0.108448,-0.002 0.0803,-0.0485 0.140052,-0.12484 0.208039,-0.18945 0.169689,-0.16126 0.313871,-0.35284 0.504925,-0.48811 0.04993,-0.0353 -0.04023,0.11556 -0.06035,0.17334 0.110715,-0.11746 0.221429,-0.23491 0.332144,-0.35237 0.25036,-0.0685 0.08437,-0.004 0.422057,-0.31186 0.102745,-0.0937 0.170094,-0.27273 0.308917,-0.28022 0.10133,-0.005 -0.205427,0.34744 -0.138652,0.27102 1.476442,-1.68951 -0.09106,-0.0972 0.797055,-0.98323 0.215923,-0.19039 0.431845,-0.38078 0.647767,-0.57117 -0.02054,0.0405 -0.09945,0.14679 -0.06163,0.1216 0.132855,-0.0885 0.229852,-0.22275 0.357474,-0.31863 0.04602,-0.0346 0.109694,-0.0381 0.158333,-0.0688 0.119035,-0.0753 0.22818,-0.16519 0.34227,-0.24779 0.0907,-0.0548 0.181392,-0.10961 0.272089,-0.16441 0.228823,-0.19788 0.842155,-0.73122 1.001441,-0.85042 0.390281,-0.29206 0.896657,-0.29723 1.191016,-0.75962 -0.08116,0.13523 -0.188065,0.25802 -0.243469,0.40568 -0.04293,0.11442 0.186671,-0.15981 0.263678,-0.2547 0.500349,-0.61649 0.853956,-1.10598 1.491517,-1.56211 0.546526,-0.30191 1.071981,-0.70173 1.640483,-0.95561 0.02857,-0.0128 0.04023,0.0531 0.0701,0.0624 0.04509,0.014 0.09442,0.002 0.141632,0.003 0.01532,0.007 0.03064,0.0132 0.04596,0.0198 0.102034,-0.074 0.180433,-0.23173 0.306102,-0.22201 0.08987,0.007 -0.213852,0.27538 -0.133067,0.23541 0.147645,-0.0731 0.229288,-0.23723 0.354076,-0.34477 2.388754,-2.05851 -0.237016,0.25812 1.143479,-0.82693 0.239098,0.0336 0.691237,-0.37093 0.827331,-0.45426 0.123685,-0.0757 0.257381,-0.13396 0.382873,-0.20666 1.091827,-0.63249 0.591114,-0.47807 1.220433,-0.64021 0.193331,-0.0646 0.873337,-0.29471 1.008541,-0.32476 0.137512,-0.0306 0.284462,0.0315 0.422582,0.004 0.318312,-0.0638 0.612373,-0.22544 0.937771,-0.26292 0.223112,0.30202 0.232143,0.0945 0.489577,0.15983 0.02453,0.006 -0.04878,0.0765 -0.02384,0.0721 0.07357,-0.013 0.132678,-0.0688 0.199017,-0.10314 0.396208,-0.24966 0.918056,-0.58781 1.312148,-0.77516 0.04865,-0.0231 0.107987,0.0104 0.161547,0.005 0.395128,-0.0426 0.76981,-0.20341 1.1494,-0.30697 0.299193,-0.11916 0.590852,-0.25932 0.897578,-0.35746 0.05194,-0.0166 0.108045,0.0178 0.162573,0.0182 0.193037,0.002 0.370247,-0.0381 0.556133,-0.0945 0.222996,-0.0677 0.434358,-0.1751 0.662112,-0.22447 0.02979,-0.006 -0.01871,0.058 -0.02807,0.087 -0.30348,0.49582 1.134882,-0.54996 1.255464,-0.28143 0.382505,0.13135 0.76318,-0.17394 1.125378,-0.23882 0.05927,-0.0106 -0.150566,0.10418 -0.09239,0.15522 0.42269,-0.16707 0.822081,-0.39952 1.263295,-0.51993 0.131607,-0.0359 0.415137,0.15222 0.541631,0.0194 0.311238,-0.0631 0.601864,-0.21132 0.914501,-0.26704 0.0696,-0.0124 0.06638,0.14565 0.03526,0.20913 -0.03284,0.067 -0.198461,0.20042 -0.125368,0.18544 0.157811,-0.0324 0.277665,-0.16343 0.4165,-0.24514 0.294277,-0.13534 0.582834,-0.28388 0.882832,-0.40602 0.01521,-0.006 -0.0208,0.0422 -0.0058,0.0489 0.02945,0.0132 0.06529,4e-5 0.0965,-0.008 0.103031,-0.0271 0.634645,-0.28603 0.629298,-0.17075 1.248952,-0.51758 2.558071,-0.9471 3.928771,-0.84312 0.507995,-0.23607 3.846444,6.94806 3.338452,7.18412 z"
       inkscape:connector-curvature="0"
       style="stroke-width:0.26458332" />
  </g>
</svg>
