<?xml version="1.0" encoding="UTF-8" standalone="no"?>
<!-- Created with Inkscape (http://www.inkscape.org/) -->

<svg
   xmlns:dc="http://purl.org/dc/elements/1.1/"
   xmlns:cc="http://creativecommons.org/ns#"
   xmlns:rdf="http://www.w3.org/1999/02/22-rdf-syntax-ns#"
   xmlns:svg="http://www.w3.org/2000/svg"
   xmlns="http://www.w3.org/2000/svg"
   xmlns:sodipodi="http://sodipodi.sourceforge.net/DTD/sodipodi-0.dtd"
   xmlns:inkscape="http://www.inkscape.org/namespaces/inkscape"
   width="100mm"
   height="100mm"
   viewBox="0 0 100 100"
   version="1.1"
   id="svg8"
   sodipodi:docname="f2.svg"
   inkscape:version="0.92.4 (unknown)">
  <defs
     id="defs2" />
  <sodipodi:namedview
     id="base"
     pagecolor="#ffffff"
     bordercolor="#666666"
     borderopacity="1.0"
     inkscape:pageopacity="0.0"
     inkscape:pageshadow="2"
     inkscape:zoom="0.98994949"
     inkscape:cx="496.2214"
     inkscape:cy="173.41925"
     inkscape:document-units="mm"
     inkscape:current-layer="layer1"
     showgrid="false"
     inkscape:window-width="1920"
     inkscape:window-height="1015"
     inkscape:window-x="0"
     inkscape:window-y="1080"
     inkscape:window-maximized="1" />
  <metadata
     id="metadata5">
    <rdf:RDF>
      <cc:Work
         rdf:about="">
        <dc:format>image/svg+xml</dc:format>
        <dc:type
           rdf:resource="http://purl.org/dc/dcmitype/StillImage" />
        <dc:title></dc:title>
      </cc:Work>
    </rdf:RDF>
  </metadata>
  <g
     inkscape:label="Layer 1"
     inkscape:groupmode="layer"
     id="layer1"
     transform="translate(0,-197)">
    <path
       id="path3756"
       d="m 55.627664,224.92692 c -0.968706,0.24913 -1.9816,0.23956 -2.971472,0.14822 -0.624197,-0.0576 -0.494208,0.0946 -0.657704,-0.21209 -0.309682,0.12981 0.798973,-0.69787 0.506243,-0.55298 -0.236199,0.11691 -0.436229,0.29816 -0.6702,0.41946 -0.532204,0.27592 -0.716196,0.29229 -1.261597,0.42885 -0.799116,0.004 -1.598247,0.0186 -2.397347,0.0122 -0.133787,-0.001 -0.533593,-0.0305 -0.399868,-0.0347 0.712367,-0.0226 1.425581,-0.002 2.138082,-0.0204 0.01519,-2.7e-4 -0.01662,-0.0327 -0.03181,-0.0326 -0.07401,1.7e-4 -0.146833,0.0193 -0.219522,0.0332 -0.113101,0.0216 -0.225052,0.0489 -0.337579,0.0733 -0.05717,0.0122 -0.819012,0.17907 -0.859875,0.16909 -0.07663,-0.0187 0.163695,-0.0701 0.186553,-0.14558 0.01487,-0.0491 -0.101857,0.0149 -0.151223,0.0289 -0.259167,0.0736 -0.513305,0.16399 -0.770903,0.24293 -0.0038,-0.0136 0.0021,-0.0441 -0.0114,-0.0406 -0.376734,0.0973 -1.013216,0.45266 -1.390025,0.41965 -0.09046,-0.008 0.163295,-0.0874 0.224152,-0.15481 0.01487,-0.0165 -0.04107,-0.0168 -0.0616,-0.0252 -0.547923,0.19822 -1.019624,0.56072 -1.572633,0.75129 -0.0286,0.01 -0.0541,-0.0382 -0.08408,-0.0341 -0.08437,0.0114 -0.162078,0.0522 -0.243117,0.0783 -0.06896,0.0322 -1.189583,0.58946 -1.307979,0.51202 -0.170719,-0.11167 0.363625,-0.18648 0.535155,-0.29691 0.05206,-0.0335 0.186258,-0.15942 0.130833,-0.13183 -0.227983,0.11349 -0.426989,0.27878 -0.651142,0.39967 -0.280704,0.15327 -0.700669,0.39355 -0.990277,0.49869 -0.02487,0.009 -0.04612,-0.0437 -0.07114,-0.0352 -0.157318,0.0539 -0.298042,0.14796 -0.450688,0.21395 -0.599922,0.25933 -0.620168,0.42077 -0.547476,0.14742 -0.102653,0.0428 -0.801502,0.34054 -0.860576,0.33342 -0.124256,-0.015 0.244234,-0.0985 0.317966,-0.19966 0.06609,-0.0907 -0.194294,0.11226 -0.293047,0.16548 -0.06299,0.034 -0.128027,0.064 -0.192043,0.096 -0.134477,0.0742 -0.268954,0.14836 -0.403431,0.22254 -0.531082,0.18135 -1.003644,0.59285 -1.51302,0.79976 -0.07499,0.0305 0.140055,-0.0996 0.167555,-0.17574 0.0145,-0.0401 -0.08005,0.0296 -0.120083,0.0443 -0.22905,0.0532 0.154334,-0.0455 -0.39175,0.29377 -0.02714,0.0169 0.01905,-0.061 0.02857,-0.0915 -0.193339,0.18362 -0.378037,0.37679 -0.58002,0.55085 -0.06891,0.0594 0.246076,-0.26755 0.179427,-0.20563 -0.161118,0.14967 -0.308983,0.313 -0.463476,0.4695 -0.11847,0.10182 -0.232246,0.20938 -0.355409,0.30547 -0.182782,0.13322 -0.365564,0.26643 -0.548344,0.39965 0.03426,-0.0456 0.150265,-0.16831 0.102785,-0.13673 -0.378804,0.25193 -0.710411,0.5924 -1.081021,0.86028 -0.509421,0.41016 -1.006499,0.84747 -1.464908,1.31102 -0.01336,-0.0175 -0.02572,-0.0691 -0.04008,-0.0524 -0.191884,0.22239 -0.342808,0.47734 -0.525193,0.70758 -0.0076,0.01 0.0016,-0.0453 -0.0066,-0.0362 -0.219972,0.25546 -0.439942,0.51093 -0.659914,0.7664 0.0877,-0.11336 0.09047,-0.11474 0.0021,-0.009 0.0561,-0.0798 0.212246,-0.32639 0.168315,-0.23932 -0.308774,0.61199 -0.753137,1.16689 -1.19103,1.68669 -0.05775,0.0685 -0.125394,0.23912 -0.19607,0.184 -0.07016,-0.0547 0.09519,-0.15037 0.14278,-0.22556 -0.149495,0.20066 -0.131191,0.26238 -0.143422,0.12935 -0.159571,0.276 -0.314288,0.55486 -0.478711,0.828 -0.06747,0.11209 -0.122743,0.16606 -0.165277,0.28959 -0.277855,0.60322 -0.497986,1.31973 -0.976493,1.8052 -0.02753,0.0279 0.05091,-0.14725 0.03095,-0.1135 -0.140647,0.23782 -0.263229,0.48587 -0.39484,0.7288 -0.350949,0.48499 -0.397518,0.83112 -0.726475,1.51181 -0.340529,0.63891 -0.614331,1.32883 -0.981289,1.88885 0.01828,-0.0552 0.08028,-0.21781 0.05488,-0.16552 -0.05873,0.12087 -0.100455,0.24935 -0.155231,0.37206 -0.01738,0.0389 -0.06419,0.15485 -0.06101,0.11235 0.0052,-0.0695 0.04449,-0.13214 0.06742,-0.19797 0.01074,-0.0308 0.03756,-0.12437 0.03358,-0.092 -0.02323,0.18899 -0.06104,0.37589 -0.09156,0.56383 -0.08725,0.72244 -0.173336,1.39856 -0.419705,2.10246 -0.09608,0.2745 -0.258919,0.52086 -0.388377,0.78129 -0.142497,0.43111 0.04803,-0.59216 0.11969,-0.10233 0.06463,0.61321 0.09896,1.22844 0.108698,1.8448 -0.0013,0.12135 -0.0019,0.2427 -0.0042,0.36403 -0.004,0.20134 -0.02207,0.40247 -0.01942,0.60384 0.0013,0.0909 0.01797,0.36328 0.01712,0.27233 -0.0068,-0.71063 0.0053,-0.547 -0.06098,-1.0287 0.196334,0.23479 -0.08566,-0.11664 0.244467,0.44399 0.03015,0.0512 -0.09268,-0.21763 -0.06055,-0.16765 0.428575,0.66651 0.597355,1.38469 0.78023,2.14559 -0.0016,-0.0743 -0.02812,-0.15243 -0.0046,-0.22293 0.0098,-0.0293 0.04171,0.0471 0.05379,0.0755 0.07011,0.16494 0.122389,0.33706 0.191797,0.5023 0.10683,0.25432 0.201953,0.52155 0.337846,0.76155 0.232558,0.35703 0.265094,0.86251 0.480965,1.2269 0.03261,0.0551 -0.06483,-0.15802 -0.01042,-0.19169 0.05613,-0.0347 0.282438,0.5341 0.0037,-0.10007 0.660318,0.87442 -0.04666,-0.10697 0.817724,1.36695 0.0078,0.0133 0.03158,-0.0329 0.04113,-0.0209 0.06882,0.0869 0.09662,0.2024 0.169095,0.28624 0.03711,0.0429 -0.0397,-0.10634 -0.05955,-0.15951 0.108127,0.17111 0.216255,0.34222 0.324379,0.51332 0.112088,0.24903 0.203383,0.50851 0.336262,0.7471 0.05643,0.10132 -0.210429,-0.37993 -0.104931,-0.33174 0.0044,0.002 0.509378,0.8036 0.543912,0.86905 0.306186,0.58039 0.274185,0.86199 0.289591,0.4836 0.20506,0.56524 0.726888,0.79949 1.099905,1.21589 0.123084,0.1374 0.227865,0.29015 0.341797,0.43523 -0.0032,-0.0332 -0.03995,-0.11357 -0.0097,-0.0996 0.241584,0.11132 0.581348,0.59193 0.712063,0.71621 0.0186,0.0177 -0.01466,-0.0947 0.0038,-0.0769 0.0016,0.001 0.55086,0.61732 0.697717,0.78195 0.01206,-0.0238 0.01376,-0.086 0.0362,-0.0715 0.155126,0.10006 0.272468,0.24961 0.417322,0.36403 0.06242,0.0493 0.143928,0.0723 0.20278,0.12579 0.139231,0.1266 0.240651,0.29282 0.387294,0.41076 0.02724,0.0219 -0.0045,-0.0698 -0.0067,-0.10465 0.171646,0.17459 0.343294,0.34917 0.51494,0.52375 -0.309793,-0.0679 0.271121,0.31652 0.298466,0.19993 0.01188,-0.0506 -0.09944,-0.16047 -0.04898,-0.14803 0.119385,0.0294 0.183983,0.17913 0.302845,0.2106 0.0524,0.0139 -0.03826,-0.10222 -0.06703,-0.14817 -0.0391,-0.0624 -0.09016,-0.11656 -0.135236,-0.17484 0.07675,0.0441 0.83212,0.50623 1.1133,0.60659 0.04347,0.0155 0.09753,-0.009 0.137843,0.0131 0.182991,0.10207 0.345747,0.23681 0.519692,0.35364 0.07556,0.0507 0.165901,0.21487 0.228806,0.14908 0.06254,-0.0654 -0.110537,-0.14332 -0.165804,-0.21498 -0.05463,-0.0621 -0.223782,-0.12919 -0.16388,-0.18617 0.08096,-0.077 0.222623,0.0252 0.334357,0.024 1.161571,-0.012 0.581186,-0.20279 1.964057,0.36661 0.409017,0.0841 0.688724,0.43204 1.064853,0.58 0.172085,0.0677 -0.0039,-0.25758 0.03641,-0.24192 0.320214,0.12441 0.617876,0.30048 0.926811,0.45073 -0.51658,0.81276 1.098979,-0.005 0.819441,-0.0324 -0.599471,-0.0596 -1.204042,-0.044 -1.806061,-0.066 1.082431,0.0245 2.158764,-0.0438 3.245392,0.005 0.208978,0.009 0.4059,0.10174 0.610359,0.14599 0.254945,0.0552 0.537075,0.0973 0.796415,0.1387 0.273904,-0.005 0.542395,-0.0293 0.813032,-0.0685 0.116949,-0.0169 0.469115,-0.0454 0.351021,-0.0496 -0.532646,-0.0192 -1.066054,-0.005 -1.598962,0.005 -0.124672,0.002 0.249129,0.0111 0.373695,0.0167 0.133567,-0.003 0.267332,-0.0175 0.400701,-0.01 1.02939,0.0613 2.062395,0.0921 3.086015,0.21703 0.649502,0.0793 1.282872,0.61882 1.930604,0.61965 0.599019,-0.47909 1.023752,-0.17333 -1.577378,-0.1913 -0.07856,-5.3e-4 0.155774,0.0212 0.234109,0.0271 0.323376,0.0244 0.277479,0.01 0.642935,-0.0353 1.559264,-0.2603 3.132346,-0.18731 4.707938,-0.15603 0.800428,0.0965 3.569305,0.0512 0.039,0.0662 0.70217,-0.0118 1.403795,-0.0447 2.106134,-0.0361 0.761092,0.004 1.522222,0.003 2.28328,0.011 0.100597,0.001 0.401402,0.006 0.30135,0.0167 -0.768239,0.0809 -1.541627,0.10826 -2.30926,0.19468 -0.03378,0.004 -0.104659,0.0692 -0.07092,0.0733 0.06699,0.008 0.130246,-0.0359 0.193942,-0.0582 0.126391,-0.0443 0.25068,-0.0944 0.376021,-0.1416 -0.06303,0.0367 -0.257906,0.1343 -0.189082,0.11013 0.243864,-0.0856 0.453802,-0.24788 0.68599,-0.3614 0.188521,-0.0869 0.377042,-0.17372 0.565563,-0.26058 0.0359,0.008 0.07295,0.0349 0.107714,0.0231 0.160412,-0.0545 0.306698,-0.14409 0.460045,-0.21614 1.407416,-0.59099 -0.08341,0.0854 0.944232,-0.31227 0.163761,-0.0634 0.567705,-0.33966 0.495173,-0.17975 -0.01008,0.0222 -0.943044,0.60111 -0.433687,0.28437 0.461214,-0.25757 0.877753,-0.64794 1.386343,-0.8186 0.0598,-0.0201 -0.18346,0.1618 -0.123018,0.14378 0.123041,-0.0367 0.217672,-0.13624 0.32645,-0.20446 0.223121,-0.13992 0.446162,-0.27996 0.669243,-0.41994 0.497234,-0.23324 0.999606,-0.45142 1.497991,-0.68314 0.168659,-0.0784 0.322742,-0.23729 0.508577,-0.22956 0.115049,0.005 -0.165378,0.16026 -0.248068,0.24039 0.245298,-0.0617 0.5799,-0.52372 0.795816,-0.53545 0.118737,-0.006 -0.323522,0.34422 -0.226253,0.27581 0.253974,-0.17861 0.434301,-0.44401 0.658691,-0.65862 0.423799,-0.3451 0.871651,-0.71158 1.338434,-0.9995 0.07193,-0.0444 -0.165327,0.10045 -0.173873,0.18453 -0.02363,0.2324 0.559631,-0.69552 0.01617,0.1122 0.453453,-0.47989 0.880367,-0.98443 1.374233,-1.42512 0.25233,-0.22516 0.550251,-0.39333 0.827254,-0.58734 0.117197,0.0844 0.53875,-0.3999 0.468156,-0.23946 -0.107066,0.24334 -0.349877,0.40073 -0.513292,0.61042 -0.109386,0.14037 -0.300349,0.64419 -0.210296,0.4907 0.182674,-0.31135 0.337503,-0.63822 0.506254,-0.95733 0.330012,-0.43925 0.250642,-0.35175 0.764461,-0.89464 0.08441,-0.0892 -0.290732,0.39553 -0.224531,0.2921 0.150884,-0.23575 0.297844,-0.47398 0.446767,-0.71097 0.290195,-0.22964 0.297355,-0.45725 0.594744,-0.70038 0.07506,-0.0614 -0.09873,0.16729 -0.139033,0.25546 -0.05669,0.12403 -0.0868,0.25999 -0.151458,0.38006 -0.02994,0.0556 0.03054,-0.12257 0.04581,-0.18386 0.05508,-0.42526 0.217014,-0.83083 0.274773,-1.25635 0.151376,-0.9897 0.410773,-1.94877 0.810956,-2.86818 0.239508,-0.61586 0.348421,-1.17301 0.478327,-1.81686 0.123565,-0.46106 0.262072,-0.91912 0.409781,-1.37308 0.04311,-0.1325 0.19776,-0.43946 0.204356,-0.60176 -0.111093,-0.58447 0.324715,-2.2693 0.444244,-2.76205 -0.555745,1.42847 0.544004,-1.22214 0.507111,-1.03218 -0.02887,0.14863 -0.07634,0.29227 -0.10046,0.44315 -0.0043,0.0164 -7.2e-5,0.0605 -0.01286,0.0493 -0.09645,-0.0844 -0.154067,-1.21832 -0.164425,-1.36618 -0.05122,-0.37658 0.02349,-0.76024 5.29e-4,-1.13648 -0.0053,-0.0865 -0.0051,0.17342 -0.01556,0.25941 -0.0013,0.0108 -0.01278,0.0177 -0.01916,0.0265 0.0099,0.10243 0.01987,0.20487 0.02981,0.30731 -0.06019,-0.27851 -0.101028,0.0562 -0.151535,0.009 -0.09204,-0.0855 -0.139546,-0.21041 -0.226105,-0.30142 -0.01476,-0.0155 2.65e-4,0.0429 5.3e-4,0.0643 -0.06807,-0.0873 -0.136139,-0.17464 -0.204206,-0.26196 0.03651,0.0566 0.1617,0.21223 0.109522,0.16969 -0.53871,-0.4392 0.09033,-0.1282 -0.555109,-0.57402 -0.02,-0.0138 -0.044,0.0519 -0.06304,0.0368 -0.600962,-0.47771 -0.152837,-0.28644 -0.430816,-0.39699 -0.545383,-0.63502 -0.395417,-0.41269 -0.961882,-1.46467 -0.07172,-0.1332 -0.07599,-0.30537 -0.177186,-0.41782 -0.05205,-0.0578 0.120594,0.35954 0.04302,0.41302 -0.03621,0.025 -0.08569,-0.0199 -0.12853,-0.0298 -0.07656,-0.0486 -0.153119,-0.0972 -0.229682,-0.14579 -0.02699,0.007 -0.05731,0.0356 -0.08098,0.0208 -0.629918,-0.39192 -1.047234,-1.10207 -1.514356,-1.6576 0.136829,0.19652 -0.596525,-0.9293 -0.530453,-0.84171 0.161997,0.21476 0.315227,0.43712 0.449839,0.67002 0.01416,0.0245 -0.05304,-0.0196 -0.07957,-0.0294 0.06322,0.0743 0.126431,0.14856 0.189648,0.22284 -0.510532,-0.32717 -0.99609,-0.68061 -1.499751,-1.03173 -0.08103,-0.0565 -0.180403,-0.0854 -0.256585,-0.14823 -0.160078,-0.13211 -0.298373,-0.28859 -0.447559,-0.43288 -0.343741,-0.30179 -0.128127,-0.0947 -0.57531,-0.63441 -0.0226,-0.0273 -0.09273,-0.10697 -0.06876,-0.0809 0.184269,0.20025 0.381016,0.39005 0.549717,0.60358 0.01675,0.0212 -0.05368,-0.006 -0.08051,-0.01 0.03941,0.0435 0.07882,0.0871 0.118227,0.13063 0.05983,0.0519 0.257304,0.1705 0.179498,0.15569 -0.197344,-0.0376 -0.366836,-0.16592 -0.557974,-0.22774 -0.06106,-0.0197 -0.134263,0.0133 -0.191961,-0.0148 -0.917569,-0.44683 -1.331311,-0.75163 -2.047213,-1.42567 -0.25971,-0.0786 -0.309475,-0.49685 -0.566976,-0.57638 -0.08464,-0.0261 0.19117,0.1987 0.11307,0.24051 -0.06597,0.0353 -0.570233,-0.44275 -0.05036,0.0876 -0.6266,-0.30371 -1.043218,-0.83577 -1.559203,-1.26975 -0.01659,-0.014 -0.04922,0.0108 -0.06493,-0.004 -0.140187,-0.1333 -0.228788,-0.32327 -0.390726,-0.42908 -0.08731,-0.057 0.101529,0.18219 0.152294,0.27329 0.08116,0.10084 0.276641,0.1774 0.243483,0.30252 -0.07204,0.27186 -0.393761,-0.4028 -0.353658,-0.13312 0.0071,0.0478 0.133059,0.13173 0.08764,0.11534 -0.260864,-0.0941 -0.490922,-0.25829 -0.739648,-0.38097 -0.267523,-0.2201 -0.535046,-0.4402 -0.802569,-0.6603 -0.07332,0.084 0.305948,0.34568 0.184928,0.32106 -0.166812,-0.0339 -0.283316,-0.18945 -0.431872,-0.27257 -0.0417,-0.0233 -0.09069,-0.0301 -0.13604,-0.0452 -0.128413,-0.0796 -0.256829,-0.1592 -0.385244,-0.23881 -0.664348,-0.4297 -1.236964,-0.96712 -1.829581,-1.49155 -0.186269,0.14753 0.0888,-0.0479 -0.402047,-0.32243 -0.07526,-0.0421 0.213661,0.224 0.127439,0.22512 -0.12478,0.002 -0.193104,-0.15985 -0.300813,-0.22287 -0.01246,-0.007 -0.02254,0.018 -0.03382,0.0271 -0.151771,-0.13156 -0.303543,-0.26312 -0.455316,-0.39467 -0.290211,-0.22283 0.186319,0.22777 0.130399,0.17941 -0.390133,-0.33741 -0.812519,-0.65267 -1.123055,-1.06452 -0.580284,-0.76959 -0.223957,-0.48958 -0.498608,-0.69846 0.152356,0.23148 0.304711,0.46295 0.457066,0.69443 -0.126164,-0.0261 -0.167537,-0.064 -0.03954,0.11213 0.04862,0.0669 0.246988,0.1865 0.164288,0.18592 -0.209468,-0.002 -0.379278,-0.18028 -0.57784,-0.247 0.07291,0.53959 -0.756372,-0.56088 -0.929158,-0.48489 -0.08616,0.0379 0.26647,0.1804 0.179996,0.21756 -0.123767,0.0532 -0.252392,-0.0955 -0.382471,-0.13054 -0.07314,-0.0197 -0.149879,-0.022 -0.224819,-0.033 -0.373142,0.069 -0.705417,-0.28763 -1.035974,-0.43169 -0.192018,-0.0837 -0.05856,0.0341 -0.01696,0.085 -0.186266,-0.10139 -0.37253,-0.20279 -0.558797,-0.30418 -0.0815,-0.0444 -0.15521,-0.10785 -0.244496,-0.13312 -0.233466,-0.0661 0.516353,0.36994 0.338338,0.36211 -0.315526,-0.0139 -0.610938,-0.16085 -0.918662,-0.23195 -0.09508,-0.15968 -0.574394,0.0727 -0.670491,0.0496 -0.394372,-0.0949 -0.772684,-0.27623 -1.142474,-0.43815 0.366803,-0.0164 -0.298272,-0.16629 -0.288927,-0.0678 0.0064,0.0678 0.157715,0.19831 0.09152,0.18251 -0.762981,-0.27634 -0.434308,-0.18937 -0.971992,-0.30909 -0.171669,-0.11792 -0.417644,0.12816 -0.585327,0.0691 -0.658585,-0.2321 -0.726585,-0.30286 -1.294913,-0.63027 -0.06206,-0.0335 -0.125272,-0.13615 -0.186166,-0.10057 -0.05353,0.0313 0.08354,0.0919 0.129064,0.13394 0.109019,0.10079 0.432914,0.40349 0.260852,0.37713 -0.234637,-0.0359 -0.457329,-0.12743 -0.685995,-0.19114 -0.29576,-0.0837 -0.577856,-0.24997 -0.89089,-0.24804 -0.496556,-0.22912 2.743595,-7.2515 3.240151,-7.02238 v 0 c 0.160647,0.0493 0.581999,0.22744 0.497385,0.0823 -0.0708,-0.0399 -0.292756,-0.10755 -0.212402,-0.11971 0.156348,-0.0237 0.313449,0.045 0.4674,0.0811 0.575416,0.13494 1.103984,0.38677 1.624668,0.65005 -0.09256,-0.0677 -0.181461,-0.14074 -0.277664,-0.20316 -0.117824,-0.0765 -0.405617,-0.0789 -0.363598,-0.21296 0.04181,-0.13335 0.279228,0.0196 0.417158,0.0421 0.437832,0.0715 0.863203,0.20694 1.283054,0.34619 0.61336,0.18349 -0.293399,-0.0728 -0.07331,-0.0917 0.451958,-0.0389 0.999723,0.40264 1.455269,0.43901 -0.07067,-0.0885 -0.363593,-0.20006 -0.253423,-0.22638 0.269229,-0.0643 1.343901,0.28819 1.682205,0.34907 0.06256,0.0121 0.124693,0.0458 0.187685,0.0362 0.02796,-0.004 -0.09223,-0.0612 -0.06465,-0.0549 0.553574,0.12558 1.061765,0.39198 1.575546,0.60127 -0.06773,-0.0547 -0.289361,-0.17596 -0.203179,-0.16393 0.08523,0.0119 0.732923,0.30427 0.882457,0.35521 0.05495,0.0187 0.113935,0.0223 0.170902,0.0335 -0.0016,-0.0246 -0.02862,-0.0791 -0.0046,-0.0737 0.172101,0.039 0.330665,0.12335 0.495998,0.18502 0.175728,0.076 0.360513,0.13312 0.528564,0.22487 0.207904,0.11352 0.405164,0.2461 0.614748,0.35648 0.01209,0.006 0.04958,-0.003 0.03923,-0.012 -0.09486,-0.0821 -0.418967,-0.16411 -0.306128,-0.21894 0.136647,-0.0664 0.284403,0.10694 0.426604,0.1604 0.08343,0.0264 0.163774,0.0661 0.250298,0.0793 0.02236,0.003 0.03874,-0.0404 0.05978,-0.0321 1.025631,0.40429 1.788588,1.01876 2.461434,1.89506 0.07157,0.10307 0.11661,0.23094 0.214699,0.3092 0.09025,0.072 -0.13413,-0.18855 -0.190061,-0.28954 -0.01019,-0.0184 0.06596,0.052 0.05058,0.0377 -0.691915,-0.64474 -0.830279,-0.70426 3.7e-5,-0.1226 0.0796,0.0558 0.159271,0.11144 0.238908,0.16716 -0.03146,-0.045 -0.144627,-0.15683 -0.09437,-0.13484 0.149619,0.0655 0.26861,0.1861 0.40758,0.27189 0.444836,0.2746 0.814483,0.62377 1.215535,0.94694 0.365099,0.30872 0.567939,0.43087 0.890432,0.61269 0.299439,0.0941 0.697275,0.3608 0.947309,0.54868 0.131111,0.0985 0.498181,0.42679 0.372708,0.32118 -0.177771,-0.14963 -0.353079,-0.30217 -0.529617,-0.45325 0.04348,0.01 0.123486,0.0743 0.130453,0.0302 0.0087,-0.055 -0.170207,-0.13374 -0.116279,-0.11991 0.62937,0.16149 1.428983,0.65887 1.937724,1.023 0.196371,0.19142 0.392742,0.38284 0.589115,0.57427 -0.01513,-0.0299 -0.07193,-0.11037 -0.04539,-0.0898 0.118133,0.0914 0.212772,0.21005 0.326265,0.30715 0.02884,0.0247 -0.01175,-0.081 -0.0397,-0.10673 -0.124158,-0.11407 -0.262577,-0.21157 -0.393866,-0.31735 0.474186,0.25589 1.035428,0.51569 1.455457,0.86657 0.228547,0.19092 0.436581,0.40516 0.65754,0.60482 0.131159,0.11852 0.220488,0.18089 0.36318,0.28886 -0.432096,-0.59735 0.854025,0.89922 -0.407405,-0.32283 -0.07001,-0.0678 0.178263,0.122 0.273812,0.1027 0.06918,-0.014 -0.114774,-0.0822 -0.17216,-0.12324 0.205841,0.0724 0.411684,0.14474 0.617525,0.21711 0.279265,0.13069 0.588113,0.21286 0.835535,0.39684 0.332002,0.24687 0.638895,0.52584 0.956366,0.79114 0.08836,0.0738 0.161211,0.16889 0.261072,0.22624 0.02024,0.0116 -0.0073,-0.0803 0.01302,-0.0688 0.125968,0.0709 0.227258,0.17873 0.340889,0.2681 0.423619,0.22372 0.52724,0.52666 0.846754,0.65816 0.04089,0.0168 -0.05605,-0.0684 -0.08408,-0.10262 0.997047,0.70663 0.622315,0.44006 1.595299,1.50316 0.0097,0.0106 0.0084,-0.0494 0.01839,-0.039 0.380082,0.39383 0.138679,0.35933 0.355518,0.37963 0.09027,0.10399 0.176009,0.21209 0.270814,0.31197 0.04085,0.043 -0.145859,-0.15504 -0.08653,-0.15555 0.286033,-0.002 0.985943,0.78892 1.225809,0.99124 0.376701,0.42687 0.574707,0.61581 0.879007,1.12253 0.150286,0.25026 0.264557,0.52047 0.40059,0.77875 0.01307,0.0248 0.06132,0.0939 0.04648,0.0701 -0.371237,-0.59539 -0.581321,-0.50286 -0.326877,-0.59728 0.480976,0.46335 0.907243,0.92666 1.379779,1.35889 0.776753,0.63668 1.256485,1.59789 1.654,2.49589 0.261628,0.86579 0.471625,1.72301 0.392007,2.63636 0.04615,0.64244 0.245597,1.27073 0.211365,1.92151 -0.04809,0.949 -0.189199,1.82092 -0.610439,2.68323 -0.05259,0.10766 -0.06004,0.31424 -0.179821,0.31124 -0.108334,-0.003 0.05716,-0.20906 0.08573,-0.3136 0.02397,-0.19411 0.01725,-0.39455 0.07193,-0.58235 0.04239,-0.1456 -0.02498,0.30229 -0.03445,0.45364 -0.03793,0.60638 -0.07297,1.21219 -0.156512,1.81503 -0.167285,0.89387 -0.383465,1.77019 -0.778435,2.59219 -0.0019,-0.0773 0.0084,-0.30788 -0.0054,-0.23182 -0.04139,0.22869 -0.04719,0.4625 -0.07806,0.69285 -0.09976,0.74448 -0.308893,1.45944 -0.553654,2.16832 -0.08932,0.21862 -0.28032,0.72308 -0.339325,0.72555 -0.08752,0.004 0.0369,-0.34151 -0.0016,-0.26278 -0.03701,0.0759 -0.113352,0.79008 -0.237924,0.85378 -0.159858,0.96627 -0.283524,1.15061 -0.434234,2.05789 -0.295367,0.93664 -0.647276,1.8523 -1.294283,2.59865 0.01114,-0.0641 0.07184,-0.24504 0.03344,-0.19245 -0.14828,0.20309 -0.235003,0.44543 -0.372068,0.65625 -0.128949,0.19833 -0.763105,0.95866 -0.870865,1.04977 -0.07772,0.0657 0.364749,-0.4821 0.121632,-0.28004 0.08271,-0.21071 0.369382,-0.8233 0.248134,-0.63214 -0.150995,0.23805 -0.213209,0.52248 -0.338691,0.77491 -0.337288,0.67853 -0.886878,1.23565 -1.45755,1.72242 -0.2361,0.0755 -0.07906,0.0118 -0.426309,0.27715 -0.03885,0.0136 -0.0021,-0.13692 -0.03835,-0.11743 -0.480745,0.25833 -0.214524,0.3988 -0.70921,0.64617 -0.05703,0.0285 0.04852,-0.11793 0.07278,-0.1769 -0.41724,0.50808 -0.85049,1.01959 -1.412706,1.38223 -0.06775,0.0437 0.202973,-0.23319 0.12717,-0.20573 -0.350041,0.12679 -0.283282,0.4362 -0.318458,0.19549 -0.107572,0.0779 -0.237416,0.12757 -0.331002,0.22182 -0.232277,0.23391 -0.434067,0.49708 -0.669028,0.7283 -0.04106,0.0404 -0.106217,0.0468 -0.152916,0.0806 -0.136128,0.0984 -0.262472,0.20959 -0.393708,0.31438 -0.107711,0.0756 -0.215421,0.15117 -0.323133,0.22676 -0.273634,0.20359 -0.533868,0.42656 -0.820906,0.61079 -0.0552,0.0354 -0.130575,0.0188 -0.192728,0.0398 -0.49262,0.16624 -0.909386,0.48533 -1.403337,0.64385 -0.171722,-0.1581 -0.06227,-0.10297 -0.420206,0.13811 -0.263887,0.17773 -0.505425,0.38979 -0.781325,0.54823 -0.05721,0.0329 -0.490723,0.0316 -0.59068,0.0999 -0.467979,0.27706 -0.916635,0.58794 -1.397603,0.84178 -0.02141,0.0113 -0.0026,-0.0562 -0.02328,-0.0688 -0.03111,-0.0189 -0.07477,-0.0249 -0.10862,-0.0115 -0.164081,0.065 -0.304162,0.18465 -0.47131,0.24136 -0.03089,0.0105 0.02148,-0.0616 0.03222,-0.0924 -0.304472,-0.0169 0.0585,-0.0159 -0.559588,0.27237 -0.03848,0.0179 -0.08583,-0.0142 -0.127273,-0.005 -0.537789,0.11982 -0.97046,0.54309 -1.492827,0.69514 -0.343437,-0.0209 -0.588327,0.24949 -0.921657,0.29994 -0.915265,0.13855 -1.841183,0.19423 -2.762454,0.28458 -0.09812,0.01 -0.393964,0.0134 -0.295389,0.0153 0.543103,0.0107 1.08639,0.007 1.629588,0.0109 -0.701892,0.0125 -1.403467,-0.01 -2.105449,-0.005 -1.38581,0.006 -2.767515,10e-4 -4.152135,-0.007 -1.113724,-0.0413 0.29886,0.015 1.251336,-0.005 0.801529,-0.0164 -0.724447,-0.0766 -0.845793,-0.0764 -0.100709,2.3e-4 -0.200779,0.016 -0.30117,0.024 -0.462023,0.0475 -0.932707,0.2136 -1.394714,0.22486 -1.480159,0.0361 -2.703534,0.115 -4.065072,-0.32809 -0.547584,-0.18045 -0.541779,-0.19013 -1.03411,-0.31704 -0.812734,-0.20951 -2.440395,-0.22646 1.734158,-0.0237 0.143801,0.007 -0.287515,0.0157 -0.431273,0.0235 -1.697114,0.1667 -3.419102,0.1422 -5.082786,-0.24547 -0.190408,-0.0311 -0.382257,-0.11029 -0.573014,-0.0815 -0.0235,0.004 -0.05147,0.0651 -0.02772,0.0656 0.885447,0.021 2.943916,-0.11242 1.469208,0.0436 -0.193559,0.0205 -0.387766,0.0343 -0.58165,0.0514 -0.864587,-0.021 -1.730914,-0.004 -2.593766,-0.063 -0.804484,-0.0547 -1.77638,-0.54899 -2.494647,-0.87145 0.138279,0.0859 0.572524,0.21722 0.414842,0.25765 -0.148431,0.0381 -1.18759,-0.38754 -1.312899,-0.44365 -0.244039,-0.10926 -0.468098,-0.35591 -0.733618,-0.32441 -0.02334,0.003 0.0042,0.0468 0.0063,0.0702 0.09545,0.0686 0.390662,0.15171 0.286348,0.20596 -0.167246,0.087 -0.375571,-0.035 -0.562049,-0.0626 -0.760066,-0.11245 -1.496187,-0.34615 -2.196529,-0.65865 -0.225592,-0.13366 -0.448035,-0.27277 -0.676772,-0.40097 -0.06773,-0.038 -0.134353,-0.0911 -0.211773,-0.097 -0.02891,-0.002 0.05403,0.0924 0.02668,0.0828 -0.155207,-0.0545 -0.291724,-0.15217 -0.43805,-0.22736 -0.07892,-0.0405 -0.273841,-0.20086 -0.237672,-0.11984 0.04791,0.1073 0.186581,0.14291 0.279871,0.21437 -1.125469,-0.49769 -2.0364,-1.03942 -2.915359,-1.91299 0.0037,0.0208 0.02771,0.0754 0.01122,0.0623 -0.391972,-0.31246 -0.924065,-0.76349 -1.277199,-1.13021 -0.153205,-0.15911 -0.305816,-0.31878 -0.458722,-0.47817 -0.07372,-0.0684 -0.147441,-0.13671 -0.221162,-0.20507 0.02,0.0373 0.09293,0.13858 0.06,0.11196 -0.184237,-0.14894 -0.337425,-0.33357 -0.520356,-0.4841 -0.01794,-0.0148 -0.05054,0.0117 -0.06971,-0.002 -0.291225,-0.19983 -0.762666,-0.69697 -0.952179,-0.88289 -0.813858,-0.7246 -1.383991,-1.64991 -1.947991,-2.57173 -0.351012,-0.65956 -0.643777,-1.33139 -1.018203,-1.9788 -0.04481,-0.0775 0.07297,0.16345 0.10945,0.24518 0.07092,0.28013 0.02681,0.0817 -0.4035,-0.54141 -0.179895,-0.26048 -0.339741,-0.53055 -0.469383,-0.82153 -0.06002,-0.13471 0.162054,0.24801 0.221525,0.38296 0.01228,0.0279 -0.0503,-0.0343 -0.07544,-0.0515 -0.178975,-0.22973 -0.366692,-0.45292 -0.536926,-0.6892 -0.46796,-0.64952 -0.73901,-1.41722 -1.022942,-2.15842 -0.375317,-0.89058 -0.735925,-1.79289 -0.957029,-2.73533 0.03778,0.0993 0.07455,0.19903 0.113338,0.29796 0.363852,0.9279 -0.534658,-0.88016 -0.579131,-0.92623 -0.103381,-0.27905 -0.243478,-0.54714 -0.310145,-0.83717 -0.200366,-0.87167 -0.179639,-1.3425 -0.118722,-2.12325 -0.03817,-0.54961 -0.2313,-1.08289 -0.236783,-1.63765 -0.05303,-1.34693 0.120391,-2.71421 0.871361,-3.86905 -0.180145,0.57799 -0.0905,0.22814 -0.215919,1.06172 -0.04088,0.14785 0.02062,-0.30618 0.03693,-0.4587 0.02847,-0.26632 0.07104,-0.53844 0.128297,-0.80049 0.01778,-0.0813 0.04212,-0.16113 0.06318,-0.24169 -0.0072,0.30217 0.0023,-0.17882 0.07712,-0.59047 0.115512,-0.63577 0.328184,-1.25143 0.53553,-1.86095 0.09295,-0.19161 0.181174,-0.38559 0.278844,-0.57485 0.01081,-0.0209 0.04334,-0.0775 0.04569,-0.054 0.0064,0.0639 -0.0561,0.2494 -0.03211,0.18986 0.193217,-0.47951 0.281796,-1.03176 0.631817,-1.43718 0.05516,-0.10565 0.07939,-0.23453 0.165477,-0.31696 0.04318,-0.0413 -0.04251,0.23373 -0.0205,0.17815 0.09815,-0.24787 0.150591,-0.5124 0.250685,-0.7595 0.188794,-0.46605 0.441951,-0.83333 0.693591,-1.25632 -0.02148,0.074 -0.0973,0.2917 -0.06444,0.22201 0.302092,-0.6406 0.527793,-1.33047 0.986161,-1.88433 0.361699,-0.74514 0.194099,-0.46775 0.604222,-1.08445 0.07132,-0.10725 0.132672,-0.41694 0.217075,-0.31965 0.09221,0.10629 -0.210802,0.52175 -0.15307,0.39342 0.496186,-1.10295 0.01758,-0.174 0.467011,-1.01569 0.182819,-0.28359 0.350898,-0.57724 0.548457,-0.85076 0.09017,-0.12485 0.162403,-0.30447 0.312092,-0.34068 0.100904,-0.0244 -0.204218,0.33373 -0.109327,0.29162 0.12458,-0.0553 0.137478,-0.2367 0.2236,-0.34234 0.0254,-0.0311 0.06968,-0.0401 0.104513,-0.0601 0.177805,-0.29332 0.35561,-0.58663 0.533415,-0.87994 0.07022,-0.0795 0.760144,-0.87199 0.808785,-0.8761 0.178303,-0.0151 -0.29895,0.28445 -0.273973,0.46164 0.02294,0.16282 0.146248,-0.31194 0.281998,-0.4047 0.07484,-0.0512 -0.863747,1.44457 0.104669,-0.25101 0.244467,-0.39783 0.412801,-0.69068 0.728758,-1.07746 0.535191,-0.65517 1.258099,-1.15176 1.852597,-1.74732 0.192164,-0.14189 0.371837,-0.30247 0.576492,-0.42566 0.434436,-0.26151 -0.05139,0.21501 0.374269,-0.128 0.225071,-0.18137 0.415409,-0.40441 0.647034,-0.57732 0.07424,-0.0554 0.196479,0.47675 0.272753,-0.0534 0.09113,0.36911 -0.02846,-0.004 0.592479,-0.49312 0.08034,-0.0633 -0.240361,0.32508 -0.160086,0.26171 0.254775,-0.2011 0.595728,-0.75036 0.905237,-0.90074 0.347329,-0.29786 0.715328,-0.62839 1.102445,-0.86397 0.02463,-0.015 0.0019,0.0922 0.02864,0.0816 0.357756,-0.14127 0.664702,-0.48884 1.023429,-0.62821 0.498615,-0.24587 0.215331,-0.0989 0.843471,-0.45301 0.120253,-0.0597 0.253029,-0.0913 0.373761,-0.14999 0.298667,-0.14521 0.578397,-0.32918 0.883158,-0.46113 0.06222,-0.0269 0.07553,0.26904 0.196837,0.0513 0.165221,-0.0826 0.320442,-0.18932 0.495667,-0.24775 0.04346,-0.0145 -0.09463,0.2413 0.09613,0.0982 0.846894,-0.38133 0.165653,-0.17521 0.725157,-0.27098 0.124275,-0.0609 0.241017,-0.14055 0.372821,-0.18278 0.02894,-0.009 0.05665,0.0508 0.08352,0.0366 1.25512,-0.66292 -0.252262,-0.16006 1.575086,-0.86841 0.133426,-0.0517 -0.455552,0.39666 -0.283766,0.32215 0.217313,-0.11547 0.416311,-0.26719 0.643363,-0.36208 0.02355,-0.01 0.03688,0.0452 0.06239,0.0444 0.328205,-0.0103 0.608044,-0.29922 0.895805,-0.41663 0.550008,-0.30849 0.854294,-0.50393 1.490411,-0.72505 0.05745,-0.02 0.120626,0.0168 0.181364,0.0201 0.375044,0.02 0.678833,-0.05 1.026967,-0.22245 0.493006,0.16742 1.05677,-0.49285 1.602166,-0.33871 0.377195,-0.0566 0.835514,-0.23645 1.193154,-0.25866 0.888082,-0.0551 1.778963,-0.0472 2.668521,-0.0676 0.06578,-0.002 0.263168,6.1e-4 0.197382,0.002 -0.616646,0.0113 -1.233352,0.0191 -1.850027,0.0286 -0.100891,0.13298 -0.761087,0.62179 -0.766152,0.67711 -0.01407,0.15365 0.237517,-0.19763 0.364356,-0.28548 0.610592,-0.42291 0.594582,-0.37974 1.277575,-0.69932 0.248208,-0.0772 0.491624,-0.17189 0.744627,-0.23148 1.142278,-0.26904 2.458032,-0.12925 3.593648,0.0757 0.54185,-0.13912 2.509358,7.52381 1.967507,7.66293 z"
       inkscape:connector-curvature="0"
       style="stroke-width:0.26458332" />
  </g>
</svg>
