<?xml version="1.0" encoding="UTF-8" standalone="no"?>
<!-- Created with Inkscape (http://www.inkscape.org/) -->

<svg
   xmlns:dc="http://purl.org/dc/elements/1.1/"
   xmlns:cc="http://creativecommons.org/ns#"
   xmlns:rdf="http://www.w3.org/1999/02/22-rdf-syntax-ns#"
   xmlns:svg="http://www.w3.org/2000/svg"
   xmlns="http://www.w3.org/2000/svg"
   xmlns:sodipodi="http://sodipodi.sourceforge.net/DTD/sodipodi-0.dtd"
   xmlns:inkscape="http://www.inkscape.org/namespaces/inkscape"
   width="100mm"
   height="100mm"
   viewBox="0 0 100 100"
   version="1.1"
   id="svg8"
   sodipodi:docname="f3.svg"
   inkscape:version="0.92.4 (unknown)">
  <defs
     id="defs2" />
  <sodipodi:namedview
     id="base"
     pagecolor="#ffffff"
     bordercolor="#666666"
     borderopacity="1.0"
     inkscape:pageopacity="0.0"
     inkscape:pageshadow="2"
     inkscape:zoom="0.98994949"
     inkscape:cx="496.2214"
     inkscape:cy="173.41925"
     inkscape:document-units="mm"
     inkscape:current-layer="layer1"
     showgrid="false"
     inkscape:window-width="1920"
     inkscape:window-height="1015"
     inkscape:window-x="0"
     inkscape:window-y="1080"
     inkscape:window-maximized="1" />
  <metadata
     id="metadata5">
    <rdf:RDF>
      <cc:Work
         rdf:about="">
        <dc:format>image/svg+xml</dc:format>
        <dc:type
           rdf:resource="http://purl.org/dc/dcmitype/StillImage" />
        <dc:title></dc:title>
      </cc:Work>
    </rdf:RDF>
  </metadata>
  <g
     inkscape:label="Layer 1"
     inkscape:groupmode="layer"
     id="layer1"
     transform="translate(0,-197)">
    <path
       id="path3787"
       d="m 48.02778,241.08287 c -1.29798,0.60196 -2.725452,0.84766 -4.13789,1.00747 -0.259162,-0.0846 0.302223,-0.45081 0.162293,-0.39782 -0.259051,0.0981 -0.945997,0.5533 -0.750295,0.35726 0.223977,-0.22437 0.549759,-0.31837 0.839631,-0.44676 0.107924,-0.0478 -0.193291,0.13553 -0.289936,0.2033 -0.159908,0.0886 -0.312557,0.19185 -0.479724,0.26589 -0.07511,0.0333 0.198687,-0.0604 0.201084,-0.14249 0.0021,-0.0749 -0.133676,0.0678 -0.199927,0.10282 -0.305507,0.16148 -0.670936,0.37556 -0.996966,0.48086 -0.02768,0.009 0.02453,-0.0528 0.0368,-0.0791 -0.469688,0.19129 -0.946039,0.46122 -1.455922,0.53387 -0.03322,0.005 0.03091,-0.0596 0.04636,-0.0894 -0.03368,-0.004 -0.06778,-0.0179 -0.10104,-0.0114 -0.09542,0.0188 -0.185824,0.0574 -0.278735,0.0861 0.135622,-0.10017 0.288591,-0.18034 0.406865,-0.3005 0.08202,-0.0833 -0.195151,0.12902 -0.296106,0.18798 -0.166637,0.0973 -0.332544,0.19681 -0.506338,0.2807 -0.195016,0.0941 -0.404662,0.34911 -0.598517,0.25261 -0.0217,-0.0108 0.879256,-0.55637 0.273582,-0.18762 -0.326035,0.19453 -0.659249,0.4073 -1.012097,0.55038 -0.02707,0.011 -0.05645,-0.0151 -0.08467,-0.0226 -0.08947,0.0344 -0.181115,0.0637 -0.268409,0.1033 -0.849715,0.38574 -0.383887,0.23699 -0.87253,0.37948 -0.113985,0.0385 -0.773311,0.26558 -0.852778,0.27173 -0.04831,0.004 0.08811,-0.0657 0.09003,-0.11412 0.0011,-0.0286 -0.05811,-0.0235 -0.08497,-0.0134 -0.172061,0.0644 -0.333189,0.15496 -0.499784,0.23244 -0.189355,0.0672 -0.378709,0.13432 -0.568063,0.20148 0.177255,-0.28298 -0.417381,0.17447 -0.417426,0.0495 -4.7e-5,-0.1372 0.306605,-0.11386 0.32738,-0.24947 0.01879,-0.12258 -0.210111,0.13202 -0.318593,0.1921 -0.167314,0.0927 -0.338955,0.1773 -0.508434,0.26595 -0.494784,0.1133 -0.925131,0.44975 -1.413486,0.57541 -0.03288,0.008 0.02421,-0.0634 0.03632,-0.0952 -0.05648,0.0172 -0.116395,0.0776 -0.169447,0.0517 -0.01646,-0.008 0.20733,-0.23371 0.181258,-0.21455 -0.09918,0.0729 -0.172947,0.17864 -0.277487,0.24361 -0.03694,0.023 0.0442,-0.0749 0.0663,-0.11236 -0.08941,0.0865 -0.178824,0.17302 -0.268235,0.25953 0.18987,-0.34443 0.01786,-0.007 -0.201017,0.16993 -0.04844,0.0391 0.133622,-0.20835 0.09088,-0.16311 -0.245285,0.2596 -0.466704,0.54077 -0.701773,0.80965 -0.208756,0.23879 -0.0832,0.086 -0.04011,0.0321 -0.305292,0.28623 -0.556146,0.60206 -0.865883,0.87009 -0.0132,0.0114 2.54e-4,-0.0637 -0.0118,-0.0511 -0.225235,0.23623 -0.428898,0.49213 -0.643348,0.73819 0.02779,-0.038 0.11807,-0.14583 0.08338,-0.114 -0.10029,0.092 -0.178514,0.20683 -0.281514,0.29582 -0.02122,0.0183 0.05045,-0.0979 0.03011,-0.0786 -0.109776,0.10434 -0.191611,0.23602 -0.303326,0.33829 -0.02529,0.0231 0.02545,-0.0637 0.03818,-0.0956 -0.112487,0.13235 -0.224972,0.26469 -0.33746,0.39704 0.163751,-0.31432 0.03499,-0.0462 -0.314616,0.32749 -0.03664,0.0392 0.123735,-0.1742 0.08633,-0.13577 -0.135397,0.13911 -0.342979,0.62973 -0.382016,0.43957 -0.04134,-0.20137 0.182648,-0.41051 0.371145,-0.49253 0.154424,-0.0672 -0.166164,0.29298 -0.249246,0.43948 -0.40177,0.70533 -1.002964,1.24882 -1.552239,1.83078 0.598742,-0.82324 0.03453,0.006 0.601406,-1.03065 -0.03221,0.0828 -0.06442,0.16559 -0.09663,0.24838 -0.0013,0.001 -0.0046,0.005 -0.0042,0.003 0.0099,-0.0374 0.04331,-0.1486 0.03267,-0.1114 -0.05971,0.20855 -0.119894,0.41696 -0.17984,0.62544 -0.09028,0.63022 -0.313735,1.23185 -0.532847,1.82726 -0.517232,1.15187 0.221893,-0.75594 -0.373401,0.82171 -0.0266,0.0705 -0.115253,0.27814 -0.0923,0.20637 0.02914,-0.0911 0.07396,-0.17644 0.110938,-0.26465 0.01625,-0.034 0.02151,-0.0759 0.04871,-0.10196 0.04074,-0.039 0.04109,0.10894 0.03689,0.16522 -0.0389,0.52183 -0.13462,1.01634 -0.263218,1.52125 -0.104852,0.50188 -0.198681,1.01149 -0.364162,1.51105 0.04212,-0.22256 0.107418,-0.0571 0.08874,0.0892 -0.05669,0.44393 -0.136573,0.8846 -0.204859,1.3269 -0.138253,0.39368 -0.253001,0.8113 -0.454701,1.18174 -0.0017,0.003 -0.0029,-0.006 -0.0044,-0.01 0.0069,-0.0328 0.02781,-0.13121 0.02076,-0.0984 -0.02838,0.1319 -0.05648,0.26387 -0.08473,0.3958 -0.08566,0.24356 -0.09982,0.46418 -0.08139,0.7142 0.05421,0.58244 0.07365,1.16673 0.07656,1.75141 -0.0042,0.54888 -0.02014,1.09754 -0.02528,1.64641 0.15756,-0.74333 -0.180726,1.48831 6.88e-4,0.7578 0.04886,-0.19675 -0.03813,-0.52523 0.09377,-0.10522 0.128697,0.45119 0.195736,0.9151 0.237783,1.38147 -0.0096,-0.0666 -0.01923,-0.13318 -0.02885,-0.19977 -2.58e-4,-0.008 -0.0033,-0.0335 -7.67e-4,-0.0254 0.02354,0.0751 0.0427,0.15151 0.06404,0.22726 0.242928,1.05557 -0.04646,-0.24968 0.179912,0.95156 0.01921,0.10192 -0.03266,-0.20507 -0.0407,-0.30848 -0.0084,-0.10831 0.08564,0.20041 0.114575,0.30512 0.04418,0.1599 0.07947,0.32213 0.119211,0.48319 0.133157,0.8265 0.05586,0.25673 0.130667,1.06901 -0.0046,-0.0687 -0.0091,-0.13733 -0.01363,-0.206 0.0019,-0.008 0.0032,-0.0324 0.0059,-0.0244 0.04587,0.13483 0.117957,0.49152 0.137679,0.58132 0.253661,1.54923 -0.05294,-0.16527 0.156675,0.57238 0.03385,0.11914 0.04787,0.24415 0.09099,0.36025 0.02928,0.0788 -0.04095,-0.16378 -0.04911,-0.24748 -0.0016,-0.0163 0.01924,0.0266 0.02886,0.0398 0.005,-0.0733 0.429514,1.20485 0.305361,0.90997 -0.10709,-0.25434 -0.225153,-0.51185 -0.262036,-0.78534 -0.01352,-0.10027 0.134298,0.15249 0.188233,0.23808 0.347673,0.55174 0.09557,0.48047 0.335243,0.53827 0.328456,0.58823 0.07239,0.10263 0.443341,0.93343 0.007,0.0156 -0.01918,-0.0653 -0.01172,-0.0499 0.0465,0.0958 0.178665,0.38653 0.129262,0.29218 -0.313706,-0.5991 -0.271256,-0.52399 -0.104378,-0.30328 0.114628,0.20991 0.216839,0.42708 0.343884,0.62971 0.039,0.0622 -0.12714,-0.26057 -0.07815,-0.20589 0.08928,0.0996 0.127765,0.23568 0.203605,0.34591 0.02376,0.0345 0.07031,0.0494 0.09276,0.0848 0.264502,0.41669 0.277437,0.65652 0.243973,0.3571 0.543263,0.99869 0.455601,0.65907 0.94221,1.61105 -0.01603,-0.0413 -0.07116,-0.16188 -0.04811,-0.12401 0.44735,0.73501 0.01159,0.15707 -0.02447,-0.064 -0.01601,-0.098 0.214112,0.33135 0.178599,0.23858 -0.05081,-0.13276 -0.333335,-0.26887 -0.225763,-0.36179 0.106336,-0.0919 0.189767,0.20728 0.284649,0.31092 -0.03827,-0.0651 -0.164475,-0.25221 -0.114811,-0.19532 0.517541,0.59286 0.971265,1.19643 1.337265,1.79655 -0.276423,-0.58579 0.04966,0.13795 0.09408,0.0585 0.05493,-0.0982 -0.106248,-0.2002 -0.178403,-0.28652 -0.160837,-0.19242 -0.372787,-0.34127 -0.517538,-0.54607 -0.04849,-0.0686 0.154961,0.0702 0.219321,0.12416 0.257633,0.21612 0.495094,0.45521 0.74264,0.68281 -0.03207,-0.0638 -0.153283,-0.14851 -0.09623,-0.1915 0.06375,-0.048 0.138629,0.088 0.217525,0.1001 0.02674,0.004 0.0328,-0.0708 0.05667,-0.0581 0.165299,0.0881 0.958321,0.65506 1.109713,0.75974 0.449083,0.21456 0.836324,0.49248 1.214464,0.80804 0.04643,0.0388 0.180197,0.15895 0.143769,0.11067 -0.08886,-0.11777 -0.202276,-0.21483 -0.303416,-0.32224 0.875901,0.4245 -0.137334,-0.0821 0.110993,-0.0585 0.312647,0.0297 0.500732,0.23895 0.81602,0.19976 1.560941,0.98491 0.636677,0.31943 1.630399,1.1621 0.05465,0.0463 0.123077,0.0763 0.172882,0.12778 0.160837,0.16639 0.281003,0.37217 0.456364,0.52318 0.265504,0.22863 -0.195657,-0.32837 -0.375997,-0.55249 -0.0982,-0.0929 -0.303252,-0.14389 -0.294585,-0.27881 0.0069,-0.10773 0.201679,0.078 0.305613,0.10717 0.333245,0.0936 0.0013,-0.19263 0.220022,-0.15688 0.211603,0.0346 0.410281,0.12472 0.615421,0.18708 0.146947,0.0529 0.289438,0.12031 0.440835,0.15861 0.11548,0.0292 0.242978,-0.0558 0.356767,-0.0205 0.425135,0.13162 0.793552,0.38183 1.214062,0.51905 0.101677,-0.0268 -0.267523,-0.28883 -0.164179,-0.26938 0.424248,0.0799 0.744185,0.26567 1.174011,0.29236 0.978887,-0.43851 1.902153,0.4838 2.732003,0.89371 0.0358,-2.6e-4 0.08496,0.0269 0.1074,-0.001 0.05037,-0.0626 -0.174453,-0.22666 -0.141293,-0.23069 0.131136,-0.016 0.252524,0.0816 0.383151,0.10127 0.05037,0.008 0.389133,-0.0221 0.443249,-0.0264 0.732851,-0.10775 1.455189,0.19008 2.177155,0.30542 -0.05238,0.0394 0.362937,-0.06 0.353539,-0.0601 -0.610846,-0.007 -2.405068,-0.19219 -1.832533,0.0208 6.516354,2.42462 1.750637,-0.45701 3.949904,0.92418 -0.205672,0.0906 0.294735,0.17985 0.300953,0.0765 0.0026,-0.0436 -0.02792,-0.0834 -0.04975,-0.12132 -0.431819,-0.74931 -0.858531,-0.283 -2.0944,-0.3176 0.519002,0.062 1.037723,-0.11778 1.553758,-0.10515 0.948944,0.0232 1.896888,0.0771 2.845334,0.11569 0.376058,0.1006 0.711023,0.30159 1.071415,0.4401 0.07353,0.0283 0.227695,0.0877 0.236146,0.009 0.0066,-0.0612 -0.03926,-0.11677 -0.0576,-0.17557 -3.775506,0.0423 -1.522912,-0.0285 -0.648364,-0.11823 1.266608,-0.16349 2.550867,0.059 3.817202,-0.0318 -1.031147,-0.0515 2.010122,-0.0237 0.959676,-0.0177 -3.053726,0.0172 -1.774114,0.004 -1.085488,0.0288 1.154594,0.0143 2.309797,2.7e-4 3.464481,-5.3e-4 0.540012,-0.005 1.080034,-0.007 1.620062,-0.007 -0.950137,0.14227 -1.914991,0.20776 -2.850417,0.42681 -0.16805,0.0394 -0.272677,0.21284 -0.396132,0.33346 -0.101962,0.0996 0.216689,-0.18569 0.331449,-0.27026 0.612802,-0.45159 1.229871,-0.73341 1.940486,-0.99661 0.238072,-0.0541 0.470294,-0.15196 0.714219,-0.16233 0.856779,-0.0364 1.715849,-0.0154 2.572559,0.0226 0.173594,0.008 0.682387,0.11139 0.508643,0.11413 -0.518773,0.008 -1.807231,-0.50346 -2.3764,0.10564 0.268312,0.0361 0.665665,-0.35335 0.909233,-0.25802 0.06314,0.0247 -0.781741,0.42284 0.0068,0.0851 0.15304,-0.0639 0.294219,-0.17403 0.459124,-0.1918 0.0901,-0.01 -0.305573,0.17677 -0.215644,0.16556 0.129921,-0.0162 0.229825,-0.12577 0.348033,-0.18206 0.162531,-0.0774 0.325925,-0.15367 0.49375,-0.21878 0.596908,-0.23161 0.625679,-0.36761 0.527351,-0.11026 0.04768,-0.005 0.09675,-10e-4 0.143045,-0.0136 0.470704,-0.12508 0.387776,-0.21537 -0.01236,0.14697 -0.0086,0.008 0.02217,0.0226 0.01471,0.0315 -0.306047,0.36352 -0.69522,0.72576 -0.412832,0.46037 0.497149,-0.49517 0.596743,-0.74671 1.27536,-1.17309 0.131553,-0.0827 0.416134,-0.41081 0.388202,-0.25798 -0.03414,0.1868 -0.275204,0.26172 -0.412806,0.39258 0.245415,-0.21189 0.45991,-0.46922 0.698133,-0.6831 0.394655,-0.35432 0.398372,-0.55329 0.376806,-0.30903 0.565168,-0.55592 0.481391,-0.50393 1.393068,-1.13248 0.263568,-0.18172 0.677347,-0.25148 0.974564,-0.37279 -0.06324,0.0588 -0.126468,0.11752 -0.189704,0.17629 0.03895,-0.0129 0.138634,-0.0735 0.116843,-0.0387 -0.08266,0.13189 -0.21621,0.22486 -0.310901,0.3484 -0.02275,0.0297 0.108024,-0.0975 0.09251,-0.0635 -0.05719,0.12549 -0.507482,0.77056 -0.03325,0.0818 -0.02826,0.0577 -0.121139,0.22613 -0.08476,0.17315 0.120724,-0.17583 0.222535,-0.36398 0.338635,-0.5429 0.155064,-0.23898 0.361238,-0.44102 0.528505,-0.67163 0.354978,-0.55433 0.820843,-1.01411 1.2436,-1.51132 -0.0535,0.0908 -0.265481,0.28177 -0.160486,0.27246 0.110543,-0.01 0.115155,-0.19101 0.187828,-0.27489 0.0205,-0.0236 -0.04504,0.11569 -0.02745,0.0898 0.696799,-1.02572 -0.02246,-0.0773 1.179512,-1.56099 0.08536,-0.0689 0.168368,-0.1408 0.25608,-0.20667 0.900327,-0.67611 0.476345,-0.31699 0.106765,0.1254 -0.01786,0.0214 0.07836,-0.0751 0.06724,-0.0496 -0.05123,0.11763 -0.127423,0.22274 -0.191135,0.33411 -0.437165,1.08632 -0.160572,0.42478 -0.09758,0.19471 0.115456,-0.077 -0.06997,0.1072 -0.06575,0.0744 0.04427,-0.34434 0.09977,-0.57125 0.171053,-0.89627 0.0019,-0.12712 0.456327,-1.48716 0.542354,-1.49253 0.04317,-0.003 -0.02051,0.084 -0.03016,0.12622 -0.01844,0.0806 -0.03608,0.1614 -0.05413,0.2421 0.260173,-0.94746 0.167516,-0.68434 0.318273,-1.48941 0.161639,-0.5294 0.235426,-0.9114 0.350067,-1.4608 0.03676,-0.41332 0.06028,-0.81709 0.107797,-1.2337 0.0293,-0.34899 0.168333,-0.6695 0.249309,-1.00527 0.0052,-0.0215 -0.03573,0.0664 -0.04675,0.0472 -0.06186,-0.49783 -0.07695,-1.00044 -0.08808,-1.50155 -0.0071,-0.58219 0.01299,-1.16419 0.02215,-1.74624 0.0063,-0.50907 0.0011,-1.01818 -0.0021,-1.52726 -0.02781,-0.0333 0.0445,-0.85054 -0.0028,-0.81513 -0.08816,0.066 0.06461,0.60306 -0.09218,0.0934 -0.12447,-0.44675 -0.191248,-0.90546 -0.231542,-1.3667 -0.006,-0.0691 0.09041,0.17285 0.02948,0.20606 -0.01984,0.0108 -0.07937,-0.25342 -0.152371,-0.55282 0.01532,0.0878 0.04068,0.17445 0.04597,0.26342 0.0011,0.0186 -0.02569,-0.0279 -0.03297,-0.045 -0.0472,-0.11095 -0.09224,-0.22305 -0.129804,-0.33762 -0.05414,-0.18455 -0.10827,-0.36909 -0.162404,-0.55364 0.01683,0.0695 0.08434,0.27156 0.05048,0.20855 -0.07175,-0.1335 -0.110609,-0.28223 -0.165915,-0.42334 -0.117327,-0.29743 -0.178221,-0.69584 -0.330512,-0.98997 -0.02972,-0.0574 0.04552,0.12666 0.03581,0.19056 -0.0051,0.0336 -0.03744,-0.057 -0.0514,-0.0879 -0.05449,-0.12072 -0.102455,-0.24429 -0.153683,-0.36643 -0.0648,-0.20305 -0.129606,-0.40611 -0.194411,-0.60917 0.01487,0.0524 0.08417,0.19445 0.0446,0.15707 -0.04836,-0.0457 -0.05264,-0.12233 -0.07438,-0.18521 -0.0576,-0.16659 -0.09747,-0.33945 -0.163534,-0.50287 -0.04894,-0.12106 0.09295,0.24622 0.112001,0.37541 0.0074,0.0502 -0.05071,-0.0878 -0.07607,-0.13171 -0.544891,-1.32531 -0.09521,-0.27416 -0.116684,-0.21173 -0.02625,0.0763 -0.081,-0.13969 -0.121494,-0.20953 0.06338,0.13466 0.167161,0.25693 0.190134,0.40398 0.02241,0.14338 -0.190515,-0.2199 -0.298172,-0.31721 -0.05602,-0.0442 -0.121713,-0.0783 -0.168047,-0.13252 -0.129747,-0.15189 -0.230386,-0.3268 -0.35659,-0.48164 -0.02035,-0.025 -0.06026,-0.0287 -0.08004,-0.0541 -0.09655,-0.124 -0.109302,-0.40744 -0.265451,-0.38965 -0.334206,0.0381 0.551055,0.63333 0.07763,0.29881 0.03994,0.0593 0.173659,0.22473 0.119808,0.17776 -0.694859,-0.60603 -1.220168,-1.28788 -1.67767,-2.07754 0.02713,0.0606 0.125172,0.23166 0.0814,0.18176 -0.261829,-0.29854 -0.589063,-1.19928 -0.659114,-1.35586 -0.07262,-0.16233 -0.24806,-0.66631 -0.195098,-0.49654 0.07363,0.236 0.155244,0.46945 0.232868,0.70417 2.9e-5,0.0289 0.02109,0.10653 9e-5,0.0867 -0.09778,-0.0925 -0.151803,-0.22421 -0.246547,-0.31982 -0.02821,-0.0285 0.07056,0.14042 0.04147,0.11286 -0.09742,-0.0923 -0.15663,-0.2198 -0.252949,-0.31327 -0.04449,-0.0432 0.06328,0.10662 0.09493,0.15993 -0.101357,-0.11867 -0.202713,-0.23734 -0.30407,-0.35601 -0.512905,-0.60568 -0.0263,0.001 -0.667591,-0.97512 -0.0063,-0.01 -0.02294,-0.003 -0.03439,-0.005 -0.0747,-0.13385 -0.162029,-0.2614 -0.2241,-0.40155 -0.15535,-0.35078 -0.272981,-0.71737 -0.425958,-1.06919 -0.281429,-0.88979 -0.06447,-0.22613 -0.05704,-0.13903 0.0027,0.0317 -0.03485,-0.0536 -0.04787,-0.0827 -0.06044,-0.13489 -0.106516,-0.27622 -0.172268,-0.40861 -0.04903,-0.0987 0.109551,0.19783 0.121976,0.30735 0.0076,0.0675 -0.0712,-0.11565 -0.106789,-0.17347 0.08993,0.15568 0.402013,0.58885 0.269796,0.46703 -0.407414,-0.37539 -0.701315,-1.08058 -0.925709,-1.55469 -0.05823,-0.12303 -0.08848,-0.25947 -0.157712,-0.37667 -0.04233,-0.0717 0.05049,0.15861 0.07574,0.23791 -0.08365,0.0118 -0.374475,-0.75869 -0.38282,-0.55694 -0.01357,0.32846 0.626507,0.79878 0.0536,0.57696 -0.07215,-0.29406 -0.382148,-0.16072 -0.541144,-0.28942 -0.679299,-0.54989 -1.193861,-1.17714 -1.631193,-1.92903 -0.100531,-0.20986 -0.456491,-0.80323 -0.301599,-0.62958 0.120301,0.23203 0.240602,0.46405 0.360903,0.69607 -0.01408,-0.002 -0.05019,-0.0176 -0.04226,-0.006 0.08165,0.1213 0.345503,0.21955 0.270687,0.34518 -0.136623,0.22942 -0.420904,-0.50643 -0.284665,-0.17304 -1.475766,-1.33339 -0.162663,-0.16458 -0.326112,-0.19641 -0.162724,-0.0317 -0.240797,-0.24703 -0.398833,-0.29711 -0.08382,-0.0266 0.09916,0.14525 0.148735,0.21787 -0.149283,-0.0931 -0.298566,-0.18617 -0.447847,-0.27926 -0.05253,-0.019 -0.103647,-0.0714 -0.15758,-0.0569 -0.03084,0.008 0.05167,0.11058 0.02543,0.0924 -0.207115,-0.14376 -0.991671,-0.73255 -1.256344,-1.04752 -0.193588,-0.23037 -0.33853,-0.49944 -0.536821,-0.72578 -0.04164,-0.0475 0.03922,0.12012 0.05882,0.18018 0.510493,0.74934 0.250812,0.26879 0.04861,0.23252 -0.0389,-0.007 0.0374,0.0696 0.05611,0.10446 -0.144452,-0.11182 -0.270081,-0.25353 -0.433356,-0.33546 -0.06165,-0.0309 0.07042,0.11894 0.111811,0.17412 0.05122,0.0683 0.110294,0.13028 0.165441,0.19542 -0.14695,-0.18746 -0.379764,-0.052 -0.552858,-0.12835 -0.597476,-0.26358 -1.151752,-0.62918 -1.661723,-1.02274 -0.06528,-0.0509 -0.241983,-0.22145 -0.195831,-0.15273 0.09106,0.13562 0.374351,0.20027 0.334052,0.35857 -0.03493,0.13721 -0.244576,-0.14399 -0.37415,-0.20106 -0.247777,-0.18356 -0.04675,0.0864 -0.08476,0.0792 -0.143253,-0.027 -0.270071,-0.10984 -0.405103,-0.16477 -0.485685,-0.0879 -0.171075,0.0566 -0.872419,-0.32084 -0.101068,-0.0544 -0.196223,-0.12067 -0.301683,-0.16596 -0.01651,-0.007 -0.05993,-0.002 -0.05199,0.0141 0.02638,0.0535 0.08201,0.0867 0.123018,0.13005 0.614891,0.47254 -0.713124,-0.27858 -0.842513,-0.20838 -0.0431,0.0234 -0.0011,0.0981 0.0011,0.14709 -0.358288,0.1504 -0.824508,-0.52782 -1.20958,-0.46339 -0.02703,0.005 0.0094,0.20432 0.0073,0.23162 0.618064,0.0183 1.236002,0.0414 1.85419,0.0548 0.05122,0.001 -0.101465,-0.0157 -0.152651,-0.0179 -0.269119,-0.0116 -0.538277,0.0527 -0.805236,0.0422 -0.932384,-0.0367 -1.863659,-0.0976 -2.795487,-0.14646 -0.08042,0.16192 -1.072936,-0.62673 -1.164272,-0.50749 -0.01387,0.0181 0.141118,0.2582 0.153424,0.30334 3.760626,-0.0321 1.404011,0.0418 0.536818,0.11231 -1.242235,0.10617 -2.48947,0.0154 -3.733509,-0.003 0.772938,-0.0148 -1.507458,0.006 -0.734531,0.0104 3.123766,0.0177 1.843476,5.3e-4 1.157213,0.002 -0.363312,0.002 -0.726609,0.006 -1.089921,0.008 -0.09095,5.3e-4 -0.321869,0.0778 -0.272847,0.001 0.0791,-0.1236 0.26375,-0.12872 0.395626,-0.19308 0.575435,-0.4067 -0.207658,0.071 -0.233717,0.0253 -0.02761,-0.0484 0.887569,-0.64187 -0.232219,0.0877 -0.209177,0.10898 -0.410782,0.23392 -0.627531,0.32693 -0.04541,0.0195 0.154681,-0.093 0.106347,-0.10329 -0.07066,-0.015 -0.134316,0.0534 -0.200057,0.0833 -0.145145,0.0661 -0.285565,0.14265 -0.432446,0.20483 -0.181073,0.0767 -0.358333,0.17072 -0.550714,0.21136 -0.07177,0.0152 0.117279,-0.0881 0.175922,-0.13219 -0.336693,0.0292 -0.594718,0.31305 -0.932953,0.35116 0.245671,-0.17643 0.312558,-0.17132 0.136014,-0.14832 -0.454316,0.29943 -4.688927,-6.12555 -4.234611,-6.42499 v 0 c 0.164518,-0.0824 0.886703,-0.44453 0.902608,-0.45043 0.0065,-0.002 -0.125611,0.16001 0.01534,0.11625 0.101254,-0.0314 0.193435,-0.0869 0.29015,-0.13029 0.192646,-0.0884 0.374468,-0.20573 0.577935,-0.26505 0.03877,-0.0113 -0.368522,0.34274 0.05609,0.13345 0.164653,-0.0811 0.305859,-0.22484 0.486344,-0.25835 0.09727,-0.0181 -0.141491,0.13831 -0.212238,0.20746 -0.02262,0.0376 -0.110651,0.1228 -0.0679,0.11285 0.0891,-0.0207 0.153294,-0.0999 0.229528,-0.15047 0.216723,-0.14377 0.424342,-0.30211 0.649341,-0.43255 0.01582,-0.009 0.02903,0.035 0.04638,0.0292 0.101534,-0.0336 0.192484,-0.0933 0.288642,-0.14009 0.200033,-0.0974 0.399952,-0.19501 0.599927,-0.29251 0.279201,-0.0948 0.552074,-0.21081 0.837602,-0.28437 0.310554,-0.08 0.975426,0.0658 1.319736,-2.7e-4 1.207183,-0.013 2.415125,-0.0304 3.621548,0.0217 0.184489,0.006 0.335515,0.0116 0.519411,0.0116 0.07738,-1e-5 0.309484,-0.003 0.232106,-0.004 -3.111018,-0.0205 -1.986034,-0.0308 -1.307258,0.017 1.316971,0.0128 2.602171,-0.40584 3.934907,-0.0747 0.521369,0.11774 0.573696,0.11084 1.082947,0.30373 0.25727,0.0974 0.493083,0.25041 0.756322,0.33035 0.01249,0.004 0.0043,-0.0257 0.0064,-0.0386 -0.09286,-0.0585 -0.18573,-0.11704 -0.278594,-0.17555 -0.777475,-0.0265 -1.555226,-0.0458 -2.332423,-0.0794 -0.08498,-0.004 0.170053,-0.005 0.254947,-0.0104 0.348588,-0.0215 0.708708,-0.10447 1.056539,-0.10346 0.799502,0.002 1.598637,0.0346 2.397956,0.0518 0.503619,0.10939 0.526095,0.0989 1.017582,0.26801 0.233839,0.0804 0.452052,0.20958 0.693246,0.26414 0.01259,0.003 0.01013,-0.0238 0.01521,-0.0356 -0.08044,-0.0492 -0.160872,-0.0985 -0.241308,-0.1477 0.59599,0.16237 0.338815,0.0808 0.896594,0.27573 0.0921,0.0322 0.181081,0.0748 0.275958,0.0975 0.01595,0.004 0.05589,-0.009 0.04471,-0.0207 -0.04929,-0.053 -0.250119,-0.13489 -0.178676,-0.12333 0.211608,0.0342 0.408821,0.1291 0.613233,0.19365 0.302376,0.12992 0.595542,0.28152 0.902033,0.40142 0.03938,0.0154 0.114109,0.0621 0.125055,0.0213 0.01323,-0.0494 -0.149907,-0.125 -0.09949,-0.11666 0.05732,0.009 0.680518,0.26386 0.794543,0.30992 0.649351,0.11268 1.304634,0.71527 1.85301,0.99329 -0.07994,-0.0771 -0.335733,-0.17523 -0.239829,-0.23119 0.110773,-0.0647 0.22647,0.12152 0.345376,0.16959 0.330716,0.13371 -0.08691,-0.11283 -0.0016,-0.10998 0.207444,0.007 0.383077,0.17792 0.58896,0.20214 0.220786,0.11217 0.441573,0.22434 0.66236,0.33651 0.180142,0.12323 0.349621,0.26371 0.540422,0.36969 0.03891,0.0216 -0.114324,-0.13063 -0.07444,-0.11087 0.541152,0.26801 0.992703,0.69268 1.419013,1.10531 0.144751,0.18346 0.276156,0.37829 0.43425,0.55038 0.09051,0.0985 -0.160483,-0.21456 -0.230489,-0.32857 -0.0048,-0.008 0.02096,-0.0177 0.0141,-0.0238 -0.440023,-0.39707 -0.796663,-0.57369 0.04953,-0.0985 0.100618,0.0565 0.199377,0.11627 0.299064,0.17441 -0.0031,-0.0138 -0.02111,-0.0489 -0.0092,-0.0413 0.200607,0.12777 0.382714,0.28347 0.585237,0.40818 0.03248,0.02 -0.04648,-0.0605 -0.06972,-0.0907 0.193593,0.14749 0.387189,0.29497 0.580782,0.44245 0.08584,0.0676 0.141277,0.20138 0.250039,0.21206 0.09351,0.009 -0.128027,-0.13758 -0.19204,-0.20636 0.402595,0.30695 0.877898,0.57805 1.207595,1.04081 0.221864,0.31141 0.396859,0.65507 0.625486,0.96155 0.06131,0.0822 -0.07974,-0.18894 -0.119608,-0.2834 0.04654,0.0452 0.127683,0.19926 0.139621,0.13551 0.01601,-0.0855 -0.136448,-0.14496 -0.121798,-0.23067 0.0096,-0.0558 0.123274,0.13764 0.146526,0.086 0.02663,-0.0591 -0.173413,-0.18424 -0.114377,-0.1574 0.110929,0.0505 0.616543,0.42127 0.774441,0.53549 0.840478,0.67536 1.395365,1.38687 1.931675,2.30287 0.119555,0.23585 0.249457,0.46672 0.358833,0.70746 0.05495,0.12093 0.282948,0.41748 0.161169,0.36444 -0.01265,-0.006 -1.219229,-2.02916 0.07915,8e-4 0.419246,0.56978 0.670055,1.19676 0.943581,1.86753 0.04067,0.12085 0.23852,0.41438 0.122018,0.36255 -0.1349,-0.06 -0.259694,-0.5288 -0.178938,-0.4052 0.0775,0.11863 0.148363,0.24147 0.221634,0.36275 0.05727,0.0948 -0.295132,-0.30289 -0.166936,-0.28727 -0.01537,-0.0319 -0.07229,-0.11945 -0.04611,-0.0956 0.293815,0.2672 0.698386,0.66523 0.942507,0.97026 0.12636,0.15789 0.242734,0.32352 0.364101,0.48528 0.181658,0.37563 0.367485,0.74928 0.544978,1.1269 0.0655,0.13935 0.234654,0.5646 0.14727,0.43782 -0.02029,-0.0294 -0.731054,-1.44812 0.01564,-0.16699 -0.156425,-0.35467 0.02474,0.0853 0.149227,0.1365 0.09131,0.0376 -0.132889,-0.15553 -0.156797,-0.25133 -0.01233,-0.0495 0.151,0.13605 0.118277,0.097 -0.09581,-0.11447 -0.445485,-0.38416 -0.308684,-0.32443 0.213042,0.093 0.366273,0.28636 0.549412,0.42954 0.587264,0.48854 1.039926,1.11351 1.509551,1.70186 0.452991,0.61166 0.73769,1.08055 1.062607,1.76506 0.02429,0.0512 -0.04392,-0.10443 -0.06588,-0.15665 0.439615,0.84816 0.234331,0.5721 0.599008,1.36154 0.02559,0.0554 -0.0344,-0.11714 -0.0516,-0.17571 0.404159,0.51857 0.588852,1.25036 0.72671,1.88645 0.0034,0.0156 -0.01685,-0.0272 -0.02529,-0.0407 0.21286,0.60823 0.355113,0.81425 0.621355,1.68982 0.08014,0.44791 0.167667,0.89625 0.284338,1.33531 0.224012,0.81629 0.337158,1.64857 0.299206,2.49574 0.0024,0.55606 0.0035,1.11216 -0.0068,1.66816 -0.0081,0.47948 -0.02088,0.95929 -0.0029,1.43871 0.02699,0.62963 0.07788,1.25919 0.05586,1.88987 -0.03022,0.482 -0.07821,0.94782 -0.182623,1.4203 -0.02151,0.0973 -0.04794,0.19341 -0.07398,0.28957 -0.0045,0.0167 -0.01841,0.066 -0.01762,0.0487 0.0024,-0.0543 0.01519,-0.10758 0.02278,-0.16136 0.0062,-0.0739 0.01109,-0.29549 0.01849,-0.2217 0.08076,0.80604 -0.0786,1.63651 -0.275521,2.41254 -0.0297,0.0829 -0.0039,0.22641 -0.08911,0.24877 -0.07585,0.0199 0.04434,-0.31042 0.03013,-0.2333 -0.07485,0.40622 -0.113385,0.85995 -0.283657,1.22854 0.05188,-0.58345 0.0098,-0.0685 -0.04351,0.24714 -0.0275,0.16286 -0.06308,0.32435 -0.101333,0.48503 -0.02679,0.11253 -0.06013,0.22343 -0.0937,0.33413 -0.0057,0.0188 -0.02532,0.0735 -0.02395,0.0539 0.0055,-0.0774 0.02424,-0.1532 0.03634,-0.2298 -0.120613,0.67878 -0.07944,0.57808 -0.268332,1.18846 -0.02941,0.095 -0.06485,0.18813 -0.09949,0.28139 -0.0034,0.009 -0.01572,0.0354 -0.01455,0.0257 0.0069,-0.0573 0.04483,-0.22628 0.03194,-0.17006 -0.03052,0.13312 -0.05657,0.26723 -0.08486,0.40085 -0.03367,0.12077 -0.0969,0.23225 -0.127828,0.35376 -0.180448,0.7088 -0.310555,1.41593 -0.634423,2.08408 -0.373949,0.63688 -1.040495,1.70745 -1.717892,2.00456 -0.03753,0.0165 0.268269,-0.33009 -0.01013,-0.12251 0.163465,-0.25805 0.324036,-0.51796 0.4904,-0.77415 0.05793,-0.0892 -0.08566,0.20231 -0.165047,0.27312 -0.05427,0.0484 0.120864,-0.26407 0.08438,-0.20117 -0.254431,0.43867 -0.413208,0.84852 -0.740997,1.25763 0.06237,-0.21229 0.003,0.008 -0.25141,0.34894 -0.25767,0.34492 -0.534781,0.6817 -0.880912,0.94633 -0.06475,0.0686 -0.132191,0.13484 -0.194262,0.20591 -0.08339,0.0955 -0.136787,0.36436 -0.241872,0.29346 -0.105089,-0.0709 0.250159,-0.22786 0.181319,-0.33431 -0.06592,-0.10193 -0.08663,0.26353 -0.201244,0.3035 -0.05622,0.0196 0.632595,-1.19713 -0.139481,0.20123 -0.604996,0.89662 -1.256625,1.68031 -2.251337,2.20721 -0.406627,0.12029 -0.16515,0.0384 -0.713938,0.27455 -0.02005,0.006 -0.0177,-0.0506 -0.03862,-0.0496 -0.0692,0.003 -0.240017,0.11684 -0.19861,0.0613 1.298771,-1.74243 0.37764,-0.21995 0.688367,-0.74024 -0.386488,0.46036 -0.759365,0.73611 -1.219605,1.26954 -0.2721,0.2537 -0.5442,0.50741 -0.816301,0.76111 -0.02199,-0.007 -0.04521,-0.031 -0.06599,-0.021 -0.116292,0.0562 -0.326538,0.33939 -0.325517,0.21023 0.0013,-0.18105 0.295741,-0.25521 0.327282,-0.43351 0.04434,-0.25061 -0.80695,1.04906 -0.07524,-0.03 -0.685739,0.81388 -1.32778,1.46068 -2.346841,1.79725 -0.182893,0.0761 -0.356642,0.17963 -0.54868,0.22819 -0.05408,0.0137 -0.01926,-0.12803 -0.06952,-0.15223 -0.263802,-0.12699 -0.821663,0.63145 -0.712655,0.24308 -0.410019,0.0724 -0.824754,0.37873 -1.213339,0.50377 -0.02222,0.007 -0.01741,-0.046 -0.03604,-0.0601 -0.02217,-0.0167 -0.05129,-0.0296 -0.0789,-0.0267 -0.07625,0.008 -0.148259,0.0392 -0.22239,0.0588 -0.192262,0.069 -0.897356,0.33171 -1.048126,0.33608 -0.856231,0.0248 -1.711849,-0.0719 -2.56831,-0.0867 -0.02883,-5.3e-4 -0.105024,0.0405 -0.07619,0.0409 1.99059,0.0323 1.574962,0.5093 2.067454,-0.14148 0.03265,-0.043 0.294849,-0.37347 0.20501,-0.41282 -0.04493,-0.0197 -0.102068,0.01 -0.142232,0.0378 -1.92909,1.35295 0.383196,0.40047 -4.09408,1.22883 -0.540803,-2.6e-4 -1.081583,-0.004 -1.622335,-0.0117 3.39227,-0.005 1.234141,-0.021 0.449939,0.01 -1.308221,0.065 -2.621391,0.0737 -3.929136,8e-4 -0.346395,-0.0371 -0.262766,-0.0381 -0.577652,-0.0385 -0.07773,-9e-5 -0.310888,0.003 -0.233161,0.003 3.093643,0.0171 2.006423,0.0431 1.329854,-0.0269 -1.307145,-0.042 -2.585635,0.53201 -3.910229,0.0897 -0.547479,-0.11996 -0.541253,-0.10263 -1.07265,-0.28291 -0.149514,-0.0507 -0.295418,-0.11152 -0.443503,-0.16627 -0.119816,-0.0443 -0.43955,-0.20413 -0.370909,-0.0964 0.03652,0.0573 0.109292,0.0808 0.163936,0.12118 4.566674,0.0846 1.700342,-0.0246 0.553858,0.26076 -0.858967,-0.009 -1.719276,0.0205 -2.576902,-0.0284 -0.900022,-0.0513 -1.933829,-0.67703 -2.680057,-1.15401 0.971918,0.7371 0.106453,0.12805 3.131156,0.52494 0.64035,0.43315 -1.545836,0.0409 -2.318919,0.0394 -0.435214,-8e-4 -0.866942,-0.12901 -1.297395,-0.17368 -0.663266,-0.10574 -1.296197,-0.0965 -1.958425,-0.20611 -0.96185,-0.20836 -1.918242,-0.42701 -2.768378,-0.95748 -0.08757,-0.0454 -0.200689,-0.21301 -0.26271,-0.13629 -0.160634,0.1987 0.749874,0.19899 0.63608,0.42776 -0.04188,0.0842 -1.401392,-0.25635 -1.532274,-0.31167 -0.105939,-0.0302 -0.211169,-0.063 -0.31782,-0.0906 -0.04727,-0.0122 -0.171196,-0.0691 -0.143626,-0.0288 0.04681,0.0684 0.295306,0.1275 0.212423,0.12934 -0.526992,0.0117 -1.053343,-0.33283 -1.544391,-0.47146 -0.112954,-0.0399 -0.379765,-0.19412 -0.350907,-0.0778 0.01267,0.0511 0.161901,0.11485 0.109305,0.11383 -0.200512,-0.004 -0.673431,-0.29306 -0.858933,-0.19638 0.176554,0.22562 0.143214,0.14149 -0.453255,-0.0148 -0.363016,-0.0951 -0.539274,-0.18995 -0.878845,-0.2635 -0.06332,-0.0137 -0.133189,0.002 -0.192961,-0.0234 -0.288414,-0.12069 -0.562305,-0.2735 -0.84346,-0.41025 -1.771975,-1.30651 0.144301,0.16741 -1.277048,-1.09151 -0.05245,-0.0465 0.186415,0.18401 0.11697,0.17467 -0.100801,-0.0136 -0.144807,-0.15019 -0.237991,-0.19095 -0.05488,-0.024 0.07715,0.0917 0.115727,0.13747 0.219908,0.14379 0.439814,0.28758 0.659722,0.43137 -0.128188,-0.0422 -0.256373,-0.0845 -0.384561,-0.12667 -0.07816,-0.0236 -0.153615,-0.0595 -0.234469,-0.0707 -0.01278,-0.002 0.01572,0.0423 0.0034,0.0386 -0.407924,-0.12388 -0.779656,-0.33105 -1.188315,-0.44803 -0.803156,-0.51492 -1.62572,-0.92694 -2.37471,-1.52045 -0.140734,-0.11026 -0.199543,-0.16106 -0.399846,-0.26501 -0.0163,-0.008 -0.03916,0.0162 -0.05468,0.006 -0.428358,-0.27026 -0.800524,-0.60302 -1.156498,-0.96078 0.16111,0.15238 0.335439,0.2919 0.483329,0.45714 0.02474,0.0276 -0.07616,-0.0125 -0.105586,-0.0351 -0.681873,-0.52313 -1.281613,-1.08492 -1.753252,-1.79909 -0.189396,-0.15961 0.0034,0.0113 -0.336767,-0.47457 -0.01554,-0.0222 0.05169,0.0946 0.0346,0.0735 -0.05891,-0.0725 -0.225706,-0.29669 -0.161149,-0.2292 0.0111,0.0116 1.01166,1.19472 -0.02115,0.0433 0.161688,0.28688 0.02315,0.0323 -0.447409,-0.51845 -0.007,-0.008 -0.01851,-0.0109 -0.02777,-0.0164 -0.14018,-0.21693 -0.28036,-0.43385 -0.42054,-0.65078 0.0025,0.0156 0.01604,0.0599 0.0075,0.0467 -0.08967,-0.13803 -0.168465,-0.28282 -0.252697,-0.42422 0.03468,0.0765 0.132268,0.15046 0.104037,0.2296 -0.02241,0.0628 -0.09432,-0.0952 -0.132446,-0.14997 -0.256742,-0.36851 -0.494881,-0.75167 -0.70538,-1.14819 -0.01379,-0.026 0.03248,0.0491 0.04872,0.0736 -0.314786,-0.5518 -0.348871,-0.68973 -0.677394,-1.19733 -0.06868,-0.10612 0.120317,0.22233 0.180476,0.33349 -0.341626,-0.40383 -0.535875,-0.8841 -0.80653,-1.32837 -0.02599,-0.0427 0.09528,0.12393 0.04862,0.14179 -0.04862,0.0186 -0.06319,-0.0827 -0.09478,-0.12412 -0.369852,-0.6275 -0.187248,-0.24396 -0.369357,-0.63296 -0.177123,-0.37835 -0.34336,-0.7617 -0.51504,-1.14255 0.0528,0.17859 0.07266,0.19549 -0.0012,0.0782 -0.326945,-0.70558 -0.559228,-1.46721 -0.647324,-2.21619 -0.02404,-0.11523 -0.44671,-1.68745 -0.242842,-1.34265 0.1005,0.25758 -0.531196,-1.69885 -0.250518,-0.99792 -0.160708,-0.47206 -0.247799,-0.95701 -0.370034,-1.43727 -0.232736,-0.83309 -0.348706,-1.68371 -0.303872,-2.54932 0.004,-0.52448 0.01526,-1.04881 0.0228,-1.57323 3.18e-4,-0.48078 -0.02379,-0.96031 -0.06046,-1.4397 -0.03513,-0.82923 -0.0147,-1.66191 0.17507,-2.47428 0.159417,-0.64923 0.252241,-1.27809 0.535771,-1.89176 0.03505,-0.0759 0.04479,-0.19009 0.123499,-0.21816 0.05413,-0.0193 0.0033,0.11489 0.005,0.17234 -0.0189,0.27962 -0.01488,0.56175 -0.05671,0.83888 -0.02066,0.13688 -0.0084,-0.2768 -0.0072,-0.41522 0.0055,-0.67139 0.08006,-1.34235 0.27574,-1.98671 0.02614,-0.0787 0.0444,-0.16043 0.07842,-0.23604 0.006,-0.0134 -0.07922,0.96528 -0.04328,0.4024 0.02506,-0.39238 0.09031,-0.78111 0.170045,-1.16559 0.02111,-0.10104 0.05665,-1.2525 0.221317,-1.72977 0.07559,-0.23269 0.147843,-0.46648 0.226765,-0.69806 0.01295,-0.038 0.05351,-0.14997 0.04867,-0.11013 -0.01071,0.0881 -0.09008,0.34334 -0.06661,0.25776 0.095,-0.34647 0.169799,-0.6996 0.317459,-1.02922 -0.0084,0.0425 -0.03722,0.16895 -0.02526,0.12736 0.160126,-0.55702 0.341544,-1.08381 0.531055,-1.6319 -0.01355,0.0776 -0.06039,0.30885 -0.04065,0.23264 0.268756,-1.03776 0.549507,-2.07068 1.309896,-2.88619 -0.0488,0.072 -0.202935,0.28201 -0.146397,0.21594 0.272999,-0.31905 0.502297,-0.64693 0.836132,-1.05531 0.455982,-0.12329 0.03993,0.0153 0.723435,-0.87318 0.05058,-0.0657 -0.185684,0.27188 -0.125339,0.21497 0.120564,-0.11369 0.189498,-0.27484 0.309746,-0.38887 0.05971,-0.0566 -0.180498,0.27345 -0.124475,0.21318 0.111179,-0.11961 0.194653,-0.26226 0.29198,-0.39339 -0.02114,0.0424 -0.09371,0.16373 -0.06342,0.12727 0.395114,-0.47571 0.745462,-0.96549 1.222183,-1.39747 -0.09015,0.14623 -0.441765,0.45138 -0.270449,0.43869 0.175857,-0.013 0.19012,-0.29725 0.293139,-0.44037 0.260426,-0.36179 0.556169,-0.69769 0.903004,-0.98038 0.171102,-0.18179 0.329749,-0.37617 0.513306,-0.54537 0.102501,-0.0945 0.351754,-0.38113 0.340999,-0.24214 -0.01728,0.22316 -0.280273,0.35624 -0.365835,0.56307 -0.14556,0.35186 0.822294,-1.26547 0.695032,-0.90658 0.306821,-0.2246 -0.186129,0.14535 0.523655,-0.53989 0.03909,-0.0377 0.09936,-0.0467 0.141402,-0.0811 0.392969,-0.32173 0.746664,-0.69906 1.203986,-0.93667 0.173477,-0.10763 0.338061,-0.23114 0.520425,-0.32291 0.03384,-0.017 0.07699,0.0137 0.113583,0.004 0.477398,-0.12804 0.89118,-0.4439 1.376884,-0.55483 -0.01053,0.0444 -0.08063,0.19087 0.07788,0.10447 0.237678,-0.12954 0.450466,-0.30148 0.687517,-0.43217 0.03457,-0.019 0.08038,5.3e-4 0.117838,-0.0118 0.294756,-0.0981 0.558794,-0.27802 0.859414,-0.3605 -0.0104,0.0618 -0.07578,0.20406 -0.0154,0.18733 0.128664,-0.0357 0.235122,-0.12671 0.35487,-0.18576 0.1969,-0.0971 0.388456,-0.20792 0.594913,-0.28257 0.04075,-0.0147 0.08496,0.0222 0.128286,0.0211 0.07251,-0.002 0.143698,-0.0199 0.215545,-0.0299 1.014024,-0.30419 0.07492,-0.0975 0.219922,0.0673 0.04849,0.0552 0.132789,-0.063 0.19695,-0.0987 0.909185,-0.5062 0.1474,-0.13974 0.640154,-0.21717 0.441437,-0.22758 0.848413,-0.5195 1.294877,-0.73706 0.08269,-0.0403 -0.160137,0.16599 -0.119727,0.24862 0.01455,0.0298 0.06623,-0.001 0.09935,-0.002 0.24752,-0.15981 0.495041,-0.31961 0.742564,-0.47942 0.371237,-0.0858 0.687279,-0.313 1.05814,-0.40388 0.03781,-0.009 0.08434,0.27671 0.226052,0.14214 0.167058,-0.085 0.334116,-0.16995 0.501171,-0.25492 -0.0163,0.0466 -0.0271,0.15746 0.02098,0.14649 0.314249,-0.0717 0.55548,-0.33585 0.859317,-0.44346 0.05535,-0.0196 -0.0616,0.1 -0.09239,0.14997 -0.132556,0.45105 -0.05736,0.11387 0.967309,-0.43283 0.217617,-0.11611 -0.427842,0.24823 -0.65518,0.34391 -0.07754,0.0326 0.131763,-0.10483 0.200928,-0.15272 0.396512,-0.27456 0.388223,-0.25445 0.825005,-0.49287 0.697338,-0.19332 1.381471,-0.41709 2.084202,-0.59455 0.314574,-0.0794 0.623096,-0.19086 0.944496,-0.23522 0.231622,-0.032 0.467604,0.005 0.701408,0.008 0.507992,-0.23606 3.846444,6.94806 3.338449,7.18413 z"
       inkscape:connector-curvature="0"
       style="stroke-width:0.26458332" />
  </g>
</svg>
