<?xml version="1.0" encoding="UTF-8" standalone="no"?>
<!-- Created with Inkscape (http://www.inkscape.org/) -->

<svg
   xmlns:dc="http://purl.org/dc/elements/1.1/"
   xmlns:cc="http://creativecommons.org/ns#"
   xmlns:rdf="http://www.w3.org/1999/02/22-rdf-syntax-ns#"
   xmlns:svg="http://www.w3.org/2000/svg"
   xmlns="http://www.w3.org/2000/svg"
   xmlns:sodipodi="http://sodipodi.sourceforge.net/DTD/sodipodi-0.dtd"
   xmlns:inkscape="http://www.inkscape.org/namespaces/inkscape"
   width="100mm"
   height="100mm"
   viewBox="0 0 100 100"
   version="1.1"
   id="svg8"
   sodipodi:docname="f4.svg"
   inkscape:version="0.92.4 (unknown)">
  <defs
     id="defs2" />
  <sodipodi:namedview
     id="base"
     pagecolor="#ffffff"
     bordercolor="#666666"
     borderopacity="1.0"
     inkscape:pageopacity="0.0"
     inkscape:pageshadow="2"
     inkscape:zoom="0.98994949"
     inkscape:cx="496.2214"
     inkscape:cy="173.41925"
     inkscape:document-units="mm"
     inkscape:current-layer="layer1"
     showgrid="false"
     inkscape:window-width="1920"
     inkscape:window-height="1015"
     inkscape:window-x="0"
     inkscape:window-y="1080"
     inkscape:window-maximized="1" />
  <metadata
     id="metadata5">
    <rdf:RDF>
      <cc:Work
         rdf:about="">
        <dc:format>image/svg+xml</dc:format>
        <dc:type
           rdf:resource="http://purl.org/dc/dcmitype/StillImage" />
        <dc:title></dc:title>
      </cc:Work>
    </rdf:RDF>
  </metadata>
  <g
     inkscape:label="Layer 1"
     inkscape:groupmode="layer"
     id="layer1"
     transform="translate(0,-197)">
    <path
       id="path3812"
       d="m 49.241982,266.87471 c -0.984867,0.021 -0.620654,0.0407 -1.650574,-0.0566 -0.280958,-0.0265 -0.566595,-0.0267 -0.84201,-0.0883 -0.869101,-0.1942 -1.660104,-0.59135 -2.455889,-0.9726 -0.0024,0.008 -0.681847,-0.41158 -0.713968,-0.31166 -0.0096,0.0298 0.04183,0.0474 0.05625,0.0751 0.01947,0.0375 0.02962,0.0792 0.04443,0.11879 0.601549,0.015 1.20319,0.0266 1.804647,0.0449 0.07637,0.002 -0.15294,0.008 -0.229185,0.003 -1.023961,-0.0657 -2.052844,-0.0852 -3.070707,-0.21467 -0.256521,-0.0326 -0.482486,-0.18677 -0.727781,-0.26861 -0.243007,-0.0811 -0.562428,-0.15228 -0.817166,-0.21282 -0.0436,-0.006 -0.283342,-0.063 -0.365043,-0.0144 -0.01741,0.0103 0.0092,0.0644 -0.01048,0.0598 -0.344662,-0.0806 -0.621845,-0.24348 -0.975561,-0.28028 -1.461008,0.41868 2.470015,0.17359 1.071822,0.18047 -0.107797,5.2e-4 -0.215594,0.001 -0.323393,0.002 -1.249354,0.01 -2.49841,0.003 -3.747846,-0.002 0.748524,-0.10331 -1.542093,0.0566 -0.756071,-0.009 0.787326,-0.066 1.579703,-0.0794 2.363507,-0.17877 0.08498,-0.0108 0.155223,-0.0821 0.210299,-0.1477 0.02315,-0.0276 -0.07038,0.0153 -0.105574,0.0229 -0.119531,0.0552 -0.237538,0.11385 -0.358587,0.16565 -0.168966,0.0682 -0.337932,0.13648 -0.506897,0.20472 0.07306,-0.0379 0.29891,-0.13416 0.219173,-0.11375 -0.282409,0.0723 -0.615199,0.30774 -0.915154,0.41856 -0.121748,0.0541 -0.85679,0.3832 -0.926214,0.40212 -0.02516,0.007 -0.01037,-0.0511 -0.01556,-0.0767 -0.06089,0.0169 -0.12464,0.0257 -0.182661,0.0507 -0.149558,0.0645 -0.320651,0.33016 -0.437827,0.21702 -0.111062,-0.10724 0.238022,-0.1967 0.357031,-0.29504 -0.85513,0.58542 -0.9071,0.50282 -1.752928,0.94138 -0.0046,-0.1687 -0.236315,0.14862 -0.261625,0.0626 -0.02826,-0.096 0.162563,-0.12455 0.214633,-0.21004 0.0343,-0.0563 -0.09887,0.14592 -0.158647,0.11811 -0.05268,-0.0245 0.05492,-0.10238 0.08238,-0.15358 -0.152929,0.17282 -0.305855,0.34565 -0.458784,0.51847 -0.231429,0.12465 -0.341575,0.42852 -0.585608,0.52322 -0.13289,0.0516 0.359463,-0.44194 0.261639,-0.33825 -0.154165,0.16339 -0.282192,0.34983 -0.431187,0.51796 -0.155231,0.17517 -0.340365,0.32144 -0.506232,0.48658 -0.159928,0.0171 -1.006629,0.93587 -1.170416,1.09474 -0.357542,0.28448 -0.65087,0.63753 -1.021414,0.93716 -0.156342,0.12643 -0.269449,0.33249 -0.463134,0.38645 -0.137343,0.0383 0.179438,-0.2216 0.269155,-0.33241 -0.03899,0.0358 -0.124505,0.15984 -0.116956,0.10744 0.12588,-0.87357 0.294997,0.34053 -0.08202,0.0724 -0.108633,-0.0772 0.231574,-0.47907 0.187256,-0.35335 -0.176593,0.50094 -0.366564,0.77104 -0.634526,1.22221 -0.342302,0.54553 -0.83688,0.97273 -1.172149,1.51904 -0.578343,1.02501 -1.202266,2.07785 -2.256031,2.68101 1.401458,-1.16027 0.282598,-0.36913 0.841666,-1.12173 0.0452,-0.0609 -0.05159,0.14258 -0.07477,0.21475 -0.0048,0.0148 -0.006,0.0306 -0.0089,0.0459 -0.05011,0.14947 -0.100216,0.29895 -0.150323,0.44842 -0.0473,0.3244 -0.01423,0.16543 -0.240021,0.7173 -0.123826,0.30264 -0.408249,0.82119 -0.537356,1.0358 -0.251368,0.41783 -0.237008,0.47026 -0.247424,0.28512 -0.247953,0.33233 -0.496392,0.6643 -0.743858,0.99699 -0.08266,0.11114 0.316032,-0.45505 0.236364,-0.34175 -0.378117,0.53776 -0.06131,0.0138 -0.326284,0.49423 -0.0325,0.0427 -0.413421,0.77745 -0.376706,0.64002 0.03032,-0.1135 0.057,-0.24483 0.147003,-0.32034 0.104811,-0.0879 -0.07001,0.26455 -0.101556,0.39768 -0.186851,0.76714 -0.488486,1.53807 -0.886431,2.21924 0.01783,-0.0434 0.03683,-0.0864 0.05349,-0.13033 0.04613,-0.12156 0.09557,-0.24205 0.134868,-0.36599 0.03276,-0.10333 0.06821,-0.42256 0.08103,-0.31493 0.03325,0.2791 -0.09515,0.68735 -0.13575,0.97747 -0.03601,0.63529 -0.125859,1.26043 -0.271392,1.88025 -0.07816,0.21787 -0.0471,0.41712 -0.02934,0.64169 0.0061,0.0797 0.01257,0.15938 0.01818,0.23912 0.01504,0.21391 0.02594,0.38883 0.03446,0.60444 0.0044,0.11017 0.06345,0.42703 0.01,0.33062 -0.09167,-0.16527 -0.03414,-0.3768 -0.06553,-0.56315 0.07876,0.15816 0.09583,0.33886 0.165216,0.50015 0.0091,0.0212 0.0061,-0.0861 0.01868,-0.0667 0.05584,0.0863 0.06868,0.19531 0.121543,0.28351 0.0092,0.0154 0.03547,0.005 0.05321,0.008 0.05291,0.10923 0.105811,0.21846 0.158717,0.32769 0.831308,1.49046 -0.173244,-0.0402 0.280316,0.68724 0.0091,0.0146 8.2e-4,-0.065 0.01045,-0.0507 0.06703,0.0996 0.08522,0.23223 0.169348,0.31788 0.06274,0.0639 -0.06762,-0.16582 -0.101434,-0.24873 0.217566,0.24355 0.352599,0.50702 0.548352,0.77679 0.01441,0.0198 -0.0222,-0.0925 -0.0069,-0.0733 0.08476,0.10646 0.131102,0.24122 0.221552,0.34289 0.05009,0.0563 -0.06521,-0.13587 -0.09782,-0.20381 0.604572,0.84702 -0.124887,-0.2845 -0.107466,-0.283 0.301307,0.0258 0.482157,0.50926 0.298568,0.0962 0.119884,0.0465 -0.227932,-0.29273 -0.124877,-0.28403 0.163857,0.0138 0.310025,0.10977 0.465447,0.16347 0.09893,0.0342 0.196502,0.0731 0.297599,0.1002 0.04515,0.0121 0.09731,-0.004 0.139201,0.017 0.253325,0.12541 0.492119,0.27824 0.738178,0.41737 0.993914,0.8236 0.05959,-0.10963 0.09185,-0.11414 0.147744,-0.0206 0.284879,0.0892 0.429527,0.12567 0.250773,0.0632 0.246619,0.0526 0.470883,0.0575 0.872736,0.40337 1.555588,0.80017 2.26124,1.43281 0.07826,0.0702 0.269081,0.31348 0.229709,0.21602 -0.05393,-0.13349 -0.18433,-0.22122 -0.276498,-0.33184 0.394494,-0.16978 -0.799126,-0.35147 -0.589859,-0.5031 0.04665,-0.0338 0.752858,0.195 1.015142,0.16502 0.388586,-0.087 0.865212,0.20994 1.248662,0.32151 0.08521,0.0248 0.171614,0.0474 0.259575,0.0591 0.04908,0.007 0.101089,-0.0191 0.148478,-0.005 0.187638,0.0569 0.364842,0.14371 0.547262,0.21557 0.108958,0.039 0.215495,0.0856 0.326874,0.11712 0.0546,0.0154 0.112183,0.0283 0.168664,0.0229 0.02392,-0.002 0.03424,-0.053 0.05672,-0.0445 0.07817,0.0295 0.782251,0.46047 0.962724,0.45137 -0.0378,-0.0399 -0.167439,-0.1295 -0.113393,-0.11962 0.324387,0.0593 0.637781,0.41634 0.877134,0.076 0.36414,0.11806 0.744421,0.31676 1.141335,0.31513 0.08624,-2.7e-4 0.168643,-0.0823 0.251812,-0.0595 0.21926,0.0602 0.424569,0.16286 0.636855,0.24428 0.223057,-0.007 0.399727,0.24637 0.625454,0.26653 0.04161,0.004 -0.104738,-0.24358 -0.106093,-0.24369 -0.624644,-0.0462 -1.252262,-0.0331 -1.878393,-0.0497 0.103198,-0.99803 3.019496,0.56729 3.900085,0.30027 0.812789,-0.25399 -2.25248,-0.16506 -1.698337,-0.0482 0.870998,0.18373 1.778619,0.0947 2.663825,0.18856 0.329711,0.0349 0.591463,0.20405 0.928362,0.20861 1.490562,-0.37244 -2.774114,-0.11345 -1.05919,-0.11887 1.533453,-0.12285 2.427507,-0.0287 4.278415,0.51078 0.192556,0.0561 0.882222,0.70555 1.153692,0.95541 0.05032,-0.14328 0.03803,-0.0661 -0.189031,-0.2967 -0.05298,-0.0538 -0.534906,-0.479 -0.584812,-0.4843 -2.462715,-0.26183 -2.626225,-0.36498 -1.982853,-0.008 0.566491,-0.0188 1.115729,-0.22188 1.682628,-0.23865 0.774602,-0.0229 1.549749,-0.02 2.324627,-0.03 0.540411,0.0715 1.082172,0.0956 1.626237,0.0738 0.784135,-0.0378 0.337987,-0.0126 -1.469056,-0.0122 -0.08295,1e-5 0.165885,0.002 0.24883,0.002 0.08711,-4e-5 0.252711,-0.0886 0.261334,-0.002 -0.262361,0.13467 -0.275148,0.0383 -0.235924,0.17153 0.402564,-0.0817 0.778574,-0.25741 1.172753,-0.36754 0.277627,-0.0776 0.600726,-0.11059 0.883761,-0.17619 0.799261,-0.22011 3.825063,-0.68855 4.06472,-0.25566 0.383444,0.69261 -2.073379,-0.55127 -2.36791,0.18357 0.650055,-0.20389 1.258649,-0.53361 1.940716,-0.65169 0.02725,-0.005 -0.03353,0.044 -0.05029,0.066 0.0692,-0.0145 0.13839,-0.0291 0.207584,-0.0436 1.704401,-0.7182 3.578058,-0.91621 5.41297,-0.61801 0.496882,0.0912 0.98888,0.26339 1.484204,0.10608 -3.54407,0.0118 -0.989528,-0.0216 -0.166915,-0.0351 0.967944,-0.013 0.720003,-0.0111 2.514642,-0.003 0.177586,8e-4 0.70937,8e-4 0.532498,0.0166 -2.521836,0.22705 -1.713576,-0.2688 -2.610591,0.34547 0.511107,-0.15532 0.978525,-0.50174 1.522289,-0.57224 0.0651,-0.008 -0.119846,0.064 -0.158197,0.11732 -0.01249,0.0173 0.04131,0.0109 0.06197,0.0164 0.658707,-0.2007 1.01537,-0.32627 1.765197,-0.5686 -0.472065,0.45445 1.173707,-0.5546 1.130773,-0.31093 -0.02111,0.11985 -0.837991,0.46017 -0.442018,0.29225 0.238929,-0.14207 0.670258,-0.40613 0.901631,-0.50365 0.01805,-0.008 0.01998,0.0483 0.03905,0.0439 0.266706,-0.0621 0.4894,-0.24615 0.73882,-0.35918 0.216734,-0.0982 0.440098,-0.18109 0.660146,-0.27164 0.252844,0.0742 0.487765,-0.25268 0.737428,-0.19433 0.08903,0.0208 -0.158551,0.0951 -0.22235,0.16061 -0.01161,0.0119 0.03016,0.0141 0.04524,0.0212 -0.0572,0.05 -0.114401,0.10006 -0.171598,0.1501 0.525468,-0.33382 0.02487,-0.0444 0.03358,0.0717 0.006,0.0804 0.174096,-0.2314 0.187997,-0.15202 0.0173,0.0989 -0.271613,0.24655 -0.171225,0.24779 0.09629,10e-4 0.398351,-0.56378 0.101571,-0.0411 0.41983,-0.56348 0.88823,-1.15846 1.501926,-1.52195 0.02802,-0.0166 -0.02609,0.0597 -0.03915,0.0895 0.08983,-0.0745 0.179657,-0.14902 0.269483,-0.22352 -0.328705,0.50272 0.01289,-0.0472 0.115832,-0.0548 0.09732,-0.007 -0.227216,0.31452 -0.156196,0.2476 0.117586,-0.1108 0.188015,-0.264 0.2986,-0.38178 0.04812,-0.0513 -0.07683,0.11802 -0.109437,0.18031 -0.12433,0.23749 -0.240755,0.47903 -0.361132,0.71855 0.169323,-0.72376 0.539557,-1.35809 0.872704,-2.00595 0.263885,-0.56069 -0.123272,0.50125 -0.09948,0.4054 0.04144,-0.16693 0.100463,-0.329 0.153445,-0.49263 0.01828,-0.0565 0.04013,-0.11177 0.06034,-0.1676 0.0055,-0.0151 -0.01072,0.0302 -0.01606,0.0453 -0.19767,0.52142 0.224523,-0.81776 0.241284,-0.88406 0.0047,-0.0186 -0.02066,0.0351 -0.03812,0.0429 -0.02989,0.0135 -0.02503,-0.0615 -0.02873,-0.0941 0.149778,-0.85409 0.377947,-1.70492 0.732499,-2.49781 -0.08571,0.11488 -0.118374,0.82256 -0.192561,0.28942 -0.07686,-0.64358 -0.08666,-1.29194 -0.07929,-1.93919 -0.0437,0.22433 0.06169,0.43113 0.07632,0.64819 0.0016,0.0239 -0.02416,-0.0417 -0.03198,-0.0644 -0.380585,-1.10095 0.216093,0.57668 -0.239261,-0.88941 -0.0045,-0.0145 -0.01929,0.0236 -0.02895,0.0353 -0.03036,-0.0862 -0.06071,-0.17243 -0.09107,-0.25865 -0.03737,-0.14185 -0.06541,-0.2865 -0.112112,-0.42557 -0.01979,-0.0589 0.03992,0.12236 0.03093,0.18385 -0.0048,0.0332 -0.03247,-0.0589 -0.04462,-0.0902 -0.04626,-0.11912 -0.09282,-0.23836 -0.130405,-0.36049 -0.05769,-0.18744 -0.103473,-0.37833 -0.155213,-0.5675 0.0173,0.0718 0.08664,0.28068 0.05191,0.21547 -0.151784,-0.28498 -0.203745,-0.65077 -0.303282,-0.94855 -0.01413,-0.0423 0.05406,0.15002 0.01281,0.13312 -0.07458,-0.0306 -0.07077,-0.33026 -0.05998,-0.0301 -0.01132,0.0226 -0.408646,-0.74307 -0.423428,-0.69736 -0.05012,0.15495 0.145671,0.2944 0.183425,0.45282 0.0073,0.0306 -0.06384,-0.0174 -0.08517,-0.0405 -0.114332,-0.12378 -0.210936,-0.26284 -0.316404,-0.39426 -0.07522,0.17712 0.0066,0.004 -0.309084,-0.36646 -0.03328,-0.0391 0.111956,0.17144 0.07847,0.13253 -0.278255,-0.32328 -0.691211,-1.09032 -0.81542,-1.31676 -0.09684,-0.24307 -0.193677,-0.48615 -0.290515,-0.72922 -0.0024,0.0306 0.01098,0.11669 -0.0071,0.0919 -0.05895,-0.081 -0.0321,-0.31083 -0.124962,-0.27329 -0.07981,0.0323 0.378521,0.96247 -0.374317,-0.62484 0.02492,0.10548 0.108437,0.21343 0.07474,0.31643 -0.02045,0.0625 -0.08262,-0.1028 -0.12954,-0.14893 -0.03696,-0.0363 -0.08915,-0.0567 -0.121129,-0.0975 -0.277167,-0.35342 -0.456176,-0.64666 -0.702818,-1.04606 -0.172527,-0.47124 -0.437454,-0.95229 -0.543409,-1.45416 -0.02289,-0.10841 0.07644,0.20831 0.104968,0.31537 0.0066,0.0247 -0.02824,-0.043 -0.03861,-0.0664 -0.07037,-0.15871 -0.135604,-0.31964 -0.203406,-0.47946 0.727938,1.52563 0.54845,0.93316 0.09777,0.53159 -0.01492,-0.0133 -0.02837,0.0553 -0.04307,0.0417 -0.07186,-0.0662 -0.576927,-0.63662 -0.641583,-0.7168 0.09469,0.24655 0.01135,0.006 -0.274894,-0.30448 -0.03957,-0.0429 0.130019,0.19291 0.09045,0.14999 -0.122299,-0.13267 -0.214387,-0.29172 -0.34027,-0.42099 -0.05113,-0.0525 0.156937,0.24732 0.113604,0.18823 -0.217128,-0.29613 -0.423606,-0.59993 -0.63541,-0.89989 0.201882,0.5786 0.137713,0.25386 -0.12845,0.0667 -0.02286,-0.0161 0.02371,0.0751 -0.0029,0.0838 -0.04102,0.0134 -0.08451,-0.0218 -0.122139,-0.0429 -0.288131,-0.16171 -0.151953,-0.21219 -0.305007,-0.1292 -0.121856,-0.10291 -0.24371,-0.20582 -0.365566,-0.30873 -0.0296,-0.0143 -0.106003,-0.0707 -0.08879,-0.0428 0.04737,0.077 0.272677,0.21924 0.184676,0.19858 -0.132199,-0.031 -0.217778,-0.16296 -0.333761,-0.23358 -0.0086,-0.005 -5e-6,0.0202 -8e-6,0.0303 -0.222123,-0.18947 -0.444246,-0.37894 -0.666369,-0.56842 -0.400971,-0.31096 0.300191,0.22353 0.370853,0.4189 0.04758,0.13155 -0.243848,-0.13894 -0.3737,-0.19098 -0.149437,-0.0599 -0.121729,-0.0135 -0.122055,0.0762 -0.17735,-0.0984 -0.3547,-0.19676 -0.532053,-0.29514 -0.134726,-0.16073 -0.103854,0.10344 -0.160988,0.0836 -0.18737,-0.065 -0.353473,-0.17992 -0.530974,-0.26836 -0.1089,-0.0543 -0.366184,-0.24154 -0.344035,-0.12191 0.0085,0.0458 0.05786,0.0729 0.08679,0.10938 -0.214945,0.041 -0.429651,-0.24106 -0.65928,-0.21479 -0.03563,0.004 -0.02817,0.0986 -0.06232,0.0877 -0.595088,-0.19033 -1.149424,-0.53985 -1.720337,-0.79373 0.436925,0.34296 -0.918358,-0.64001 -0.767694,-0.38224 0.04718,0.0807 0.241771,0.13577 0.185463,0.21041 -0.06221,0.0824 -0.20311,-0.0386 -0.305636,-0.0511 -0.07386,-0.009 -0.148543,-0.009 -0.222817,-0.0136 -0.456707,0.13374 -0.875403,-0.1672 -1.313775,-0.26197 -0.09517,-0.0206 -0.314738,0.005 -0.415065,0.0134 -0.391059,-0.0544 -0.690409,-0.33873 -1.055394,-0.45525 -0.103777,-0.10737 -0.110641,0.10619 -0.172283,0.0875 -0.08671,-0.0263 -0.729147,-0.32675 -0.897954,-0.40509 -0.146968,-0.0248 -0.135175,-0.0553 -0.07717,0.0606 -0.379847,-0.25156 -0.758624,-0.50475 -1.139545,-0.75468 -0.17984,-0.11801 -0.4187,-0.3179 -0.303437,-0.0124 0.493117,0.63769 -0.898374,-0.59898 -0.354206,0.15107 -0.558234,-0.0959 -1.134525,-0.43519 -1.703033,-0.23852 -0.686459,0.22021 -0.208907,0.0531 1.649243,0.0333 0.06676,-7.9e-4 -0.133289,-0.009 -0.200043,-0.01 -0.274214,-0.003 -0.549074,0.0242 -0.822243,0.0438 -1.232879,0.10201 -2.471256,0.0401 -3.706413,0.0209 -0.08644,-2.6e-4 -0.172882,-7.9e-4 -0.259321,-0.001 -0.52987,-0.1428 1.489615,-7.6363 2.019485,-7.4935 v 0 c 0.09223,0.002 0.184452,0.004 0.276678,0.007 0.190637,0.003 0.329409,0.007 0.519173,0.006 0.07881,-2.7e-4 0.315206,-0.004 0.236397,-0.004 -3.107531,0.007 -1.963785,-0.0133 -1.284213,0.0255 1.292601,-0.005 2.595089,-0.29553 3.885753,-0.0515 0.424574,0.0696 0.837168,0.15855 1.255315,0.25868 0.289523,0.0693 0.382302,0.0902 0.369718,0.0579 -0.01916,-0.0491 -0.08992,-0.0549 -0.134881,-0.0823 0.502586,0.10259 0.970899,0.24612 1.45911,0.39917 0.08812,0.0276 0.175874,0.0593 0.267132,0.0734 0.03835,0.006 0.07909,-0.0275 0.115543,-0.0142 0.239737,0.0875 0.466201,0.20787 0.699302,0.3118 0.200475,0.12104 0.406159,0.23384 0.601424,0.36311 0.148757,0.0985 0.286914,0.21212 0.429464,0.3194 0.04803,0.0361 0.192752,0.14343 0.14224,0.11084 -0.26235,-0.16925 -0.572497,-0.28633 -0.778245,-0.52115 -0.186111,-0.2124 0.830826,0.40381 0.79449,0.29421 0.04165,0.002 0.09836,0.0396 0.124955,0.007 0.02278,-0.0275 -0.09016,-0.0983 -0.05497,-0.0921 0.181369,0.032 0.351316,0.11118 0.524108,0.17493 0.31192,0.11507 0.514858,0.25218 0.521329,0.15699 0.0029,-0.0419 -0.04849,-0.0686 -0.07274,-0.10297 0.281548,0.0701 0.555292,0.17181 0.839647,0.22951 0.03508,0.007 0.07073,-0.0111 0.106098,-0.0166 -0.01492,-0.0256 -0.07442,-0.0764 -0.04476,-0.0769 0.136388,-0.002 0.800767,0.13267 0.9359,0.15868 0.251902,0.0568 0.51267,0.0839 0.755182,0.17263 0.644626,0.23575 1.235673,0.58394 1.873507,0.82801 0.124851,0.0573 0.248052,0.11836 0.37456,0.1719 0.05837,0.0247 0.201461,0.12211 0.179535,0.0626 -0.02723,-0.0739 -0.278185,-0.14136 -0.201705,-0.12277 0.214686,0.0522 0.597482,0.2775 0.843841,0.26909 0.120351,0.0468 0.958464,0.44957 1.11783,0.43149 0.02527,-0.003 -0.04576,-0.0805 -0.0214,-0.0732 0.269319,0.0808 0.670747,0.29826 0.930518,0.4313 -0.02638,-0.0331 -0.119385,-0.11235 -0.07916,-0.0992 0.711576,0.23203 1.285631,0.72229 1.867577,1.1637 -0.142158,-0.12872 -0.338061,-0.21599 -0.426471,-0.38618 -0.05526,-0.10638 0.202912,0.13145 0.315508,0.17258 0.01701,0.006 -0.0045,-0.0617 0.01148,-0.0531 0.377515,0.20191 0.710308,0.51248 1.104852,0.67619 0.839541,0.65289 1.63871,1.35491 2.165853,2.29657 -0.139073,-0.18803 -0.338604,-0.34383 -0.417222,-0.5641 -0.0603,-0.16894 0.227634,0.27874 0.358979,0.40091 0.05115,0.0476 -0.168812,-0.22015 -0.115779,-0.17469 0.133236,0.11424 0.229579,0.26677 0.360066,0.38413 0.02495,0.0224 -0.02469,-0.0624 -0.03703,-0.0936 0.119774,0.12486 0.239549,0.24972 0.359326,0.37458 0.0942,-0.009 0.758928,0.79048 0.816059,0.86197 0.0032,0.004 -0.0096,-0.004 -0.01439,-0.006 0.236731,0.39473 0.473461,0.78946 0.710189,1.18419 -0.02058,-0.0538 -0.102195,-0.20231 -0.06174,-0.16133 0.205745,0.2084 0.363376,0.74183 0.457671,0.92444 0.04671,0.0904 0.143335,0.37768 0.128793,0.27692 -0.01569,-0.1087 -0.08825,-0.20113 -0.132371,-0.3017 -0.02807,-0.0518 -0.124004,-0.19865 -0.08421,-0.15527 0.557287,0.60756 1.00384,1.32369 1.350658,2.06724 -0.05023,-0.0944 -0.187732,-0.18281 -0.150701,-0.2831 0.03422,-0.0927 0.11648,0.1602 0.164137,0.24672 0.18002,0.32682 0.541224,0.98854 0.614357,1.39492 0.02096,0.11648 -0.100941,-0.21408 -0.151413,-0.32112 0.04993,0.10156 0.208449,0.40147 0.149796,0.30469 -0.12324,-0.20336 -0.227451,-0.41768 -0.343908,-0.625 -0.03107,-0.0553 -0.146711,-0.2041 -0.09859,-0.16276 0.131077,0.1126 0.234715,0.25367 0.352073,0.38051 -0.0056,-0.0256 -0.03682,-0.0939 -0.01691,-0.0768 0.125188,0.10713 0.228674,0.2373 0.343011,0.35595 0.208545,0.0373 0.125609,0.0117 0.396865,0.37652 0.395541,0.53199 0.722931,1.08542 1.013939,1.67651 0.325591,0.74846 0.509693,1.33936 0.740002,2.05714 -0.01169,-0.0434 -0.0391,-0.0855 -0.03509,-0.13024 0.0024,-0.0263 0.02941,0.0442 0.04064,0.0682 0.0545,0.11621 0.111315,0.23169 0.156374,0.35186 0.134114,0.35773 0.236513,0.68582 0.317873,1.05031 0.119565,0.52896 0.411165,1.32366 0.485431,2.18013 0.0079,0.49973 0.05363,0.99697 0.08625,1.49551 0.03867,1.04114 -0.02747,2.09247 -0.473861,3.05324 0.116552,-1.01053 0.113318,0.005 -0.04439,0.25071 -0.009,0.014 7.93e-4,-0.0334 0.0013,-0.05 -0.05974,0.49088 -0.06291,0.64978 -0.187929,1.13333 -0.04774,0.18463 -0.109169,0.3655 -0.169447,0.54643 -0.0071,0.0214 -0.03271,0.0821 -0.03243,0.0595 0.0011,-0.0846 0.05463,-0.33384 0.03484,-0.25154 -0.04354,0.1811 -0.07083,0.36572 -0.106254,0.54858 -0.06093,0.21634 -0.06491,0.46315 -0.197329,0.64476 -0.02567,0.0352 0.03361,-0.17049 0.02029,-0.12904 -0.163488,0.50852 -0.265292,1.03693 -0.572481,1.48755 0.02986,-0.0845 0.129643,-0.33382 0.08958,-0.25361 -0.06791,0.13596 -0.111671,0.2828 -0.173509,0.42164 -0.01863,0.0418 -0.05974,0.16468 -0.06756,0.11958 -0.01323,-0.0763 0.08362,-0.29633 0.04891,-0.22711 -0.06069,0.12107 -0.08554,0.25699 -0.12831,0.38548 -0.02373,0.047 -0.04746,0.094 -0.0712,0.14099 -0.167499,0.3789 -0.313639,0.76799 -0.502501,1.13672 -0.08188,0.15985 -0.195803,0.30171 -0.306645,0.44302 -0.03273,0.0417 0.103675,-0.18413 0.07088,-0.14245 -0.545296,0.69307 -0.225883,0.37522 -0.823524,1.0445 -0.314648,0.23094 -0.719511,0.7101 -1.073465,0.89423 -0.04029,0.021 0.015,-0.0896 0.02252,-0.13438 0.111168,-0.18805 0.222335,-0.3761 0.333505,-0.56415 -0.479272,0.73187 -1.03587,1.47959 -1.796743,1.93947 -0.517123,0.35256 -1.032616,0.69155 -1.624846,0.91232 -0.03579,0.0133 -0.07334,-0.0266 -0.111527,-0.0263 -0.184719,0.002 -0.418666,0.0976 -0.575726,0.14719 0.75437,-0.59065 -0.07959,-0.0127 -0.315698,0.0988 -0.07039,0.0332 -0.04573,-0.49636 -0.233172,0.0127 -0.419965,0.24682 -1.109345,0.65706 -1.46109,0.82238 -0.025,0.0118 -0.03482,-0.0458 -0.05999,-0.0572 -0.0356,-0.0162 -0.07618,-0.0255 -0.11516,-0.0224 -0.27782,0.0223 -0.59872,0.22286 -0.812033,0.32198 -0.251251,-0.1916 -0.820571,0.18985 -1.026829,0.24592 -0.05531,0.015 0.03804,-0.35041 -0.168736,-0.033 -0.177344,0.0717 -0.859263,0.35039 -0.951491,0.37048 -0.0862,0.0188 0.119059,-0.13873 0.140462,-0.22432 0.02627,-0.10507 -0.778325,-0.0977 -0.311465,0.0926 -1.431931,0.70273 -0.440624,0.30473 -3.396052,0.56773 -0.156019,0.0139 -0.626512,0.005 -0.469876,0.006 0.567582,0.002 1.135171,2.6e-4 1.702758,2.6e-4 0.07658,0 -0.153165,-1.8e-4 -0.229748,-2.7e-4 -1.288796,0.0253 -2.572549,0.17535 -3.864981,0.0637 -0.63577,-0.09 -1.280205,-0.20334 -1.923402,-0.18248 -0.727022,0.18148 -0.537313,0.12367 1.745459,-0.0331 0.244208,-0.0168 -1.056947,-0.23965 -0.691837,-0.0265 -0.3541,0.14599 -0.978443,0.41279 -1.312614,0.49972 -0.02784,0.007 -0.03365,-0.0496 -0.05919,-0.0628 -0.258258,-0.13388 -0.58201,0.0957 -0.781437,0.19493 -2.180823,0.92996 1.629016,-0.60697 -3.745957,0.56791 -0.5764,0.12599 1.180049,0.0219 1.769988,0.0126 0.538136,-0.008 -1.040445,-0.0836 -0.519925,-0.12403 -0.348596,0.0543 -0.836951,0.24021 -1.148474,0.26109 -0.0347,0.002 -0.0083,-0.0838 -0.0409,-0.096 -0.1559,-0.0583 -0.355568,0.1782 -0.484042,0.12269 -0.468963,0.17155 -0.803314,0.30769 -1.311656,0.41896 -0.184528,0.0404 -0.377624,0.0133 -0.56652,0.014 -2.177619,0.008 -1.509387,0.0328 -2.539326,-0.0117 -0.50501,-0.0299 -1.015346,-0.0979 -1.520179,-0.0445 0.597344,-0.0102 1.194993,-0.009 1.792036,-0.0307 0.04465,-0.002 -0.08667,-0.0222 -0.13077,-0.0294 -0.342178,-0.0556 -0.684784,0.0461 -1.017823,0.10987 -2.277205,0.46983 -4.050829,0.18888 -5.713431,-1.33781 -0.168841,-0.058 0.224938,0.31783 0.399068,0.35723 4.71524,1.06704 3.567494,0.26119 2.258118,0.41675 -1.478354,0.1593 -2.998462,0.23457 -4.437033,-0.19259 -0.198247,-0.0579 -0.391385,-0.14488 -0.596765,-0.16673 -0.01151,-10e-4 -0.014,0.0338 -0.0024,0.0346 0.741301,0.0525 2.723888,-0.42884 2.226093,0.12296 -0.522571,0.57927 -1.560415,0.0181 -2.340425,0.004 -0.148881,-0.003 -0.295563,-0.0365 -0.443346,-0.0548 -0.956162,-0.16649 -3.656095,-0.62898 0.529349,-0.20412 -2.3143,-0.0422 -2.116455,0.11157 -3.794297,-0.47607 -0.225679,-0.079 -0.210701,-0.12616 -0.200017,10e-4 0.05027,0.0429 0.216567,0.12238 0.150794,0.12865 -0.252267,0.024 -0.974937,-0.23594 -1.257057,-0.31053 -0.06641,-0.0176 -0.146447,-0.0875 -0.200951,-0.0457 -0.04243,0.0326 0.07721,0.074 0.115814,0.11102 -0.795433,-0.18376 -1.519685,-0.44463 -2.157535,-0.6948 -1.135795,-0.48837 0.107771,0.0396 -0.258968,0.009 -0.385464,-0.0326 -0.731798,-0.31218 -1.115899,-0.36401 -0.03382,0.10958 -0.567052,-0.136 -0.695656,-0.16269 -0.02679,-0.006 -0.102015,-0.0124 -0.08187,0.006 0.0579,0.0532 0.282181,0.0827 0.20855,0.11024 -0.111993,0.042 -0.236302,-0.0371 -0.354451,-0.0556 -0.117243,-0.0204 -0.435743,-0.0797 -0.571243,-0.0896 -0.05465,-0.004 -0.11028,-0.005 -0.164322,0.004 -0.03449,0.006 -0.06288,0.0471 -0.09707,0.0398 -0.822103,-0.17639 -0.889925,-0.27387 -1.662372,-0.65882 -0.243219,-0.18345 -0.481547,-0.37357 -0.729657,-0.55036 -0.04892,-0.0349 -0.114631,-0.12301 -0.159771,-0.0834 -0.04271,0.0375 0.146035,0.1491 0.08933,0.14522 -0.115521,-0.008 -0.201554,-0.11516 -0.308229,-0.16019 -0.02585,-0.0109 -0.104589,-0.0245 -0.08402,-0.005 0.08102,0.0752 0.184057,0.12238 0.276085,0.18356 -0.531056,-0.15849 -1.059245,-0.2895 -1.55162,-0.55249 -0.200001,-0.10682 -0.376062,-0.25495 -0.576193,-0.36154 -0.03347,-0.0178 0.0455,0.0607 0.06824,0.091 0.126188,0.0867 0.335112,0.1134 0.378563,0.26023 0.03179,0.10742 -0.215982,-0.0605 -0.325879,-0.0822 -0.06677,-0.0132 -0.134972,-0.0259 -0.202949,-0.0225 -0.03325,0.002 -0.06027,0.0455 -0.09258,0.0375 -0.579619,-0.14349 -0.807785,-0.29141 -1.341796,-0.55346 -0.542849,-0.36482 -1.080956,-0.67009 -1.54035,-1.16222 -0.499859,-0.53548 -0.228548,-0.41236 -0.478635,-0.51908 -0.431979,-0.57403 -0.642522,-0.85837 -0.989899,-1.29798 -0.400137,-0.6372 -0.795872,-1.27542 -1.084156,-1.97343 -0.251497,-0.55749 -0.436758,-1.13536 -0.639212,-1.711 -0.228761,-0.78205 -0.340783,-1.5683 -0.350642,-2.38156 -0.04132,-0.8274 -0.03586,-1.65916 0.141463,-2.47296 0.04604,-0.21503 0.0629,-0.30639 0.0736,-0.30288 0.02786,0.009 0.0094,0.11647 0.01135,0.0872 0.03081,-0.46011 0.01632,-0.92514 0.11651,-1.37927 0.02131,-0.10621 0.08985,-0.49285 0.143992,-0.6278 0.0047,-0.0118 0.03357,0.001 0.03641,-0.0115 0.147964,-0.64614 0.222034,-1.31202 0.584748,-1.88975 -0.0042,0.17482 -0.0017,0.18348 -0.146969,0.47452 -0.04963,0.0994 0.056,-0.21509 0.08446,-0.32252 0.03757,-0.14179 0.038,-0.16136 0.02866,-0.0834 0.03845,-0.18574 0.0769,-0.37148 0.115348,-0.55723 0.254998,-0.86242 0.611312,-1.67991 0.954129,-2.30221 0.327485,-0.5132 0.596977,-1.03128 0.972387,-1.51829 0.11369,-0.14749 0.409845,-0.5907 0.383358,-0.40637 -0.04033,0.28063 -0.286923,0.48909 -0.430385,0.73363 0.06998,-0.13452 0.137703,-0.27024 0.209928,-0.40357 0.009,-0.0167 0.03837,-0.0644 0.0336,-0.046 -0.02085,0.0803 -0.128743,0.30382 -0.08263,0.23483 0.166395,-0.24895 0.197823,-0.65956 0.367146,-0.8865 0.187417,-0.27391 0.0038,0.0147 0.247254,-0.58478 0.38805,-0.95564 0.85024,-1.70562 1.616348,-2.43567 0.260487,-0.15833 0.05831,-0.0506 -0.233725,0.35551 -0.101024,0.14049 -0.271198,0.63501 -0.184581,0.48521 0.137456,-0.23773 0.180311,-0.52305 0.34691,-0.74723 0.410319,-0.84091 0.891512,-1.7145 1.557667,-2.38842 0.0439,-0.0444 0.108659,-0.0616 0.162988,-0.0924 0.02971,0.005 0.07124,-0.009 0.08914,0.0148 0.02752,0.0373 -0.0018,0.17613 0.02299,0.13702 0.339625,-0.5355 0.492813,-1.17349 0.957247,-1.63888 0.147447,-0.16962 0.62813,-0.75806 0.822643,-0.86242 0.03485,-0.0187 -0.04422,0.14541 -0.01614,0.11756 1.476579,-1.46451 -0.267636,0.0806 0.683942,-0.74774 0.31327,-0.26318 0.572864,-0.5554 0.881127,-0.82587 0.753954,-0.66151 -0.440946,0.70977 0.535991,-0.42571 -0.0028,0.22227 -0.0137,-0.056 0.276999,-0.23531 0.04393,-0.0271 -0.0716,0.1879 -0.03589,0.15063 0.212762,-0.22211 0.386304,-0.47871 0.579457,-0.71807 -0.01458,0.0329 -0.07123,0.12188 -0.04375,0.0987 0.09242,-0.0781 0.163005,-0.17883 0.244507,-0.26825 -0.06653,0.38185 -0.02724,0.0528 0.455954,-0.50386 0.38073,-0.43859 0.861369,-0.8159 1.354182,-1.11746 0.189302,-0.11583 0.377857,-0.23288 0.566785,-0.34933 0.279133,-0.0409 0.545455,-0.1373 0.800611,-0.25898 0.177819,-0.0848 0.333272,-0.22977 0.526383,-0.26872 0.159242,-0.0321 -0.442552,0.35577 -0.313817,0.37286 0.205187,-0.14976 0.410374,-0.29953 0.615561,-0.44929 -0.147074,0.15128 -0.120893,0.11068 0.123362,-0.0452 0.157427,-0.10044 0.306904,-0.21471 0.472602,-0.30081 0.118364,-0.0615 0.323619,0.19639 0.382336,-0.11815 0.39597,-0.20143 0.772472,-0.32733 1.17783,-0.50409 0.268443,-0.11706 0.52584,-0.26209 0.803309,-0.35578 0.04204,-0.0142 -0.146936,0.15405 -0.0039,0.13306 0.295118,-0.13607 0.560496,-0.3647 0.881229,-0.41704 1.26093,-0.20579 2.317067,-0.27922 3.512129,-0.25617 -3.500599,-0.0136 -1.176766,0.0261 -0.378534,-0.0614 1.460249,-0.0815 2.950834,-0.16497 4.369313,0.24341 0.118195,0.0256 0.353457,0.0904 0.377664,0.0516 0.02106,-0.0338 -0.08772,-0.10843 -0.04795,-0.1093 0.600533,-0.0131 1.204749,0.27501 1.784265,0.38363 0.1724,0.0558 0.345723,0.10877 0.5172,0.16731 0.138001,0.0471 0.270338,0.11148 0.411086,0.14962 0.02254,0.006 0.09044,-0.0192 0.06711,-0.0201 -6.056696,-0.23348 0.304802,0.0353 0.478065,-0.0557 0.796107,0.20164 1.573141,0.44489 2.395183,0.51988 0.534029,0.0756 1.074017,0.0696 1.606282,0.1457 0.901367,0.1289 1.805358,0.32547 2.631356,0.71875 0.515138,0.22828 -2.713257,7.51346 -3.228396,7.28517 z"
       inkscape:connector-curvature="0"
       style="stroke-width:0.26458332" />
  </g>
</svg>
