<?xml version="1.0" encoding="UTF-8" standalone="no"?>
<!-- Created with Inkscape (http://www.inkscape.org/) -->

<svg
   xmlns:dc="http://purl.org/dc/elements/1.1/"
   xmlns:cc="http://creativecommons.org/ns#"
   xmlns:rdf="http://www.w3.org/1999/02/22-rdf-syntax-ns#"
   xmlns:svg="http://www.w3.org/2000/svg"
   xmlns="http://www.w3.org/2000/svg"
   xmlns:sodipodi="http://sodipodi.sourceforge.net/DTD/sodipodi-0.dtd"
   xmlns:inkscape="http://www.inkscape.org/namespaces/inkscape"
   width="100mm"
   height="100mm"
   viewBox="0 0 100 100"
   version="1.1"
   id="svg8"
   sodipodi:docname="f5.svg"
   inkscape:version="0.92.4 (unknown)">
  <defs
     id="defs2" />
  <sodipodi:namedview
     id="base"
     pagecolor="#ffffff"
     bordercolor="#666666"
     borderopacity="1.0"
     inkscape:pageopacity="0.0"
     inkscape:pageshadow="2"
     inkscape:zoom="0.98994949"
     inkscape:cx="496.2214"
     inkscape:cy="173.41925"
     inkscape:document-units="mm"
     inkscape:current-layer="layer1"
     showgrid="false"
     inkscape:window-width="1920"
     inkscape:window-height="1015"
     inkscape:window-x="0"
     inkscape:window-y="1080"
     inkscape:window-maximized="1" />
  <metadata
     id="metadata5">
    <rdf:RDF>
      <cc:Work
         rdf:about="">
        <dc:format>image/svg+xml</dc:format>
        <dc:type
           rdf:resource="http://purl.org/dc/dcmitype/StillImage" />
        <dc:title></dc:title>
      </cc:Work>
    </rdf:RDF>
  </metadata>
  <g
     inkscape:label="Layer 1"
     inkscape:groupmode="layer"
     id="layer1"
     transform="translate(0,-197)">
    <path
       id="path3833"
       d="m 45.012271,243.54891 c -1.245397,1.21549 -2.89347,1.75719 -4.51689,2.25908 -0.09031,-0.003 -0.182211,-0.0247 -0.270926,-0.008 -0.221183,0.0426 -0.432498,0.12615 -0.649956,0.18486 -0.01349,0.004 -0.05416,0.009 -0.0419,0.002 0.292383,-0.15988 0.577284,-0.33753 0.885835,-0.46342 0.129726,-0.0529 -0.22402,0.16907 -0.343548,0.24217 -0.159361,0.0975 -0.327858,0.17913 -0.491786,0.26869 -0.0057,-0.0113 -0.0049,-0.0376 -0.01707,-0.034 -0.232098,0.0692 -0.495908,0.27333 -0.715909,0.33127 -0.04196,0.0111 0.107283,-0.12686 0.06657,-0.11187 -0.203544,0.075 -0.373983,0.22247 -0.573709,0.30707 -0.09825,0.0518 -0.884537,0.47383 -0.924245,0.4546 -0.15376,-0.0745 0.277431,-0.20084 0.402836,-0.31685 0.06883,-0.0637 -0.154424,0.10639 -0.232103,0.1589 -0.37542,0.25378 0.125132,-0.0991 -0.554107,0.39053 -0.194389,0.12234 -0.388776,0.24467 -0.583162,0.36701 -0.04184,0.005 -0.08658,-0.001 -0.125535,0.0148 -0.117866,0.0486 -0.244239,0.26169 -0.339187,0.17664 -0.08888,-0.0796 0.352906,-0.312 0.24503,-0.26099 -0.180377,0.0853 -0.306244,0.25703 -0.471892,0.36826 -0.217985,0.14638 -0.451186,0.26872 -0.67678,0.40307 0.160742,-0.12039 0.315436,-0.24932 0.482229,-0.36118 0.109683,-0.0736 -0.20315,0.16917 -0.310533,0.24604 -0.17226,0.11539 -0.344517,0.23079 -0.516777,0.34619 -0.0285,0.002 -0.06047,-0.008 -0.08551,0.006 -1.678133,0.92365 0.742929,-0.29148 -1.180515,0.65167 -0.480772,-0.002 0.585491,-0.0155 -0.611725,0.20602 -0.08631,0.016 0.166076,-0.0819 0.211302,-0.15714 0.03019,-0.0502 -0.106223,0.0496 -0.160258,0.0722 -0.262827,0.11021 0.129034,-0.1176 -0.425144,0.26266 0.0026,-0.026 0.02913,-0.0929 0.0076,-0.078 -0.178409,0.12373 -0.325065,0.28868 -0.498906,0.41875 -0.02656,0.0199 -0.06809,0.008 -0.09598,0.0264 -0.486246,0.31327 -0.90415,0.73325 -1.469445,0.90821 -0.132115,0.052 -0.405776,0.29758 -0.396341,0.15593 0.01082,-0.16236 0.273714,-0.17649 0.404188,-0.27372 0.02582,-0.0192 -0.10296,0.0674 -0.08862,0.0386 0.04162,-0.0837 0.250979,-0.2751 0.177462,-0.2173 -0.714267,0.56155 -0.193527,0.29573 -0.503984,0.44732 -0.11969,0.105 -0.22805,0.22453 -0.359071,0.315 -0.02209,0.0153 0.03882,-0.0943 0.01693,-0.0788 -0.398894,0.28324 -0.627552,0.73286 -1.069406,0.97119 -0.644239,0.5271 -0.32258,0.20997 -0.134808,-0.0784 0.06962,-0.10693 0.23817,-0.45131 0.182626,-0.33643 -0.102759,0.21253 -0.209704,0.4232 -0.324355,0.62955 -0.05477,0.0986 -0.122249,0.18951 -0.183373,0.28427 -0.342955,0.48082 -0.719306,1.00002 -1.177821,1.38338 -0.106913,0.0894 0.181043,-0.21281 0.257804,-0.32912 0.05514,-0.0836 -0.107415,0.17791 -0.192661,0.23041 -0.05559,0.0342 0.0639,-0.11387 0.09585,-0.1708 -0.358788,0.4541 -0.78047,1.1018 -1.308713,1.42143 -0.114991,0.0696 0.186297,-0.19421 0.270901,-0.29864 0.04678,-0.0577 -0.08287,0.15475 -0.157108,0.15818 -0.05854,0.003 0.0556,-0.10319 0.0834,-0.15478 -0.231968,0.34685 -0.476042,0.68955 -0.753741,1.00236 -0.03016,0.034 0.09505,-0.1542 0.06624,-0.11908 -0.265123,0.32322 -0.09443,0.31204 -0.258399,0.31448 -0.01617,0.0668 -0.921444,1.30849 -0.102384,-0.0715 0.06364,-0.10723 -0.08053,0.23616 -0.127472,0.35168 -0.0933,0.22958 -0.187945,0.45861 -0.281917,0.68791 -0.372226,0.9044 -0.979435,1.61596 -1.628407,2.32552 0.03563,-0.0607 0.07434,-0.11976 0.106892,-0.1822 0.634158,-1.2162 -0.41361,0.74794 -0.614147,0.92797 -0.112561,0.15789 -0.225122,0.31578 -0.337683,0.47367 -0.02532,0.0215 -0.08465,0.0964 -0.07597,0.0644 0.02707,-0.0999 0.20298,-0.35766 0.134393,-0.28008 -0.09301,0.1052 -0.117566,0.25941 -0.209754,0.36533 -0.125681,0.1444 0.16203,-0.34739 0.228152,-0.52704 0.01424,-0.0419 0.04827,-0.16963 0.04271,-0.12572 -0.05634,0.44492 -0.178069,0.84644 -0.187357,1.2931 -0.05984,0.17533 -0.188966,1.33458 -0.359273,1.48567 -0.02758,0.0245 0.01803,-0.0715 0.02875,-0.10683 0.08447,0.40789 0.09248,0.84397 0.110561,1.26325 0.01488,0.43166 0.0066,0.86357 -0.0042,1.29519 -0.0023,0.0924 0.01112,0.36758 -0.0074,0.27706 -0.02999,-0.14691 -0.01849,-0.29932 -0.02773,-0.44897 0.0663,-0.22754 0.24741,0.74999 0.206886,0.58674 -0.04855,-0.19561 -0.220409,-0.64951 -0.198626,-0.93179 0.428758,0.46163 0.82256,0.9618 1.118602,1.52092 0.566651,1.07021 0.139534,0.37409 0.329009,0.68042 0.233779,0.48048 0.405255,0.9406 0.589073,1.44615 0.02287,0.0629 -0.111109,-0.15146 -0.05803,-0.19223 0.05094,-0.0391 0.05339,0.11685 0.08009,0.17528 -0.08812,-0.18302 -0.176233,-0.36603 -0.26435,-0.54905 0.02886,0.0308 0.109313,0.12815 0.08659,0.0925 -0.09224,-0.14459 -0.18103,-0.29358 -0.296023,-0.42082 -0.201893,-0.22339 -0.735118,-0.33763 -0.650622,-0.62664 0.07666,-0.26219 0.478335,0.26398 0.71871,0.39375 0.114201,0.0617 0.229982,0.12034 0.344973,0.1805 -0.637203,-0.56637 1.13849,1.01161 0.878469,0.68814 -0.07541,-0.0938 -0.316089,-0.15881 -0.250703,-0.25986 0.08421,-0.13013 0.54451,0.49449 0.164756,0.0127 0.265366,-0.0312 0.444488,0.33068 0.707408,0.35926 0.02118,0.002 -0.01738,-0.0701 0.003,-0.0638 0.104849,0.0323 0.494349,0.32712 0.652163,0.18628 0.09576,0.0565 1.261773,0.69947 1.381487,0.65362 0.02498,-0.01 -0.0029,-0.0534 -0.0044,-0.0801 0.260967,-0.45575 0.505717,0.55893 0.771427,0.43159 0.06508,-0.0312 -0.19286,-0.19045 -0.121589,-0.17913 0.04097,0.007 0.611812,0.3916 0.752017,0.28498 0.06567,0.0299 0.482822,0.24468 0.64584,0.25986 0.02556,0.002 0.04616,-0.0494 0.06809,-0.036 0.563472,0.3431 1.155731,0.77186 1.693092,1.17372 0.627002,0.25525 -0.503184,-0.42384 0.521425,0.24311 0.02339,0.0152 0.09557,0.05 0.07907,0.0275 -0.156818,-0.21378 -0.309279,-0.16309 -0.04107,-0.18788 0.08114,0.023 0.131757,-0.11314 0.207738,-0.10083 0.01643,0.003 1.055658,0.26801 1.153705,0.30784 0.294314,0.11956 0.575384,0.26944 0.863078,0.40416 0.229524,0.0335 1.36415,0.82288 1.49565,0.80112 0.03673,-0.006 -0.05319,-0.14308 -0.144563,-0.29258 0.350266,0.009 0.709896,0.064 1.059942,0.0133 0.07196,-0.0104 0.143042,-0.0653 0.213183,-0.0461 0.372711,0.10174 0.724934,0.26744 1.087403,0.40117 0.398584,0.0649 0.685612,0.40494 1.062567,0.5214 0.05542,0.0171 0.161607,-0.0644 0.19192,-0.10462 0.159814,-0.21203 -0.30689,-0.20486 0.505651,0.0903 0.08583,0.0157 0.170243,0.0476 0.257495,0.047 0.161721,-10e-4 0.354574,-0.16263 0.523248,-0.12489 0.69959,0.15656 1.040175,0.31879 1.664055,0.57232 0.213598,0.12426 0.468476,0.0946 0.693814,0.172 0.289044,0.0993 0.726757,0.40021 1.059741,0.23376 0.0037,-0.51767 1.655095,0.90865 1.886931,0.8695 0.05587,-0.009 -0.04495,-0.10439 -0.06032,-0.15893 -0.0114,-0.0405 -0.01304,-0.083 -0.01958,-0.12458 0.0072,-0.0329 -0.01169,-0.10232 0.02172,-0.0986 0.173146,0.0194 0.330009,0.11287 0.498583,0.15691 0.274646,0.0717 0.553339,0.0933 0.828979,0.0292 0.04005,-0.0121 0.07859,-0.0412 0.120148,-0.0363 0.659915,0.0772 1.292992,0.33327 1.961488,0.33972 0.377471,0.20238 0.761561,0.39287 1.132412,0.60713 0.238013,0.13751 0.78613,0.66677 0.649271,0.0189 -0.0071,-0.032 0.01154,-0.0952 -0.02119,-0.0959 -0.639583,-0.0137 -2.558044,0.0657 -1.918414,0.0544 0.861689,-0.0152 1.722808,-0.0705 2.584619,-0.0661 0.419854,0.002 0.886047,0.14457 1.302483,0.2132 -0.311663,0.12948 1.184489,-0.0413 0.840007,-0.0486 -0.564274,-0.0119 -1.128813,-10e-4 -1.693196,0.003 -0.09042,5.3e-4 0.180774,0.005 0.271161,0.007 1.23712,-0.0143 2.473754,-0.0375 3.711231,-0.0512 0.624298,-0.0203 1.248622,0.007 1.87262,0.0238 0.0842,0.002 0.336818,0.004 0.252601,0.005 -0.560459,0.004 -1.12408,-0.0533 -1.681417,0.006 -0.173424,0.0185 -0.319193,0.14135 -0.473289,0.22303 -0.01506,0.008 -0.04461,0.0466 -0.02805,0.0427 0.284401,-0.0675 0.543502,-0.21543 0.813793,-0.32673 0.411826,-0.11804 0.706958,-0.22191 1.134173,-0.26918 0.123751,-0.0137 0.249153,0.03 0.373081,0.018 0.215744,-0.0208 0.473424,-0.0717 0.68349,-0.10906 -1.239903,0.73515 -0.133911,0.0745 0.01286,0.0165 0.01947,-0.008 0.0021,0.0418 0.0033,0.0627 0.0775,-0.0409 0.157898,-0.0767 0.232511,-0.12268 0.232222,-0.14301 0.458224,-0.29589 0.687337,-0.44384 0.537843,-0.31937 1.08313,-0.39041 1.668656,-0.55466 0.618318,-0.17345 0.712838,-0.29367 0.484343,-0.0705 0.267219,0.0787 0.494808,-0.16976 0.743824,-0.17901 0.04558,-0.002 -0.112864,0.0772 -0.08124,0.11011 0.03576,0.0372 0.09985,-0.0259 0.149772,-0.0389 0.561221,-0.77588 -0.49299,0.51635 -0.374734,0.38262 0.459324,-0.51944 0.926486,-0.97392 1.459507,-1.42009 0.148786,0.27414 -0.01294,0.009 0.602414,-0.48148 0.06512,-0.0519 -0.243596,0.1782 -0.161276,0.19079 0.09002,0.0138 0.113479,-0.16077 0.201363,-0.18466 0.05575,-0.0152 -0.05505,0.10158 -0.08258,0.15237 0.08047,-0.0929 0.160941,-0.18586 0.241408,-0.27879 -0.84691,1.37932 0.857089,-1.35005 0.861473,-1.35713 0.290116,-0.35952 0.443368,-0.56331 0.800063,-0.91935 0.01852,-0.0185 -0.03926,0.095 -0.02212,0.0753 0.104905,-0.12106 0.396838,-0.58625 0.434083,-0.6399 0.05891,-0.0673 0.13113,-0.1263 0.172323,-0.2057 0.46041,-0.8874 0.575289,-1.08026 1.175412,-1.92051 0.317852,0.0694 0.27867,-0.39699 0.490585,-0.48815 0.0241,-0.0104 -0.04581,0.0924 -0.0273,0.0738 0.08367,-0.0841 0.123015,-0.21679 0.226751,-0.27438 0.06686,-0.0371 -0.143309,0.26994 -0.102381,0.20533 0.135848,-0.21445 0.258392,-0.43704 0.387588,-0.65556 0.296384,-0.69083 0.915572,-1.17229 1.27027,-1.76108 0.481386,-0.71512 0.946124,-1.43936 1.431824,-2.15265 0.05097,-0.0587 0.08353,-0.1411 0.152919,-0.17622 0.04012,-0.0203 -0.029,0.17686 -0.01532,0.13403 0.184592,-0.57784 0.09353,-0.32633 0.25468,-0.74482 -0.0092,0.0183 -0.03433,0.0743 -0.02763,0.0549 0.12577,-0.364 0.234529,-0.7348 0.385024,-1.08929 0.08205,-0.19327 0.208447,-0.36456 0.310172,-0.54823 0.01847,-0.0333 -0.06976,0.13546 -0.05444,0.10056 0.06136,-0.13981 0.123979,-0.27905 0.185965,-0.41858 0.08862,-0.0895 0.377296,-0.82899 0.21621,-0.55581 -0.240977,-1.07681 0.248526,-2.22134 0.761463,-3.14139 0.03282,-0.0449 0.06226,-0.17702 0.09846,-0.13477 0.04001,0.0467 -0.04653,0.11393 -0.06648,0.17211 -0.03855,0.11243 -0.07366,0.22602 -0.108958,0.33951 -0.08946,0.28765 -0.100523,0.43985 -0.160317,0.1242 -0.09712,-0.69222 -0.111027,-1.39163 -0.100086,-2.08934 0.323419,1.99721 -0.434531,-0.15962 -0.596892,-0.61297 -0.04936,-0.18063 -0.107701,-0.35905 -0.148082,-0.5419 -0.475012,-2.15089 0.100798,0.33483 -0.173868,-0.90603 -0.03281,-0.14823 -0.128633,-0.59312 -0.08734,-0.44702 0.07595,0.26874 0.127674,0.54374 0.191513,0.81561 -0.267052,-0.24768 0.04152,0.0595 -0.345242,-0.52433 -0.0081,-0.0122 -0.0099,0.0526 -0.0177,0.0402 -0.279308,-0.44586 -0.439997,-0.90685 -0.632611,-1.39393 -0.364263,-1.05424 -0.03015,-0.0652 -0.340902,-1.21277 -0.01561,-0.0576 -0.04768,-0.2331 -0.04447,-0.17349 0.02259,0.41883 0.167865,0.5282 -0.08426,0.23505 0.0074,0.0492 0.05657,0.18364 0.0223,0.14757 -0.134446,-0.14155 -0.209463,-0.3312 -0.337056,-0.47895 -0.08531,-0.0988 -0.240276,-0.11556 -0.33075,-0.20965 -0.847439,-0.88127 -0.07717,-0.17844 -0.440727,-0.50563 -0.358571,-0.45556 -0.630243,-0.99416 -1.021471,-1.42658 -0.02151,-0.0238 -0.06507,-0.0182 -0.08641,-0.0421 -0.08046,-0.0901 -0.153398,-0.39807 -0.213008,-0.29305 -0.0635,0.11189 0.125356,0.2247 0.188036,0.33705 -0.119173,-0.11672 -0.215212,-0.26313 -0.357518,-0.35016 -0.05016,-0.0307 0.105569,0.20076 0.05761,0.16674 -0.209233,-0.14842 -0.374701,-0.35047 -0.562687,-0.52502 -0.08009,-0.0744 -0.169484,-0.13954 -0.241525,-0.22173 -0.420709,-0.47996 -0.544822,-0.79587 -0.347369,-0.35824 -0.50769,-0.17134 0.108805,0.0644 -0.752705,-0.53121 -0.07093,-0.049 -0.172286,-0.038 -0.244046,-0.0858 -0.482248,-0.32132 -0.859774,-0.76272 -1.238269,-1.19132 -0.406199,-0.3385 0.111594,0.11129 -0.66489,-0.83147 -0.01021,-0.0124 -0.0429,0.0169 -0.03646,0.0316 0.04505,0.10299 0.16356,0.17589 0.176075,0.2876 0.0072,0.0646 -0.10456,-0.0773 -0.156842,-0.11597 0.09096,0.10598 0.181925,0.21197 0.272886,0.31795 0.167582,-1.1091 -0.576014,-0.30874 -0.831747,-0.50952 -0.26766,-0.21014 -0.508323,-0.45273 -0.755277,-0.68685 -0.04722,-0.0448 -0.419243,-0.57453 -0.60081,-0.41732 -0.105559,-0.0884 -0.211117,-0.1768 -0.316675,-0.2652 0.02006,0.0503 0.105656,0.1801 0.06015,0.15081 -0.222406,-0.14317 -0.409199,-0.33529 -0.611478,-0.50571 -0.09655,-0.0813 -0.160729,-0.22692 -0.284943,-0.24952 -0.08465,-0.0154 0.08811,0.14783 0.132162,0.22173 -0.205957,-0.17024 -0.411914,-0.34048 -0.617874,-0.51073 -0.09446,-0.0792 -0.286705,-0.29119 -0.454765,-0.29746 -0.02684,-10e-4 -0.02885,0.0728 -0.05287,0.0608 -0.141002,-0.0706 -0.240157,-0.21031 -0.382289,-0.27857 -0.02731,-0.0131 -0.0064,0.0603 -0.0096,0.0904 -0.195903,-0.12883 -0.391809,-0.25767 -0.587714,-0.3865 -0.277082,-0.106 -0.462714,-0.35903 -0.722971,-0.48913 -0.02837,-0.0142 -0.04773,0.0596 -0.07881,0.0533 -0.140261,-0.0283 -0.699236,-0.26775 -0.810176,-0.32123 -0.364887,0.14833 -0.02883,0.0439 -0.821917,-0.34577 -0.187053,-0.0919 -0.408247,-0.10014 -0.594501,-0.19366 -0.03915,-0.0197 -0.625567,-0.39333 -0.765934,-0.48259 0.176501,0.40422 -1.018138,-0.87086 -1.005414,-0.65536 0.0034,0.0582 0.152458,0.16029 0.09587,0.14627 -0.12677,-0.0314 -0.20937,-0.16544 -0.333772,-0.2052 -0.04167,-0.0133 0.03923,0.0782 0.05884,0.11731 0.488805,-0.1477 0.0016,0.30146 0.111294,0.31137 0.604968,0.0546 2.413233,0.18668 1.821625,0.0489 -0.975066,-0.22699 -1.999025,-0.15411 -2.986312,-0.32009 -0.05973,-0.01 -0.910003,-0.40491 -1.080559,-0.48352 -0.101452,-0.0932 -0.166605,0.0985 -0.250372,0.0747 -0.284062,-0.0808 -0.519864,-0.30237 -0.809477,-0.36025 -0.052,-0.0104 -0.03048,0.10284 -0.03193,0.15585 -0.159015,0.68766 -0.04365,0.07 1.851218,0.11172 0.06768,0.002 -0.135422,0.002 -0.203033,0.005 -0.362313,0.0184 -0.719897,0.0555 -1.07967,0.10139 -1.459282,0.11089 -2.928299,0.12588 -4.387434,0.003 -0.107937,10e-4 -0.215871,0.003 -0.32381,0.003 -0.204481,5.3e-4 -0.409004,-0.01 -0.613426,-0.005 -0.110284,0.003 -0.440704,0.0169 -0.330404,0.019 0.537247,0.01 1.074674,0.005 1.612014,0.005 0.111873,-1.2e-4 -0.223714,-0.004 -0.335569,-0.006 -0.279387,-0.0898 -1.448586,0.0931 -1.610656,2.6e-4 -0.05158,-0.0295 0.09532,-0.071 0.142981,-0.10655 -0.447972,0.0522 -0.889183,0.17176 -1.331063,0.2641 -0.187717,0.0392 -0.372026,0.13603 -0.562986,0.11844 -0.09716,-0.009 0.16874,-0.098 0.253111,-0.14699 -0.887868,0.34343 -1.784604,0.60947 -2.719964,0.78666 -0.824791,0.15864 -4.032274,0.74326 -4.237302,0.24891 -0.308841,-0.74465 1.61083,-0.0949 2.410314,-0.19834 0.06743,-0.009 0.102762,-0.0891 0.154144,-0.1336 -0.974821,0.4701 -1.988696,0.83451 -3.0343,1.10871 -0.235958,0.0328 -0.47004,0.0847 -0.707874,0.0985 -0.02768,0.002 -0.04222,-0.0359 -0.06334,-0.0539 -0.0729,-8e-4 -0.146669,-0.0136 -0.218694,-0.002 -0.23178,0.0363 -0.675545,0.18939 -0.898843,0.2144 -0.01968,0.002 0.0036,-0.0395 0.0055,-0.0592 -1.01142,0.46782 -2.066025,0.7977 -3.150248,1.04421 -0.201621,0.0315 -0.468977,0.2466 -0.604862,0.0944 -0.116072,-0.13004 0.304515,-0.1709 0.447294,-0.27089 0.03353,-0.0235 0.114869,-0.11055 0.07661,-0.096 -0.143444,0.0546 -0.266713,0.1523 -0.404138,0.22065 -0.498573,0.24798 -0.393774,0.20516 -0.764032,0.31567 -0.461745,0.27145 -0.992304,0.331 -1.481159,0.4963 -0.142949,0.0483 -0.277309,0.13046 -0.426828,0.15084 -0.03033,0.004 -0.0073,-0.0608 -0.01095,-0.0912 -0.287403,0.003 -0.492794,0.26459 -0.739574,0.37753 -0.03287,0.015 0.08403,-0.10635 0.04921,-0.0966 -0.2174,0.0607 -0.483195,0.43589 0.0071,-0.14371 0.05195,-0.0722 0.109569,-0.14055 0.155855,-0.21646 0.204875,-0.33603 0.258903,-0.45249 0.377757,-0.81991 0.06322,-0.19542 0.06854,-0.33287 0.0921,-0.32706 0.02843,0.007 0.01627,0.0563 0.0244,0.0844 0.0493,0.27945 0.07505,0.56215 0.10319,0.84425 0.05488,0.54779 -7.692089,1.3239 -7.746968,0.7761 v 0 c -0.04763,-0.31796 -0.09943,-0.6354 -0.132761,-0.95532 -0.112634,-1.55771 0.139122,-3.08787 1.210868,-4.29847 0.180338,-0.188 0.353294,-0.38337 0.541013,-0.564 0.184046,-0.1771 0.396535,-0.32326 0.608943,-0.46511 0.01958,-0.0131 0.04804,0.0241 0.06926,0.0139 0.19482,-0.0938 0.486848,-0.33617 0.64638,-0.45955 0.200887,-0.13491 0.39231,-0.28512 0.602662,-0.40474 0.29659,-0.16867 1.39663,-0.58451 1.657811,-0.65842 0.114112,-0.0323 0.235703,0.11389 0.353036,0.0441 0.137781,-0.0542 0.26915,-0.12901 0.413345,-0.16263 0.08399,-0.0196 0.143388,0.22772 0.257495,0.0254 0.467902,-0.22074 1.182431,-0.90162 1.690971,-0.74927 0.463531,0.0405 0.387519,-0.0478 0.848288,-0.12314 0.05096,-0.008 0.09928,0.0464 0.150217,0.0379 0.112252,-0.0187 0.795362,-0.30848 0.817854,-0.31772 0.272452,-0.12639 0.538604,-0.26736 0.817356,-0.37917 0.256347,-0.10283 0.53726,-0.13025 0.800698,-0.21325 0.577308,-0.18189 0.935493,-0.35725 1.55843,-0.44793 0.0745,-0.0109 0.145428,0.039 0.218144,0.0585 0.06026,0.0303 0.256905,0.1402 0.336071,0.1394 0.409022,-0.004 0.822619,-0.24057 1.21394,-0.33129 0.245832,-0.12283 0.467442,-0.31761 0.7375,-0.3685 0.83304,-0.15698 5.605769,-0.48185 1.319672,-0.34259 -0.484838,0.0157 1.157227,0.1645 0.740815,0.0727 0.274709,-0.048 0.545193,-0.12472 0.822778,-0.15139 0.314145,-0.0302 0.02941,0.11006 0.391551,0.0355 0.330645,-0.068 0.623536,-0.27571 0.953233,-0.34197 0.317045,-0.11528 0.624803,-0.2603 0.95113,-0.34583 0.04592,-0.012 0.08106,0.0541 0.127674,0.0631 0.06033,0.0116 0.123153,0.003 0.184277,-0.003 0.400728,-0.0405 0.785588,-0.17626 1.177428,-0.25938 0.254053,-0.0661 0.504047,-0.15054 0.762161,-0.19846 0.512255,-0.0951 1.067697,0.0956 1.583055,-0.016 1.358689,-0.0374 2.71779,-0.0132 4.075131,0.0443 0.686507,-0.0263 2.097773,-0.0684 -0.99405,-0.0323 -0.835242,0.01 1.787866,0.0812 0.953421,0.0277 1.510106,0.0508 3.062031,-0.40273 4.553151,0.0454 2.396114,0.69575 -1.165029,-0.35575 1.090581,0.36598 0.06806,0.0218 0.141131,0.0226 0.211698,0.0339 0.03231,-0.0127 0.06322,-0.0466 0.09692,-0.0382 0.389128,0.097 0.768688,0.28869 1.131144,0.45382 0.06584,0.0183 0.129725,0.0634 0.197514,0.0548 0.02961,-0.004 -0.0218,-0.0701 -0.05149,-0.0732 -0.787966,-0.0832 -2.975306,0.32897 -2.370024,-0.18235 0.774338,-0.65412 2.991088,0.1097 3.961741,0.48741 0.539462,0.27344 0.7795,0.31975 1.315445,0.64953 0.24601,0.15137 0.457975,0.35952 0.718225,0.48484 0.03316,0.016 -0.04853,-0.0554 -0.07279,-0.083 0.09105,0.0317 0.179025,0.0742 0.273143,0.0951 0.04752,0.0106 0.100301,-0.0187 0.14601,-0.002 0.610613,0.22344 0.971706,0.52075 1.549276,0.7018 0.848174,0.31638 1.569519,0.8382 2.334633,1.30785 0.236397,-0.11239 -0.01524,-0.002 0.610129,0.35806 0.05113,0.0294 0.116491,0.0291 0.166261,0.0608 0.403048,0.25667 0.737116,0.57833 1.123469,0.85216 -0.04224,-0.0484 -0.180115,-0.18074 -0.126709,-0.14509 0.232275,0.15507 0.44133,0.34255 0.667628,0.50622 0.05789,0.0419 0.11402,0.12378 0.184068,0.10977 0.05149,-0.0103 -0.06092,-0.0855 -0.09138,-0.12831 0.218263,0.15437 0.436526,0.30874 0.654788,0.46312 0.07641,0.0513 0.159608,0.0917 0.239411,0.1376 1.137423,0.96743 0.08091,0.0371 0.94224,0.87026 0.04348,0.0421 0.179943,0.15996 0.14233,0.11259 -0.07094,-0.0893 -0.354518,-0.26753 -0.243727,-0.2403 0.137891,0.0339 0.695249,0.55174 0.187487,0.0932 0.348456,0.23636 0.730964,0.42787 1.048713,0.70415 1.420542,1.23512 0.03899,0.076 1.052989,1.11506 0.05909,0.0606 -0.20896,-0.25466 -0.133869,-0.21566 0.147312,0.0765 0.244605,0.22444 0.366906,0.33667 -0.13152,-0.3252 -0.10169,-0.1773 0.42446,0.199 0.50972,0.36454 0.942586,0.80934 1.379699,1.25548 0.169476,0.18065 0.338952,0.3613 0.508429,0.54195 -0.01881,-0.0427 -0.100547,-0.14345 -0.0564,-0.12823 0.09541,0.0329 0.146971,0.14191 0.235683,0.19002 0.03268,0.0177 -0.08865,-0.1173 -0.05936,-0.0944 0.877284,0.68549 0.332438,0.36595 0.724403,0.5885 0.318365,0.3341 0.664524,0.6438 0.954817,1.00257 0.150874,0.18645 0.293222,0.3799 0.430178,0.57681 0.123206,0.17714 0.187421,0.39609 0.333772,0.55464 0.03371,0.0365 -0.03963,-0.0912 -0.05944,-0.13676 0.704675,0.71623 1.345059,1.47402 1.880229,2.32863 0.357291,0.67041 0.609521,1.38017 0.821352,2.10768 0.0066,0.0226 -0.009,-0.0539 -0.02474,-0.0661 0.130548,0.28584 0.429615,0.74054 0.716113,1.30429 0.143796,0.41373 0.291132,0.82624 0.431388,1.24119 0.07108,0.2103 0.115736,0.48306 0.181255,0.68126 0.0041,0.0123 -0.03445,-0.19219 0.02572,-0.0292 0.437107,0.96468 0.801983,1.94881 0.895112,3.01756 0.02595,0.52028 0.150473,1.03046 0.178921,1.55097 0.06246,1.25905 -0.06804,2.54722 -0.737621,3.64834 0.04173,-0.19643 0.110948,-0.38758 0.136591,-0.58675 0.02828,-0.21969 -0.02721,-0.45065 0.03351,-0.66366 0.0425,-0.14906 0.02019,0.30944 0.02328,0.46441 0.01077,0.53934 -0.0066,0.57029 -0.05187,1.12816 -0.14973,0.83839 -0.363812,1.6503 -0.656158,2.44983 -0.213651,0.47192 -0.35211,0.94183 -0.644435,1.37614 -0.0181,0.0269 -0.0043,-0.0653 0.0016,-0.0972 0.03894,-0.20651 0.172977,-0.41001 0.132829,-0.61629 -0.03759,-0.19315 -0.09415,0.38212 -0.141221,0.57317 -0.219443,0.87408 -0.447374,1.75231 -0.903817,2.54032 -0.510323,0.77189 -0.933527,1.60175 -1.53443,2.30939 -0.437674,0.54423 -0.205761,0.23698 -0.682625,0.93149 -0.0097,0.0125 -0.03692,-0.0116 -0.04754,1.8e-4 -0.09264,0.1026 -0.15058,0.23506 -0.25082,0.33025 -0.02085,0.0198 -0.06747,-0.0331 -0.0856,-0.0108 -0.115539,0.14222 -0.191114,0.31269 -0.286671,0.46903 0.008,-0.0494 0.04977,-0.19111 0.02389,-0.14826 -0.43719,0.72392 -0.481888,0.98597 -1.01591,1.65087 -0.28611,0.35622 -0.256323,0.32552 -0.496022,0.46696 0.334346,-0.89029 0.06461,-0.0984 -0.06365,-0.0446 -0.08555,0.0359 0.108193,-0.35324 0.06698,-0.27013 -0.259291,0.52284 -0.418592,1.10039 -0.760293,1.58576 -0.410819,0.56931 -0.77719,1.16783 -1.260218,1.6838 -0.03932,0.042 0.123864,-0.17795 0.07,-0.15775 -0.07736,0.029 -0.10547,0.12722 -0.158205,0.19084 0.01032,-0.40101 0.02461,-0.0972 -0.344805,0.48583 -0.09762,0.15405 -0.216045,0.29394 -0.32789,0.43799 -0.05518,0.0711 -0.09875,0.25796 -0.17304,0.20719 -0.07768,-0.0531 0.135184,-0.34698 0.08023,-0.27061 -0.185496,0.25778 -0.318931,0.54929 -0.478395,0.82393 -0.259414,0.26051 0.200226,-0.2074 -0.472311,0.6149 -0.228864,0.27984 -0.486082,0.53953 -0.768376,0.76535 -0.06645,0.0532 0.08532,-0.14724 0.127984,-0.22086 -0.126521,0.13897 -0.25304,0.27794 -0.379561,0.41692 -0.311404,0.18832 -0.107479,0.11117 -0.512474,0.44454 -0.02704,0.0222 -0.07994,-0.0168 -0.104777,0.008 -2.106578,2.09425 1.332918,-1.03728 -1.324163,1.33309 -0.290896,0.18528 -0.760828,0.49184 -1.035775,0.62231 -0.102,0.0484 -0.219922,0.052 -0.327747,0.0854 -0.387075,0.12016 -0.765773,0.24884 -1.154174,0.36378 -0.199329,0.0607 -0.390988,0.15825 -0.597987,0.18198 -0.04562,0.005 0.194619,-0.38397 -0.148678,-0.12321 -0.115779,0.0387 -0.236056,0.19196 -0.341952,0.13121 -0.08431,-0.0484 0.132553,-0.14222 0.198831,-0.21332 0.04935,-0.0712 0.23091,-0.18831 0.148051,-0.21357 -0.09835,-0.03 -0.165759,0.1217 -0.248307,0.18301 -0.179204,0.13309 -0.347871,0.28152 -0.536948,0.40016 -0.07057,0.0443 -0.159932,0.0488 -0.235249,0.0844 -0.504885,0.23869 -0.956606,0.58313 -1.483256,0.77903 -0.519071,0.0641 -1.008171,0.28885 -1.526337,0.34874 -0.06614,0.008 -0.23763,-0.0835 -0.297693,-0.11245 -0.02122,-0.031 -0.0263,-0.0888 -0.06363,-0.0931 -0.286075,-0.0324 -1.333476,0.53546 -1.590561,0.56259 -0.725683,0.0766 -1.459421,0.003 -2.189123,0.007 -0.09175,5.3e-4 -0.183483,0.003 -0.275225,0.005 -0.624088,0.012 -1.248801,0.0258 -1.872604,-0.005 3.406074,-0.0541 1.161338,-0.0546 0.385016,0.0209 -1.436587,0.10814 -2.8531,0.0802 -4.269271,-0.1462 -0.160213,-0.0119 -0.353235,-0.0336 -0.516912,-0.0209 -0.04688,0.004 -0.185332,0.029 -0.138329,0.0277 0.643287,-0.0181 2.571978,-0.10604 1.929043,-0.0781 -0.841142,0.0366 -1.681734,0.10305 -2.52367,0.10394 -0.224981,2.4e-4 -0.444937,-0.067 -0.667406,-0.10056 -0.708846,-0.18751 -1.357659,-0.39782 -1.993437,-0.77374 -0.170802,-0.10099 -0.323866,-0.23006 -0.494197,-0.33185 -0.01725,-0.0103 0.01873,0.0356 0.0281,0.0533 0.215723,0.1272 0.431443,0.2544 0.647166,0.3816 -0.228518,-0.0396 -1.096399,-0.26071 -1.301115,-0.20555 -0.0195,0.005 0.05368,0.0501 0.0335,0.0504 -0.145042,0.002 -0.288669,-0.0291 -0.433002,-0.0436 -0.468204,-0.0691 -0.412734,-0.0553 -0.871275,-0.14503 -0.222703,-0.0436 -0.440719,-0.13105 -0.667639,-0.13315 -0.03387,-2.7e-4 -0.05403,0.0571 -0.08747,0.0517 -0.223576,-0.0361 -0.43819,-0.11467 -0.657286,-0.172 -0.221835,-0.088 -0.450183,-0.16115 -0.665498,-0.26411 -0.218697,-0.10457 -0.420871,-0.24073 -0.633559,-0.35704 -0.06929,-0.0379 -0.133281,-0.10901 -0.212182,-0.10545 -0.05353,0.002 0.0715,0.0822 0.11747,0.10971 0.193743,0.11604 0.612417,0.0933 0.597857,0.3187 -0.01333,0.20627 -0.40799,-0.0667 -0.611986,-0.10001 -0.973974,-0.23026 -1.924085,-0.53851 -2.864393,-0.87528 -0.192219,0.0169 -0.133162,-0.006 0.138465,0.13087 -0.35782,0.0885 -1.396013,-0.30982 -1.808422,-0.36063 -0.290243,0.15431 -1.112856,-0.24571 -1.387358,-0.36492 -0.190723,-0.0828 -0.36961,-0.19099 -0.558869,-0.27711 -0.06779,-0.0308 -0.136615,-0.0732 -0.211093,-0.0732 -0.03009,0 0.03513,0.0489 0.0527,0.0733 0.15856,0.0792 0.500277,0.062 0.475681,0.23753 -0.02334,0.16653 -0.334721,-0.0327 -0.502068,-0.0492 -0.634047,-0.0626 -1.2676,-0.1421 -1.881785,-0.31945 -0.252098,-0.0906 -0.51076,-0.16456 -0.756293,-0.27164 -0.622522,-0.27147 -1.195536,-0.65793 -1.841913,-0.87786 0.06244,0.0404 0.260686,0.10899 0.187325,0.12112 -0.12542,0.0207 -0.246292,-0.0633 -0.370377,-0.0909 -0.08701,-0.0194 -0.175122,-0.0333 -0.262683,-0.05 -0.03472,0.005 -0.06987,0.0217 -0.104151,0.0144 -0.38395,-0.0819 -0.635346,-0.18973 -0.998958,-0.3249 -0.859576,-0.38685 -1.702644,-0.80567 -2.440957,-1.39143 -0.107747,-0.0775 -0.430645,-0.31042 -0.32418,-0.23118 0.176379,0.13129 0.458906,0.1823 0.532317,0.38956 0.0485,0.13694 -0.812902,-0.4282 -0.830444,-0.31132 -0.229298,-0.0996 -0.447052,-0.2372 -0.691159,-0.2911 -0.01434,-0.003 0.006,0.0496 -0.0073,0.0435 -0.213836,-0.0976 -0.412166,-0.2263 -0.622665,-0.33086 -0.05404,-0.0268 -0.122874,-0.10071 -0.169775,-0.0628 -0.04038,0.0327 0.07003,0.0768 0.105046,0.11514 -0.02519,-0.0118 -1.360823,-0.64639 -1.391456,-0.61788 -0.03433,0.0319 0.05895,0.073 0.08843,0.10944 -0.09042,-0.0389 -1.472203,-0.66172 -1.511422,-0.66243 -0.04144,-8e-4 0.0559,0.0612 0.08385,0.0918 -0.650638,-0.3476 -0.691148,-0.28987 -1.346339,-0.74009 -0.151236,-0.10393 -0.288522,-0.22694 -0.436711,-0.33516 -0.05532,-0.0404 -0.136457,-0.16809 -0.173366,-0.11038 -0.03851,0.0602 0.09346,0.10817 0.140191,0.16225 -0.06504,-0.034 -0.229036,-0.16716 -0.195116,-0.10207 0.0408,0.0783 0.291827,0.19885 0.21931,0.1485 -0.36668,-0.25462 -0.758008,-0.47655 -1.101816,-0.76131 -0.529441,-0.4385 -0.853061,-1.01323 -1.19455,-1.593 -0.239941,-0.42899 0.11237,0.21315 -0.328727,-0.70912 -0.01632,-0.0341 0.06132,0.12961 0.02917,0.10967 -0.04766,-0.0296 -0.06055,-0.0947 -0.08573,-0.14476 -0.07629,-0.15179 -0.144106,-0.30772 -0.218456,-0.46047 -0.01453,-0.0299 0.02596,0.0611 0.03895,0.0917 -0.16119,-0.28866 -0.152135,-0.33874 -0.2944,-0.46053 -0.01874,-0.016 0.0412,0.0863 0.02208,0.0707 -0.114272,-0.0931 -0.179192,-0.23801 -0.306142,-0.31921 -0.252108,-0.31867 -0.611674,-0.73797 -0.787986,-1.10752 -0.3383,-0.70909 -0.529155,-1.35346 -0.663986,-2.10653 -0.08381,-0.68048 -0.125315,-1.34249 -0.112172,-2.02673 -0.02999,-0.66098 -0.08894,-1.32233 -0.05025,-1.98438 0.04809,-0.52247 0.112283,-1.03631 0.253819,-1.54303 0.0012,-0.004 6.35e-4,0.009 9.53e-4,0.0133 -0.0044,0.0438 -0.0087,0.0876 -0.01312,0.13134 0.06412,-0.7643 0.238319,-1.47722 0.33914,-2.20472 0.206004,-0.74035 0.553446,-1.79476 1.054109,-2.37899 0.0194,-0.0226 -0.01216,0.0584 -0.01824,0.0876 0.08586,-0.13656 0.171716,-0.27311 0.257575,-0.40966 0.02541,-0.0162 0.05625,-0.026 0.07624,-0.0485 0.04427,-0.0499 0.07388,-0.21885 0.113194,-0.16497 0.04733,0.0649 -0.102505,0.30271 -0.06417,0.23216 0.864073,-1.58991 -0.02565,-0.26103 0.867092,-1.5172 -0.03166,0.20604 -0.0089,-0.008 0.232317,-0.25499 0.01552,-0.0159 0.05099,0.0159 0.0667,1.1e-4 0.09813,-0.0983 0.137203,-0.25963 0.259038,-0.32625 0.05259,-0.0288 -0.02782,0.13244 0.0092,0.17958 0.02272,0.0289 0.03882,-0.0625 0.05824,-0.0937 -0.02796,0.10222 -0.131315,0.40142 -0.08388,0.30666 0.06053,-0.12091 0.07898,-0.25872 0.123748,-0.3863 0.17047,-0.48578 0.358218,-0.99061 0.65066,-1.42008 0.01927,-0.0283 -0.025,0.0637 -0.0375,0.0956 0.23608,-0.4358 0.487309,-0.8484 0.781214,-1.25112 0.009,-0.0123 0.03567,0.0122 0.04556,7.9e-4 0.370548,-0.43152 0.120336,-0.35027 0.380646,-0.41348 0.38267,-0.56352 0.735083,-1.00788 1.246498,-1.47828 0.04364,-0.0401 -0.138265,0.14545 -0.08046,0.15863 0.163469,0.0373 0.600948,-0.93796 -0.09055,0.35551 0.307882,-0.47341 0.570405,-0.83377 0.964198,-1.25907 0.08362,-0.0903 -0.146799,0.19807 -0.21006,0.30365 -0.0099,0.0164 0.338783,-0.46984 0.04141,0.0399 0.04922,-0.0797 0.08,-0.17438 0.147661,-0.2392 0.0206,-0.0197 -1.78e-4,0.10936 0.01381,0.0845 0.165699,-0.29468 0.271892,-0.62155 0.449817,-0.90901 0.237502,-0.38372 0.69843,-1.00598 1.124282,-1.2554 0.129901,-0.11173 0.244317,-0.24452 0.389701,-0.33519 0.0233,-0.0145 0.04227,0.0351 0.0634,0.0526 0.07919,-0.0506 0.158376,-0.10111 0.237563,-0.15167 0.0033,0.005 0.0056,0.0208 0.01,0.0162 0.415702,-0.44256 0.183956,-0.34464 0.426562,-0.43452 0.116771,-0.1183 0.233542,-0.23661 0.350313,-0.35491 0.02252,0.006 0.05018,0.034 0.06756,0.0184 0.214437,-0.19234 0.388221,-0.427 0.60256,-0.61945 0.278816,-0.25035 1.153458,-0.86958 1.379469,-0.82534 0.0866,-0.0338 0.297315,-0.18647 0.2598,-0.10142 -0.07498,0.17 -0.267574,0.25841 -0.390489,0.39774 -0.0066,0.008 0.01732,0.0225 0.02519,0.0163 0.115038,-0.0904 0.203758,-0.21384 0.326842,-0.29292 0.02553,-0.0164 -0.0077,0.0602 -0.01151,0.0903 0.156101,-0.15617 0.312203,-0.31233 0.468307,-0.4685 0.657563,-0.43135 1.244584,-0.92381 1.960988,-1.2708 0.03018,-0.0146 0.06454,0.0409 0.09613,0.0296 0.144391,-0.0514 0.272868,-0.13961 0.409303,-0.20941 -0.08537,0.39887 0.314695,-0.0524 0.474109,-0.12946 0.0249,-0.012 0.02492,0.0636 0.05258,0.0642 0.420666,0.009 0.712573,-1.03003 1.060598,-0.68449 -0.08468,0.0863 -0.175376,0.16708 -0.254029,0.25891 -0.04428,0.0517 -0.168606,0.20952 -0.113271,0.16989 0.200467,-0.14357 0.364874,-0.33217 0.556511,-0.48732 0.02447,-0.0198 0.06143,-0.0175 0.08795,-0.0345 0.123523,-0.0791 0.227523,-0.19025 0.360333,-0.25247 0.02585,-0.0121 -0.0026,0.057 -0.0039,0.0855 0.503526,-0.21612 1.300403,-0.88271 1.730697,-1.14415 0.05259,-0.032 -0.02895,0.41523 0.181417,0.0342 0.122278,-0.0627 0.237985,-0.14036 0.366835,-0.18813 0.02257,-0.008 0.04577,0.0389 0.06687,0.0273 0.183721,-0.10099 0.339034,-0.24846 0.521914,-0.35097 0.03206,-0.018 0.07555,0.009 0.110223,-0.003 0.153903,-0.0541 0.828024,-0.42016 0.846772,-0.43005 0.420759,0.4306 0.41496,-0.049 1.301068,-0.46335 0.103552,-0.0484 0.919967,-0.0304 -0.301882,0.1466 -0.05447,0.008 0.0778,-0.0779 0.116703,-0.11681 0.842703,-0.50416 1.885232,-1.22944 3.003243,-1.27974 0.421473,-0.37008 5.655077,5.59046 5.233603,5.96053 z"
       inkscape:connector-curvature="0"
       style="stroke-width:0.26458332" />
  </g>
</svg>
