<?xml version="1.0" encoding="UTF-8" standalone="no"?>
<!-- Created with Inkscape (http://www.inkscape.org/) -->

<svg
   xmlns:dc="http://purl.org/dc/elements/1.1/"
   xmlns:cc="http://creativecommons.org/ns#"
   xmlns:rdf="http://www.w3.org/1999/02/22-rdf-syntax-ns#"
   xmlns:svg="http://www.w3.org/2000/svg"
   xmlns="http://www.w3.org/2000/svg"
   xmlns:sodipodi="http://sodipodi.sourceforge.net/DTD/sodipodi-0.dtd"
   xmlns:inkscape="http://www.inkscape.org/namespaces/inkscape"
   width="100mm"
   height="100mm"
   viewBox="0 0 100 100"
   version="1.1"
   id="svg8"
   sodipodi:docname="f6.svg"
   inkscape:version="0.92.4 (unknown)">
  <defs
     id="defs2" />
  <sodipodi:namedview
     id="base"
     pagecolor="#ffffff"
     bordercolor="#666666"
     borderopacity="1.0"
     inkscape:pageopacity="0.0"
     inkscape:pageshadow="2"
     inkscape:zoom="0.98994949"
     inkscape:cx="496.2214"
     inkscape:cy="173.41925"
     inkscape:document-units="mm"
     inkscape:current-layer="layer1"
     showgrid="false"
     inkscape:window-width="1920"
     inkscape:window-height="1015"
     inkscape:window-x="0"
     inkscape:window-y="1080"
     inkscape:window-maximized="1" />
  <metadata
     id="metadata5">
    <rdf:RDF>
      <cc:Work
         rdf:about="">
        <dc:format>image/svg+xml</dc:format>
        <dc:type
           rdf:resource="http://purl.org/dc/dcmitype/StillImage" />
        <dc:title></dc:title>
      </cc:Work>
    </rdf:RDF>
  </metadata>
  <g
     inkscape:label="Layer 1"
     inkscape:groupmode="layer"
     id="layer1"
     transform="translate(0,-197)">
    <path
       id="path3856"
       d="m 43.537359,212.50296 c -1.051555,1.33631 -2.554383,2.13059 -4.020317,2.92332 -0.806255,0.16662 -1.303224,0.73455 -2.015083,1.05329 -0.418325,0.22418 -0.792046,0.44297 -1.242483,0.60466 -0.08505,0.0305 -0.182055,0.0125 -0.268087,0.0402 -0.17836,0.0573 -0.335121,0.1833 -0.520094,0.21295 0.180658,-0.18387 0.220364,-0.17298 0.02919,-0.12001 -0.689737,0.46974 -1.377828,0.94203 -2.063777,1.41749 -0.20837,0.12171 -0.404791,0.26669 -0.625115,0.36512 -0.02704,0.0121 0.03354,-0.10022 0.0063,-0.0886 -0.137451,0.0584 -0.239773,0.18173 -0.374936,0.24525 -0.01886,0.009 -0.0088,-0.0633 -0.02828,-0.0558 -0.141708,0.0548 -0.253423,0.16765 -0.381182,0.24986 -0.4748,0.32736 -0.499134,0.40696 -1.090174,0.99593 -0.01651,-0.001 -0.03737,-0.0156 -0.04949,-0.004 -0.212863,0.19815 -0.399802,0.42301 -0.612894,0.62092 -0.06192,0.0575 -0.134266,0.18139 -0.20945,0.14282 -0.06826,-0.035 0.100431,-0.11608 0.153376,-0.17159 0.01424,-0.0149 -0.03915,0.0702 -0.03705,0.0496 0.003,-0.0291 0.02664,-0.052 0.03996,-0.078 -0.225814,0.31667 -0.444188,0.63992 -0.681998,0.94563 -0.556511,0.71542 -0.259734,0.49765 -0.560139,0.70681 -0.03812,0.2274 0.38663,-0.64174 0.319733,-0.46572 -0.247986,0.65252 -0.615296,1.25224 -1.065342,1.78269 0.218488,-0.55222 -0.01077,0.12198 -0.01921,0.17439 -0.02035,0.12642 -0.01759,0.25555 -0.03112,0.38288 -0.200808,0.90926 -0.540824,1.76066 -1.016963,2.55886 -0.07395,0.12398 -0.132511,0.26976 -0.250013,0.35363 -0.07877,0.0562 0.082,-0.17532 0.123002,-0.26298 0.04052,-0.12031 -0.0039,-0.38058 0.121566,-0.36093 0.124904,0.0196 -0.07971,0.24016 -0.111641,0.36249 -0.01,0.0383 0.02944,0.10692 0.02323,0.14826 -0.03251,0.21591 -0.07626,0.42998 -0.114392,0.64497 -0.190204,0.8587 -0.344072,1.67945 -0.680881,2.50549 -0.140981,0.19009 -0.532731,1.52724 -0.382535,0.71033 0.0133,-0.53198 0.115289,-0.068 0.11966,0.11365 0.01657,0.68864 -0.0078,0.82365 -0.05803,1.4447 -0.03843,0.49397 -0.182762,0.97324 -0.231024,1.46536 0.01298,0.46564 0.0565,0.93016 0.07545,1.39595 0.0023,0.1095 0.04341,0.43174 0.0068,0.32851 -0.04241,-0.11955 -0.01369,-0.25338 -0.02496,-0.37973 -0.0078,-0.0878 -0.06408,-0.33416 0.02056,-0.0715 0.0815,0.25291 0.208312,0.73375 0.0089,-0.003 0.379112,0.74696 0.446566,1.17027 0.800898,1.98838 0.156548,0.28705 0.122039,0.6322 0.243379,0.92813 0.03524,0.0859 -0.03971,-0.18738 -0.01916,-0.27795 0.0071,-0.0311 0.07365,0.1 0.06661,0.0689 -0.06524,-0.28837 -0.225828,-0.37757 -0.0745,-0.28128 0.562017,0.71041 0.89762,1.62886 1.14871,2.37464 0.04601,0.17355 0.08389,0.34946 0.13802,0.52065 0.03776,0.11942 -0.204711,-0.41258 -0.08883,-0.36508 0.132839,0.0545 0.118758,0.26179 0.166851,0.39707 0.06299,0.17717 0.07215,0.70205 0.166003,0.53912 0.744259,-1.29206 -0.365536,-0.41139 -0.100283,-0.61756 0.06949,0.10866 0.12536,0.22734 0.208455,0.32599 0.02923,0.0347 -0.0768,-0.15915 -0.04271,-0.12922 0.292301,0.25664 0.555659,0.90867 0.733052,1.25405 0.09155,0.25119 0.183097,0.50239 0.274648,0.75359 -0.01561,-0.0629 -0.09352,-0.23347 -0.04681,-0.1886 0.06363,0.0611 0.04864,0.17468 0.103913,0.24345 0.02315,0.0288 -0.02048,-0.13969 0.0026,-0.11087 0.134919,0.16802 0.341921,0.75586 0.393954,0.88839 -0.008,-0.26813 -0.0096,-0.0113 0.209101,0.41941 0.0095,0.0187 -0.0037,-0.0796 0.0085,-0.0625 0.05335,0.0746 0.161044,0.32968 0.122838,0.24628 -0.320919,-0.70056 -0.332081,-0.41651 -0.307888,-0.72721 -0.0712,-0.0937 -0.252166,-0.1699 -0.213609,-0.28108 0.03329,-0.096 0.158787,0.13044 0.251196,0.17269 0.02392,0.0109 -0.05644,-0.0808 -0.03156,-0.0723 0.461547,0.15741 0.888857,0.58643 1.255911,0.88458 0.32408,0.15252 0.571265,0.42051 0.859047,0.62444 0.04331,0.0307 0.104042,0.0323 0.144835,0.0662 1.186582,0.98812 0.06785,0.13525 0.486879,0.45229 -0.07551,-0.28706 0.326239,0.38802 0.451387,0.26617 0.02828,-0.0275 -0.06039,-0.12972 -0.02334,-0.11612 0.243314,0.0893 0.796849,0.57125 0.932532,0.6859 0.04759,0.0394 0.185039,0.16321 0.142767,0.11817 -0.138301,-0.14737 -0.362945,-0.23577 -0.431538,-0.42587 -0.04316,-0.11961 0.221715,0.12643 0.340175,0.17266 0.155831,0.0608 0.0607,-0.0652 0.0421,-0.10602 0.188482,0.10128 0.37696,0.20257 0.565439,0.30386 0.719251,0.36349 0.08558,0.0121 1.336728,1.17283 0.04717,0.0438 0.09664,0.12209 0.15957,0.10864 0.0455,-0.01 -0.06856,-0.15854 -0.02738,-0.13688 0.452088,0.23773 0.16814,0.34821 0.349969,0.2682 -0.469828,-0.56443 -0.06371,-0.032 0.08576,-0.045 0.02758,-0.002 -0.333534,-0.38148 -0.328874,-0.383 0.13005,-0.0425 0.263697,0.0736 0.397306,0.103 0.08799,0.0194 0.177882,0.0289 0.266824,0.0434 0.430128,-2.7e-4 -0.02032,-0.0209 0.754767,0.20754 0.171688,0.10183 0.372707,0.0189 0.551217,0.068 0.315767,0.0868 0.615214,0.2247 0.923536,0.33508 0.107161,0.0798 0.204065,-0.0858 0.303416,-0.0586 0.663718,0.18174 1.257922,0.55727 1.923113,0.72431 -0.01349,-0.31892 0.540443,0.14673 0.716487,0.16565 0.0085,7.9e-4 0.08712,-0.13219 0.0883,-0.13338 0.0336,-0.0342 0.0754,-0.0592 0.113094,-0.0887 -0.577321,-0.007 -1.154631,-0.0154 -1.731963,-0.0218 -0.09247,-0.001 0.184896,0.005 0.277368,0.006 0.102471,8e-4 0.205402,-0.0109 0.307417,-0.001 1.062162,0.1006 2.135539,0.13162 3.183493,0.33186 0.29323,0.056 0.519663,0.29467 0.787326,0.42688 0.100743,0.0498 0.21051,0.0787 0.315767,0.11797 0.142341,0.25541 0.411213,-0.21768 0.269319,-0.23058 -3.023748,-0.27489 -2.384803,-0.15086 -1.710179,-0.009 0.07328,0.003 0.146756,0.0153 0.219853,0.009 0.259194,-0.0215 0.513792,-0.082 0.771977,-0.11337 1.144032,-0.13906 1.732656,-0.0959 3.255293,0.006 0.226336,0.0151 0.437201,0.12118 0.655802,0.18177 0.06894,0.014 0.693751,0.14478 0.808678,0.15362 0.02087,0.002 0.481065,-0.0271 0.512802,-0.0297 0.06948,-0.006 0.277699,-0.0203 0.207999,-0.0218 -0.593346,-0.0124 -1.186926,-0.007 -1.780389,-0.011 1.282917,-0.57646 2.53346,0.27751 3.790847,0.28252 0.185563,7.9e-4 0.369927,-0.0302 0.555157,-0.0414 0.102743,-0.0129 0.411726,-0.0355 0.308226,-0.0388 -0.54732,-0.0173 -1.095232,-0.0108 -1.642774,-0.003 -0.497126,0.007 0.42717,0.0138 0.624163,0.0389 3.497627,0.44642 2.325552,-0.13647 4.028278,0.93288 0.659411,0.56096 0.31745,0.15389 0.250315,-0.13829 -0.01061,-0.0461 0.0408,-0.13724 -0.0063,-0.14189 -0.608579,-0.0601 -1.222785,-0.0265 -1.834179,-0.0398 0.680178,0.0934 1.35586,-0.0849 2.032871,-0.14406 1.248801,-0.16946 2.498619,0.0939 3.744475,0.0839 -0.760634,0.0316 -1.521266,0.0632 -2.281901,0.0949 -0.01754,0.022 -0.03507,0.0441 -0.0526,0.0662 0.0625,-0.0147 0.221102,-0.0987 0.187513,-0.044 -0.06886,0.11215 -0.263311,0.12114 -0.310359,0.24405 -0.05434,0.14194 0.259662,-0.15885 0.396039,-0.22594 0.125347,-0.0776 0.248404,-0.15903 0.376042,-0.2328 0.905206,-0.52321 0.268224,-0.0943 0.876477,-0.39198 0.167458,-0.082 0.590153,-0.41594 0.498536,-0.25357 -0.140663,0.24929 -0.442153,0.36364 -0.663228,0.54546 -0.0258,0.0385 -0.05357,0.0758 -0.07737,0.11559 -0.100688,0.16836 0.252441,-0.30053 0.385675,-0.44451 0.360984,-0.39011 0.722939,-0.70722 1.138922,-1.03352 0.203883,-0.12737 0.407763,-0.25475 0.611643,-0.38213 0.05083,-0.0117 0.10418,-0.0155 0.152501,-0.0352 0.119554,-0.0487 0.221072,-0.18897 0.348543,-0.16869 0.08588,0.0137 -0.143407,0.11449 -0.171143,0.19691 -0.01413,0.042 0.08159,-0.0347 0.122378,-0.052 -0.128553,0.15795 -0.257106,0.3159 -0.38566,0.47386 0.03759,-0.0392 0.133821,-0.16773 0.112761,-0.11766 -0.0592,0.14076 -0.147405,0.26774 -0.229929,0.39623 -0.01945,0.0303 0.07272,-0.11498 0.03987,-0.10031 -0.0375,0.0168 -0.03887,0.0724 -0.05831,0.10854 0.08327,-0.18399 0.166542,-0.36797 0.249811,-0.55196 -0.0066,0.002 -0.01323,0.005 -0.01987,0.007 -0.0092,0.0137 -0.0329,0.0567 -0.02752,0.0411 0.214128,-0.62059 0.548566,-1.35978 0.855316,-1.90584 0.106273,-0.18918 0.260795,-0.34687 0.391192,-0.52031 0.382593,-0.39628 0.175003,-0.21705 0.0048,0.19142 -0.170963,0.41038 -0.18252,0.57536 -0.0736,0.0207 0.06898,-0.65919 0.142502,-1.31697 0.296177,-1.9679 0.176617,-0.84429 0.409548,-1.65494 0.674796,-2.475 0.509527,-0.89748 0.261027,-0.46037 0.535538,-1.05853 -0.01397,0.0264 -0.04299,0.10894 -0.04187,0.0791 0.0266,-0.70823 0.149646,-1.43253 0.296564,-2.12301 0.120507,-0.38891 0.143941,-0.50714 0.284289,-0.84152 0.0072,-0.0171 0.02992,-0.0653 0.03005,-0.0468 0.0011,0.16082 -0.157216,1.14891 0.01162,-0.30778 0.07366,-0.35417 0.128307,-0.70736 0.125616,-1.06881 -0.01942,-0.50637 -0.04624,-1.01224 -0.05818,-1.5189 0.04907,0.21459 -0.05462,-0.82462 -0.0024,-0.62349 0.03516,0.13509 0.02944,0.27823 0.02818,0.41781 -1.01e-4,0.0111 -0.02737,0.0192 -0.03203,0.009 -0.0657,-0.14199 -0.156495,-0.562 -0.182546,-0.66973 -0.121764,-0.0395 -0.21989,-0.63823 -0.243925,-0.68105 -0.08539,-0.15216 0.02008,0.30593 -0.106124,0.20223 -0.08792,-0.0722 -0.132186,-0.18528 -0.198279,-0.27792 -0.440222,-0.57455 -0.726956,-1.24317 -0.921673,-1.93667 -0.03677,-0.13096 -0.180399,-0.50916 -0.109353,-0.39315 0.175199,0.28606 0.284496,0.60759 0.426741,0.91138 0.07989,0.11077 0.146119,0.23281 0.239665,0.33232 0.173691,0.18476 0.804744,0.57687 0.558422,0.51663 -0.47928,-0.11723 -1.569117,-1.30946 -1.945296,-1.77748 0.03091,0.0785 0.176292,0.22423 0.09271,0.23534 -0.107323,0.0143 -0.150593,-0.15919 -0.243165,-0.21533 -0.02056,-0.0125 0.02363,0.0888 0.0066,0.0718 -0.517859,-0.51395 -0.84341,-0.94668 -1.224585,-1.55164 -0.01416,-0.0159 -0.05076,-0.0673 -0.04246,-0.0477 0.05664,0.13375 0.115602,0.26724 0.188593,0.39282 0.07431,0.12785 0.394671,0.40391 0.25197,0.36513 -0.276315,-0.0751 -1.126871,-0.94973 -1.318622,-1.15378 0.0054,0.0357 0.01077,0.0715 0.01617,0.10722 0.0615,0.0839 0.162618,0.15002 0.184515,0.25173 0.0093,0.0431 -0.08893,5.3e-4 -0.132125,-0.008 -0.105005,-0.0219 -0.205481,-0.0629 -0.310639,-0.084 -0.561168,-0.11298 0.244469,0.17492 -0.694143,-0.2246 -0.58122,-0.18503 -1.085693,-0.59238 -1.549434,-0.9804 -0.162367,-0.13585 -0.299998,-0.30148 -0.471842,-0.42513 -0.02146,-0.0155 -0.04776,0.0227 -0.07163,0.0341 -0.118594,-0.0987 -0.237191,-0.19732 -0.355785,-0.29597 -0.03185,-0.0151 -0.111638,-0.0764 -0.09554,-0.0451 0.03812,0.0741 0.153832,0.10332 0.167717,0.18552 0.0083,0.0488 -0.09717,-0.0583 -0.1431,-0.0398 -0.02794,0.0113 0.05862,0.0972 0.03119,0.0848 -0.639918,-0.29006 -0.350636,-0.42259 -0.611838,-0.28027 0.0031,0.0316 0.03924,0.10482 0.0092,0.0947 -0.266596,-0.0901 -1.143153,-0.63294 -1.305512,-0.71116 -0.107243,-0.0517 -0.238001,-0.0422 -0.343717,-0.0969 -1.365901,-0.70697 -0.0484,-0.1764 -0.86818,-0.49185 -0.968648,-0.61337 -1.801858,-1.38327 -2.334922,-2.41156 -0.449429,0.0129 1.104183,1.07492 0.715881,0.9707 -0.290158,-0.0779 -0.473012,-0.37054 -0.711661,-0.55303 -0.08442,-0.0645 -0.181284,-0.11394 -0.257471,-0.18803 -0.177205,-0.17233 -0.312738,-0.38615 -0.499475,-0.5481 -0.0358,-0.0311 0.01879,0.0929 0.02816,0.13935 -0.05287,-0.0186 -0.134665,-0.10633 -0.158623,-0.0557 -0.03347,0.0708 0.15389,0.24819 0.08064,0.22057 -0.533614,-0.20116 -0.863478,-0.74444 -1.440897,-0.86204 -0.489079,-0.1635 -0.671687,-0.68527 -1.061265,-0.96088 -0.04561,-0.0323 0.119296,0.1699 0.06567,0.15422 -0.111085,-0.0325 -0.157072,-0.21369 -0.272801,-0.21478 -0.08646,-8.2e-4 0.09811,0.1424 0.147169,0.2136 -0.06882,-0.018 -0.137634,-0.0359 -0.206449,-0.0539 -0.02728,0.0123 -0.05495,0.0499 -0.08183,0.0368 -0.265163,-0.12936 -0.502221,-0.31058 -0.762828,-0.4489 -0.767718,-0.40746 0.01974,0.0442 -0.515329,-0.15783 -0.558583,-0.21091 -0.218358,-0.20997 -0.573953,-0.18131 -0.298807,0.0297 -0.471315,-0.36162 -0.75279,-0.39711 -0.291158,-0.0367 0.46281,0.33967 0.109265,0.23258 -0.400764,-0.12139 -0.925494,-0.40443 -1.317201,-0.60487 -0.0887,-0.039 -0.17326,-0.0893 -0.2661,-0.11711 -0.02655,-0.008 -0.05477,0.009 -0.08215,0.0129 0.0191,0.0332 0.09362,0.1117 0.05731,0.0995 -0.05371,-0.018 -0.520726,-0.41036 -0.642861,-0.17494 -0.0064,0.0257 0.007,0.0809 -0.01918,0.0771 -0.398232,-0.0574 -0.944144,-0.43198 -1.357037,-0.23761 -0.02373,0.0169 -0.04286,0.0575 -0.07124,0.0508 -0.342363,-0.081 -0.883336,-0.40643 -1.273885,-0.37059 -0.04623,0.004 -0.07826,0.0514 -0.121705,0.0678 -0.05868,0.0221 -0.121481,0.0312 -0.182221,0.0469 -0.747641,0.17648 -1.466972,-0.2373 -2.189224,-0.39042 -0.100713,-0.15097 -0.0975,0.0837 -0.144769,0.0611 -1.33744,-0.63862 -1.008359,-0.46135 -1.917216,-1.22622 -0.06604,-0.0556 -0.115282,-0.1531 -0.200999,-0.16326 -0.05708,-0.007 0.05715,0.0997 0.08573,0.14961 0.82115,0.91527 -0.258403,-0.42471 -0.03401,0.20695 0.04855,0.13666 0.05484,0.18394 -0.0431,0.28878 -0.309803,0.0689 -1.151014,-0.51051 -1.444654,-0.41831 -0.01974,0.006 -0.04664,0.10692 -0.04939,0.11562 -0.423937,-0.2117 -0.852086,-0.41516 -1.271813,-0.63508 -0.08384,-0.0439 -0.99777,-0.6988 -0.593487,-0.0395 0.252439,0.69291 2.762144,0.14155 1.921074,0.0604 -0.216832,-0.0209 -0.23648,0.0429 -0.477107,0.0489 -0.939906,0.0235 -1.880251,0.0235 -2.820374,0.0353 -0.742148,-0.26172 -0.912948,-0.57711 -1.556007,-0.25093 -0.868878,0.33849 -0.167806,0.0521 2.266183,-0.16194 -0.495686,0.23356 -3.79866,-6.77653 -3.302971,-7.01008 v 0 c 3.052995,-0.34298 1.926418,-0.42723 3.37816,-0.27289 0.513427,0.0919 1.002356,0.2026 1.493869,0.3806 0.122463,0.0444 0.241745,0.0971 0.363223,0.14405 0.04924,0.019 0.194199,0.0811 0.148889,0.054 -0.131096,-0.0784 -0.271912,-0.13929 -0.407868,-0.20894 -0.798436,0.0224 -1.596644,0.0553 -2.395302,0.0673 -0.0818,0.001 0.162517,-0.0199 0.242916,-0.035 0.116909,-0.022 0.23249,-0.0506 0.348628,-0.0763 1.198468,-0.26589 2.468502,-0.33167 3.66467,-0.0299 0.658858,0.20889 1.249736,0.4413 1.845101,0.79579 0.120428,0.0717 0.482992,0.28422 0.358889,0.21909 -0.288483,-0.1514 -0.579631,-0.29767 -0.869445,-0.44651 0.19622,0.0424 1.156039,0.34285 1.310582,0.30117 0.05112,-0.0138 -0.01979,-0.18851 -0.0417,-0.15326 1.101963,0.18009 2.120998,0.56385 3.021473,1.1909 0.156816,0.12873 0.312637,0.25868 0.470448,0.38619 0.04911,0.0397 0.192717,0.16209 0.150262,0.11535 -0.0934,-0.10283 -0.187508,-0.20948 -0.304207,-0.28483 -0.279062,-0.18019 -0.627036,-0.25578 -0.875141,-0.47665 -0.02048,-0.0182 0.817345,0.17613 0.828873,0.17877 0.13212,0.0255 0.349557,0.0819 0.49815,0.0679 0.03514,-0.003 0.07501,-0.0121 0.09877,-0.0382 0.01677,-0.0184 -0.0209,-0.0726 0.0039,-0.0747 0.198054,-0.0164 0.808728,0.0791 0.993524,0.10455 0.806863,0.17729 0.236193,0.0346 1.029292,0.27863 0.0935,0.0288 0.186876,0.0589 0.282533,0.0794 0.03032,0.006 0.113168,0.0246 0.09302,9.8e-4 -0.0553,-0.0647 -0.295097,-0.11947 -0.212788,-0.14113 0.155633,-0.041 0.318317,0.0477 0.477475,0.0715 0.421042,0.0874 0.83298,0.19979 1.251587,0.29589 0.07143,0.0164 0.144183,0.0264 0.216271,0.0395 0.0075,-0.0127 0.008,-0.0409 0.02238,-0.038 0.176281,0.0348 0.346141,0.0965 0.51921,0.14477 0.156856,0.0569 0.314743,0.11111 0.470564,0.17082 0.116155,0.0445 0.22211,0.1238 0.345199,0.14175 0.04038,0.006 -0.108341,-0.1106 -0.06858,-0.10141 0.463939,0.10723 0.871987,0.38795 1.321242,0.53623 0.02487,-0.004 0.09182,0.008 0.0746,-0.0108 -0.06148,-0.0653 -0.313071,-0.16167 -0.224414,-0.14829 0.653814,0.0987 1.183375,0.55931 1.837084,0.63444 0.302649,0.14538 0.613847,0.27261 0.915643,0.41975 0.306936,0.14965 0.580184,0.36525 0.893369,0.50134 0.06479,0.0282 -0.109347,-0.0895 -0.164023,-0.13419 0.169375,0.0768 0.338751,0.15361 0.508127,0.23041 0.726929,0.36688 -0.01275,-0.0249 1.026779,0.62966 0.06036,0.038 0.135154,0.051 0.192521,0.0934 0.207058,0.15296 0.390988,0.33556 0.597027,0.48989 0.03806,0.0285 0.122404,0.10239 0.13135,0.0557 0.01201,-0.0627 -0.07489,-0.1033 -0.112337,-0.15495 0.178861,0.10948 0.357722,0.21897 0.53658,0.32846 0.123847,0.085 0.244835,0.17442 0.371539,0.25515 0.09145,0.0583 0.183451,0.11709 0.282376,0.16148 0.0127,0.006 0.02611,-0.0255 0.03776,-0.0178 0.632484,0.41541 0.657427,0.45512 1.13175,0.8589 0.16405,0.16755 0.3281,0.3351 0.492149,0.50265 -0.03856,-0.0534 -0.178808,-0.14135 -0.115694,-0.16017 0.07278,-0.0217 0.235328,0.19197 0.178668,0.14139 -0.0994,-0.0887 -0.411322,-0.33887 -0.307025,-0.25595 0.271568,0.21589 0.56317,0.41002 0.808886,0.65493 0.219776,0.21906 0.386197,0.48582 0.579295,0.72872 0.250195,0.13884 -0.125577,-0.0516 -0.122484,-0.3045 0.0011,-0.0779 0.130853,0.0912 0.206637,0.10942 0.02537,0.006 0.04301,-0.0295 0.06452,-0.0443 0.125928,0.0735 0.251857,0.14697 0.377788,0.22045 0.06736,0.0368 0.138448,0.0663 0.207671,0.0995 0.266605,0.16544 0.547429,0.30754 0.81134,0.47724 1.584449,1.01884 -0.850487,-0.42367 0.799264,0.41093 0.129188,0.0689 0.258373,0.13787 0.387561,0.2068 -0.05089,-0.0477 -0.220551,-0.15894 -0.152656,-0.14303 0.176413,0.0413 0.330636,0.14833 0.495556,0.22338 0.472824,0.21516 0.906085,0.49797 1.331185,0.79547 0.433044,0.20834 -0.04835,-0.04 0.706443,0.51206 0.02103,0.0154 0.05163,0.008 0.07652,0.016 0.04935,0.0153 0.139287,0.10407 0.145706,0.0528 0.008,-0.0641 -0.199388,-0.14242 -0.134925,-0.13894 0.145272,0.008 0.272323,0.10249 0.408483,0.15373 1.031004,0.33416 1.976956,0.94108 2.743962,1.70004 -0.02114,-0.0402 -0.106426,-0.13492 -0.06342,-0.12044 0.0993,0.0334 0.161724,0.13569 0.254334,0.18469 0.03351,0.0177 -0.101444,-0.11186 -0.07187,-0.0881 0.61456,0.49273 1.146503,1.00103 1.562936,1.67662 -0.03595,-0.0679 -0.136298,-0.13228 -0.10785,-0.20362 0.02326,-0.0583 0.17186,0.18099 0.13793,0.12819 -0.06705,-0.10435 -0.351787,-0.33666 -0.238882,-0.28531 0.359556,0.16353 0.987931,0.92996 1.217594,1.17068 -0.01037,-0.0231 -0.05003,-0.0861 -0.03115,-0.0692 0.08465,0.0755 0.343786,0.22762 0.232322,0.24865 -0.113503,0.0214 -0.155625,-0.17158 -0.243504,-0.24654 -0.145602,-0.12419 -0.61605,-0.45361 -0.455403,-0.34961 0.948042,0.61376 0.775123,0.50363 1.451874,1.20145 0.443061,0.76187 0.869273,1.46295 1.345327,2.18362 0.593037,0.93437 0.954389,1.96472 1.214276,3.03554 0.14214,0.71654 0.343456,1.43391 0.301824,2.17173 0.01648,0.5728 0.08152,1.14276 0.09039,1.71594 -0.0062,0.75686 -0.03748,1.53835 -0.289597,2.25926 -0.0043,-0.0586 -0.0024,-0.23377 -0.01299,-0.17592 -0.03358,0.18516 -0.03044,0.37536 -0.05696,0.56167 -0.03811,0.26772 -0.188849,0.65141 -0.191749,0.93275 -1.53e-4,0.015 0.01188,-0.0275 0.01783,-0.0413 0.06677,-0.21396 0.04348,-0.15787 -0.01053,0.42506 -0.03654,0.39427 -0.125281,0.76922 -0.192501,1.15732 -0.04309,0.24877 -0.07983,0.49859 -0.119742,0.74788 -0.159801,0.66418 -0.520359,1.90707 -0.938385,2.43069 -0.04355,0.0546 0.03699,-0.13461 0.05548,-0.20191 0.03418,-0.18139 0.0095,-0.38476 0.102542,-0.54418 0.08975,-0.15378 -0.05528,0.35196 -0.09203,0.52618 -0.02688,0.12743 -0.148309,0.62455 -0.22493,0.77818 -0.0149,0.0299 0.0056,-0.13286 -7.94e-4,-0.1001 -0.0236,0.12187 -0.0342,0.24591 -0.0513,0.36887 -0.107513,0.64413 -0.190555,1.28551 -0.287274,1.93436 -0.230045,1.14338 -0.591457,2.21138 -1.400167,3.07323 0.119732,-0.30234 0.195752,-0.62157 0.32671,-0.91922 0.0643,-0.14615 -0.085,0.30788 -0.132598,0.46029 -0.09929,0.31794 -0.297575,0.61528 -0.343538,0.94915 -0.08305,0.1749 -0.166103,0.3498 -0.249153,0.5247 0.0063,-0.0458 0.04099,-0.17815 0.01884,-0.13753 -0.285003,0.52251 -0.464703,1.11593 -0.873611,1.56943 -0.482965,0.57661 -0.866569,1.05353 -1.526514,1.4203 -0.134429,0.0747 -0.247753,0.19223 -0.393811,0.2404 -0.03582,0.0118 0.0049,-0.0753 0.0073,-0.11294 -0.02875,-0.0108 -0.09469,-0.003 -0.08624,-0.0325 0.03594,-0.12554 0.322329,-0.35966 0.193112,-0.34083 -0.154464,0.0225 -0.18768,0.25189 -0.303205,0.35687 -0.01923,0.0175 0.01561,-0.0951 -0.0038,-0.0779 -0.254442,0.22545 -0.403228,0.55514 -0.677569,0.76223 -0.329928,0.26926 -0.659855,0.53851 -0.989782,0.80777 0.104761,-0.13038 0.1495,-0.15808 -0.0839,-0.0149 -0.147135,0.0903 -0.278995,0.20725 -0.435269,0.28058 -0.06709,0.0315 -0.01426,-0.49589 -0.222252,0.006 -0.139354,0.0843 -0.278707,0.16857 -0.418063,0.25286 -0.06895,0.0263 -0.14306,0.0419 -0.206862,0.079 -0.256117,0.14904 -0.489524,0.3359 -0.749765,0.47761 -0.103119,0.0562 -0.223155,0.0732 -0.333817,0.11243 -1.488525,0.52784 -0.121426,0.17748 -3.346458,0.38312 -0.261874,-0.0166 -0.524529,-0.0377 -0.787199,-0.0318 -0.07171,0.002 -0.286562,0.01 -0.214858,0.0117 2.02995,0.0462 2.289337,0.0773 1.543982,0.004 -0.219324,-0.0172 -0.463185,-0.0537 -0.682467,-0.0288 -0.452884,0.0514 -0.891174,0.22454 -1.348872,0.25056 -0.87154,-0.005 -1.744549,0.035 -2.614618,-0.0159 -0.25877,-0.0151 -0.507545,-0.1081 -0.756221,-0.18126 -0.849985,-0.25006 -1.243637,-0.53068 -1.96809,-0.98947 -0.0235,-0.0149 -0.05366,-0.0146 -0.08049,-0.022 1.086456,0.80163 0.01508,0.096 3.056686,0.51843 0.124627,0.0173 -0.249375,0.0338 -0.37438,0.0481 -0.146587,0.0168 -0.292799,0.0426 -0.440322,0.0452 -2.294554,0.0405 -1.72479,0.0779 -3.000796,-0.0455 -0.485436,-0.0548 -0.961554,-0.13805 -1.442871,-0.22051 -0.115313,-0.0198 -0.228822,-0.0525 -0.345411,-0.0623 -0.05269,-0.004 -0.210182,0.0185 -0.157334,0.0203 0.63509,0.0215 1.270643,0.0259 1.905966,0.0388 -0.819608,-10e-4 -1.639364,0.0116 -2.458821,-0.004 -0.839986,-0.0161 -1.64465,-0.29461 -2.46076,-0.4572 -0.658691,0.42107 -0.09318,0.0435 2.051696,0.023 0.08039,-8e-4 -0.160814,-0.002 -0.241189,2.6e-4 -0.352513,0.008 -0.704337,0.0248 -1.045186,0.12655 -1.94454,0.34547 -3.853249,0.14978 -5.578388,-0.78303 -0.102508,-0.0561 -0.191566,-0.18244 -0.30752,-0.16816 -0.09984,0.0123 0.145487,0.16313 0.245279,0.17582 0.87139,0.11083 1.754646,0.0993 2.62839,0.18966 0.129667,0.0134 -0.259086,0.0292 -0.388808,0.0421 -0.149437,0.0148 -0.298482,0.0391 -0.448641,0.0409 -0.817814,0.01 -1.635739,-0.004 -2.453608,-0.006 -0.543433,-0.10154 -1.048665,-0.24914 -1.580616,-0.38935 -0.07869,-0.0208 -0.161104,-0.0231 -0.241657,-0.0346 -0.05118,0.007 -0.103542,0.0335 -0.153532,0.0206 -0.234987,-0.0608 -0.458716,-0.15887 -0.688076,-0.23831 -0.03999,-0.0139 -0.760992,-0.26589 -0.854273,-0.2945 -0.07603,-0.0233 -0.154257,-0.0387 -0.231386,-0.0581 0.01304,0.0193 0.06204,0.0619 0.03913,0.0578 -0.377238,-0.0678 -0.760759,-0.21844 -1.120354,-0.34503 -0.09871,-0.0244 -0.197417,-0.0488 -0.296125,-0.0732 -0.04897,-0.001 -0.09922,0.008 -0.146923,-0.003 -0.466492,-0.10863 -0.832673,-0.28311 -1.285981,-0.33182 -0.16506,-0.0443 -0.338452,-0.0591 -0.499049,-0.11759 -0.747633,-0.27216 -1.428546,-0.65949 -2.065742,-1.12112 -0.395925,-0.3288 -0.662832,-0.52568 -1.025671,-0.91503 -0.0813,-0.0872 -0.319915,-0.35134 -0.227224,-0.27632 0.27282,0.22082 0.530871,0.4611 0.771364,0.71674 0.03306,0.0351 -0.09202,-0.029 -0.138033,-0.0435 0.05328,0.0455 0.227851,0.15358 0.159837,0.13663 -0.177834,-0.0443 -0.336516,-0.14537 -0.502946,-0.22209 -0.111901,-0.0516 -0.217924,-0.11593 -0.331883,-0.16279 -0.01693,-0.007 -0.03938,0.0137 -0.05477,0.004 -1.340496,-0.86326 -0.450374,-0.36237 -0.980858,-0.65693 0.05395,0.0645 0.245758,0.19866 0.161845,0.19345 -0.144769,-0.009 -0.251534,-0.14518 -0.382667,-0.20718 -0.05572,-0.0264 -0.123182,-0.0251 -0.175939,-0.0569 -0.435155,-0.26293 -0.831694,-0.57836 -1.204117,-0.9226 -0.108405,-0.0809 -0.21681,-0.16173 -0.325215,-0.2426 -0.03136,-0.005 -0.06774,0.002 -0.09407,-0.0163 -0.423408,-0.28737 -0.796145,-0.65418 -1.204887,-0.96093 0.127203,0.20976 -0.258897,-0.10499 -0.501998,-0.23835 -0.04896,-0.0268 -0.110161,-0.0297 -0.15548,-0.0624 -0.230839,-0.16616 -0.445496,-0.35372 -0.668244,-0.53059 -0.815213,-0.80746 -1.317183,-1.7446 -1.718345,-2.79653 0.176464,0.3554 -0.882538,-2.0991 -0.282738,-0.68828 0.100642,0.28991 -0.02229,-0.09 -0.186955,-0.24417 -0.07024,-0.0658 0.124942,0.16227 0.128659,0.25842 0.0022,0.0564 -0.08807,-0.0719 -0.123156,-0.11603 -0.175173,-0.22052 -0.329592,-0.45687 -0.502259,-0.67938 -0.475109,-0.7861 -0.280737,-0.40128 -0.723016,-1.56835 -0.0055,-0.0146 0.01531,0.0301 0.02961,0.0364 0.225464,0.0999 -0.139832,-0.47321 -0.222452,-0.70556 -0.01733,-0.0488 0.02831,0.0995 0.04246,0.1493 -0.07885,-0.15415 -0.116343,-0.32746 -0.197428,-0.48044 -0.05371,-0.10134 0.07729,0.21597 0.115941,0.32396 0.0067,0.0275 0.03934,0.10324 0.02013,0.0825 -0.06808,-0.0736 -0.117618,-0.33099 -0.172052,-0.24677 -0.0561,0.0868 0.106576,0.17709 0.159863,0.26563 -0.766075,-0.86065 -1.256582,-1.85243 -1.50544,-2.97833 -0.03445,-0.12929 -0.08102,-0.25595 -0.103352,-0.38788 -0.007,-0.0412 0.07301,0.15049 0.05664,0.11199 -0.111386,-0.26213 -0.337528,-0.69121 -0.30383,-0.80168 -0.332735,-0.85684 -0.693182,-1.73408 -0.661901,-2.67436 -1.04e-4,-0.51583 -0.0687,-1.02649 -0.09727,-1.5411 -0.02242,-0.84775 0.0045,-1.70413 0.227977,-2.52772 0.156429,-0.23349 -0.05737,0.0434 0.09599,0.20629 0.06202,0.0658 -0.0085,-0.18073 -0.01241,-0.27111 -0.02,-0.46644 -0.0365,-0.93377 0.02086,-1.39896 0.124916,-0.76814 0.254235,-1.52369 0.484434,-2.26653 0.08976,-0.2257 0.231428,-0.61815 0.284866,-0.61547 0.07322,0.004 0.0085,0.2814 0.04154,0.21597 0.133901,-0.26491 0.03429,-0.62756 0.203001,-0.88603 -0.03315,0.39256 0.01903,-0.2332 0.04239,-0.40151 0.09083,-0.65439 0.299944,-1.28132 0.478846,-1.91483 0.110543,-0.23515 0.219653,-0.47097 0.33163,-0.70544 0.0082,-0.0172 0.03348,-0.0677 0.02881,-0.0493 -0.01577,0.0623 -0.0876,0.24149 -0.06251,0.18234 0.140623,-0.33143 0.158986,-0.49683 0.196088,-0.45429 0.04571,0.0524 -0.0096,0.13875 -0.01447,0.20813 0.204236,-1.28171 0.599086,-2.52708 1.243762,-3.65937 0.06212,-0.0911 0.124234,-0.18213 0.186351,-0.2732 0.01703,0.002 0.04013,0.018 0.0511,0.005 0.08626,-0.10335 0.12634,-0.24373 0.224863,-0.33546 0.02252,-0.021 0.04704,0.092 0.06412,0.0664 0.147638,-0.22119 0.243372,-0.47291 0.365058,-0.70937 0.140873,-0.19286 0.281745,-0.38572 0.422618,-0.57859 0.09117,-0.11124 0.511049,-0.64033 -0.113652,0.25189 -0.05442,0.0777 0.08515,-0.16976 0.133345,-0.25149 0.01473,-0.025 -0.02174,0.0538 -0.03261,0.0806 0.0747,-0.15424 0.149395,-0.30849 0.224092,-0.46273 0.04024,-0.0762 0.0908,-0.14657 0.136196,-0.21986 0.42154,-0.69386 0.782593,-1.16405 1.363221,-1.73755 0.06051,-0.0598 0.18322,-0.24378 0.198644,-0.16014 0.02071,0.11232 -0.264997,0.36401 -0.173709,0.29536 0.140135,-0.10538 0.218593,-0.2742 0.327889,-0.4113 0.359264,-0.25509 -0.298156,0.22371 0.491998,-0.49576 0.0384,-0.035 0.103566,-0.0273 0.143622,-0.0604 0.290462,-0.23967 0.517913,-0.55125 0.816263,-0.78102 0.04155,-0.032 -0.05547,0.089 -0.08321,0.13355 0.285078,-0.27073 0.560306,-0.57643 0.855726,-0.83151 0.07353,-0.0635 0.167492,-0.0994 0.244486,-0.15864 0.754261,-0.58038 0.36803,-0.47928 0.822933,-0.56608 0.592889,-0.28407 1.07409,-0.73465 1.663687,-1.02487 0.04131,-0.0203 0.09459,-0.003 0.136401,-0.0218 0.111712,-0.0516 0.211854,-0.12518 0.31778,-0.18777 0.70204,-0.5188 1.412161,-0.97558 2.248316,-1.2247 1.817793,-1.02731 -0.192895,0.0241 0.994232,-0.42578 0.242906,-0.0921 0.457261,-0.25328 0.704332,-0.33348 0.173667,-0.0564 -0.235974,0.63407 -0.180912,0.21553 0.01484,-0.11282 0.151739,-0.16962 0.227611,-0.25444 0.988049,-0.83348 1.947719,-1.83643 3.266667,-2.09385 0.371139,-0.41957 6.304777,4.82913 5.933638,5.2487 z"
       inkscape:connector-curvature="0"
       style="stroke-width:0.26458332" />
  </g>
</svg>
